%TF.GenerationSoftware,KiCad,Pcbnew,5.1.6*%
%TF.CreationDate,2020-07-22T01:26:14-03:00*%
%TF.ProjectId,pwm_seno,70776d5f-7365-46e6-9f2e-6b696361645f,1*%
%TF.SameCoordinates,Original*%
%TF.FileFunction,Copper,L1,Top*%
%TF.FilePolarity,Positive*%
%FSLAX46Y46*%
G04 Gerber Fmt 4.6, Leading zero omitted, Abs format (unit mm)*
G04 Created by KiCad (PCBNEW 5.1.6) date 2020-07-22 01:26:14*
%MOMM*%
%LPD*%
G01*
G04 APERTURE LIST*
%TA.AperFunction,ComponentPad*%
%ADD10R,4.000000X4.000000*%
%TD*%
%TA.AperFunction,ComponentPad*%
%ADD11C,4.000000*%
%TD*%
%TA.AperFunction,ComponentPad*%
%ADD12R,1.905000X2.400000*%
%TD*%
%TA.AperFunction,ComponentPad*%
%ADD13O,1.905000X2.400000*%
%TD*%
%TA.AperFunction,ComponentPad*%
%ADD14O,2.400000X1.600000*%
%TD*%
%TA.AperFunction,ComponentPad*%
%ADD15O,1.600000X2.400000*%
%TD*%
%TA.AperFunction,ComponentPad*%
%ADD16R,1.600000X2.400000*%
%TD*%
%TA.AperFunction,ComponentPad*%
%ADD17C,3.000000*%
%TD*%
%TA.AperFunction,ComponentPad*%
%ADD18R,3.000000X3.000000*%
%TD*%
%TA.AperFunction,ComponentPad*%
%ADD19O,1.800000X2.400000*%
%TD*%
%TA.AperFunction,ComponentPad*%
%ADD20C,2.400000*%
%TD*%
%TA.AperFunction,ComponentPad*%
%ADD21O,2.400000X2.400000*%
%TD*%
%TA.AperFunction,ComponentPad*%
%ADD22C,1.600000*%
%TD*%
%TA.AperFunction,ViaPad*%
%ADD23C,2.000000*%
%TD*%
%TA.AperFunction,Conductor*%
%ADD24C,0.800000*%
%TD*%
%TA.AperFunction,Conductor*%
%ADD25C,0.400000*%
%TD*%
G04 APERTURE END LIST*
D10*
%TO.P,C2,1*%
%TO.N,VCC*%
X87630000Y-88495001D03*
D11*
%TO.P,C2,2*%
%TO.N,GND*%
X97630000Y-88495001D03*
%TD*%
D12*
%TO.P,Q8,1*%
%TO.N,/NFET2*%
X153924000Y-107188000D03*
D13*
%TO.P,Q8,2*%
%TO.N,/L2*%
X151384000Y-107188000D03*
%TO.P,Q8,3*%
%TO.N,GND*%
X148844000Y-107188000D03*
%TD*%
D12*
%TO.P,Q6,1*%
%TO.N,/NFET1*%
X111760000Y-107188000D03*
D13*
%TO.P,Q6,2*%
%TO.N,/L1*%
X109220000Y-107188000D03*
%TO.P,Q6,3*%
%TO.N,GND*%
X106680000Y-107188000D03*
%TD*%
D14*
%TO.P,Q4,2*%
%TO.N,Net-(Q4-Pad2)*%
X76200000Y-80840000D03*
%TO.P,Q4,3*%
%TO.N,GND*%
X76200000Y-83380000D03*
%TO.P,Q4,1*%
%TO.N,/NFET1*%
X76200000Y-78300000D03*
%TD*%
D11*
%TO.P,C1,2*%
%TO.N,GND*%
X97630000Y-47630000D03*
D10*
%TO.P,C1,1*%
%TO.N,VCC*%
X87630000Y-47630000D03*
%TD*%
D15*
%TO.P,C4,2*%
%TO.N,/L2*%
X135392000Y-77216000D03*
D16*
%TO.P,C4,1*%
%TO.N,Net-(C4-Pad1)*%
X139192000Y-77216000D03*
%TD*%
D17*
%TO.P,J1,2*%
%TO.N,GND*%
X33020000Y-67310000D03*
D18*
%TO.P,J1,1*%
%TO.N,VCC*%
X33020000Y-62230000D03*
%TD*%
%TO.P,J2,1*%
%TO.N,/PWM1*%
X33020000Y-88900000D03*
D17*
%TO.P,J2,2*%
%TO.N,/PWM2*%
X33020000Y-83820000D03*
%TO.P,J2,3*%
%TO.N,GND*%
X33020000Y-78740000D03*
%TD*%
D18*
%TO.P,LS1,1*%
%TO.N,/L2*%
X160528000Y-65532000D03*
D17*
%TO.P,LS1,2*%
%TO.N,Net-(C4-Pad1)*%
X160528000Y-70612000D03*
%TD*%
D14*
%TO.P,Q1,1*%
%TO.N,/PFET1*%
X67310000Y-52510000D03*
%TO.P,Q1,3*%
%TO.N,GND*%
X67310000Y-57590000D03*
%TO.P,Q1,2*%
%TO.N,Net-(Q1-Pad2)*%
X67310000Y-55050000D03*
%TD*%
%TO.P,Q2,2*%
%TO.N,Net-(Q2-Pad2)*%
X76200000Y-55050000D03*
%TO.P,Q2,3*%
%TO.N,GND*%
X76200000Y-57590000D03*
%TO.P,Q2,1*%
%TO.N,/NFET2*%
X76200000Y-52510000D03*
%TD*%
%TO.P,Q3,1*%
%TO.N,/PFET2*%
X67310000Y-78300000D03*
%TO.P,Q3,3*%
%TO.N,GND*%
X67310000Y-83380000D03*
%TO.P,Q3,2*%
%TO.N,Net-(Q3-Pad2)*%
X67310000Y-80840000D03*
%TD*%
D13*
%TO.P,Q5,3*%
%TO.N,/L1*%
X111760000Y-28940000D03*
%TO.P,Q5,2*%
%TO.N,VCC*%
X109220000Y-28940000D03*
D12*
%TO.P,Q5,1*%
%TO.N,/PFET1*%
X106680000Y-28940000D03*
%TD*%
D13*
%TO.P,Q7,3*%
%TO.N,/L2*%
X153924000Y-28940000D03*
%TO.P,Q7,2*%
%TO.N,VCC*%
X151384000Y-28940000D03*
D12*
%TO.P,Q7,1*%
%TO.N,/PFET2*%
X148844000Y-28940000D03*
%TD*%
D19*
%TO.P,R1,2*%
%TO.N,/PWM1*%
X67310000Y-36430000D03*
%TO.P,R1,1*%
%TO.N,Net-(Q1-Pad2)*%
X67310000Y-46590000D03*
%TD*%
D20*
%TO.P,R2,1*%
%TO.N,VCC*%
X60960000Y-36830000D03*
D21*
%TO.P,R2,2*%
%TO.N,/PFET1*%
X60960000Y-57150000D03*
%TD*%
D22*
%TO.P,R3,1*%
%TO.N,Net-(Q2-Pad2)*%
X71755000Y-36430000D03*
D19*
%TO.P,R3,2*%
%TO.N,/PFET1*%
X71755000Y-46590000D03*
%TD*%
D21*
%TO.P,R4,2*%
%TO.N,/NFET2*%
X53340000Y-57150000D03*
D20*
%TO.P,R4,1*%
%TO.N,VCC*%
X53340000Y-36830000D03*
%TD*%
D19*
%TO.P,R5,2*%
%TO.N,/PWM2*%
X67310000Y-89300000D03*
%TO.P,R5,1*%
%TO.N,Net-(Q3-Pad2)*%
X67310000Y-99460000D03*
%TD*%
D20*
%TO.P,R6,1*%
%TO.N,VCC*%
X60960000Y-99060000D03*
D21*
%TO.P,R6,2*%
%TO.N,/PFET2*%
X60960000Y-78740000D03*
%TD*%
D19*
%TO.P,R7,1*%
%TO.N,Net-(Q4-Pad2)*%
X72390000Y-99460000D03*
%TO.P,R7,2*%
%TO.N,/PFET2*%
X72390000Y-89300000D03*
%TD*%
D21*
%TO.P,R8,2*%
%TO.N,/NFET1*%
X53340000Y-78740000D03*
D20*
%TO.P,R8,1*%
%TO.N,VCC*%
X53340000Y-99060000D03*
%TD*%
%TO.P,R9,1*%
%TO.N,Net-(C4-Pad1)*%
X139700000Y-66548000D03*
D21*
%TO.P,R9,2*%
%TO.N,/L1*%
X109220000Y-66548000D03*
%TD*%
D23*
%TO.N,/NFET2*%
X78740000Y-61595000D03*
X94488000Y-61468000D03*
X113792000Y-61976000D03*
X104648000Y-61976000D03*
%TO.N,/PFET2*%
X104648000Y-58928000D03*
X113792000Y-58928000D03*
%TD*%
D24*
%TO.N,/NFET2*%
X78740000Y-61595000D02*
X94361000Y-61595000D01*
X94361000Y-61595000D02*
X94488000Y-61468000D01*
X113792000Y-61976000D02*
X104648000Y-61976000D01*
%TO.N,/PFET2*%
X104648000Y-58928000D02*
X113792000Y-58928000D01*
%TD*%
D25*
%TO.N,GND*%
G36*
X165408000Y-111560000D02*
G01*
X23568000Y-111560000D01*
X23568000Y-107468682D01*
X25124000Y-107468682D01*
X25124000Y-107923318D01*
X25212696Y-108369219D01*
X25386677Y-108789248D01*
X25639260Y-109167264D01*
X25960736Y-109488740D01*
X26338752Y-109741323D01*
X26758781Y-109915304D01*
X27204682Y-110004000D01*
X27659318Y-110004000D01*
X28105219Y-109915304D01*
X28525248Y-109741323D01*
X28903264Y-109488740D01*
X29224740Y-109167264D01*
X29477323Y-108789248D01*
X29651304Y-108369219D01*
X29740000Y-107923318D01*
X29740000Y-107468682D01*
X29694910Y-107242000D01*
X105019500Y-107242000D01*
X105019500Y-107489500D01*
X105061941Y-107812410D01*
X105166563Y-108120835D01*
X105329345Y-108402923D01*
X105544032Y-108647834D01*
X105802374Y-108846156D01*
X106094443Y-108990267D01*
X106367043Y-109066242D01*
X106626000Y-108918017D01*
X106626000Y-107242000D01*
X105019500Y-107242000D01*
X29694910Y-107242000D01*
X29651304Y-107022781D01*
X29594855Y-106886500D01*
X105019500Y-106886500D01*
X105019500Y-107134000D01*
X106626000Y-107134000D01*
X106626000Y-105457983D01*
X106734000Y-105457983D01*
X106734000Y-107134000D01*
X106754000Y-107134000D01*
X106754000Y-107242000D01*
X106734000Y-107242000D01*
X106734000Y-108918017D01*
X106992957Y-109066242D01*
X107265557Y-108990267D01*
X107557626Y-108846156D01*
X107815968Y-108647834D01*
X107945537Y-108500024D01*
X108040168Y-108615332D01*
X108293012Y-108822835D01*
X108581480Y-108977024D01*
X108894485Y-109071974D01*
X109220000Y-109104034D01*
X109545514Y-109071974D01*
X109858519Y-108977024D01*
X110146987Y-108822835D01*
X110209646Y-108771412D01*
X110215972Y-108783247D01*
X110304447Y-108891053D01*
X110412253Y-108979528D01*
X110535249Y-109045271D01*
X110668708Y-109085755D01*
X110807500Y-109099425D01*
X112712500Y-109099425D01*
X112851292Y-109085755D01*
X112984751Y-109045271D01*
X113107747Y-108979528D01*
X113215553Y-108891053D01*
X113304028Y-108783247D01*
X113369771Y-108660251D01*
X113410255Y-108526792D01*
X113423925Y-108388000D01*
X113423925Y-107242000D01*
X147183500Y-107242000D01*
X147183500Y-107489500D01*
X147225941Y-107812410D01*
X147330563Y-108120835D01*
X147493345Y-108402923D01*
X147708032Y-108647834D01*
X147966374Y-108846156D01*
X148258443Y-108990267D01*
X148531043Y-109066242D01*
X148790000Y-108918017D01*
X148790000Y-107242000D01*
X147183500Y-107242000D01*
X113423925Y-107242000D01*
X113423925Y-106886500D01*
X147183500Y-106886500D01*
X147183500Y-107134000D01*
X148790000Y-107134000D01*
X148790000Y-105457983D01*
X148898000Y-105457983D01*
X148898000Y-107134000D01*
X148918000Y-107134000D01*
X148918000Y-107242000D01*
X148898000Y-107242000D01*
X148898000Y-108918017D01*
X149156957Y-109066242D01*
X149429557Y-108990267D01*
X149721626Y-108846156D01*
X149979968Y-108647834D01*
X150109537Y-108500024D01*
X150204168Y-108615332D01*
X150457012Y-108822835D01*
X150745480Y-108977024D01*
X151058485Y-109071974D01*
X151384000Y-109104034D01*
X151709514Y-109071974D01*
X152022519Y-108977024D01*
X152310987Y-108822835D01*
X152373646Y-108771412D01*
X152379972Y-108783247D01*
X152468447Y-108891053D01*
X152576253Y-108979528D01*
X152699249Y-109045271D01*
X152832708Y-109085755D01*
X152971500Y-109099425D01*
X154876500Y-109099425D01*
X155015292Y-109085755D01*
X155148751Y-109045271D01*
X155271747Y-108979528D01*
X155379553Y-108891053D01*
X155468028Y-108783247D01*
X155533771Y-108660251D01*
X155574255Y-108526792D01*
X155587925Y-108388000D01*
X155587925Y-107468682D01*
X159236000Y-107468682D01*
X159236000Y-107923318D01*
X159324696Y-108369219D01*
X159498677Y-108789248D01*
X159751260Y-109167264D01*
X160072736Y-109488740D01*
X160450752Y-109741323D01*
X160870781Y-109915304D01*
X161316682Y-110004000D01*
X161771318Y-110004000D01*
X162217219Y-109915304D01*
X162637248Y-109741323D01*
X163015264Y-109488740D01*
X163336740Y-109167264D01*
X163589323Y-108789248D01*
X163763304Y-108369219D01*
X163852000Y-107923318D01*
X163852000Y-107468682D01*
X163763304Y-107022781D01*
X163589323Y-106602752D01*
X163336740Y-106224736D01*
X163015264Y-105903260D01*
X162637248Y-105650677D01*
X162217219Y-105476696D01*
X161771318Y-105388000D01*
X161316682Y-105388000D01*
X160870781Y-105476696D01*
X160450752Y-105650677D01*
X160072736Y-105903260D01*
X159751260Y-106224736D01*
X159498677Y-106602752D01*
X159324696Y-107022781D01*
X159236000Y-107468682D01*
X155587925Y-107468682D01*
X155587925Y-105988000D01*
X155574255Y-105849208D01*
X155533771Y-105715749D01*
X155468028Y-105592753D01*
X155379553Y-105484947D01*
X155271747Y-105396472D01*
X155148751Y-105330729D01*
X155015292Y-105290245D01*
X154876500Y-105276575D01*
X152971500Y-105276575D01*
X152832708Y-105290245D01*
X152699249Y-105330729D01*
X152576253Y-105396472D01*
X152468447Y-105484947D01*
X152379972Y-105592753D01*
X152373646Y-105604587D01*
X152310988Y-105553165D01*
X152022520Y-105398976D01*
X151709515Y-105304026D01*
X151384000Y-105271966D01*
X151058486Y-105304026D01*
X150745481Y-105398976D01*
X150457013Y-105553165D01*
X150204168Y-105760668D01*
X150109537Y-105875976D01*
X149979968Y-105728166D01*
X149721626Y-105529844D01*
X149429557Y-105385733D01*
X149156957Y-105309758D01*
X148898000Y-105457983D01*
X148790000Y-105457983D01*
X148531043Y-105309758D01*
X148258443Y-105385733D01*
X147966374Y-105529844D01*
X147708032Y-105728166D01*
X147493345Y-105973077D01*
X147330563Y-106255165D01*
X147225941Y-106563590D01*
X147183500Y-106886500D01*
X113423925Y-106886500D01*
X113423925Y-105988000D01*
X113410255Y-105849208D01*
X113369771Y-105715749D01*
X113304028Y-105592753D01*
X113215553Y-105484947D01*
X113107747Y-105396472D01*
X112984751Y-105330729D01*
X112851292Y-105290245D01*
X112712500Y-105276575D01*
X110807500Y-105276575D01*
X110668708Y-105290245D01*
X110535249Y-105330729D01*
X110412253Y-105396472D01*
X110304447Y-105484947D01*
X110215972Y-105592753D01*
X110209646Y-105604587D01*
X110146988Y-105553165D01*
X109858520Y-105398976D01*
X109545515Y-105304026D01*
X109220000Y-105271966D01*
X108894486Y-105304026D01*
X108581481Y-105398976D01*
X108293013Y-105553165D01*
X108040168Y-105760668D01*
X107945537Y-105875976D01*
X107815968Y-105728166D01*
X107557626Y-105529844D01*
X107265557Y-105385733D01*
X106992957Y-105309758D01*
X106734000Y-105457983D01*
X106626000Y-105457983D01*
X106367043Y-105309758D01*
X106094443Y-105385733D01*
X105802374Y-105529844D01*
X105544032Y-105728166D01*
X105329345Y-105973077D01*
X105166563Y-106255165D01*
X105061941Y-106563590D01*
X105019500Y-106886500D01*
X29594855Y-106886500D01*
X29477323Y-106602752D01*
X29224740Y-106224736D01*
X28903264Y-105903260D01*
X28525248Y-105650677D01*
X28105219Y-105476696D01*
X27659318Y-105388000D01*
X27204682Y-105388000D01*
X26758781Y-105476696D01*
X26338752Y-105650677D01*
X25960736Y-105903260D01*
X25639260Y-106224736D01*
X25386677Y-106602752D01*
X25212696Y-107022781D01*
X25124000Y-107468682D01*
X23568000Y-107468682D01*
X23568000Y-98872078D01*
X51432000Y-98872078D01*
X51432000Y-99247922D01*
X51505323Y-99616543D01*
X51649152Y-99963777D01*
X51857960Y-100276279D01*
X52123721Y-100542040D01*
X52436223Y-100750848D01*
X52783457Y-100894677D01*
X53152078Y-100968000D01*
X53527922Y-100968000D01*
X53896543Y-100894677D01*
X54243777Y-100750848D01*
X54556279Y-100542040D01*
X54822040Y-100276279D01*
X55030848Y-99963777D01*
X55174677Y-99616543D01*
X55248000Y-99247922D01*
X55248000Y-98872078D01*
X59052000Y-98872078D01*
X59052000Y-99247922D01*
X59125323Y-99616543D01*
X59269152Y-99963777D01*
X59477960Y-100276279D01*
X59743721Y-100542040D01*
X60056223Y-100750848D01*
X60403457Y-100894677D01*
X60772078Y-100968000D01*
X61147922Y-100968000D01*
X61516543Y-100894677D01*
X61863777Y-100750848D01*
X62176279Y-100542040D01*
X62442040Y-100276279D01*
X62650848Y-99963777D01*
X62794677Y-99616543D01*
X62868000Y-99247922D01*
X62868000Y-99081010D01*
X65702000Y-99081010D01*
X65702000Y-99838991D01*
X65725267Y-100075223D01*
X65817214Y-100378332D01*
X65966528Y-100657679D01*
X66167471Y-100902529D01*
X66412322Y-101103472D01*
X66691669Y-101252786D01*
X66994778Y-101344733D01*
X67310000Y-101375780D01*
X67625223Y-101344733D01*
X67928332Y-101252786D01*
X68207679Y-101103472D01*
X68452529Y-100902529D01*
X68653472Y-100657679D01*
X68802786Y-100378332D01*
X68894733Y-100075222D01*
X68918000Y-99838990D01*
X68918000Y-99081010D01*
X70782000Y-99081010D01*
X70782000Y-99838991D01*
X70805267Y-100075223D01*
X70897214Y-100378332D01*
X71046528Y-100657679D01*
X71247471Y-100902529D01*
X71492322Y-101103472D01*
X71771669Y-101252786D01*
X72074778Y-101344733D01*
X72390000Y-101375780D01*
X72705223Y-101344733D01*
X73008332Y-101252786D01*
X73287679Y-101103472D01*
X73532529Y-100902529D01*
X73733472Y-100657679D01*
X73882786Y-100378332D01*
X73974733Y-100075222D01*
X73998000Y-99838990D01*
X73998000Y-99081009D01*
X73974733Y-98844777D01*
X73882786Y-98541668D01*
X73733472Y-98262321D01*
X73532529Y-98017471D01*
X73287678Y-97816528D01*
X73008331Y-97667214D01*
X72705222Y-97575267D01*
X72390000Y-97544220D01*
X72074777Y-97575267D01*
X71771668Y-97667214D01*
X71492321Y-97816528D01*
X71247471Y-98017471D01*
X71046528Y-98262322D01*
X70897214Y-98541669D01*
X70805267Y-98844778D01*
X70782000Y-99081010D01*
X68918000Y-99081010D01*
X68918000Y-99081009D01*
X68894733Y-98844777D01*
X68802786Y-98541668D01*
X68653472Y-98262321D01*
X68452529Y-98017471D01*
X68207678Y-97816528D01*
X67928331Y-97667214D01*
X67625222Y-97575267D01*
X67310000Y-97544220D01*
X66994777Y-97575267D01*
X66691668Y-97667214D01*
X66412321Y-97816528D01*
X66167471Y-98017471D01*
X65966528Y-98262322D01*
X65817214Y-98541669D01*
X65725267Y-98844778D01*
X65702000Y-99081010D01*
X62868000Y-99081010D01*
X62868000Y-98872078D01*
X62794677Y-98503457D01*
X62650848Y-98156223D01*
X62442040Y-97843721D01*
X62176279Y-97577960D01*
X61863777Y-97369152D01*
X61516543Y-97225323D01*
X61147922Y-97152000D01*
X60772078Y-97152000D01*
X60403457Y-97225323D01*
X60056223Y-97369152D01*
X59743721Y-97577960D01*
X59477960Y-97843721D01*
X59269152Y-98156223D01*
X59125323Y-98503457D01*
X59052000Y-98872078D01*
X55248000Y-98872078D01*
X55174677Y-98503457D01*
X55030848Y-98156223D01*
X54822040Y-97843721D01*
X54556279Y-97577960D01*
X54243777Y-97369152D01*
X53896543Y-97225323D01*
X53527922Y-97152000D01*
X53152078Y-97152000D01*
X52783457Y-97225323D01*
X52436223Y-97369152D01*
X52123721Y-97577960D01*
X51857960Y-97843721D01*
X51649152Y-98156223D01*
X51505323Y-98503457D01*
X51432000Y-98872078D01*
X23568000Y-98872078D01*
X23568000Y-87400000D01*
X30808575Y-87400000D01*
X30808575Y-90400000D01*
X30822245Y-90538792D01*
X30862729Y-90672251D01*
X30928472Y-90795247D01*
X31016947Y-90903053D01*
X31124753Y-90991528D01*
X31247749Y-91057271D01*
X31381208Y-91097755D01*
X31520000Y-91111425D01*
X34520000Y-91111425D01*
X34658792Y-91097755D01*
X34792251Y-91057271D01*
X34915247Y-90991528D01*
X35023053Y-90903053D01*
X35111528Y-90795247D01*
X35177271Y-90672251D01*
X35217755Y-90538792D01*
X35231425Y-90400000D01*
X35231425Y-88921010D01*
X65702000Y-88921010D01*
X65702000Y-89678991D01*
X65725267Y-89915223D01*
X65817214Y-90218332D01*
X65966528Y-90497679D01*
X66167471Y-90742529D01*
X66412322Y-90943472D01*
X66691669Y-91092786D01*
X66994778Y-91184733D01*
X67310000Y-91215780D01*
X67625223Y-91184733D01*
X67928332Y-91092786D01*
X68207679Y-90943472D01*
X68452529Y-90742529D01*
X68653472Y-90497679D01*
X68802786Y-90218332D01*
X68894733Y-89915222D01*
X68918000Y-89678990D01*
X68918000Y-88921010D01*
X70782000Y-88921010D01*
X70782000Y-89678991D01*
X70805267Y-89915223D01*
X70897214Y-90218332D01*
X71046528Y-90497679D01*
X71247471Y-90742529D01*
X71492322Y-90943472D01*
X71771669Y-91092786D01*
X72074778Y-91184733D01*
X72390000Y-91215780D01*
X72705223Y-91184733D01*
X73008332Y-91092786D01*
X73287679Y-90943472D01*
X73532529Y-90742529D01*
X73733472Y-90497679D01*
X73882786Y-90218332D01*
X73974733Y-89915222D01*
X73998000Y-89678990D01*
X73998000Y-88921009D01*
X73974733Y-88684777D01*
X73882786Y-88381668D01*
X73733472Y-88102321D01*
X73532529Y-87857471D01*
X73287678Y-87656528D01*
X73008331Y-87507214D01*
X72705222Y-87415267D01*
X72390000Y-87384220D01*
X72074777Y-87415267D01*
X71771668Y-87507214D01*
X71492321Y-87656528D01*
X71247471Y-87857471D01*
X71046528Y-88102322D01*
X70897214Y-88381669D01*
X70805267Y-88684778D01*
X70782000Y-88921010D01*
X68918000Y-88921010D01*
X68918000Y-88921009D01*
X68894733Y-88684777D01*
X68802786Y-88381668D01*
X68653472Y-88102321D01*
X68452529Y-87857471D01*
X68207678Y-87656528D01*
X67928331Y-87507214D01*
X67625222Y-87415267D01*
X67310000Y-87384220D01*
X66994777Y-87415267D01*
X66691668Y-87507214D01*
X66412321Y-87656528D01*
X66167471Y-87857471D01*
X65966528Y-88102322D01*
X65817214Y-88381669D01*
X65725267Y-88684778D01*
X65702000Y-88921010D01*
X35231425Y-88921010D01*
X35231425Y-87400000D01*
X35217755Y-87261208D01*
X35177271Y-87127749D01*
X35111528Y-87004753D01*
X35023053Y-86896947D01*
X34915247Y-86808472D01*
X34792251Y-86742729D01*
X34658792Y-86702245D01*
X34520000Y-86688575D01*
X31520000Y-86688575D01*
X31381208Y-86702245D01*
X31247749Y-86742729D01*
X31124753Y-86808472D01*
X31016947Y-86896947D01*
X30928472Y-87004753D01*
X30862729Y-87127749D01*
X30822245Y-87261208D01*
X30808575Y-87400000D01*
X23568000Y-87400000D01*
X23568000Y-86495001D01*
X84918575Y-86495001D01*
X84918575Y-90495001D01*
X84932245Y-90633793D01*
X84972729Y-90767252D01*
X85038472Y-90890248D01*
X85126947Y-90998054D01*
X85234753Y-91086529D01*
X85357749Y-91152272D01*
X85491208Y-91192756D01*
X85630000Y-91206426D01*
X89630000Y-91206426D01*
X89768792Y-91192756D01*
X89902251Y-91152272D01*
X90025247Y-91086529D01*
X90133053Y-90998054D01*
X90221528Y-90890248D01*
X90287271Y-90767252D01*
X90327755Y-90633793D01*
X90341425Y-90495001D01*
X90341425Y-90331732D01*
X95869636Y-90331732D01*
X96074578Y-90727727D01*
X96540048Y-90988273D01*
X97047404Y-91153005D01*
X97577149Y-91215591D01*
X98108925Y-91173626D01*
X98622296Y-91028724D01*
X99097534Y-90786452D01*
X99185422Y-90727727D01*
X99390364Y-90331732D01*
X97630000Y-88571369D01*
X95869636Y-90331732D01*
X90341425Y-90331732D01*
X90341425Y-88442150D01*
X94909410Y-88442150D01*
X94951375Y-88973926D01*
X95096277Y-89487297D01*
X95338549Y-89962535D01*
X95397274Y-90050423D01*
X95793269Y-90255365D01*
X97553632Y-88495001D01*
X97706368Y-88495001D01*
X99466731Y-90255365D01*
X99862726Y-90050423D01*
X100123272Y-89584953D01*
X100288004Y-89077597D01*
X100350590Y-88547852D01*
X100308625Y-88016076D01*
X100163723Y-87502705D01*
X99921451Y-87027467D01*
X99862726Y-86939579D01*
X99466731Y-86734637D01*
X97706368Y-88495001D01*
X97553632Y-88495001D01*
X95793269Y-86734637D01*
X95397274Y-86939579D01*
X95136728Y-87405049D01*
X94971996Y-87912405D01*
X94909410Y-88442150D01*
X90341425Y-88442150D01*
X90341425Y-86658270D01*
X95869636Y-86658270D01*
X97630000Y-88418633D01*
X99390364Y-86658270D01*
X99185422Y-86262275D01*
X98719952Y-86001729D01*
X98212596Y-85836997D01*
X97682851Y-85774411D01*
X97151075Y-85816376D01*
X96637704Y-85961278D01*
X96162466Y-86203550D01*
X96074578Y-86262275D01*
X95869636Y-86658270D01*
X90341425Y-86658270D01*
X90341425Y-86495001D01*
X90327755Y-86356209D01*
X90287271Y-86222750D01*
X90221528Y-86099754D01*
X90133053Y-85991948D01*
X90025247Y-85903473D01*
X89902251Y-85837730D01*
X89768792Y-85797246D01*
X89630000Y-85783576D01*
X85630000Y-85783576D01*
X85491208Y-85797246D01*
X85357749Y-85837730D01*
X85234753Y-85903473D01*
X85126947Y-85991948D01*
X85038472Y-86099754D01*
X84972729Y-86222750D01*
X84932245Y-86356209D01*
X84918575Y-86495001D01*
X23568000Y-86495001D01*
X23568000Y-83602531D01*
X30812000Y-83602531D01*
X30812000Y-84037469D01*
X30896852Y-84464050D01*
X31063295Y-84865880D01*
X31304934Y-85227518D01*
X31612482Y-85535066D01*
X31974120Y-85776705D01*
X32375950Y-85943148D01*
X32802531Y-86028000D01*
X33237469Y-86028000D01*
X33664050Y-85943148D01*
X34065880Y-85776705D01*
X34427518Y-85535066D01*
X34735066Y-85227518D01*
X34976705Y-84865880D01*
X35143148Y-84464050D01*
X35228000Y-84037469D01*
X35228000Y-83669087D01*
X65429969Y-83669087D01*
X65496126Y-83907197D01*
X65626144Y-84172900D01*
X65805500Y-84408133D01*
X66027301Y-84603855D01*
X66283024Y-84752545D01*
X66562841Y-84848489D01*
X66856000Y-84888000D01*
X67256000Y-84888000D01*
X67256000Y-83434000D01*
X67364000Y-83434000D01*
X67364000Y-84888000D01*
X67764000Y-84888000D01*
X68057159Y-84848489D01*
X68336976Y-84752545D01*
X68592699Y-84603855D01*
X68814500Y-84408133D01*
X68993856Y-84172900D01*
X69123874Y-83907197D01*
X69190031Y-83669087D01*
X74319969Y-83669087D01*
X74386126Y-83907197D01*
X74516144Y-84172900D01*
X74695500Y-84408133D01*
X74917301Y-84603855D01*
X75173024Y-84752545D01*
X75452841Y-84848489D01*
X75746000Y-84888000D01*
X76146000Y-84888000D01*
X76146000Y-83434000D01*
X76254000Y-83434000D01*
X76254000Y-84888000D01*
X76654000Y-84888000D01*
X76947159Y-84848489D01*
X77226976Y-84752545D01*
X77482699Y-84603855D01*
X77704500Y-84408133D01*
X77883856Y-84172900D01*
X78013874Y-83907197D01*
X78080031Y-83669087D01*
X77929904Y-83434000D01*
X76254000Y-83434000D01*
X76146000Y-83434000D01*
X74470096Y-83434000D01*
X74319969Y-83669087D01*
X69190031Y-83669087D01*
X69039904Y-83434000D01*
X67364000Y-83434000D01*
X67256000Y-83434000D01*
X65580096Y-83434000D01*
X65429969Y-83669087D01*
X35228000Y-83669087D01*
X35228000Y-83602531D01*
X35143148Y-83175950D01*
X34976705Y-82774120D01*
X34735066Y-82412482D01*
X34427518Y-82104934D01*
X34065880Y-81863295D01*
X33664050Y-81696852D01*
X33237469Y-81612000D01*
X32802531Y-81612000D01*
X32375950Y-81696852D01*
X31974120Y-81863295D01*
X31612482Y-82104934D01*
X31304934Y-82412482D01*
X31063295Y-82774120D01*
X30896852Y-83175950D01*
X30812000Y-83602531D01*
X23568000Y-83602531D01*
X23568000Y-80221367D01*
X31615000Y-80221367D01*
X31759963Y-80566162D01*
X32140441Y-80776893D01*
X32554719Y-80909348D01*
X32986878Y-80958437D01*
X33420310Y-80922272D01*
X33838359Y-80802243D01*
X34224958Y-80602963D01*
X34280037Y-80566162D01*
X34425000Y-80221367D01*
X33020000Y-78816368D01*
X31615000Y-80221367D01*
X23568000Y-80221367D01*
X23568000Y-78706878D01*
X30801563Y-78706878D01*
X30837728Y-79140310D01*
X30957757Y-79558359D01*
X31157037Y-79944958D01*
X31193838Y-80000037D01*
X31538633Y-80145000D01*
X32943632Y-78740000D01*
X33096368Y-78740000D01*
X34501367Y-80145000D01*
X34846162Y-80000037D01*
X35056893Y-79619559D01*
X35189348Y-79205281D01*
X35238437Y-78773122D01*
X35219994Y-78552078D01*
X51432000Y-78552078D01*
X51432000Y-78927922D01*
X51505323Y-79296543D01*
X51649152Y-79643777D01*
X51857960Y-79956279D01*
X52123721Y-80222040D01*
X52436223Y-80430848D01*
X52783457Y-80574677D01*
X53152078Y-80648000D01*
X53527922Y-80648000D01*
X53896543Y-80574677D01*
X54243777Y-80430848D01*
X54556279Y-80222040D01*
X54822040Y-79956279D01*
X55030848Y-79643777D01*
X55174677Y-79296543D01*
X55248000Y-78927922D01*
X55248000Y-78552078D01*
X59052000Y-78552078D01*
X59052000Y-78927922D01*
X59125323Y-79296543D01*
X59269152Y-79643777D01*
X59477960Y-79956279D01*
X59743721Y-80222040D01*
X60056223Y-80430848D01*
X60403457Y-80574677D01*
X60772078Y-80648000D01*
X61147922Y-80648000D01*
X61516543Y-80574677D01*
X61863777Y-80430848D01*
X62176279Y-80222040D01*
X62442040Y-79956279D01*
X62650848Y-79643777D01*
X62794677Y-79296543D01*
X62868000Y-78927922D01*
X62868000Y-78552078D01*
X62817859Y-78300000D01*
X65394704Y-78300000D01*
X65423820Y-78595620D01*
X65510049Y-78879879D01*
X65650077Y-79141853D01*
X65838524Y-79371476D01*
X66068147Y-79559923D01*
X66087000Y-79570000D01*
X66068147Y-79580077D01*
X65838524Y-79768524D01*
X65650077Y-79998147D01*
X65510049Y-80260121D01*
X65423820Y-80544380D01*
X65394704Y-80840000D01*
X65423820Y-81135620D01*
X65510049Y-81419879D01*
X65650077Y-81681853D01*
X65838524Y-81911476D01*
X66068147Y-82099923D01*
X66097245Y-82115476D01*
X66027301Y-82156145D01*
X65805500Y-82351867D01*
X65626144Y-82587100D01*
X65496126Y-82852803D01*
X65429969Y-83090913D01*
X65580096Y-83326000D01*
X67256000Y-83326000D01*
X67256000Y-83306000D01*
X67364000Y-83306000D01*
X67364000Y-83326000D01*
X69039904Y-83326000D01*
X69190031Y-83090913D01*
X69123874Y-82852803D01*
X68993856Y-82587100D01*
X68814500Y-82351867D01*
X68592699Y-82156145D01*
X68522755Y-82115476D01*
X68551853Y-82099923D01*
X68781476Y-81911476D01*
X68969923Y-81681853D01*
X69109951Y-81419879D01*
X69196180Y-81135620D01*
X69225296Y-80840000D01*
X69196180Y-80544380D01*
X69109951Y-80260121D01*
X68969923Y-79998147D01*
X68781476Y-79768524D01*
X68551853Y-79580077D01*
X68533000Y-79570000D01*
X68551853Y-79559923D01*
X68781476Y-79371476D01*
X68969923Y-79141853D01*
X69109951Y-78879879D01*
X69196180Y-78595620D01*
X69225296Y-78300000D01*
X74284704Y-78300000D01*
X74313820Y-78595620D01*
X74400049Y-78879879D01*
X74540077Y-79141853D01*
X74728524Y-79371476D01*
X74958147Y-79559923D01*
X74977000Y-79570000D01*
X74958147Y-79580077D01*
X74728524Y-79768524D01*
X74540077Y-79998147D01*
X74400049Y-80260121D01*
X74313820Y-80544380D01*
X74284704Y-80840000D01*
X74313820Y-81135620D01*
X74400049Y-81419879D01*
X74540077Y-81681853D01*
X74728524Y-81911476D01*
X74958147Y-82099923D01*
X74987245Y-82115476D01*
X74917301Y-82156145D01*
X74695500Y-82351867D01*
X74516144Y-82587100D01*
X74386126Y-82852803D01*
X74319969Y-83090913D01*
X74470096Y-83326000D01*
X76146000Y-83326000D01*
X76146000Y-83306000D01*
X76254000Y-83306000D01*
X76254000Y-83326000D01*
X77929904Y-83326000D01*
X78080031Y-83090913D01*
X78013874Y-82852803D01*
X77883856Y-82587100D01*
X77704500Y-82351867D01*
X77482699Y-82156145D01*
X77412755Y-82115476D01*
X77441853Y-82099923D01*
X77671476Y-81911476D01*
X77859923Y-81681853D01*
X77999951Y-81419879D01*
X78086180Y-81135620D01*
X78115296Y-80840000D01*
X78086180Y-80544380D01*
X77999951Y-80260121D01*
X77859923Y-79998147D01*
X77671476Y-79768524D01*
X77441853Y-79580077D01*
X77423000Y-79570000D01*
X77441853Y-79559923D01*
X77671476Y-79371476D01*
X77859923Y-79141853D01*
X77999951Y-78879879D01*
X78086180Y-78595620D01*
X78115296Y-78300000D01*
X78086180Y-78004380D01*
X77999951Y-77720121D01*
X77859923Y-77458147D01*
X77671476Y-77228524D01*
X77441853Y-77040077D01*
X77179879Y-76900049D01*
X76895620Y-76813820D01*
X76674078Y-76792000D01*
X75725922Y-76792000D01*
X75504380Y-76813820D01*
X75220121Y-76900049D01*
X74958147Y-77040077D01*
X74728524Y-77228524D01*
X74540077Y-77458147D01*
X74400049Y-77720121D01*
X74313820Y-78004380D01*
X74284704Y-78300000D01*
X69225296Y-78300000D01*
X69196180Y-78004380D01*
X69109951Y-77720121D01*
X68969923Y-77458147D01*
X68781476Y-77228524D01*
X68551853Y-77040077D01*
X68289879Y-76900049D01*
X68005620Y-76813820D01*
X67784078Y-76792000D01*
X66835922Y-76792000D01*
X66614380Y-76813820D01*
X66330121Y-76900049D01*
X66068147Y-77040077D01*
X65838524Y-77228524D01*
X65650077Y-77458147D01*
X65510049Y-77720121D01*
X65423820Y-78004380D01*
X65394704Y-78300000D01*
X62817859Y-78300000D01*
X62794677Y-78183457D01*
X62650848Y-77836223D01*
X62442040Y-77523721D01*
X62176279Y-77257960D01*
X61863777Y-77049152D01*
X61516543Y-76905323D01*
X61147922Y-76832000D01*
X60772078Y-76832000D01*
X60403457Y-76905323D01*
X60056223Y-77049152D01*
X59743721Y-77257960D01*
X59477960Y-77523721D01*
X59269152Y-77836223D01*
X59125323Y-78183457D01*
X59052000Y-78552078D01*
X55248000Y-78552078D01*
X55174677Y-78183457D01*
X55030848Y-77836223D01*
X54822040Y-77523721D01*
X54556279Y-77257960D01*
X54243777Y-77049152D01*
X53896543Y-76905323D01*
X53527922Y-76832000D01*
X53152078Y-76832000D01*
X52783457Y-76905323D01*
X52436223Y-77049152D01*
X52123721Y-77257960D01*
X51857960Y-77523721D01*
X51649152Y-77836223D01*
X51505323Y-78183457D01*
X51432000Y-78552078D01*
X35219994Y-78552078D01*
X35202272Y-78339690D01*
X35082243Y-77921641D01*
X34882963Y-77535042D01*
X34846162Y-77479963D01*
X34501367Y-77335000D01*
X33096368Y-78740000D01*
X32943632Y-78740000D01*
X31538633Y-77335000D01*
X31193838Y-77479963D01*
X30983107Y-77860441D01*
X30850652Y-78274719D01*
X30801563Y-78706878D01*
X23568000Y-78706878D01*
X23568000Y-77258633D01*
X31615000Y-77258633D01*
X33020000Y-78663632D01*
X34425000Y-77258633D01*
X34280037Y-76913838D01*
X33969641Y-76741922D01*
X133884000Y-76741922D01*
X133884000Y-77690077D01*
X133905820Y-77911619D01*
X133992049Y-78195878D01*
X134132077Y-78457852D01*
X134320524Y-78687476D01*
X134550147Y-78875923D01*
X134812121Y-79015951D01*
X135096380Y-79102180D01*
X135392000Y-79131296D01*
X135687619Y-79102180D01*
X135971878Y-79015951D01*
X136233852Y-78875923D01*
X136463476Y-78687476D01*
X136651923Y-78457853D01*
X136791951Y-78195879D01*
X136878180Y-77911620D01*
X136900000Y-77690078D01*
X136900000Y-76741923D01*
X136878180Y-76520380D01*
X136791951Y-76236121D01*
X136674294Y-76016000D01*
X137680575Y-76016000D01*
X137680575Y-78416000D01*
X137694245Y-78554792D01*
X137734729Y-78688251D01*
X137800472Y-78811247D01*
X137888947Y-78919053D01*
X137996753Y-79007528D01*
X138119749Y-79073271D01*
X138253208Y-79113755D01*
X138392000Y-79127425D01*
X139992000Y-79127425D01*
X140130792Y-79113755D01*
X140264251Y-79073271D01*
X140387247Y-79007528D01*
X140495053Y-78919053D01*
X140583528Y-78811247D01*
X140649271Y-78688251D01*
X140689755Y-78554792D01*
X140703425Y-78416000D01*
X140703425Y-76016000D01*
X140689755Y-75877208D01*
X140649271Y-75743749D01*
X140583528Y-75620753D01*
X140495053Y-75512947D01*
X140387247Y-75424472D01*
X140264251Y-75358729D01*
X140130792Y-75318245D01*
X139992000Y-75304575D01*
X138392000Y-75304575D01*
X138253208Y-75318245D01*
X138119749Y-75358729D01*
X137996753Y-75424472D01*
X137888947Y-75512947D01*
X137800472Y-75620753D01*
X137734729Y-75743749D01*
X137694245Y-75877208D01*
X137680575Y-76016000D01*
X136674294Y-76016000D01*
X136651923Y-75974147D01*
X136463476Y-75744524D01*
X136233853Y-75556077D01*
X135971879Y-75416049D01*
X135687620Y-75329820D01*
X135392000Y-75300704D01*
X135096381Y-75329820D01*
X134812122Y-75416049D01*
X134550148Y-75556077D01*
X134320524Y-75744524D01*
X134132077Y-75974147D01*
X133992049Y-76236121D01*
X133905820Y-76520380D01*
X133884000Y-76741922D01*
X33969641Y-76741922D01*
X33899559Y-76703107D01*
X33485281Y-76570652D01*
X33053122Y-76521563D01*
X32619690Y-76557728D01*
X32201641Y-76677757D01*
X31815042Y-76877037D01*
X31759963Y-76913838D01*
X31615000Y-77258633D01*
X23568000Y-77258633D01*
X23568000Y-70394531D01*
X158320000Y-70394531D01*
X158320000Y-70829469D01*
X158404852Y-71256050D01*
X158571295Y-71657880D01*
X158812934Y-72019518D01*
X159120482Y-72327066D01*
X159482120Y-72568705D01*
X159883950Y-72735148D01*
X160310531Y-72820000D01*
X160745469Y-72820000D01*
X161172050Y-72735148D01*
X161573880Y-72568705D01*
X161935518Y-72327066D01*
X162243066Y-72019518D01*
X162484705Y-71657880D01*
X162651148Y-71256050D01*
X162736000Y-70829469D01*
X162736000Y-70394531D01*
X162651148Y-69967950D01*
X162484705Y-69566120D01*
X162243066Y-69204482D01*
X161935518Y-68896934D01*
X161573880Y-68655295D01*
X161172050Y-68488852D01*
X160745469Y-68404000D01*
X160310531Y-68404000D01*
X159883950Y-68488852D01*
X159482120Y-68655295D01*
X159120482Y-68896934D01*
X158812934Y-69204482D01*
X158571295Y-69566120D01*
X158404852Y-69967950D01*
X158320000Y-70394531D01*
X23568000Y-70394531D01*
X23568000Y-68791367D01*
X31615000Y-68791367D01*
X31759963Y-69136162D01*
X32140441Y-69346893D01*
X32554719Y-69479348D01*
X32986878Y-69528437D01*
X33420310Y-69492272D01*
X33838359Y-69372243D01*
X34224958Y-69172963D01*
X34280037Y-69136162D01*
X34425000Y-68791367D01*
X33020000Y-67386368D01*
X31615000Y-68791367D01*
X23568000Y-68791367D01*
X23568000Y-67276878D01*
X30801563Y-67276878D01*
X30837728Y-67710310D01*
X30957757Y-68128359D01*
X31157037Y-68514958D01*
X31193838Y-68570037D01*
X31538633Y-68715000D01*
X32943632Y-67310000D01*
X33096368Y-67310000D01*
X34501367Y-68715000D01*
X34846162Y-68570037D01*
X35056893Y-68189559D01*
X35189348Y-67775281D01*
X35238437Y-67343122D01*
X35202272Y-66909690D01*
X35082243Y-66491641D01*
X35014427Y-66360078D01*
X107312000Y-66360078D01*
X107312000Y-66735922D01*
X107385323Y-67104543D01*
X107529152Y-67451777D01*
X107737960Y-67764279D01*
X108003721Y-68030040D01*
X108316223Y-68238848D01*
X108663457Y-68382677D01*
X109032078Y-68456000D01*
X109407922Y-68456000D01*
X109776543Y-68382677D01*
X110123777Y-68238848D01*
X110436279Y-68030040D01*
X110702040Y-67764279D01*
X110910848Y-67451777D01*
X111054677Y-67104543D01*
X111128000Y-66735922D01*
X111128000Y-66360078D01*
X137792000Y-66360078D01*
X137792000Y-66735922D01*
X137865323Y-67104543D01*
X138009152Y-67451777D01*
X138217960Y-67764279D01*
X138483721Y-68030040D01*
X138796223Y-68238848D01*
X139143457Y-68382677D01*
X139512078Y-68456000D01*
X139887922Y-68456000D01*
X140256543Y-68382677D01*
X140603777Y-68238848D01*
X140916279Y-68030040D01*
X141182040Y-67764279D01*
X141390848Y-67451777D01*
X141534677Y-67104543D01*
X141608000Y-66735922D01*
X141608000Y-66360078D01*
X141534677Y-65991457D01*
X141390848Y-65644223D01*
X141182040Y-65331721D01*
X140916279Y-65065960D01*
X140603777Y-64857152D01*
X140256543Y-64713323D01*
X139887922Y-64640000D01*
X139512078Y-64640000D01*
X139143457Y-64713323D01*
X138796223Y-64857152D01*
X138483721Y-65065960D01*
X138217960Y-65331721D01*
X138009152Y-65644223D01*
X137865323Y-65991457D01*
X137792000Y-66360078D01*
X111128000Y-66360078D01*
X111054677Y-65991457D01*
X110910848Y-65644223D01*
X110702040Y-65331721D01*
X110436279Y-65065960D01*
X110123777Y-64857152D01*
X109776543Y-64713323D01*
X109407922Y-64640000D01*
X109032078Y-64640000D01*
X108663457Y-64713323D01*
X108316223Y-64857152D01*
X108003721Y-65065960D01*
X107737960Y-65331721D01*
X107529152Y-65644223D01*
X107385323Y-65991457D01*
X107312000Y-66360078D01*
X35014427Y-66360078D01*
X34882963Y-66105042D01*
X34846162Y-66049963D01*
X34501367Y-65905000D01*
X33096368Y-67310000D01*
X32943632Y-67310000D01*
X31538633Y-65905000D01*
X31193838Y-66049963D01*
X30983107Y-66430441D01*
X30850652Y-66844719D01*
X30801563Y-67276878D01*
X23568000Y-67276878D01*
X23568000Y-65828633D01*
X31615000Y-65828633D01*
X33020000Y-67233632D01*
X34425000Y-65828633D01*
X34280037Y-65483838D01*
X33899559Y-65273107D01*
X33485281Y-65140652D01*
X33053122Y-65091563D01*
X32619690Y-65127728D01*
X32201641Y-65247757D01*
X31815042Y-65447037D01*
X31759963Y-65483838D01*
X31615000Y-65828633D01*
X23568000Y-65828633D01*
X23568000Y-60730000D01*
X30808575Y-60730000D01*
X30808575Y-63730000D01*
X30822245Y-63868792D01*
X30862729Y-64002251D01*
X30928472Y-64125247D01*
X31016947Y-64233053D01*
X31124753Y-64321528D01*
X31247749Y-64387271D01*
X31381208Y-64427755D01*
X31520000Y-64441425D01*
X34520000Y-64441425D01*
X34658792Y-64427755D01*
X34792251Y-64387271D01*
X34915247Y-64321528D01*
X35023053Y-64233053D01*
X35111528Y-64125247D01*
X35161369Y-64032000D01*
X158316575Y-64032000D01*
X158316575Y-67032000D01*
X158330245Y-67170792D01*
X158370729Y-67304251D01*
X158436472Y-67427247D01*
X158524947Y-67535053D01*
X158632753Y-67623528D01*
X158755749Y-67689271D01*
X158889208Y-67729755D01*
X159028000Y-67743425D01*
X162028000Y-67743425D01*
X162166792Y-67729755D01*
X162300251Y-67689271D01*
X162423247Y-67623528D01*
X162531053Y-67535053D01*
X162619528Y-67427247D01*
X162685271Y-67304251D01*
X162725755Y-67170792D01*
X162739425Y-67032000D01*
X162739425Y-64032000D01*
X162725755Y-63893208D01*
X162685271Y-63759749D01*
X162619528Y-63636753D01*
X162531053Y-63528947D01*
X162423247Y-63440472D01*
X162300251Y-63374729D01*
X162166792Y-63334245D01*
X162028000Y-63320575D01*
X159028000Y-63320575D01*
X158889208Y-63334245D01*
X158755749Y-63374729D01*
X158632753Y-63440472D01*
X158524947Y-63528947D01*
X158436472Y-63636753D01*
X158370729Y-63759749D01*
X158330245Y-63893208D01*
X158316575Y-64032000D01*
X35161369Y-64032000D01*
X35177271Y-64002251D01*
X35217755Y-63868792D01*
X35231425Y-63730000D01*
X35231425Y-61426777D01*
X77032000Y-61426777D01*
X77032000Y-61763223D01*
X77097638Y-62093205D01*
X77226390Y-62404041D01*
X77413310Y-62683786D01*
X77651214Y-62921690D01*
X77930959Y-63108610D01*
X78241795Y-63237362D01*
X78571777Y-63303000D01*
X78908223Y-63303000D01*
X79238205Y-63237362D01*
X79549041Y-63108610D01*
X79828786Y-62921690D01*
X80047476Y-62703000D01*
X93307524Y-62703000D01*
X93399214Y-62794690D01*
X93678959Y-62981610D01*
X93989795Y-63110362D01*
X94319777Y-63176000D01*
X94656223Y-63176000D01*
X94986205Y-63110362D01*
X95297041Y-62981610D01*
X95576786Y-62794690D01*
X95814690Y-62556786D01*
X96001610Y-62277041D01*
X96130362Y-61966205D01*
X96196000Y-61636223D01*
X96196000Y-61299777D01*
X96130362Y-60969795D01*
X96001610Y-60658959D01*
X95814690Y-60379214D01*
X95576786Y-60141310D01*
X95297041Y-59954390D01*
X94986205Y-59825638D01*
X94656223Y-59760000D01*
X94319777Y-59760000D01*
X93989795Y-59825638D01*
X93678959Y-59954390D01*
X93399214Y-60141310D01*
X93161310Y-60379214D01*
X93089290Y-60487000D01*
X80047476Y-60487000D01*
X79828786Y-60268310D01*
X79549041Y-60081390D01*
X79238205Y-59952638D01*
X78908223Y-59887000D01*
X78571777Y-59887000D01*
X78241795Y-59952638D01*
X77930959Y-60081390D01*
X77651214Y-60268310D01*
X77413310Y-60506214D01*
X77226390Y-60785959D01*
X77097638Y-61096795D01*
X77032000Y-61426777D01*
X35231425Y-61426777D01*
X35231425Y-60730000D01*
X35217755Y-60591208D01*
X35177271Y-60457749D01*
X35111528Y-60334753D01*
X35023053Y-60226947D01*
X34915247Y-60138472D01*
X34792251Y-60072729D01*
X34658792Y-60032245D01*
X34520000Y-60018575D01*
X31520000Y-60018575D01*
X31381208Y-60032245D01*
X31247749Y-60072729D01*
X31124753Y-60138472D01*
X31016947Y-60226947D01*
X30928472Y-60334753D01*
X30862729Y-60457749D01*
X30822245Y-60591208D01*
X30808575Y-60730000D01*
X23568000Y-60730000D01*
X23568000Y-56962078D01*
X51432000Y-56962078D01*
X51432000Y-57337922D01*
X51505323Y-57706543D01*
X51649152Y-58053777D01*
X51857960Y-58366279D01*
X52123721Y-58632040D01*
X52436223Y-58840848D01*
X52783457Y-58984677D01*
X53152078Y-59058000D01*
X53527922Y-59058000D01*
X53896543Y-58984677D01*
X54243777Y-58840848D01*
X54556279Y-58632040D01*
X54822040Y-58366279D01*
X55030848Y-58053777D01*
X55174677Y-57706543D01*
X55248000Y-57337922D01*
X55248000Y-56962078D01*
X59052000Y-56962078D01*
X59052000Y-57337922D01*
X59125323Y-57706543D01*
X59269152Y-58053777D01*
X59477960Y-58366279D01*
X59743721Y-58632040D01*
X60056223Y-58840848D01*
X60403457Y-58984677D01*
X60772078Y-59058000D01*
X61147922Y-59058000D01*
X61516543Y-58984677D01*
X61863777Y-58840848D01*
X62176279Y-58632040D01*
X62442040Y-58366279D01*
X62650848Y-58053777D01*
X62723206Y-57879087D01*
X65429969Y-57879087D01*
X65496126Y-58117197D01*
X65626144Y-58382900D01*
X65805500Y-58618133D01*
X66027301Y-58813855D01*
X66283024Y-58962545D01*
X66562841Y-59058489D01*
X66856000Y-59098000D01*
X67256000Y-59098000D01*
X67256000Y-57644000D01*
X67364000Y-57644000D01*
X67364000Y-59098000D01*
X67764000Y-59098000D01*
X68057159Y-59058489D01*
X68336976Y-58962545D01*
X68592699Y-58813855D01*
X68814500Y-58618133D01*
X68993856Y-58382900D01*
X69123874Y-58117197D01*
X69190031Y-57879087D01*
X74319969Y-57879087D01*
X74386126Y-58117197D01*
X74516144Y-58382900D01*
X74695500Y-58618133D01*
X74917301Y-58813855D01*
X75173024Y-58962545D01*
X75452841Y-59058489D01*
X75746000Y-59098000D01*
X76146000Y-59098000D01*
X76146000Y-57644000D01*
X76254000Y-57644000D01*
X76254000Y-59098000D01*
X76654000Y-59098000D01*
X76947159Y-59058489D01*
X77226976Y-58962545D01*
X77482699Y-58813855D01*
X77543982Y-58759777D01*
X102940000Y-58759777D01*
X102940000Y-59096223D01*
X103005638Y-59426205D01*
X103134390Y-59737041D01*
X103321310Y-60016786D01*
X103559214Y-60254690D01*
X103838959Y-60441610D01*
X103864043Y-60452000D01*
X103838959Y-60462390D01*
X103559214Y-60649310D01*
X103321310Y-60887214D01*
X103134390Y-61166959D01*
X103005638Y-61477795D01*
X102940000Y-61807777D01*
X102940000Y-62144223D01*
X103005638Y-62474205D01*
X103134390Y-62785041D01*
X103321310Y-63064786D01*
X103559214Y-63302690D01*
X103838959Y-63489610D01*
X104149795Y-63618362D01*
X104479777Y-63684000D01*
X104816223Y-63684000D01*
X105146205Y-63618362D01*
X105457041Y-63489610D01*
X105736786Y-63302690D01*
X105955476Y-63084000D01*
X112484524Y-63084000D01*
X112703214Y-63302690D01*
X112982959Y-63489610D01*
X113293795Y-63618362D01*
X113623777Y-63684000D01*
X113960223Y-63684000D01*
X114290205Y-63618362D01*
X114601041Y-63489610D01*
X114880786Y-63302690D01*
X115118690Y-63064786D01*
X115305610Y-62785041D01*
X115434362Y-62474205D01*
X115500000Y-62144223D01*
X115500000Y-61807777D01*
X115434362Y-61477795D01*
X115305610Y-61166959D01*
X115118690Y-60887214D01*
X114880786Y-60649310D01*
X114601041Y-60462390D01*
X114575957Y-60452000D01*
X114601041Y-60441610D01*
X114880786Y-60254690D01*
X115118690Y-60016786D01*
X115305610Y-59737041D01*
X115434362Y-59426205D01*
X115500000Y-59096223D01*
X115500000Y-58759777D01*
X115434362Y-58429795D01*
X115305610Y-58118959D01*
X115118690Y-57839214D01*
X114880786Y-57601310D01*
X114601041Y-57414390D01*
X114290205Y-57285638D01*
X113960223Y-57220000D01*
X113623777Y-57220000D01*
X113293795Y-57285638D01*
X112982959Y-57414390D01*
X112703214Y-57601310D01*
X112484524Y-57820000D01*
X105955476Y-57820000D01*
X105736786Y-57601310D01*
X105457041Y-57414390D01*
X105146205Y-57285638D01*
X104816223Y-57220000D01*
X104479777Y-57220000D01*
X104149795Y-57285638D01*
X103838959Y-57414390D01*
X103559214Y-57601310D01*
X103321310Y-57839214D01*
X103134390Y-58118959D01*
X103005638Y-58429795D01*
X102940000Y-58759777D01*
X77543982Y-58759777D01*
X77704500Y-58618133D01*
X77883856Y-58382900D01*
X78013874Y-58117197D01*
X78080031Y-57879087D01*
X77929904Y-57644000D01*
X76254000Y-57644000D01*
X76146000Y-57644000D01*
X74470096Y-57644000D01*
X74319969Y-57879087D01*
X69190031Y-57879087D01*
X69039904Y-57644000D01*
X67364000Y-57644000D01*
X67256000Y-57644000D01*
X65580096Y-57644000D01*
X65429969Y-57879087D01*
X62723206Y-57879087D01*
X62794677Y-57706543D01*
X62868000Y-57337922D01*
X62868000Y-56962078D01*
X62794677Y-56593457D01*
X62650848Y-56246223D01*
X62442040Y-55933721D01*
X62176279Y-55667960D01*
X61863777Y-55459152D01*
X61516543Y-55315323D01*
X61147922Y-55242000D01*
X60772078Y-55242000D01*
X60403457Y-55315323D01*
X60056223Y-55459152D01*
X59743721Y-55667960D01*
X59477960Y-55933721D01*
X59269152Y-56246223D01*
X59125323Y-56593457D01*
X59052000Y-56962078D01*
X55248000Y-56962078D01*
X55174677Y-56593457D01*
X55030848Y-56246223D01*
X54822040Y-55933721D01*
X54556279Y-55667960D01*
X54243777Y-55459152D01*
X53896543Y-55315323D01*
X53527922Y-55242000D01*
X53152078Y-55242000D01*
X52783457Y-55315323D01*
X52436223Y-55459152D01*
X52123721Y-55667960D01*
X51857960Y-55933721D01*
X51649152Y-56246223D01*
X51505323Y-56593457D01*
X51432000Y-56962078D01*
X23568000Y-56962078D01*
X23568000Y-52510000D01*
X65394704Y-52510000D01*
X65423820Y-52805620D01*
X65510049Y-53089879D01*
X65650077Y-53351853D01*
X65838524Y-53581476D01*
X66068147Y-53769923D01*
X66087000Y-53780000D01*
X66068147Y-53790077D01*
X65838524Y-53978524D01*
X65650077Y-54208147D01*
X65510049Y-54470121D01*
X65423820Y-54754380D01*
X65394704Y-55050000D01*
X65423820Y-55345620D01*
X65510049Y-55629879D01*
X65650077Y-55891853D01*
X65838524Y-56121476D01*
X66068147Y-56309923D01*
X66097245Y-56325476D01*
X66027301Y-56366145D01*
X65805500Y-56561867D01*
X65626144Y-56797100D01*
X65496126Y-57062803D01*
X65429969Y-57300913D01*
X65580096Y-57536000D01*
X67256000Y-57536000D01*
X67256000Y-57516000D01*
X67364000Y-57516000D01*
X67364000Y-57536000D01*
X69039904Y-57536000D01*
X69190031Y-57300913D01*
X69123874Y-57062803D01*
X68993856Y-56797100D01*
X68814500Y-56561867D01*
X68592699Y-56366145D01*
X68522755Y-56325476D01*
X68551853Y-56309923D01*
X68781476Y-56121476D01*
X68969923Y-55891853D01*
X69109951Y-55629879D01*
X69196180Y-55345620D01*
X69225296Y-55050000D01*
X69196180Y-54754380D01*
X69109951Y-54470121D01*
X68969923Y-54208147D01*
X68781476Y-53978524D01*
X68551853Y-53790077D01*
X68533000Y-53780000D01*
X68551853Y-53769923D01*
X68781476Y-53581476D01*
X68969923Y-53351853D01*
X69109951Y-53089879D01*
X69196180Y-52805620D01*
X69225296Y-52510000D01*
X74284704Y-52510000D01*
X74313820Y-52805620D01*
X74400049Y-53089879D01*
X74540077Y-53351853D01*
X74728524Y-53581476D01*
X74958147Y-53769923D01*
X74977000Y-53780000D01*
X74958147Y-53790077D01*
X74728524Y-53978524D01*
X74540077Y-54208147D01*
X74400049Y-54470121D01*
X74313820Y-54754380D01*
X74284704Y-55050000D01*
X74313820Y-55345620D01*
X74400049Y-55629879D01*
X74540077Y-55891853D01*
X74728524Y-56121476D01*
X74958147Y-56309923D01*
X74987245Y-56325476D01*
X74917301Y-56366145D01*
X74695500Y-56561867D01*
X74516144Y-56797100D01*
X74386126Y-57062803D01*
X74319969Y-57300913D01*
X74470096Y-57536000D01*
X76146000Y-57536000D01*
X76146000Y-57516000D01*
X76254000Y-57516000D01*
X76254000Y-57536000D01*
X77929904Y-57536000D01*
X78080031Y-57300913D01*
X78013874Y-57062803D01*
X77883856Y-56797100D01*
X77704500Y-56561867D01*
X77482699Y-56366145D01*
X77412755Y-56325476D01*
X77441853Y-56309923D01*
X77671476Y-56121476D01*
X77859923Y-55891853D01*
X77999951Y-55629879D01*
X78086180Y-55345620D01*
X78115296Y-55050000D01*
X78086180Y-54754380D01*
X77999951Y-54470121D01*
X77859923Y-54208147D01*
X77671476Y-53978524D01*
X77441853Y-53790077D01*
X77423000Y-53780000D01*
X77441853Y-53769923D01*
X77671476Y-53581476D01*
X77859923Y-53351853D01*
X77999951Y-53089879D01*
X78086180Y-52805620D01*
X78115296Y-52510000D01*
X78086180Y-52214380D01*
X77999951Y-51930121D01*
X77859923Y-51668147D01*
X77671476Y-51438524D01*
X77441853Y-51250077D01*
X77179879Y-51110049D01*
X76895620Y-51023820D01*
X76674078Y-51002000D01*
X75725922Y-51002000D01*
X75504380Y-51023820D01*
X75220121Y-51110049D01*
X74958147Y-51250077D01*
X74728524Y-51438524D01*
X74540077Y-51668147D01*
X74400049Y-51930121D01*
X74313820Y-52214380D01*
X74284704Y-52510000D01*
X69225296Y-52510000D01*
X69196180Y-52214380D01*
X69109951Y-51930121D01*
X68969923Y-51668147D01*
X68781476Y-51438524D01*
X68551853Y-51250077D01*
X68289879Y-51110049D01*
X68005620Y-51023820D01*
X67784078Y-51002000D01*
X66835922Y-51002000D01*
X66614380Y-51023820D01*
X66330121Y-51110049D01*
X66068147Y-51250077D01*
X65838524Y-51438524D01*
X65650077Y-51668147D01*
X65510049Y-51930121D01*
X65423820Y-52214380D01*
X65394704Y-52510000D01*
X23568000Y-52510000D01*
X23568000Y-46211010D01*
X65702000Y-46211010D01*
X65702000Y-46968991D01*
X65725267Y-47205223D01*
X65817214Y-47508332D01*
X65966528Y-47787679D01*
X66167471Y-48032529D01*
X66412322Y-48233472D01*
X66691669Y-48382786D01*
X66994778Y-48474733D01*
X67310000Y-48505780D01*
X67625223Y-48474733D01*
X67928332Y-48382786D01*
X68207679Y-48233472D01*
X68452529Y-48032529D01*
X68653472Y-47787679D01*
X68802786Y-47508332D01*
X68894733Y-47205222D01*
X68918000Y-46968990D01*
X68918000Y-46211009D01*
X70147000Y-46211009D01*
X70147000Y-46968990D01*
X70170267Y-47205222D01*
X70262214Y-47508331D01*
X70411528Y-47787678D01*
X70612471Y-48032529D01*
X70857321Y-48233472D01*
X71136668Y-48382786D01*
X71439777Y-48474733D01*
X71755000Y-48505780D01*
X72070222Y-48474733D01*
X72373331Y-48382786D01*
X72652678Y-48233472D01*
X72897529Y-48032529D01*
X73098472Y-47787679D01*
X73247786Y-47508332D01*
X73339733Y-47205223D01*
X73363000Y-46968991D01*
X73363000Y-46211010D01*
X73339733Y-45974778D01*
X73247786Y-45671668D01*
X73225515Y-45630000D01*
X84918575Y-45630000D01*
X84918575Y-49630000D01*
X84932245Y-49768792D01*
X84972729Y-49902251D01*
X85038472Y-50025247D01*
X85126947Y-50133053D01*
X85234753Y-50221528D01*
X85357749Y-50287271D01*
X85491208Y-50327755D01*
X85630000Y-50341425D01*
X89630000Y-50341425D01*
X89768792Y-50327755D01*
X89902251Y-50287271D01*
X90025247Y-50221528D01*
X90133053Y-50133053D01*
X90221528Y-50025247D01*
X90287271Y-49902251D01*
X90327755Y-49768792D01*
X90341425Y-49630000D01*
X90341425Y-49466731D01*
X95869636Y-49466731D01*
X96074578Y-49862726D01*
X96540048Y-50123272D01*
X97047404Y-50288004D01*
X97577149Y-50350590D01*
X98108925Y-50308625D01*
X98622296Y-50163723D01*
X99097534Y-49921451D01*
X99185422Y-49862726D01*
X99390364Y-49466731D01*
X97630000Y-47706368D01*
X95869636Y-49466731D01*
X90341425Y-49466731D01*
X90341425Y-47577149D01*
X94909410Y-47577149D01*
X94951375Y-48108925D01*
X95096277Y-48622296D01*
X95338549Y-49097534D01*
X95397274Y-49185422D01*
X95793269Y-49390364D01*
X97553632Y-47630000D01*
X97706368Y-47630000D01*
X99466731Y-49390364D01*
X99862726Y-49185422D01*
X100123272Y-48719952D01*
X100288004Y-48212596D01*
X100350590Y-47682851D01*
X100308625Y-47151075D01*
X100163723Y-46637704D01*
X99921451Y-46162466D01*
X99862726Y-46074578D01*
X99466731Y-45869636D01*
X97706368Y-47630000D01*
X97553632Y-47630000D01*
X95793269Y-45869636D01*
X95397274Y-46074578D01*
X95136728Y-46540048D01*
X94971996Y-47047404D01*
X94909410Y-47577149D01*
X90341425Y-47577149D01*
X90341425Y-45793269D01*
X95869636Y-45793269D01*
X97630000Y-47553632D01*
X99390364Y-45793269D01*
X99185422Y-45397274D01*
X98719952Y-45136728D01*
X98212596Y-44971996D01*
X97682851Y-44909410D01*
X97151075Y-44951375D01*
X96637704Y-45096277D01*
X96162466Y-45338549D01*
X96074578Y-45397274D01*
X95869636Y-45793269D01*
X90341425Y-45793269D01*
X90341425Y-45630000D01*
X90327755Y-45491208D01*
X90287271Y-45357749D01*
X90221528Y-45234753D01*
X90133053Y-45126947D01*
X90025247Y-45038472D01*
X89902251Y-44972729D01*
X89768792Y-44932245D01*
X89630000Y-44918575D01*
X85630000Y-44918575D01*
X85491208Y-44932245D01*
X85357749Y-44972729D01*
X85234753Y-45038472D01*
X85126947Y-45126947D01*
X85038472Y-45234753D01*
X84972729Y-45357749D01*
X84932245Y-45491208D01*
X84918575Y-45630000D01*
X73225515Y-45630000D01*
X73098472Y-45392321D01*
X72897529Y-45147471D01*
X72652679Y-44946528D01*
X72373332Y-44797214D01*
X72070223Y-44705267D01*
X71755000Y-44674220D01*
X71439778Y-44705267D01*
X71136669Y-44797214D01*
X70857322Y-44946528D01*
X70612471Y-45147471D01*
X70411528Y-45392321D01*
X70262214Y-45671668D01*
X70170267Y-45974777D01*
X70147000Y-46211009D01*
X68918000Y-46211009D01*
X68894733Y-45974777D01*
X68802786Y-45671668D01*
X68653472Y-45392321D01*
X68452529Y-45147471D01*
X68207678Y-44946528D01*
X67928331Y-44797214D01*
X67625222Y-44705267D01*
X67310000Y-44674220D01*
X66994777Y-44705267D01*
X66691668Y-44797214D01*
X66412321Y-44946528D01*
X66167471Y-45147471D01*
X65966528Y-45392322D01*
X65817214Y-45671669D01*
X65725267Y-45974778D01*
X65702000Y-46211010D01*
X23568000Y-46211010D01*
X23568000Y-36642078D01*
X51432000Y-36642078D01*
X51432000Y-37017922D01*
X51505323Y-37386543D01*
X51649152Y-37733777D01*
X51857960Y-38046279D01*
X52123721Y-38312040D01*
X52436223Y-38520848D01*
X52783457Y-38664677D01*
X53152078Y-38738000D01*
X53527922Y-38738000D01*
X53896543Y-38664677D01*
X54243777Y-38520848D01*
X54556279Y-38312040D01*
X54822040Y-38046279D01*
X55030848Y-37733777D01*
X55174677Y-37386543D01*
X55248000Y-37017922D01*
X55248000Y-36642078D01*
X59052000Y-36642078D01*
X59052000Y-37017922D01*
X59125323Y-37386543D01*
X59269152Y-37733777D01*
X59477960Y-38046279D01*
X59743721Y-38312040D01*
X60056223Y-38520848D01*
X60403457Y-38664677D01*
X60772078Y-38738000D01*
X61147922Y-38738000D01*
X61516543Y-38664677D01*
X61863777Y-38520848D01*
X62176279Y-38312040D01*
X62442040Y-38046279D01*
X62650848Y-37733777D01*
X62794677Y-37386543D01*
X62868000Y-37017922D01*
X62868000Y-36642078D01*
X62794677Y-36273457D01*
X62702537Y-36051010D01*
X65702000Y-36051010D01*
X65702000Y-36808991D01*
X65725267Y-37045223D01*
X65817214Y-37348332D01*
X65966528Y-37627679D01*
X66167471Y-37872529D01*
X66412322Y-38073472D01*
X66691669Y-38222786D01*
X66994778Y-38314733D01*
X67310000Y-38345780D01*
X67625223Y-38314733D01*
X67928332Y-38222786D01*
X68207679Y-38073472D01*
X68452529Y-37872529D01*
X68653472Y-37627679D01*
X68802786Y-37348332D01*
X68894733Y-37045222D01*
X68918000Y-36808990D01*
X68918000Y-36281475D01*
X70247000Y-36281475D01*
X70247000Y-36578525D01*
X70304951Y-36869868D01*
X70418627Y-37144306D01*
X70583660Y-37391294D01*
X70793706Y-37601340D01*
X71040694Y-37766373D01*
X71315132Y-37880049D01*
X71606475Y-37938000D01*
X71903525Y-37938000D01*
X72194868Y-37880049D01*
X72469306Y-37766373D01*
X72716294Y-37601340D01*
X72926340Y-37391294D01*
X73091373Y-37144306D01*
X73205049Y-36869868D01*
X73263000Y-36578525D01*
X73263000Y-36281475D01*
X73205049Y-35990132D01*
X73091373Y-35715694D01*
X72926340Y-35468706D01*
X72716294Y-35258660D01*
X72469306Y-35093627D01*
X72194868Y-34979951D01*
X71903525Y-34922000D01*
X71606475Y-34922000D01*
X71315132Y-34979951D01*
X71040694Y-35093627D01*
X70793706Y-35258660D01*
X70583660Y-35468706D01*
X70418627Y-35715694D01*
X70304951Y-35990132D01*
X70247000Y-36281475D01*
X68918000Y-36281475D01*
X68918000Y-36051009D01*
X68894733Y-35814777D01*
X68802786Y-35511668D01*
X68653472Y-35232321D01*
X68452529Y-34987471D01*
X68207678Y-34786528D01*
X67928331Y-34637214D01*
X67625222Y-34545267D01*
X67310000Y-34514220D01*
X66994777Y-34545267D01*
X66691668Y-34637214D01*
X66412321Y-34786528D01*
X66167471Y-34987471D01*
X65966528Y-35232322D01*
X65817214Y-35511669D01*
X65725267Y-35814778D01*
X65702000Y-36051010D01*
X62702537Y-36051010D01*
X62650848Y-35926223D01*
X62442040Y-35613721D01*
X62176279Y-35347960D01*
X61863777Y-35139152D01*
X61516543Y-34995323D01*
X61147922Y-34922000D01*
X60772078Y-34922000D01*
X60403457Y-34995323D01*
X60056223Y-35139152D01*
X59743721Y-35347960D01*
X59477960Y-35613721D01*
X59269152Y-35926223D01*
X59125323Y-36273457D01*
X59052000Y-36642078D01*
X55248000Y-36642078D01*
X55174677Y-36273457D01*
X55030848Y-35926223D01*
X54822040Y-35613721D01*
X54556279Y-35347960D01*
X54243777Y-35139152D01*
X53896543Y-34995323D01*
X53527922Y-34922000D01*
X53152078Y-34922000D01*
X52783457Y-34995323D01*
X52436223Y-35139152D01*
X52123721Y-35347960D01*
X51857960Y-35613721D01*
X51649152Y-35926223D01*
X51505323Y-36273457D01*
X51432000Y-36642078D01*
X23568000Y-36642078D01*
X23568000Y-26188682D01*
X25124000Y-26188682D01*
X25124000Y-26643318D01*
X25212696Y-27089219D01*
X25386677Y-27509248D01*
X25639260Y-27887264D01*
X25960736Y-28208740D01*
X26338752Y-28461323D01*
X26758781Y-28635304D01*
X27204682Y-28724000D01*
X27659318Y-28724000D01*
X28105219Y-28635304D01*
X28525248Y-28461323D01*
X28903264Y-28208740D01*
X29224740Y-27887264D01*
X29323138Y-27740000D01*
X105016075Y-27740000D01*
X105016075Y-30140000D01*
X105029745Y-30278792D01*
X105070229Y-30412251D01*
X105135972Y-30535247D01*
X105224447Y-30643053D01*
X105332253Y-30731528D01*
X105455249Y-30797271D01*
X105588708Y-30837755D01*
X105727500Y-30851425D01*
X107632500Y-30851425D01*
X107771292Y-30837755D01*
X107904751Y-30797271D01*
X108027747Y-30731528D01*
X108135553Y-30643053D01*
X108224028Y-30535247D01*
X108230354Y-30523412D01*
X108293013Y-30574835D01*
X108581481Y-30729024D01*
X108894486Y-30823974D01*
X109220000Y-30856034D01*
X109545515Y-30823974D01*
X109858520Y-30729024D01*
X110146988Y-30574835D01*
X110399832Y-30367332D01*
X110490000Y-30257462D01*
X110580168Y-30367332D01*
X110833013Y-30574835D01*
X111121481Y-30729024D01*
X111434486Y-30823974D01*
X111760000Y-30856034D01*
X112085515Y-30823974D01*
X112398520Y-30729024D01*
X112686988Y-30574835D01*
X112939832Y-30367332D01*
X113147335Y-30114488D01*
X113301524Y-29826020D01*
X113396474Y-29513014D01*
X113420500Y-29269071D01*
X113420500Y-28610928D01*
X113396474Y-28366985D01*
X113301524Y-28053980D01*
X113147335Y-27765512D01*
X113126398Y-27740000D01*
X147180075Y-27740000D01*
X147180075Y-30140000D01*
X147193745Y-30278792D01*
X147234229Y-30412251D01*
X147299972Y-30535247D01*
X147388447Y-30643053D01*
X147496253Y-30731528D01*
X147619249Y-30797271D01*
X147752708Y-30837755D01*
X147891500Y-30851425D01*
X149796500Y-30851425D01*
X149935292Y-30837755D01*
X150068751Y-30797271D01*
X150191747Y-30731528D01*
X150299553Y-30643053D01*
X150388028Y-30535247D01*
X150394354Y-30523412D01*
X150457013Y-30574835D01*
X150745481Y-30729024D01*
X151058486Y-30823974D01*
X151384000Y-30856034D01*
X151709515Y-30823974D01*
X152022520Y-30729024D01*
X152310988Y-30574835D01*
X152563832Y-30367332D01*
X152654000Y-30257462D01*
X152744168Y-30367332D01*
X152997013Y-30574835D01*
X153285481Y-30729024D01*
X153598486Y-30823974D01*
X153924000Y-30856034D01*
X154249515Y-30823974D01*
X154562520Y-30729024D01*
X154850988Y-30574835D01*
X155103832Y-30367332D01*
X155311335Y-30114488D01*
X155465524Y-29826020D01*
X155560474Y-29513014D01*
X155584500Y-29269071D01*
X155584500Y-28610928D01*
X155560474Y-28366985D01*
X155465524Y-28053980D01*
X155311335Y-27765512D01*
X155103832Y-27512668D01*
X154850987Y-27305165D01*
X154562519Y-27150976D01*
X154249514Y-27056026D01*
X153924000Y-27023966D01*
X153598485Y-27056026D01*
X153285480Y-27150976D01*
X152997012Y-27305165D01*
X152744168Y-27512668D01*
X152654000Y-27622539D01*
X152563832Y-27512668D01*
X152310987Y-27305165D01*
X152022519Y-27150976D01*
X151709514Y-27056026D01*
X151384000Y-27023966D01*
X151058485Y-27056026D01*
X150745480Y-27150976D01*
X150457012Y-27305165D01*
X150394354Y-27356587D01*
X150388028Y-27344753D01*
X150299553Y-27236947D01*
X150191747Y-27148472D01*
X150068751Y-27082729D01*
X149935292Y-27042245D01*
X149796500Y-27028575D01*
X147891500Y-27028575D01*
X147752708Y-27042245D01*
X147619249Y-27082729D01*
X147496253Y-27148472D01*
X147388447Y-27236947D01*
X147299972Y-27344753D01*
X147234229Y-27467749D01*
X147193745Y-27601208D01*
X147180075Y-27740000D01*
X113126398Y-27740000D01*
X112939832Y-27512668D01*
X112686987Y-27305165D01*
X112398519Y-27150976D01*
X112085514Y-27056026D01*
X111760000Y-27023966D01*
X111434485Y-27056026D01*
X111121480Y-27150976D01*
X110833012Y-27305165D01*
X110580168Y-27512668D01*
X110490000Y-27622539D01*
X110399832Y-27512668D01*
X110146987Y-27305165D01*
X109858519Y-27150976D01*
X109545514Y-27056026D01*
X109220000Y-27023966D01*
X108894485Y-27056026D01*
X108581480Y-27150976D01*
X108293012Y-27305165D01*
X108230354Y-27356587D01*
X108224028Y-27344753D01*
X108135553Y-27236947D01*
X108027747Y-27148472D01*
X107904751Y-27082729D01*
X107771292Y-27042245D01*
X107632500Y-27028575D01*
X105727500Y-27028575D01*
X105588708Y-27042245D01*
X105455249Y-27082729D01*
X105332253Y-27148472D01*
X105224447Y-27236947D01*
X105135972Y-27344753D01*
X105070229Y-27467749D01*
X105029745Y-27601208D01*
X105016075Y-27740000D01*
X29323138Y-27740000D01*
X29477323Y-27509248D01*
X29651304Y-27089219D01*
X29740000Y-26643318D01*
X29740000Y-26188682D01*
X159236000Y-26188682D01*
X159236000Y-26643318D01*
X159324696Y-27089219D01*
X159498677Y-27509248D01*
X159751260Y-27887264D01*
X160072736Y-28208740D01*
X160450752Y-28461323D01*
X160870781Y-28635304D01*
X161316682Y-28724000D01*
X161771318Y-28724000D01*
X162217219Y-28635304D01*
X162637248Y-28461323D01*
X163015264Y-28208740D01*
X163336740Y-27887264D01*
X163589323Y-27509248D01*
X163763304Y-27089219D01*
X163852000Y-26643318D01*
X163852000Y-26188682D01*
X163763304Y-25742781D01*
X163589323Y-25322752D01*
X163336740Y-24944736D01*
X163015264Y-24623260D01*
X162637248Y-24370677D01*
X162217219Y-24196696D01*
X161771318Y-24108000D01*
X161316682Y-24108000D01*
X160870781Y-24196696D01*
X160450752Y-24370677D01*
X160072736Y-24623260D01*
X159751260Y-24944736D01*
X159498677Y-25322752D01*
X159324696Y-25742781D01*
X159236000Y-26188682D01*
X29740000Y-26188682D01*
X29651304Y-25742781D01*
X29477323Y-25322752D01*
X29224740Y-24944736D01*
X28903264Y-24623260D01*
X28525248Y-24370677D01*
X28105219Y-24196696D01*
X27659318Y-24108000D01*
X27204682Y-24108000D01*
X26758781Y-24196696D01*
X26338752Y-24370677D01*
X25960736Y-24623260D01*
X25639260Y-24944736D01*
X25386677Y-25322752D01*
X25212696Y-25742781D01*
X25124000Y-26188682D01*
X23568000Y-26188682D01*
X23568000Y-22552000D01*
X165408000Y-22552000D01*
X165408000Y-111560000D01*
G37*
X165408000Y-111560000D02*
X23568000Y-111560000D01*
X23568000Y-107468682D01*
X25124000Y-107468682D01*
X25124000Y-107923318D01*
X25212696Y-108369219D01*
X25386677Y-108789248D01*
X25639260Y-109167264D01*
X25960736Y-109488740D01*
X26338752Y-109741323D01*
X26758781Y-109915304D01*
X27204682Y-110004000D01*
X27659318Y-110004000D01*
X28105219Y-109915304D01*
X28525248Y-109741323D01*
X28903264Y-109488740D01*
X29224740Y-109167264D01*
X29477323Y-108789248D01*
X29651304Y-108369219D01*
X29740000Y-107923318D01*
X29740000Y-107468682D01*
X29694910Y-107242000D01*
X105019500Y-107242000D01*
X105019500Y-107489500D01*
X105061941Y-107812410D01*
X105166563Y-108120835D01*
X105329345Y-108402923D01*
X105544032Y-108647834D01*
X105802374Y-108846156D01*
X106094443Y-108990267D01*
X106367043Y-109066242D01*
X106626000Y-108918017D01*
X106626000Y-107242000D01*
X105019500Y-107242000D01*
X29694910Y-107242000D01*
X29651304Y-107022781D01*
X29594855Y-106886500D01*
X105019500Y-106886500D01*
X105019500Y-107134000D01*
X106626000Y-107134000D01*
X106626000Y-105457983D01*
X106734000Y-105457983D01*
X106734000Y-107134000D01*
X106754000Y-107134000D01*
X106754000Y-107242000D01*
X106734000Y-107242000D01*
X106734000Y-108918017D01*
X106992957Y-109066242D01*
X107265557Y-108990267D01*
X107557626Y-108846156D01*
X107815968Y-108647834D01*
X107945537Y-108500024D01*
X108040168Y-108615332D01*
X108293012Y-108822835D01*
X108581480Y-108977024D01*
X108894485Y-109071974D01*
X109220000Y-109104034D01*
X109545514Y-109071974D01*
X109858519Y-108977024D01*
X110146987Y-108822835D01*
X110209646Y-108771412D01*
X110215972Y-108783247D01*
X110304447Y-108891053D01*
X110412253Y-108979528D01*
X110535249Y-109045271D01*
X110668708Y-109085755D01*
X110807500Y-109099425D01*
X112712500Y-109099425D01*
X112851292Y-109085755D01*
X112984751Y-109045271D01*
X113107747Y-108979528D01*
X113215553Y-108891053D01*
X113304028Y-108783247D01*
X113369771Y-108660251D01*
X113410255Y-108526792D01*
X113423925Y-108388000D01*
X113423925Y-107242000D01*
X147183500Y-107242000D01*
X147183500Y-107489500D01*
X147225941Y-107812410D01*
X147330563Y-108120835D01*
X147493345Y-108402923D01*
X147708032Y-108647834D01*
X147966374Y-108846156D01*
X148258443Y-108990267D01*
X148531043Y-109066242D01*
X148790000Y-108918017D01*
X148790000Y-107242000D01*
X147183500Y-107242000D01*
X113423925Y-107242000D01*
X113423925Y-106886500D01*
X147183500Y-106886500D01*
X147183500Y-107134000D01*
X148790000Y-107134000D01*
X148790000Y-105457983D01*
X148898000Y-105457983D01*
X148898000Y-107134000D01*
X148918000Y-107134000D01*
X148918000Y-107242000D01*
X148898000Y-107242000D01*
X148898000Y-108918017D01*
X149156957Y-109066242D01*
X149429557Y-108990267D01*
X149721626Y-108846156D01*
X149979968Y-108647834D01*
X150109537Y-108500024D01*
X150204168Y-108615332D01*
X150457012Y-108822835D01*
X150745480Y-108977024D01*
X151058485Y-109071974D01*
X151384000Y-109104034D01*
X151709514Y-109071974D01*
X152022519Y-108977024D01*
X152310987Y-108822835D01*
X152373646Y-108771412D01*
X152379972Y-108783247D01*
X152468447Y-108891053D01*
X152576253Y-108979528D01*
X152699249Y-109045271D01*
X152832708Y-109085755D01*
X152971500Y-109099425D01*
X154876500Y-109099425D01*
X155015292Y-109085755D01*
X155148751Y-109045271D01*
X155271747Y-108979528D01*
X155379553Y-108891053D01*
X155468028Y-108783247D01*
X155533771Y-108660251D01*
X155574255Y-108526792D01*
X155587925Y-108388000D01*
X155587925Y-107468682D01*
X159236000Y-107468682D01*
X159236000Y-107923318D01*
X159324696Y-108369219D01*
X159498677Y-108789248D01*
X159751260Y-109167264D01*
X160072736Y-109488740D01*
X160450752Y-109741323D01*
X160870781Y-109915304D01*
X161316682Y-110004000D01*
X161771318Y-110004000D01*
X162217219Y-109915304D01*
X162637248Y-109741323D01*
X163015264Y-109488740D01*
X163336740Y-109167264D01*
X163589323Y-108789248D01*
X163763304Y-108369219D01*
X163852000Y-107923318D01*
X163852000Y-107468682D01*
X163763304Y-107022781D01*
X163589323Y-106602752D01*
X163336740Y-106224736D01*
X163015264Y-105903260D01*
X162637248Y-105650677D01*
X162217219Y-105476696D01*
X161771318Y-105388000D01*
X161316682Y-105388000D01*
X160870781Y-105476696D01*
X160450752Y-105650677D01*
X160072736Y-105903260D01*
X159751260Y-106224736D01*
X159498677Y-106602752D01*
X159324696Y-107022781D01*
X159236000Y-107468682D01*
X155587925Y-107468682D01*
X155587925Y-105988000D01*
X155574255Y-105849208D01*
X155533771Y-105715749D01*
X155468028Y-105592753D01*
X155379553Y-105484947D01*
X155271747Y-105396472D01*
X155148751Y-105330729D01*
X155015292Y-105290245D01*
X154876500Y-105276575D01*
X152971500Y-105276575D01*
X152832708Y-105290245D01*
X152699249Y-105330729D01*
X152576253Y-105396472D01*
X152468447Y-105484947D01*
X152379972Y-105592753D01*
X152373646Y-105604587D01*
X152310988Y-105553165D01*
X152022520Y-105398976D01*
X151709515Y-105304026D01*
X151384000Y-105271966D01*
X151058486Y-105304026D01*
X150745481Y-105398976D01*
X150457013Y-105553165D01*
X150204168Y-105760668D01*
X150109537Y-105875976D01*
X149979968Y-105728166D01*
X149721626Y-105529844D01*
X149429557Y-105385733D01*
X149156957Y-105309758D01*
X148898000Y-105457983D01*
X148790000Y-105457983D01*
X148531043Y-105309758D01*
X148258443Y-105385733D01*
X147966374Y-105529844D01*
X147708032Y-105728166D01*
X147493345Y-105973077D01*
X147330563Y-106255165D01*
X147225941Y-106563590D01*
X147183500Y-106886500D01*
X113423925Y-106886500D01*
X113423925Y-105988000D01*
X113410255Y-105849208D01*
X113369771Y-105715749D01*
X113304028Y-105592753D01*
X113215553Y-105484947D01*
X113107747Y-105396472D01*
X112984751Y-105330729D01*
X112851292Y-105290245D01*
X112712500Y-105276575D01*
X110807500Y-105276575D01*
X110668708Y-105290245D01*
X110535249Y-105330729D01*
X110412253Y-105396472D01*
X110304447Y-105484947D01*
X110215972Y-105592753D01*
X110209646Y-105604587D01*
X110146988Y-105553165D01*
X109858520Y-105398976D01*
X109545515Y-105304026D01*
X109220000Y-105271966D01*
X108894486Y-105304026D01*
X108581481Y-105398976D01*
X108293013Y-105553165D01*
X108040168Y-105760668D01*
X107945537Y-105875976D01*
X107815968Y-105728166D01*
X107557626Y-105529844D01*
X107265557Y-105385733D01*
X106992957Y-105309758D01*
X106734000Y-105457983D01*
X106626000Y-105457983D01*
X106367043Y-105309758D01*
X106094443Y-105385733D01*
X105802374Y-105529844D01*
X105544032Y-105728166D01*
X105329345Y-105973077D01*
X105166563Y-106255165D01*
X105061941Y-106563590D01*
X105019500Y-106886500D01*
X29594855Y-106886500D01*
X29477323Y-106602752D01*
X29224740Y-106224736D01*
X28903264Y-105903260D01*
X28525248Y-105650677D01*
X28105219Y-105476696D01*
X27659318Y-105388000D01*
X27204682Y-105388000D01*
X26758781Y-105476696D01*
X26338752Y-105650677D01*
X25960736Y-105903260D01*
X25639260Y-106224736D01*
X25386677Y-106602752D01*
X25212696Y-107022781D01*
X25124000Y-107468682D01*
X23568000Y-107468682D01*
X23568000Y-98872078D01*
X51432000Y-98872078D01*
X51432000Y-99247922D01*
X51505323Y-99616543D01*
X51649152Y-99963777D01*
X51857960Y-100276279D01*
X52123721Y-100542040D01*
X52436223Y-100750848D01*
X52783457Y-100894677D01*
X53152078Y-100968000D01*
X53527922Y-100968000D01*
X53896543Y-100894677D01*
X54243777Y-100750848D01*
X54556279Y-100542040D01*
X54822040Y-100276279D01*
X55030848Y-99963777D01*
X55174677Y-99616543D01*
X55248000Y-99247922D01*
X55248000Y-98872078D01*
X59052000Y-98872078D01*
X59052000Y-99247922D01*
X59125323Y-99616543D01*
X59269152Y-99963777D01*
X59477960Y-100276279D01*
X59743721Y-100542040D01*
X60056223Y-100750848D01*
X60403457Y-100894677D01*
X60772078Y-100968000D01*
X61147922Y-100968000D01*
X61516543Y-100894677D01*
X61863777Y-100750848D01*
X62176279Y-100542040D01*
X62442040Y-100276279D01*
X62650848Y-99963777D01*
X62794677Y-99616543D01*
X62868000Y-99247922D01*
X62868000Y-99081010D01*
X65702000Y-99081010D01*
X65702000Y-99838991D01*
X65725267Y-100075223D01*
X65817214Y-100378332D01*
X65966528Y-100657679D01*
X66167471Y-100902529D01*
X66412322Y-101103472D01*
X66691669Y-101252786D01*
X66994778Y-101344733D01*
X67310000Y-101375780D01*
X67625223Y-101344733D01*
X67928332Y-101252786D01*
X68207679Y-101103472D01*
X68452529Y-100902529D01*
X68653472Y-100657679D01*
X68802786Y-100378332D01*
X68894733Y-100075222D01*
X68918000Y-99838990D01*
X68918000Y-99081010D01*
X70782000Y-99081010D01*
X70782000Y-99838991D01*
X70805267Y-100075223D01*
X70897214Y-100378332D01*
X71046528Y-100657679D01*
X71247471Y-100902529D01*
X71492322Y-101103472D01*
X71771669Y-101252786D01*
X72074778Y-101344733D01*
X72390000Y-101375780D01*
X72705223Y-101344733D01*
X73008332Y-101252786D01*
X73287679Y-101103472D01*
X73532529Y-100902529D01*
X73733472Y-100657679D01*
X73882786Y-100378332D01*
X73974733Y-100075222D01*
X73998000Y-99838990D01*
X73998000Y-99081009D01*
X73974733Y-98844777D01*
X73882786Y-98541668D01*
X73733472Y-98262321D01*
X73532529Y-98017471D01*
X73287678Y-97816528D01*
X73008331Y-97667214D01*
X72705222Y-97575267D01*
X72390000Y-97544220D01*
X72074777Y-97575267D01*
X71771668Y-97667214D01*
X71492321Y-97816528D01*
X71247471Y-98017471D01*
X71046528Y-98262322D01*
X70897214Y-98541669D01*
X70805267Y-98844778D01*
X70782000Y-99081010D01*
X68918000Y-99081010D01*
X68918000Y-99081009D01*
X68894733Y-98844777D01*
X68802786Y-98541668D01*
X68653472Y-98262321D01*
X68452529Y-98017471D01*
X68207678Y-97816528D01*
X67928331Y-97667214D01*
X67625222Y-97575267D01*
X67310000Y-97544220D01*
X66994777Y-97575267D01*
X66691668Y-97667214D01*
X66412321Y-97816528D01*
X66167471Y-98017471D01*
X65966528Y-98262322D01*
X65817214Y-98541669D01*
X65725267Y-98844778D01*
X65702000Y-99081010D01*
X62868000Y-99081010D01*
X62868000Y-98872078D01*
X62794677Y-98503457D01*
X62650848Y-98156223D01*
X62442040Y-97843721D01*
X62176279Y-97577960D01*
X61863777Y-97369152D01*
X61516543Y-97225323D01*
X61147922Y-97152000D01*
X60772078Y-97152000D01*
X60403457Y-97225323D01*
X60056223Y-97369152D01*
X59743721Y-97577960D01*
X59477960Y-97843721D01*
X59269152Y-98156223D01*
X59125323Y-98503457D01*
X59052000Y-98872078D01*
X55248000Y-98872078D01*
X55174677Y-98503457D01*
X55030848Y-98156223D01*
X54822040Y-97843721D01*
X54556279Y-97577960D01*
X54243777Y-97369152D01*
X53896543Y-97225323D01*
X53527922Y-97152000D01*
X53152078Y-97152000D01*
X52783457Y-97225323D01*
X52436223Y-97369152D01*
X52123721Y-97577960D01*
X51857960Y-97843721D01*
X51649152Y-98156223D01*
X51505323Y-98503457D01*
X51432000Y-98872078D01*
X23568000Y-98872078D01*
X23568000Y-87400000D01*
X30808575Y-87400000D01*
X30808575Y-90400000D01*
X30822245Y-90538792D01*
X30862729Y-90672251D01*
X30928472Y-90795247D01*
X31016947Y-90903053D01*
X31124753Y-90991528D01*
X31247749Y-91057271D01*
X31381208Y-91097755D01*
X31520000Y-91111425D01*
X34520000Y-91111425D01*
X34658792Y-91097755D01*
X34792251Y-91057271D01*
X34915247Y-90991528D01*
X35023053Y-90903053D01*
X35111528Y-90795247D01*
X35177271Y-90672251D01*
X35217755Y-90538792D01*
X35231425Y-90400000D01*
X35231425Y-88921010D01*
X65702000Y-88921010D01*
X65702000Y-89678991D01*
X65725267Y-89915223D01*
X65817214Y-90218332D01*
X65966528Y-90497679D01*
X66167471Y-90742529D01*
X66412322Y-90943472D01*
X66691669Y-91092786D01*
X66994778Y-91184733D01*
X67310000Y-91215780D01*
X67625223Y-91184733D01*
X67928332Y-91092786D01*
X68207679Y-90943472D01*
X68452529Y-90742529D01*
X68653472Y-90497679D01*
X68802786Y-90218332D01*
X68894733Y-89915222D01*
X68918000Y-89678990D01*
X68918000Y-88921010D01*
X70782000Y-88921010D01*
X70782000Y-89678991D01*
X70805267Y-89915223D01*
X70897214Y-90218332D01*
X71046528Y-90497679D01*
X71247471Y-90742529D01*
X71492322Y-90943472D01*
X71771669Y-91092786D01*
X72074778Y-91184733D01*
X72390000Y-91215780D01*
X72705223Y-91184733D01*
X73008332Y-91092786D01*
X73287679Y-90943472D01*
X73532529Y-90742529D01*
X73733472Y-90497679D01*
X73882786Y-90218332D01*
X73974733Y-89915222D01*
X73998000Y-89678990D01*
X73998000Y-88921009D01*
X73974733Y-88684777D01*
X73882786Y-88381668D01*
X73733472Y-88102321D01*
X73532529Y-87857471D01*
X73287678Y-87656528D01*
X73008331Y-87507214D01*
X72705222Y-87415267D01*
X72390000Y-87384220D01*
X72074777Y-87415267D01*
X71771668Y-87507214D01*
X71492321Y-87656528D01*
X71247471Y-87857471D01*
X71046528Y-88102322D01*
X70897214Y-88381669D01*
X70805267Y-88684778D01*
X70782000Y-88921010D01*
X68918000Y-88921010D01*
X68918000Y-88921009D01*
X68894733Y-88684777D01*
X68802786Y-88381668D01*
X68653472Y-88102321D01*
X68452529Y-87857471D01*
X68207678Y-87656528D01*
X67928331Y-87507214D01*
X67625222Y-87415267D01*
X67310000Y-87384220D01*
X66994777Y-87415267D01*
X66691668Y-87507214D01*
X66412321Y-87656528D01*
X66167471Y-87857471D01*
X65966528Y-88102322D01*
X65817214Y-88381669D01*
X65725267Y-88684778D01*
X65702000Y-88921010D01*
X35231425Y-88921010D01*
X35231425Y-87400000D01*
X35217755Y-87261208D01*
X35177271Y-87127749D01*
X35111528Y-87004753D01*
X35023053Y-86896947D01*
X34915247Y-86808472D01*
X34792251Y-86742729D01*
X34658792Y-86702245D01*
X34520000Y-86688575D01*
X31520000Y-86688575D01*
X31381208Y-86702245D01*
X31247749Y-86742729D01*
X31124753Y-86808472D01*
X31016947Y-86896947D01*
X30928472Y-87004753D01*
X30862729Y-87127749D01*
X30822245Y-87261208D01*
X30808575Y-87400000D01*
X23568000Y-87400000D01*
X23568000Y-86495001D01*
X84918575Y-86495001D01*
X84918575Y-90495001D01*
X84932245Y-90633793D01*
X84972729Y-90767252D01*
X85038472Y-90890248D01*
X85126947Y-90998054D01*
X85234753Y-91086529D01*
X85357749Y-91152272D01*
X85491208Y-91192756D01*
X85630000Y-91206426D01*
X89630000Y-91206426D01*
X89768792Y-91192756D01*
X89902251Y-91152272D01*
X90025247Y-91086529D01*
X90133053Y-90998054D01*
X90221528Y-90890248D01*
X90287271Y-90767252D01*
X90327755Y-90633793D01*
X90341425Y-90495001D01*
X90341425Y-90331732D01*
X95869636Y-90331732D01*
X96074578Y-90727727D01*
X96540048Y-90988273D01*
X97047404Y-91153005D01*
X97577149Y-91215591D01*
X98108925Y-91173626D01*
X98622296Y-91028724D01*
X99097534Y-90786452D01*
X99185422Y-90727727D01*
X99390364Y-90331732D01*
X97630000Y-88571369D01*
X95869636Y-90331732D01*
X90341425Y-90331732D01*
X90341425Y-88442150D01*
X94909410Y-88442150D01*
X94951375Y-88973926D01*
X95096277Y-89487297D01*
X95338549Y-89962535D01*
X95397274Y-90050423D01*
X95793269Y-90255365D01*
X97553632Y-88495001D01*
X97706368Y-88495001D01*
X99466731Y-90255365D01*
X99862726Y-90050423D01*
X100123272Y-89584953D01*
X100288004Y-89077597D01*
X100350590Y-88547852D01*
X100308625Y-88016076D01*
X100163723Y-87502705D01*
X99921451Y-87027467D01*
X99862726Y-86939579D01*
X99466731Y-86734637D01*
X97706368Y-88495001D01*
X97553632Y-88495001D01*
X95793269Y-86734637D01*
X95397274Y-86939579D01*
X95136728Y-87405049D01*
X94971996Y-87912405D01*
X94909410Y-88442150D01*
X90341425Y-88442150D01*
X90341425Y-86658270D01*
X95869636Y-86658270D01*
X97630000Y-88418633D01*
X99390364Y-86658270D01*
X99185422Y-86262275D01*
X98719952Y-86001729D01*
X98212596Y-85836997D01*
X97682851Y-85774411D01*
X97151075Y-85816376D01*
X96637704Y-85961278D01*
X96162466Y-86203550D01*
X96074578Y-86262275D01*
X95869636Y-86658270D01*
X90341425Y-86658270D01*
X90341425Y-86495001D01*
X90327755Y-86356209D01*
X90287271Y-86222750D01*
X90221528Y-86099754D01*
X90133053Y-85991948D01*
X90025247Y-85903473D01*
X89902251Y-85837730D01*
X89768792Y-85797246D01*
X89630000Y-85783576D01*
X85630000Y-85783576D01*
X85491208Y-85797246D01*
X85357749Y-85837730D01*
X85234753Y-85903473D01*
X85126947Y-85991948D01*
X85038472Y-86099754D01*
X84972729Y-86222750D01*
X84932245Y-86356209D01*
X84918575Y-86495001D01*
X23568000Y-86495001D01*
X23568000Y-83602531D01*
X30812000Y-83602531D01*
X30812000Y-84037469D01*
X30896852Y-84464050D01*
X31063295Y-84865880D01*
X31304934Y-85227518D01*
X31612482Y-85535066D01*
X31974120Y-85776705D01*
X32375950Y-85943148D01*
X32802531Y-86028000D01*
X33237469Y-86028000D01*
X33664050Y-85943148D01*
X34065880Y-85776705D01*
X34427518Y-85535066D01*
X34735066Y-85227518D01*
X34976705Y-84865880D01*
X35143148Y-84464050D01*
X35228000Y-84037469D01*
X35228000Y-83669087D01*
X65429969Y-83669087D01*
X65496126Y-83907197D01*
X65626144Y-84172900D01*
X65805500Y-84408133D01*
X66027301Y-84603855D01*
X66283024Y-84752545D01*
X66562841Y-84848489D01*
X66856000Y-84888000D01*
X67256000Y-84888000D01*
X67256000Y-83434000D01*
X67364000Y-83434000D01*
X67364000Y-84888000D01*
X67764000Y-84888000D01*
X68057159Y-84848489D01*
X68336976Y-84752545D01*
X68592699Y-84603855D01*
X68814500Y-84408133D01*
X68993856Y-84172900D01*
X69123874Y-83907197D01*
X69190031Y-83669087D01*
X74319969Y-83669087D01*
X74386126Y-83907197D01*
X74516144Y-84172900D01*
X74695500Y-84408133D01*
X74917301Y-84603855D01*
X75173024Y-84752545D01*
X75452841Y-84848489D01*
X75746000Y-84888000D01*
X76146000Y-84888000D01*
X76146000Y-83434000D01*
X76254000Y-83434000D01*
X76254000Y-84888000D01*
X76654000Y-84888000D01*
X76947159Y-84848489D01*
X77226976Y-84752545D01*
X77482699Y-84603855D01*
X77704500Y-84408133D01*
X77883856Y-84172900D01*
X78013874Y-83907197D01*
X78080031Y-83669087D01*
X77929904Y-83434000D01*
X76254000Y-83434000D01*
X76146000Y-83434000D01*
X74470096Y-83434000D01*
X74319969Y-83669087D01*
X69190031Y-83669087D01*
X69039904Y-83434000D01*
X67364000Y-83434000D01*
X67256000Y-83434000D01*
X65580096Y-83434000D01*
X65429969Y-83669087D01*
X35228000Y-83669087D01*
X35228000Y-83602531D01*
X35143148Y-83175950D01*
X34976705Y-82774120D01*
X34735066Y-82412482D01*
X34427518Y-82104934D01*
X34065880Y-81863295D01*
X33664050Y-81696852D01*
X33237469Y-81612000D01*
X32802531Y-81612000D01*
X32375950Y-81696852D01*
X31974120Y-81863295D01*
X31612482Y-82104934D01*
X31304934Y-82412482D01*
X31063295Y-82774120D01*
X30896852Y-83175950D01*
X30812000Y-83602531D01*
X23568000Y-83602531D01*
X23568000Y-80221367D01*
X31615000Y-80221367D01*
X31759963Y-80566162D01*
X32140441Y-80776893D01*
X32554719Y-80909348D01*
X32986878Y-80958437D01*
X33420310Y-80922272D01*
X33838359Y-80802243D01*
X34224958Y-80602963D01*
X34280037Y-80566162D01*
X34425000Y-80221367D01*
X33020000Y-78816368D01*
X31615000Y-80221367D01*
X23568000Y-80221367D01*
X23568000Y-78706878D01*
X30801563Y-78706878D01*
X30837728Y-79140310D01*
X30957757Y-79558359D01*
X31157037Y-79944958D01*
X31193838Y-80000037D01*
X31538633Y-80145000D01*
X32943632Y-78740000D01*
X33096368Y-78740000D01*
X34501367Y-80145000D01*
X34846162Y-80000037D01*
X35056893Y-79619559D01*
X35189348Y-79205281D01*
X35238437Y-78773122D01*
X35219994Y-78552078D01*
X51432000Y-78552078D01*
X51432000Y-78927922D01*
X51505323Y-79296543D01*
X51649152Y-79643777D01*
X51857960Y-79956279D01*
X52123721Y-80222040D01*
X52436223Y-80430848D01*
X52783457Y-80574677D01*
X53152078Y-80648000D01*
X53527922Y-80648000D01*
X53896543Y-80574677D01*
X54243777Y-80430848D01*
X54556279Y-80222040D01*
X54822040Y-79956279D01*
X55030848Y-79643777D01*
X55174677Y-79296543D01*
X55248000Y-78927922D01*
X55248000Y-78552078D01*
X59052000Y-78552078D01*
X59052000Y-78927922D01*
X59125323Y-79296543D01*
X59269152Y-79643777D01*
X59477960Y-79956279D01*
X59743721Y-80222040D01*
X60056223Y-80430848D01*
X60403457Y-80574677D01*
X60772078Y-80648000D01*
X61147922Y-80648000D01*
X61516543Y-80574677D01*
X61863777Y-80430848D01*
X62176279Y-80222040D01*
X62442040Y-79956279D01*
X62650848Y-79643777D01*
X62794677Y-79296543D01*
X62868000Y-78927922D01*
X62868000Y-78552078D01*
X62817859Y-78300000D01*
X65394704Y-78300000D01*
X65423820Y-78595620D01*
X65510049Y-78879879D01*
X65650077Y-79141853D01*
X65838524Y-79371476D01*
X66068147Y-79559923D01*
X66087000Y-79570000D01*
X66068147Y-79580077D01*
X65838524Y-79768524D01*
X65650077Y-79998147D01*
X65510049Y-80260121D01*
X65423820Y-80544380D01*
X65394704Y-80840000D01*
X65423820Y-81135620D01*
X65510049Y-81419879D01*
X65650077Y-81681853D01*
X65838524Y-81911476D01*
X66068147Y-82099923D01*
X66097245Y-82115476D01*
X66027301Y-82156145D01*
X65805500Y-82351867D01*
X65626144Y-82587100D01*
X65496126Y-82852803D01*
X65429969Y-83090913D01*
X65580096Y-83326000D01*
X67256000Y-83326000D01*
X67256000Y-83306000D01*
X67364000Y-83306000D01*
X67364000Y-83326000D01*
X69039904Y-83326000D01*
X69190031Y-83090913D01*
X69123874Y-82852803D01*
X68993856Y-82587100D01*
X68814500Y-82351867D01*
X68592699Y-82156145D01*
X68522755Y-82115476D01*
X68551853Y-82099923D01*
X68781476Y-81911476D01*
X68969923Y-81681853D01*
X69109951Y-81419879D01*
X69196180Y-81135620D01*
X69225296Y-80840000D01*
X69196180Y-80544380D01*
X69109951Y-80260121D01*
X68969923Y-79998147D01*
X68781476Y-79768524D01*
X68551853Y-79580077D01*
X68533000Y-79570000D01*
X68551853Y-79559923D01*
X68781476Y-79371476D01*
X68969923Y-79141853D01*
X69109951Y-78879879D01*
X69196180Y-78595620D01*
X69225296Y-78300000D01*
X74284704Y-78300000D01*
X74313820Y-78595620D01*
X74400049Y-78879879D01*
X74540077Y-79141853D01*
X74728524Y-79371476D01*
X74958147Y-79559923D01*
X74977000Y-79570000D01*
X74958147Y-79580077D01*
X74728524Y-79768524D01*
X74540077Y-79998147D01*
X74400049Y-80260121D01*
X74313820Y-80544380D01*
X74284704Y-80840000D01*
X74313820Y-81135620D01*
X74400049Y-81419879D01*
X74540077Y-81681853D01*
X74728524Y-81911476D01*
X74958147Y-82099923D01*
X74987245Y-82115476D01*
X74917301Y-82156145D01*
X74695500Y-82351867D01*
X74516144Y-82587100D01*
X74386126Y-82852803D01*
X74319969Y-83090913D01*
X74470096Y-83326000D01*
X76146000Y-83326000D01*
X76146000Y-83306000D01*
X76254000Y-83306000D01*
X76254000Y-83326000D01*
X77929904Y-83326000D01*
X78080031Y-83090913D01*
X78013874Y-82852803D01*
X77883856Y-82587100D01*
X77704500Y-82351867D01*
X77482699Y-82156145D01*
X77412755Y-82115476D01*
X77441853Y-82099923D01*
X77671476Y-81911476D01*
X77859923Y-81681853D01*
X77999951Y-81419879D01*
X78086180Y-81135620D01*
X78115296Y-80840000D01*
X78086180Y-80544380D01*
X77999951Y-80260121D01*
X77859923Y-79998147D01*
X77671476Y-79768524D01*
X77441853Y-79580077D01*
X77423000Y-79570000D01*
X77441853Y-79559923D01*
X77671476Y-79371476D01*
X77859923Y-79141853D01*
X77999951Y-78879879D01*
X78086180Y-78595620D01*
X78115296Y-78300000D01*
X78086180Y-78004380D01*
X77999951Y-77720121D01*
X77859923Y-77458147D01*
X77671476Y-77228524D01*
X77441853Y-77040077D01*
X77179879Y-76900049D01*
X76895620Y-76813820D01*
X76674078Y-76792000D01*
X75725922Y-76792000D01*
X75504380Y-76813820D01*
X75220121Y-76900049D01*
X74958147Y-77040077D01*
X74728524Y-77228524D01*
X74540077Y-77458147D01*
X74400049Y-77720121D01*
X74313820Y-78004380D01*
X74284704Y-78300000D01*
X69225296Y-78300000D01*
X69196180Y-78004380D01*
X69109951Y-77720121D01*
X68969923Y-77458147D01*
X68781476Y-77228524D01*
X68551853Y-77040077D01*
X68289879Y-76900049D01*
X68005620Y-76813820D01*
X67784078Y-76792000D01*
X66835922Y-76792000D01*
X66614380Y-76813820D01*
X66330121Y-76900049D01*
X66068147Y-77040077D01*
X65838524Y-77228524D01*
X65650077Y-77458147D01*
X65510049Y-77720121D01*
X65423820Y-78004380D01*
X65394704Y-78300000D01*
X62817859Y-78300000D01*
X62794677Y-78183457D01*
X62650848Y-77836223D01*
X62442040Y-77523721D01*
X62176279Y-77257960D01*
X61863777Y-77049152D01*
X61516543Y-76905323D01*
X61147922Y-76832000D01*
X60772078Y-76832000D01*
X60403457Y-76905323D01*
X60056223Y-77049152D01*
X59743721Y-77257960D01*
X59477960Y-77523721D01*
X59269152Y-77836223D01*
X59125323Y-78183457D01*
X59052000Y-78552078D01*
X55248000Y-78552078D01*
X55174677Y-78183457D01*
X55030848Y-77836223D01*
X54822040Y-77523721D01*
X54556279Y-77257960D01*
X54243777Y-77049152D01*
X53896543Y-76905323D01*
X53527922Y-76832000D01*
X53152078Y-76832000D01*
X52783457Y-76905323D01*
X52436223Y-77049152D01*
X52123721Y-77257960D01*
X51857960Y-77523721D01*
X51649152Y-77836223D01*
X51505323Y-78183457D01*
X51432000Y-78552078D01*
X35219994Y-78552078D01*
X35202272Y-78339690D01*
X35082243Y-77921641D01*
X34882963Y-77535042D01*
X34846162Y-77479963D01*
X34501367Y-77335000D01*
X33096368Y-78740000D01*
X32943632Y-78740000D01*
X31538633Y-77335000D01*
X31193838Y-77479963D01*
X30983107Y-77860441D01*
X30850652Y-78274719D01*
X30801563Y-78706878D01*
X23568000Y-78706878D01*
X23568000Y-77258633D01*
X31615000Y-77258633D01*
X33020000Y-78663632D01*
X34425000Y-77258633D01*
X34280037Y-76913838D01*
X33969641Y-76741922D01*
X133884000Y-76741922D01*
X133884000Y-77690077D01*
X133905820Y-77911619D01*
X133992049Y-78195878D01*
X134132077Y-78457852D01*
X134320524Y-78687476D01*
X134550147Y-78875923D01*
X134812121Y-79015951D01*
X135096380Y-79102180D01*
X135392000Y-79131296D01*
X135687619Y-79102180D01*
X135971878Y-79015951D01*
X136233852Y-78875923D01*
X136463476Y-78687476D01*
X136651923Y-78457853D01*
X136791951Y-78195879D01*
X136878180Y-77911620D01*
X136900000Y-77690078D01*
X136900000Y-76741923D01*
X136878180Y-76520380D01*
X136791951Y-76236121D01*
X136674294Y-76016000D01*
X137680575Y-76016000D01*
X137680575Y-78416000D01*
X137694245Y-78554792D01*
X137734729Y-78688251D01*
X137800472Y-78811247D01*
X137888947Y-78919053D01*
X137996753Y-79007528D01*
X138119749Y-79073271D01*
X138253208Y-79113755D01*
X138392000Y-79127425D01*
X139992000Y-79127425D01*
X140130792Y-79113755D01*
X140264251Y-79073271D01*
X140387247Y-79007528D01*
X140495053Y-78919053D01*
X140583528Y-78811247D01*
X140649271Y-78688251D01*
X140689755Y-78554792D01*
X140703425Y-78416000D01*
X140703425Y-76016000D01*
X140689755Y-75877208D01*
X140649271Y-75743749D01*
X140583528Y-75620753D01*
X140495053Y-75512947D01*
X140387247Y-75424472D01*
X140264251Y-75358729D01*
X140130792Y-75318245D01*
X139992000Y-75304575D01*
X138392000Y-75304575D01*
X138253208Y-75318245D01*
X138119749Y-75358729D01*
X137996753Y-75424472D01*
X137888947Y-75512947D01*
X137800472Y-75620753D01*
X137734729Y-75743749D01*
X137694245Y-75877208D01*
X137680575Y-76016000D01*
X136674294Y-76016000D01*
X136651923Y-75974147D01*
X136463476Y-75744524D01*
X136233853Y-75556077D01*
X135971879Y-75416049D01*
X135687620Y-75329820D01*
X135392000Y-75300704D01*
X135096381Y-75329820D01*
X134812122Y-75416049D01*
X134550148Y-75556077D01*
X134320524Y-75744524D01*
X134132077Y-75974147D01*
X133992049Y-76236121D01*
X133905820Y-76520380D01*
X133884000Y-76741922D01*
X33969641Y-76741922D01*
X33899559Y-76703107D01*
X33485281Y-76570652D01*
X33053122Y-76521563D01*
X32619690Y-76557728D01*
X32201641Y-76677757D01*
X31815042Y-76877037D01*
X31759963Y-76913838D01*
X31615000Y-77258633D01*
X23568000Y-77258633D01*
X23568000Y-70394531D01*
X158320000Y-70394531D01*
X158320000Y-70829469D01*
X158404852Y-71256050D01*
X158571295Y-71657880D01*
X158812934Y-72019518D01*
X159120482Y-72327066D01*
X159482120Y-72568705D01*
X159883950Y-72735148D01*
X160310531Y-72820000D01*
X160745469Y-72820000D01*
X161172050Y-72735148D01*
X161573880Y-72568705D01*
X161935518Y-72327066D01*
X162243066Y-72019518D01*
X162484705Y-71657880D01*
X162651148Y-71256050D01*
X162736000Y-70829469D01*
X162736000Y-70394531D01*
X162651148Y-69967950D01*
X162484705Y-69566120D01*
X162243066Y-69204482D01*
X161935518Y-68896934D01*
X161573880Y-68655295D01*
X161172050Y-68488852D01*
X160745469Y-68404000D01*
X160310531Y-68404000D01*
X159883950Y-68488852D01*
X159482120Y-68655295D01*
X159120482Y-68896934D01*
X158812934Y-69204482D01*
X158571295Y-69566120D01*
X158404852Y-69967950D01*
X158320000Y-70394531D01*
X23568000Y-70394531D01*
X23568000Y-68791367D01*
X31615000Y-68791367D01*
X31759963Y-69136162D01*
X32140441Y-69346893D01*
X32554719Y-69479348D01*
X32986878Y-69528437D01*
X33420310Y-69492272D01*
X33838359Y-69372243D01*
X34224958Y-69172963D01*
X34280037Y-69136162D01*
X34425000Y-68791367D01*
X33020000Y-67386368D01*
X31615000Y-68791367D01*
X23568000Y-68791367D01*
X23568000Y-67276878D01*
X30801563Y-67276878D01*
X30837728Y-67710310D01*
X30957757Y-68128359D01*
X31157037Y-68514958D01*
X31193838Y-68570037D01*
X31538633Y-68715000D01*
X32943632Y-67310000D01*
X33096368Y-67310000D01*
X34501367Y-68715000D01*
X34846162Y-68570037D01*
X35056893Y-68189559D01*
X35189348Y-67775281D01*
X35238437Y-67343122D01*
X35202272Y-66909690D01*
X35082243Y-66491641D01*
X35014427Y-66360078D01*
X107312000Y-66360078D01*
X107312000Y-66735922D01*
X107385323Y-67104543D01*
X107529152Y-67451777D01*
X107737960Y-67764279D01*
X108003721Y-68030040D01*
X108316223Y-68238848D01*
X108663457Y-68382677D01*
X109032078Y-68456000D01*
X109407922Y-68456000D01*
X109776543Y-68382677D01*
X110123777Y-68238848D01*
X110436279Y-68030040D01*
X110702040Y-67764279D01*
X110910848Y-67451777D01*
X111054677Y-67104543D01*
X111128000Y-66735922D01*
X111128000Y-66360078D01*
X137792000Y-66360078D01*
X137792000Y-66735922D01*
X137865323Y-67104543D01*
X138009152Y-67451777D01*
X138217960Y-67764279D01*
X138483721Y-68030040D01*
X138796223Y-68238848D01*
X139143457Y-68382677D01*
X139512078Y-68456000D01*
X139887922Y-68456000D01*
X140256543Y-68382677D01*
X140603777Y-68238848D01*
X140916279Y-68030040D01*
X141182040Y-67764279D01*
X141390848Y-67451777D01*
X141534677Y-67104543D01*
X141608000Y-66735922D01*
X141608000Y-66360078D01*
X141534677Y-65991457D01*
X141390848Y-65644223D01*
X141182040Y-65331721D01*
X140916279Y-65065960D01*
X140603777Y-64857152D01*
X140256543Y-64713323D01*
X139887922Y-64640000D01*
X139512078Y-64640000D01*
X139143457Y-64713323D01*
X138796223Y-64857152D01*
X138483721Y-65065960D01*
X138217960Y-65331721D01*
X138009152Y-65644223D01*
X137865323Y-65991457D01*
X137792000Y-66360078D01*
X111128000Y-66360078D01*
X111054677Y-65991457D01*
X110910848Y-65644223D01*
X110702040Y-65331721D01*
X110436279Y-65065960D01*
X110123777Y-64857152D01*
X109776543Y-64713323D01*
X109407922Y-64640000D01*
X109032078Y-64640000D01*
X108663457Y-64713323D01*
X108316223Y-64857152D01*
X108003721Y-65065960D01*
X107737960Y-65331721D01*
X107529152Y-65644223D01*
X107385323Y-65991457D01*
X107312000Y-66360078D01*
X35014427Y-66360078D01*
X34882963Y-66105042D01*
X34846162Y-66049963D01*
X34501367Y-65905000D01*
X33096368Y-67310000D01*
X32943632Y-67310000D01*
X31538633Y-65905000D01*
X31193838Y-66049963D01*
X30983107Y-66430441D01*
X30850652Y-66844719D01*
X30801563Y-67276878D01*
X23568000Y-67276878D01*
X23568000Y-65828633D01*
X31615000Y-65828633D01*
X33020000Y-67233632D01*
X34425000Y-65828633D01*
X34280037Y-65483838D01*
X33899559Y-65273107D01*
X33485281Y-65140652D01*
X33053122Y-65091563D01*
X32619690Y-65127728D01*
X32201641Y-65247757D01*
X31815042Y-65447037D01*
X31759963Y-65483838D01*
X31615000Y-65828633D01*
X23568000Y-65828633D01*
X23568000Y-60730000D01*
X30808575Y-60730000D01*
X30808575Y-63730000D01*
X30822245Y-63868792D01*
X30862729Y-64002251D01*
X30928472Y-64125247D01*
X31016947Y-64233053D01*
X31124753Y-64321528D01*
X31247749Y-64387271D01*
X31381208Y-64427755D01*
X31520000Y-64441425D01*
X34520000Y-64441425D01*
X34658792Y-64427755D01*
X34792251Y-64387271D01*
X34915247Y-64321528D01*
X35023053Y-64233053D01*
X35111528Y-64125247D01*
X35161369Y-64032000D01*
X158316575Y-64032000D01*
X158316575Y-67032000D01*
X158330245Y-67170792D01*
X158370729Y-67304251D01*
X158436472Y-67427247D01*
X158524947Y-67535053D01*
X158632753Y-67623528D01*
X158755749Y-67689271D01*
X158889208Y-67729755D01*
X159028000Y-67743425D01*
X162028000Y-67743425D01*
X162166792Y-67729755D01*
X162300251Y-67689271D01*
X162423247Y-67623528D01*
X162531053Y-67535053D01*
X162619528Y-67427247D01*
X162685271Y-67304251D01*
X162725755Y-67170792D01*
X162739425Y-67032000D01*
X162739425Y-64032000D01*
X162725755Y-63893208D01*
X162685271Y-63759749D01*
X162619528Y-63636753D01*
X162531053Y-63528947D01*
X162423247Y-63440472D01*
X162300251Y-63374729D01*
X162166792Y-63334245D01*
X162028000Y-63320575D01*
X159028000Y-63320575D01*
X158889208Y-63334245D01*
X158755749Y-63374729D01*
X158632753Y-63440472D01*
X158524947Y-63528947D01*
X158436472Y-63636753D01*
X158370729Y-63759749D01*
X158330245Y-63893208D01*
X158316575Y-64032000D01*
X35161369Y-64032000D01*
X35177271Y-64002251D01*
X35217755Y-63868792D01*
X35231425Y-63730000D01*
X35231425Y-61426777D01*
X77032000Y-61426777D01*
X77032000Y-61763223D01*
X77097638Y-62093205D01*
X77226390Y-62404041D01*
X77413310Y-62683786D01*
X77651214Y-62921690D01*
X77930959Y-63108610D01*
X78241795Y-63237362D01*
X78571777Y-63303000D01*
X78908223Y-63303000D01*
X79238205Y-63237362D01*
X79549041Y-63108610D01*
X79828786Y-62921690D01*
X80047476Y-62703000D01*
X93307524Y-62703000D01*
X93399214Y-62794690D01*
X93678959Y-62981610D01*
X93989795Y-63110362D01*
X94319777Y-63176000D01*
X94656223Y-63176000D01*
X94986205Y-63110362D01*
X95297041Y-62981610D01*
X95576786Y-62794690D01*
X95814690Y-62556786D01*
X96001610Y-62277041D01*
X96130362Y-61966205D01*
X96196000Y-61636223D01*
X96196000Y-61299777D01*
X96130362Y-60969795D01*
X96001610Y-60658959D01*
X95814690Y-60379214D01*
X95576786Y-60141310D01*
X95297041Y-59954390D01*
X94986205Y-59825638D01*
X94656223Y-59760000D01*
X94319777Y-59760000D01*
X93989795Y-59825638D01*
X93678959Y-59954390D01*
X93399214Y-60141310D01*
X93161310Y-60379214D01*
X93089290Y-60487000D01*
X80047476Y-60487000D01*
X79828786Y-60268310D01*
X79549041Y-60081390D01*
X79238205Y-59952638D01*
X78908223Y-59887000D01*
X78571777Y-59887000D01*
X78241795Y-59952638D01*
X77930959Y-60081390D01*
X77651214Y-60268310D01*
X77413310Y-60506214D01*
X77226390Y-60785959D01*
X77097638Y-61096795D01*
X77032000Y-61426777D01*
X35231425Y-61426777D01*
X35231425Y-60730000D01*
X35217755Y-60591208D01*
X35177271Y-60457749D01*
X35111528Y-60334753D01*
X35023053Y-60226947D01*
X34915247Y-60138472D01*
X34792251Y-60072729D01*
X34658792Y-60032245D01*
X34520000Y-60018575D01*
X31520000Y-60018575D01*
X31381208Y-60032245D01*
X31247749Y-60072729D01*
X31124753Y-60138472D01*
X31016947Y-60226947D01*
X30928472Y-60334753D01*
X30862729Y-60457749D01*
X30822245Y-60591208D01*
X30808575Y-60730000D01*
X23568000Y-60730000D01*
X23568000Y-56962078D01*
X51432000Y-56962078D01*
X51432000Y-57337922D01*
X51505323Y-57706543D01*
X51649152Y-58053777D01*
X51857960Y-58366279D01*
X52123721Y-58632040D01*
X52436223Y-58840848D01*
X52783457Y-58984677D01*
X53152078Y-59058000D01*
X53527922Y-59058000D01*
X53896543Y-58984677D01*
X54243777Y-58840848D01*
X54556279Y-58632040D01*
X54822040Y-58366279D01*
X55030848Y-58053777D01*
X55174677Y-57706543D01*
X55248000Y-57337922D01*
X55248000Y-56962078D01*
X59052000Y-56962078D01*
X59052000Y-57337922D01*
X59125323Y-57706543D01*
X59269152Y-58053777D01*
X59477960Y-58366279D01*
X59743721Y-58632040D01*
X60056223Y-58840848D01*
X60403457Y-58984677D01*
X60772078Y-59058000D01*
X61147922Y-59058000D01*
X61516543Y-58984677D01*
X61863777Y-58840848D01*
X62176279Y-58632040D01*
X62442040Y-58366279D01*
X62650848Y-58053777D01*
X62723206Y-57879087D01*
X65429969Y-57879087D01*
X65496126Y-58117197D01*
X65626144Y-58382900D01*
X65805500Y-58618133D01*
X66027301Y-58813855D01*
X66283024Y-58962545D01*
X66562841Y-59058489D01*
X66856000Y-59098000D01*
X67256000Y-59098000D01*
X67256000Y-57644000D01*
X67364000Y-57644000D01*
X67364000Y-59098000D01*
X67764000Y-59098000D01*
X68057159Y-59058489D01*
X68336976Y-58962545D01*
X68592699Y-58813855D01*
X68814500Y-58618133D01*
X68993856Y-58382900D01*
X69123874Y-58117197D01*
X69190031Y-57879087D01*
X74319969Y-57879087D01*
X74386126Y-58117197D01*
X74516144Y-58382900D01*
X74695500Y-58618133D01*
X74917301Y-58813855D01*
X75173024Y-58962545D01*
X75452841Y-59058489D01*
X75746000Y-59098000D01*
X76146000Y-59098000D01*
X76146000Y-57644000D01*
X76254000Y-57644000D01*
X76254000Y-59098000D01*
X76654000Y-59098000D01*
X76947159Y-59058489D01*
X77226976Y-58962545D01*
X77482699Y-58813855D01*
X77543982Y-58759777D01*
X102940000Y-58759777D01*
X102940000Y-59096223D01*
X103005638Y-59426205D01*
X103134390Y-59737041D01*
X103321310Y-60016786D01*
X103559214Y-60254690D01*
X103838959Y-60441610D01*
X103864043Y-60452000D01*
X103838959Y-60462390D01*
X103559214Y-60649310D01*
X103321310Y-60887214D01*
X103134390Y-61166959D01*
X103005638Y-61477795D01*
X102940000Y-61807777D01*
X102940000Y-62144223D01*
X103005638Y-62474205D01*
X103134390Y-62785041D01*
X103321310Y-63064786D01*
X103559214Y-63302690D01*
X103838959Y-63489610D01*
X104149795Y-63618362D01*
X104479777Y-63684000D01*
X104816223Y-63684000D01*
X105146205Y-63618362D01*
X105457041Y-63489610D01*
X105736786Y-63302690D01*
X105955476Y-63084000D01*
X112484524Y-63084000D01*
X112703214Y-63302690D01*
X112982959Y-63489610D01*
X113293795Y-63618362D01*
X113623777Y-63684000D01*
X113960223Y-63684000D01*
X114290205Y-63618362D01*
X114601041Y-63489610D01*
X114880786Y-63302690D01*
X115118690Y-63064786D01*
X115305610Y-62785041D01*
X115434362Y-62474205D01*
X115500000Y-62144223D01*
X115500000Y-61807777D01*
X115434362Y-61477795D01*
X115305610Y-61166959D01*
X115118690Y-60887214D01*
X114880786Y-60649310D01*
X114601041Y-60462390D01*
X114575957Y-60452000D01*
X114601041Y-60441610D01*
X114880786Y-60254690D01*
X115118690Y-60016786D01*
X115305610Y-59737041D01*
X115434362Y-59426205D01*
X115500000Y-59096223D01*
X115500000Y-58759777D01*
X115434362Y-58429795D01*
X115305610Y-58118959D01*
X115118690Y-57839214D01*
X114880786Y-57601310D01*
X114601041Y-57414390D01*
X114290205Y-57285638D01*
X113960223Y-57220000D01*
X113623777Y-57220000D01*
X113293795Y-57285638D01*
X112982959Y-57414390D01*
X112703214Y-57601310D01*
X112484524Y-57820000D01*
X105955476Y-57820000D01*
X105736786Y-57601310D01*
X105457041Y-57414390D01*
X105146205Y-57285638D01*
X104816223Y-57220000D01*
X104479777Y-57220000D01*
X104149795Y-57285638D01*
X103838959Y-57414390D01*
X103559214Y-57601310D01*
X103321310Y-57839214D01*
X103134390Y-58118959D01*
X103005638Y-58429795D01*
X102940000Y-58759777D01*
X77543982Y-58759777D01*
X77704500Y-58618133D01*
X77883856Y-58382900D01*
X78013874Y-58117197D01*
X78080031Y-57879087D01*
X77929904Y-57644000D01*
X76254000Y-57644000D01*
X76146000Y-57644000D01*
X74470096Y-57644000D01*
X74319969Y-57879087D01*
X69190031Y-57879087D01*
X69039904Y-57644000D01*
X67364000Y-57644000D01*
X67256000Y-57644000D01*
X65580096Y-57644000D01*
X65429969Y-57879087D01*
X62723206Y-57879087D01*
X62794677Y-57706543D01*
X62868000Y-57337922D01*
X62868000Y-56962078D01*
X62794677Y-56593457D01*
X62650848Y-56246223D01*
X62442040Y-55933721D01*
X62176279Y-55667960D01*
X61863777Y-55459152D01*
X61516543Y-55315323D01*
X61147922Y-55242000D01*
X60772078Y-55242000D01*
X60403457Y-55315323D01*
X60056223Y-55459152D01*
X59743721Y-55667960D01*
X59477960Y-55933721D01*
X59269152Y-56246223D01*
X59125323Y-56593457D01*
X59052000Y-56962078D01*
X55248000Y-56962078D01*
X55174677Y-56593457D01*
X55030848Y-56246223D01*
X54822040Y-55933721D01*
X54556279Y-55667960D01*
X54243777Y-55459152D01*
X53896543Y-55315323D01*
X53527922Y-55242000D01*
X53152078Y-55242000D01*
X52783457Y-55315323D01*
X52436223Y-55459152D01*
X52123721Y-55667960D01*
X51857960Y-55933721D01*
X51649152Y-56246223D01*
X51505323Y-56593457D01*
X51432000Y-56962078D01*
X23568000Y-56962078D01*
X23568000Y-52510000D01*
X65394704Y-52510000D01*
X65423820Y-52805620D01*
X65510049Y-53089879D01*
X65650077Y-53351853D01*
X65838524Y-53581476D01*
X66068147Y-53769923D01*
X66087000Y-53780000D01*
X66068147Y-53790077D01*
X65838524Y-53978524D01*
X65650077Y-54208147D01*
X65510049Y-54470121D01*
X65423820Y-54754380D01*
X65394704Y-55050000D01*
X65423820Y-55345620D01*
X65510049Y-55629879D01*
X65650077Y-55891853D01*
X65838524Y-56121476D01*
X66068147Y-56309923D01*
X66097245Y-56325476D01*
X66027301Y-56366145D01*
X65805500Y-56561867D01*
X65626144Y-56797100D01*
X65496126Y-57062803D01*
X65429969Y-57300913D01*
X65580096Y-57536000D01*
X67256000Y-57536000D01*
X67256000Y-57516000D01*
X67364000Y-57516000D01*
X67364000Y-57536000D01*
X69039904Y-57536000D01*
X69190031Y-57300913D01*
X69123874Y-57062803D01*
X68993856Y-56797100D01*
X68814500Y-56561867D01*
X68592699Y-56366145D01*
X68522755Y-56325476D01*
X68551853Y-56309923D01*
X68781476Y-56121476D01*
X68969923Y-55891853D01*
X69109951Y-55629879D01*
X69196180Y-55345620D01*
X69225296Y-55050000D01*
X69196180Y-54754380D01*
X69109951Y-54470121D01*
X68969923Y-54208147D01*
X68781476Y-53978524D01*
X68551853Y-53790077D01*
X68533000Y-53780000D01*
X68551853Y-53769923D01*
X68781476Y-53581476D01*
X68969923Y-53351853D01*
X69109951Y-53089879D01*
X69196180Y-52805620D01*
X69225296Y-52510000D01*
X74284704Y-52510000D01*
X74313820Y-52805620D01*
X74400049Y-53089879D01*
X74540077Y-53351853D01*
X74728524Y-53581476D01*
X74958147Y-53769923D01*
X74977000Y-53780000D01*
X74958147Y-53790077D01*
X74728524Y-53978524D01*
X74540077Y-54208147D01*
X74400049Y-54470121D01*
X74313820Y-54754380D01*
X74284704Y-55050000D01*
X74313820Y-55345620D01*
X74400049Y-55629879D01*
X74540077Y-55891853D01*
X74728524Y-56121476D01*
X74958147Y-56309923D01*
X74987245Y-56325476D01*
X74917301Y-56366145D01*
X74695500Y-56561867D01*
X74516144Y-56797100D01*
X74386126Y-57062803D01*
X74319969Y-57300913D01*
X74470096Y-57536000D01*
X76146000Y-57536000D01*
X76146000Y-57516000D01*
X76254000Y-57516000D01*
X76254000Y-57536000D01*
X77929904Y-57536000D01*
X78080031Y-57300913D01*
X78013874Y-57062803D01*
X77883856Y-56797100D01*
X77704500Y-56561867D01*
X77482699Y-56366145D01*
X77412755Y-56325476D01*
X77441853Y-56309923D01*
X77671476Y-56121476D01*
X77859923Y-55891853D01*
X77999951Y-55629879D01*
X78086180Y-55345620D01*
X78115296Y-55050000D01*
X78086180Y-54754380D01*
X77999951Y-54470121D01*
X77859923Y-54208147D01*
X77671476Y-53978524D01*
X77441853Y-53790077D01*
X77423000Y-53780000D01*
X77441853Y-53769923D01*
X77671476Y-53581476D01*
X77859923Y-53351853D01*
X77999951Y-53089879D01*
X78086180Y-52805620D01*
X78115296Y-52510000D01*
X78086180Y-52214380D01*
X77999951Y-51930121D01*
X77859923Y-51668147D01*
X77671476Y-51438524D01*
X77441853Y-51250077D01*
X77179879Y-51110049D01*
X76895620Y-51023820D01*
X76674078Y-51002000D01*
X75725922Y-51002000D01*
X75504380Y-51023820D01*
X75220121Y-51110049D01*
X74958147Y-51250077D01*
X74728524Y-51438524D01*
X74540077Y-51668147D01*
X74400049Y-51930121D01*
X74313820Y-52214380D01*
X74284704Y-52510000D01*
X69225296Y-52510000D01*
X69196180Y-52214380D01*
X69109951Y-51930121D01*
X68969923Y-51668147D01*
X68781476Y-51438524D01*
X68551853Y-51250077D01*
X68289879Y-51110049D01*
X68005620Y-51023820D01*
X67784078Y-51002000D01*
X66835922Y-51002000D01*
X66614380Y-51023820D01*
X66330121Y-51110049D01*
X66068147Y-51250077D01*
X65838524Y-51438524D01*
X65650077Y-51668147D01*
X65510049Y-51930121D01*
X65423820Y-52214380D01*
X65394704Y-52510000D01*
X23568000Y-52510000D01*
X23568000Y-46211010D01*
X65702000Y-46211010D01*
X65702000Y-46968991D01*
X65725267Y-47205223D01*
X65817214Y-47508332D01*
X65966528Y-47787679D01*
X66167471Y-48032529D01*
X66412322Y-48233472D01*
X66691669Y-48382786D01*
X66994778Y-48474733D01*
X67310000Y-48505780D01*
X67625223Y-48474733D01*
X67928332Y-48382786D01*
X68207679Y-48233472D01*
X68452529Y-48032529D01*
X68653472Y-47787679D01*
X68802786Y-47508332D01*
X68894733Y-47205222D01*
X68918000Y-46968990D01*
X68918000Y-46211009D01*
X70147000Y-46211009D01*
X70147000Y-46968990D01*
X70170267Y-47205222D01*
X70262214Y-47508331D01*
X70411528Y-47787678D01*
X70612471Y-48032529D01*
X70857321Y-48233472D01*
X71136668Y-48382786D01*
X71439777Y-48474733D01*
X71755000Y-48505780D01*
X72070222Y-48474733D01*
X72373331Y-48382786D01*
X72652678Y-48233472D01*
X72897529Y-48032529D01*
X73098472Y-47787679D01*
X73247786Y-47508332D01*
X73339733Y-47205223D01*
X73363000Y-46968991D01*
X73363000Y-46211010D01*
X73339733Y-45974778D01*
X73247786Y-45671668D01*
X73225515Y-45630000D01*
X84918575Y-45630000D01*
X84918575Y-49630000D01*
X84932245Y-49768792D01*
X84972729Y-49902251D01*
X85038472Y-50025247D01*
X85126947Y-50133053D01*
X85234753Y-50221528D01*
X85357749Y-50287271D01*
X85491208Y-50327755D01*
X85630000Y-50341425D01*
X89630000Y-50341425D01*
X89768792Y-50327755D01*
X89902251Y-50287271D01*
X90025247Y-50221528D01*
X90133053Y-50133053D01*
X90221528Y-50025247D01*
X90287271Y-49902251D01*
X90327755Y-49768792D01*
X90341425Y-49630000D01*
X90341425Y-49466731D01*
X95869636Y-49466731D01*
X96074578Y-49862726D01*
X96540048Y-50123272D01*
X97047404Y-50288004D01*
X97577149Y-50350590D01*
X98108925Y-50308625D01*
X98622296Y-50163723D01*
X99097534Y-49921451D01*
X99185422Y-49862726D01*
X99390364Y-49466731D01*
X97630000Y-47706368D01*
X95869636Y-49466731D01*
X90341425Y-49466731D01*
X90341425Y-47577149D01*
X94909410Y-47577149D01*
X94951375Y-48108925D01*
X95096277Y-48622296D01*
X95338549Y-49097534D01*
X95397274Y-49185422D01*
X95793269Y-49390364D01*
X97553632Y-47630000D01*
X97706368Y-47630000D01*
X99466731Y-49390364D01*
X99862726Y-49185422D01*
X100123272Y-48719952D01*
X100288004Y-48212596D01*
X100350590Y-47682851D01*
X100308625Y-47151075D01*
X100163723Y-46637704D01*
X99921451Y-46162466D01*
X99862726Y-46074578D01*
X99466731Y-45869636D01*
X97706368Y-47630000D01*
X97553632Y-47630000D01*
X95793269Y-45869636D01*
X95397274Y-46074578D01*
X95136728Y-46540048D01*
X94971996Y-47047404D01*
X94909410Y-47577149D01*
X90341425Y-47577149D01*
X90341425Y-45793269D01*
X95869636Y-45793269D01*
X97630000Y-47553632D01*
X99390364Y-45793269D01*
X99185422Y-45397274D01*
X98719952Y-45136728D01*
X98212596Y-44971996D01*
X97682851Y-44909410D01*
X97151075Y-44951375D01*
X96637704Y-45096277D01*
X96162466Y-45338549D01*
X96074578Y-45397274D01*
X95869636Y-45793269D01*
X90341425Y-45793269D01*
X90341425Y-45630000D01*
X90327755Y-45491208D01*
X90287271Y-45357749D01*
X90221528Y-45234753D01*
X90133053Y-45126947D01*
X90025247Y-45038472D01*
X89902251Y-44972729D01*
X89768792Y-44932245D01*
X89630000Y-44918575D01*
X85630000Y-44918575D01*
X85491208Y-44932245D01*
X85357749Y-44972729D01*
X85234753Y-45038472D01*
X85126947Y-45126947D01*
X85038472Y-45234753D01*
X84972729Y-45357749D01*
X84932245Y-45491208D01*
X84918575Y-45630000D01*
X73225515Y-45630000D01*
X73098472Y-45392321D01*
X72897529Y-45147471D01*
X72652679Y-44946528D01*
X72373332Y-44797214D01*
X72070223Y-44705267D01*
X71755000Y-44674220D01*
X71439778Y-44705267D01*
X71136669Y-44797214D01*
X70857322Y-44946528D01*
X70612471Y-45147471D01*
X70411528Y-45392321D01*
X70262214Y-45671668D01*
X70170267Y-45974777D01*
X70147000Y-46211009D01*
X68918000Y-46211009D01*
X68894733Y-45974777D01*
X68802786Y-45671668D01*
X68653472Y-45392321D01*
X68452529Y-45147471D01*
X68207678Y-44946528D01*
X67928331Y-44797214D01*
X67625222Y-44705267D01*
X67310000Y-44674220D01*
X66994777Y-44705267D01*
X66691668Y-44797214D01*
X66412321Y-44946528D01*
X66167471Y-45147471D01*
X65966528Y-45392322D01*
X65817214Y-45671669D01*
X65725267Y-45974778D01*
X65702000Y-46211010D01*
X23568000Y-46211010D01*
X23568000Y-36642078D01*
X51432000Y-36642078D01*
X51432000Y-37017922D01*
X51505323Y-37386543D01*
X51649152Y-37733777D01*
X51857960Y-38046279D01*
X52123721Y-38312040D01*
X52436223Y-38520848D01*
X52783457Y-38664677D01*
X53152078Y-38738000D01*
X53527922Y-38738000D01*
X53896543Y-38664677D01*
X54243777Y-38520848D01*
X54556279Y-38312040D01*
X54822040Y-38046279D01*
X55030848Y-37733777D01*
X55174677Y-37386543D01*
X55248000Y-37017922D01*
X55248000Y-36642078D01*
X59052000Y-36642078D01*
X59052000Y-37017922D01*
X59125323Y-37386543D01*
X59269152Y-37733777D01*
X59477960Y-38046279D01*
X59743721Y-38312040D01*
X60056223Y-38520848D01*
X60403457Y-38664677D01*
X60772078Y-38738000D01*
X61147922Y-38738000D01*
X61516543Y-38664677D01*
X61863777Y-38520848D01*
X62176279Y-38312040D01*
X62442040Y-38046279D01*
X62650848Y-37733777D01*
X62794677Y-37386543D01*
X62868000Y-37017922D01*
X62868000Y-36642078D01*
X62794677Y-36273457D01*
X62702537Y-36051010D01*
X65702000Y-36051010D01*
X65702000Y-36808991D01*
X65725267Y-37045223D01*
X65817214Y-37348332D01*
X65966528Y-37627679D01*
X66167471Y-37872529D01*
X66412322Y-38073472D01*
X66691669Y-38222786D01*
X66994778Y-38314733D01*
X67310000Y-38345780D01*
X67625223Y-38314733D01*
X67928332Y-38222786D01*
X68207679Y-38073472D01*
X68452529Y-37872529D01*
X68653472Y-37627679D01*
X68802786Y-37348332D01*
X68894733Y-37045222D01*
X68918000Y-36808990D01*
X68918000Y-36281475D01*
X70247000Y-36281475D01*
X70247000Y-36578525D01*
X70304951Y-36869868D01*
X70418627Y-37144306D01*
X70583660Y-37391294D01*
X70793706Y-37601340D01*
X71040694Y-37766373D01*
X71315132Y-37880049D01*
X71606475Y-37938000D01*
X71903525Y-37938000D01*
X72194868Y-37880049D01*
X72469306Y-37766373D01*
X72716294Y-37601340D01*
X72926340Y-37391294D01*
X73091373Y-37144306D01*
X73205049Y-36869868D01*
X73263000Y-36578525D01*
X73263000Y-36281475D01*
X73205049Y-35990132D01*
X73091373Y-35715694D01*
X72926340Y-35468706D01*
X72716294Y-35258660D01*
X72469306Y-35093627D01*
X72194868Y-34979951D01*
X71903525Y-34922000D01*
X71606475Y-34922000D01*
X71315132Y-34979951D01*
X71040694Y-35093627D01*
X70793706Y-35258660D01*
X70583660Y-35468706D01*
X70418627Y-35715694D01*
X70304951Y-35990132D01*
X70247000Y-36281475D01*
X68918000Y-36281475D01*
X68918000Y-36051009D01*
X68894733Y-35814777D01*
X68802786Y-35511668D01*
X68653472Y-35232321D01*
X68452529Y-34987471D01*
X68207678Y-34786528D01*
X67928331Y-34637214D01*
X67625222Y-34545267D01*
X67310000Y-34514220D01*
X66994777Y-34545267D01*
X66691668Y-34637214D01*
X66412321Y-34786528D01*
X66167471Y-34987471D01*
X65966528Y-35232322D01*
X65817214Y-35511669D01*
X65725267Y-35814778D01*
X65702000Y-36051010D01*
X62702537Y-36051010D01*
X62650848Y-35926223D01*
X62442040Y-35613721D01*
X62176279Y-35347960D01*
X61863777Y-35139152D01*
X61516543Y-34995323D01*
X61147922Y-34922000D01*
X60772078Y-34922000D01*
X60403457Y-34995323D01*
X60056223Y-35139152D01*
X59743721Y-35347960D01*
X59477960Y-35613721D01*
X59269152Y-35926223D01*
X59125323Y-36273457D01*
X59052000Y-36642078D01*
X55248000Y-36642078D01*
X55174677Y-36273457D01*
X55030848Y-35926223D01*
X54822040Y-35613721D01*
X54556279Y-35347960D01*
X54243777Y-35139152D01*
X53896543Y-34995323D01*
X53527922Y-34922000D01*
X53152078Y-34922000D01*
X52783457Y-34995323D01*
X52436223Y-35139152D01*
X52123721Y-35347960D01*
X51857960Y-35613721D01*
X51649152Y-35926223D01*
X51505323Y-36273457D01*
X51432000Y-36642078D01*
X23568000Y-36642078D01*
X23568000Y-26188682D01*
X25124000Y-26188682D01*
X25124000Y-26643318D01*
X25212696Y-27089219D01*
X25386677Y-27509248D01*
X25639260Y-27887264D01*
X25960736Y-28208740D01*
X26338752Y-28461323D01*
X26758781Y-28635304D01*
X27204682Y-28724000D01*
X27659318Y-28724000D01*
X28105219Y-28635304D01*
X28525248Y-28461323D01*
X28903264Y-28208740D01*
X29224740Y-27887264D01*
X29323138Y-27740000D01*
X105016075Y-27740000D01*
X105016075Y-30140000D01*
X105029745Y-30278792D01*
X105070229Y-30412251D01*
X105135972Y-30535247D01*
X105224447Y-30643053D01*
X105332253Y-30731528D01*
X105455249Y-30797271D01*
X105588708Y-30837755D01*
X105727500Y-30851425D01*
X107632500Y-30851425D01*
X107771292Y-30837755D01*
X107904751Y-30797271D01*
X108027747Y-30731528D01*
X108135553Y-30643053D01*
X108224028Y-30535247D01*
X108230354Y-30523412D01*
X108293013Y-30574835D01*
X108581481Y-30729024D01*
X108894486Y-30823974D01*
X109220000Y-30856034D01*
X109545515Y-30823974D01*
X109858520Y-30729024D01*
X110146988Y-30574835D01*
X110399832Y-30367332D01*
X110490000Y-30257462D01*
X110580168Y-30367332D01*
X110833013Y-30574835D01*
X111121481Y-30729024D01*
X111434486Y-30823974D01*
X111760000Y-30856034D01*
X112085515Y-30823974D01*
X112398520Y-30729024D01*
X112686988Y-30574835D01*
X112939832Y-30367332D01*
X113147335Y-30114488D01*
X113301524Y-29826020D01*
X113396474Y-29513014D01*
X113420500Y-29269071D01*
X113420500Y-28610928D01*
X113396474Y-28366985D01*
X113301524Y-28053980D01*
X113147335Y-27765512D01*
X113126398Y-27740000D01*
X147180075Y-27740000D01*
X147180075Y-30140000D01*
X147193745Y-30278792D01*
X147234229Y-30412251D01*
X147299972Y-30535247D01*
X147388447Y-30643053D01*
X147496253Y-30731528D01*
X147619249Y-30797271D01*
X147752708Y-30837755D01*
X147891500Y-30851425D01*
X149796500Y-30851425D01*
X149935292Y-30837755D01*
X150068751Y-30797271D01*
X150191747Y-30731528D01*
X150299553Y-30643053D01*
X150388028Y-30535247D01*
X150394354Y-30523412D01*
X150457013Y-30574835D01*
X150745481Y-30729024D01*
X151058486Y-30823974D01*
X151384000Y-30856034D01*
X151709515Y-30823974D01*
X152022520Y-30729024D01*
X152310988Y-30574835D01*
X152563832Y-30367332D01*
X152654000Y-30257462D01*
X152744168Y-30367332D01*
X152997013Y-30574835D01*
X153285481Y-30729024D01*
X153598486Y-30823974D01*
X153924000Y-30856034D01*
X154249515Y-30823974D01*
X154562520Y-30729024D01*
X154850988Y-30574835D01*
X155103832Y-30367332D01*
X155311335Y-30114488D01*
X155465524Y-29826020D01*
X155560474Y-29513014D01*
X155584500Y-29269071D01*
X155584500Y-28610928D01*
X155560474Y-28366985D01*
X155465524Y-28053980D01*
X155311335Y-27765512D01*
X155103832Y-27512668D01*
X154850987Y-27305165D01*
X154562519Y-27150976D01*
X154249514Y-27056026D01*
X153924000Y-27023966D01*
X153598485Y-27056026D01*
X153285480Y-27150976D01*
X152997012Y-27305165D01*
X152744168Y-27512668D01*
X152654000Y-27622539D01*
X152563832Y-27512668D01*
X152310987Y-27305165D01*
X152022519Y-27150976D01*
X151709514Y-27056026D01*
X151384000Y-27023966D01*
X151058485Y-27056026D01*
X150745480Y-27150976D01*
X150457012Y-27305165D01*
X150394354Y-27356587D01*
X150388028Y-27344753D01*
X150299553Y-27236947D01*
X150191747Y-27148472D01*
X150068751Y-27082729D01*
X149935292Y-27042245D01*
X149796500Y-27028575D01*
X147891500Y-27028575D01*
X147752708Y-27042245D01*
X147619249Y-27082729D01*
X147496253Y-27148472D01*
X147388447Y-27236947D01*
X147299972Y-27344753D01*
X147234229Y-27467749D01*
X147193745Y-27601208D01*
X147180075Y-27740000D01*
X113126398Y-27740000D01*
X112939832Y-27512668D01*
X112686987Y-27305165D01*
X112398519Y-27150976D01*
X112085514Y-27056026D01*
X111760000Y-27023966D01*
X111434485Y-27056026D01*
X111121480Y-27150976D01*
X110833012Y-27305165D01*
X110580168Y-27512668D01*
X110490000Y-27622539D01*
X110399832Y-27512668D01*
X110146987Y-27305165D01*
X109858519Y-27150976D01*
X109545514Y-27056026D01*
X109220000Y-27023966D01*
X108894485Y-27056026D01*
X108581480Y-27150976D01*
X108293012Y-27305165D01*
X108230354Y-27356587D01*
X108224028Y-27344753D01*
X108135553Y-27236947D01*
X108027747Y-27148472D01*
X107904751Y-27082729D01*
X107771292Y-27042245D01*
X107632500Y-27028575D01*
X105727500Y-27028575D01*
X105588708Y-27042245D01*
X105455249Y-27082729D01*
X105332253Y-27148472D01*
X105224447Y-27236947D01*
X105135972Y-27344753D01*
X105070229Y-27467749D01*
X105029745Y-27601208D01*
X105016075Y-27740000D01*
X29323138Y-27740000D01*
X29477323Y-27509248D01*
X29651304Y-27089219D01*
X29740000Y-26643318D01*
X29740000Y-26188682D01*
X159236000Y-26188682D01*
X159236000Y-26643318D01*
X159324696Y-27089219D01*
X159498677Y-27509248D01*
X159751260Y-27887264D01*
X160072736Y-28208740D01*
X160450752Y-28461323D01*
X160870781Y-28635304D01*
X161316682Y-28724000D01*
X161771318Y-28724000D01*
X162217219Y-28635304D01*
X162637248Y-28461323D01*
X163015264Y-28208740D01*
X163336740Y-27887264D01*
X163589323Y-27509248D01*
X163763304Y-27089219D01*
X163852000Y-26643318D01*
X163852000Y-26188682D01*
X163763304Y-25742781D01*
X163589323Y-25322752D01*
X163336740Y-24944736D01*
X163015264Y-24623260D01*
X162637248Y-24370677D01*
X162217219Y-24196696D01*
X161771318Y-24108000D01*
X161316682Y-24108000D01*
X160870781Y-24196696D01*
X160450752Y-24370677D01*
X160072736Y-24623260D01*
X159751260Y-24944736D01*
X159498677Y-25322752D01*
X159324696Y-25742781D01*
X159236000Y-26188682D01*
X29740000Y-26188682D01*
X29651304Y-25742781D01*
X29477323Y-25322752D01*
X29224740Y-24944736D01*
X28903264Y-24623260D01*
X28525248Y-24370677D01*
X28105219Y-24196696D01*
X27659318Y-24108000D01*
X27204682Y-24108000D01*
X26758781Y-24196696D01*
X26338752Y-24370677D01*
X25960736Y-24623260D01*
X25639260Y-24944736D01*
X25386677Y-25322752D01*
X25212696Y-25742781D01*
X25124000Y-26188682D01*
X23568000Y-26188682D01*
X23568000Y-22552000D01*
X165408000Y-22552000D01*
X165408000Y-111560000D01*
%TD*%
M02*
