%TF.GenerationSoftware,KiCad,Pcbnew,5.1.6*%
%TF.CreationDate,2020-07-31T10:48:21-03:00*%
%TF.ProjectId,pwm_seno,70776d5f-7365-46e6-9f2e-6b696361645f,1*%
%TF.SameCoordinates,Original*%
%TF.FileFunction,Copper,L2,Bot*%
%TF.FilePolarity,Positive*%
%FSLAX46Y46*%
G04 Gerber Fmt 4.6, Leading zero omitted, Abs format (unit mm)*
G04 Created by KiCad (PCBNEW 5.1.6) date 2020-07-31 10:48:21*
%MOMM*%
%LPD*%
G01*
G04 APERTURE LIST*
%TA.AperFunction,ComponentPad*%
%ADD10C,2.400000*%
%TD*%
%TA.AperFunction,ComponentPad*%
%ADD11O,2.400000X2.400000*%
%TD*%
%TA.AperFunction,ComponentPad*%
%ADD12O,2.400000X1.600000*%
%TD*%
%TA.AperFunction,ComponentPad*%
%ADD13R,2.400000X1.600000*%
%TD*%
%TA.AperFunction,ComponentPad*%
%ADD14R,4.000000X4.000000*%
%TD*%
%TA.AperFunction,ComponentPad*%
%ADD15C,4.000000*%
%TD*%
%TA.AperFunction,ComponentPad*%
%ADD16R,1.905000X2.400000*%
%TD*%
%TA.AperFunction,ComponentPad*%
%ADD17O,1.905000X2.400000*%
%TD*%
%TA.AperFunction,ComponentPad*%
%ADD18C,3.000000*%
%TD*%
%TA.AperFunction,ComponentPad*%
%ADD19R,3.000000X3.000000*%
%TD*%
%TA.AperFunction,ComponentPad*%
%ADD20O,1.800000X2.400000*%
%TD*%
%TA.AperFunction,ComponentPad*%
%ADD21C,1.600000*%
%TD*%
%TA.AperFunction,ViaPad*%
%ADD22C,2.000000*%
%TD*%
%TA.AperFunction,Conductor*%
%ADD23C,2.000000*%
%TD*%
%TA.AperFunction,Conductor*%
%ADD24C,0.800000*%
%TD*%
%TA.AperFunction,Conductor*%
%ADD25C,0.400000*%
%TD*%
G04 APERTURE END LIST*
D10*
%TO.P,R9,1*%
%TO.N,Net-(C4-Pad1)*%
X133604000Y-66548000D03*
D11*
%TO.P,R9,2*%
%TO.N,/L1*%
X103124000Y-66548000D03*
%TD*%
D10*
%TO.P,R10,1*%
%TO.N,Net-(C5-Pad1)*%
X141732000Y-76708000D03*
D11*
%TO.P,R10,2*%
%TO.N,Net-(C4-Pad1)*%
X111252000Y-76708000D03*
%TD*%
D12*
%TO.P,C4,2*%
%TO.N,/L2*%
X140208000Y-89144000D03*
D13*
%TO.P,C4,1*%
%TO.N,Net-(C4-Pad1)*%
X140208000Y-85344000D03*
%TD*%
D14*
%TO.P,C2,1*%
%TO.N,VCC*%
X87630000Y-88495001D03*
D15*
%TO.P,C2,2*%
%TO.N,GND*%
X97630000Y-88495001D03*
%TD*%
D16*
%TO.P,Q8,1*%
%TO.N,/NFET2*%
X130048000Y-107188000D03*
D17*
%TO.P,Q8,2*%
%TO.N,/L2*%
X127508000Y-107188000D03*
%TO.P,Q8,3*%
%TO.N,GND*%
X124968000Y-107188000D03*
%TD*%
D16*
%TO.P,Q6,1*%
%TO.N,/NFET1*%
X111760000Y-107188000D03*
D17*
%TO.P,Q6,2*%
%TO.N,/L1*%
X109220000Y-107188000D03*
%TO.P,Q6,3*%
%TO.N,GND*%
X106680000Y-107188000D03*
%TD*%
D12*
%TO.P,Q4,2*%
%TO.N,Net-(Q4-Pad2)*%
X76200000Y-80840000D03*
%TO.P,Q4,3*%
%TO.N,GND*%
X76200000Y-83380000D03*
%TO.P,Q4,1*%
%TO.N,/NFET1*%
X76200000Y-78300000D03*
%TD*%
D15*
%TO.P,C1,2*%
%TO.N,GND*%
X97630000Y-47630000D03*
D14*
%TO.P,C1,1*%
%TO.N,VCC*%
X87630000Y-47630000D03*
%TD*%
D12*
%TO.P,C5,2*%
%TO.N,/L2*%
X140208000Y-63500000D03*
D13*
%TO.P,C5,1*%
%TO.N,Net-(C5-Pad1)*%
X140208000Y-67300000D03*
%TD*%
D18*
%TO.P,J1,2*%
%TO.N,GND*%
X35560000Y-67310000D03*
D19*
%TO.P,J1,1*%
%TO.N,VCC*%
X35560000Y-62230000D03*
%TD*%
%TO.P,J2,1*%
%TO.N,/PWM1*%
X35560000Y-88900000D03*
D18*
%TO.P,J2,2*%
%TO.N,/PWM2*%
X35560000Y-83820000D03*
%TO.P,J2,3*%
%TO.N,GND*%
X35560000Y-78740000D03*
%TD*%
D19*
%TO.P,LS1,1*%
%TO.N,/L2*%
X140208000Y-48768000D03*
D18*
%TO.P,LS1,2*%
%TO.N,Net-(C5-Pad1)*%
X140208000Y-53848000D03*
%TD*%
D12*
%TO.P,Q1,1*%
%TO.N,/PFET1*%
X67310000Y-52510000D03*
%TO.P,Q1,3*%
%TO.N,GND*%
X67310000Y-57590000D03*
%TO.P,Q1,2*%
%TO.N,Net-(Q1-Pad2)*%
X67310000Y-55050000D03*
%TD*%
%TO.P,Q2,2*%
%TO.N,Net-(Q2-Pad2)*%
X76200000Y-55050000D03*
%TO.P,Q2,3*%
%TO.N,GND*%
X76200000Y-57590000D03*
%TO.P,Q2,1*%
%TO.N,/NFET2*%
X76200000Y-52510000D03*
%TD*%
%TO.P,Q3,1*%
%TO.N,/PFET2*%
X67310000Y-78300000D03*
%TO.P,Q3,3*%
%TO.N,GND*%
X67310000Y-83380000D03*
%TO.P,Q3,2*%
%TO.N,Net-(Q3-Pad2)*%
X67310000Y-80840000D03*
%TD*%
D17*
%TO.P,Q5,3*%
%TO.N,/L1*%
X111760000Y-28940000D03*
%TO.P,Q5,2*%
%TO.N,VCC*%
X109220000Y-28940000D03*
D16*
%TO.P,Q5,1*%
%TO.N,/PFET1*%
X106680000Y-28940000D03*
%TD*%
D17*
%TO.P,Q7,3*%
%TO.N,/L2*%
X130048000Y-28940000D03*
%TO.P,Q7,2*%
%TO.N,VCC*%
X127508000Y-28940000D03*
D16*
%TO.P,Q7,1*%
%TO.N,/PFET2*%
X124968000Y-28940000D03*
%TD*%
D20*
%TO.P,R1,2*%
%TO.N,/PWM1*%
X67310000Y-36430000D03*
%TO.P,R1,1*%
%TO.N,Net-(Q1-Pad2)*%
X67310000Y-46590000D03*
%TD*%
D10*
%TO.P,R2,1*%
%TO.N,VCC*%
X60960000Y-36830000D03*
D11*
%TO.P,R2,2*%
%TO.N,/PFET1*%
X60960000Y-57150000D03*
%TD*%
D21*
%TO.P,R3,1*%
%TO.N,Net-(Q2-Pad2)*%
X71755000Y-36430000D03*
D20*
%TO.P,R3,2*%
%TO.N,/PFET1*%
X71755000Y-46590000D03*
%TD*%
D11*
%TO.P,R4,2*%
%TO.N,/NFET2*%
X53340000Y-57150000D03*
D10*
%TO.P,R4,1*%
%TO.N,VCC*%
X53340000Y-36830000D03*
%TD*%
D20*
%TO.P,R5,2*%
%TO.N,/PWM2*%
X67310000Y-89300000D03*
%TO.P,R5,1*%
%TO.N,Net-(Q3-Pad2)*%
X67310000Y-99460000D03*
%TD*%
D10*
%TO.P,R6,1*%
%TO.N,VCC*%
X60960000Y-99060000D03*
D11*
%TO.P,R6,2*%
%TO.N,/PFET2*%
X60960000Y-78740000D03*
%TD*%
D20*
%TO.P,R7,1*%
%TO.N,Net-(Q4-Pad2)*%
X72390000Y-99460000D03*
%TO.P,R7,2*%
%TO.N,/PFET2*%
X72390000Y-89300000D03*
%TD*%
D11*
%TO.P,R8,2*%
%TO.N,/NFET1*%
X53340000Y-78740000D03*
D10*
%TO.P,R8,1*%
%TO.N,VCC*%
X53340000Y-99060000D03*
%TD*%
D22*
%TO.N,/NFET2*%
X78740000Y-61595000D03*
X94488000Y-61468000D03*
X99060000Y-61976000D03*
X108204002Y-61976000D03*
%TO.N,/PFET2*%
X99060000Y-58928000D03*
X108204000Y-58928000D03*
%TD*%
D23*
%TO.N,VCC*%
X60960000Y-99060000D02*
X53340000Y-99060000D01*
X60960000Y-99060000D02*
X60960000Y-101600000D01*
X60960000Y-101600000D02*
X63500000Y-104140000D01*
X63500000Y-104140000D02*
X77470000Y-104140000D01*
X87630000Y-93980000D02*
X87630000Y-88495001D01*
X77470000Y-104140000D02*
X87630000Y-93980000D01*
X53340000Y-36830000D02*
X60960000Y-36830000D01*
X63500000Y-31750000D02*
X60960000Y-34290000D01*
X78232000Y-31750000D02*
X63500000Y-31750000D01*
X81280000Y-34798000D02*
X78232000Y-31750000D01*
X60960000Y-34290000D02*
X60960000Y-36830000D01*
X81280000Y-41280000D02*
X81280000Y-34798000D01*
X87630000Y-47630000D02*
X81280000Y-41280000D01*
X91562000Y-47630000D02*
X87630000Y-47630000D01*
X92964000Y-46228000D02*
X91562000Y-47630000D01*
X92964000Y-33020000D02*
X92964000Y-46228000D01*
X101092000Y-24892000D02*
X92964000Y-33020000D01*
X109220000Y-26416000D02*
X107696000Y-24892000D01*
X109220000Y-28940000D02*
X109220000Y-26416000D01*
X127508000Y-28940000D02*
X127508000Y-25908000D01*
X127508000Y-25908000D02*
X126492000Y-24892000D01*
X126492000Y-24892000D02*
X106680000Y-24892000D01*
X106680000Y-24892000D02*
X101092000Y-24892000D01*
X107696000Y-24892000D02*
X106680000Y-24892000D01*
X34290000Y-99060000D02*
X29972000Y-94742000D01*
X53340000Y-99060000D02*
X34290000Y-99060000D01*
X35560000Y-54610000D02*
X53340000Y-36830000D01*
X35560000Y-62230000D02*
X35560000Y-54610000D01*
X33782000Y-62230000D02*
X29972000Y-66040000D01*
X35560000Y-62230000D02*
X33782000Y-62230000D01*
X29972000Y-94742000D02*
X29972000Y-66040000D01*
%TO.N,Net-(C4-Pad1)*%
X119888000Y-85344000D02*
X111252000Y-76708000D01*
X111252000Y-76708000D02*
X111252000Y-73660000D01*
X118364000Y-66548000D02*
X133604000Y-66548000D01*
X111252000Y-73660000D02*
X118364000Y-66548000D01*
X140208000Y-85344000D02*
X119888000Y-85344000D01*
%TO.N,/L2*%
X127508000Y-98644000D02*
X127508000Y-102108000D01*
X137008000Y-89144000D02*
X127508000Y-98644000D01*
X140208000Y-89144000D02*
X137008000Y-89144000D01*
X127508000Y-102108000D02*
X127508000Y-107188000D01*
X127508000Y-101600000D02*
X127508000Y-102108000D01*
X130048000Y-38608000D02*
X140208000Y-48768000D01*
X130048000Y-28940000D02*
X130048000Y-38608000D01*
X140208000Y-63500000D02*
X140208000Y-60452000D01*
X140208000Y-60452000D02*
X136144000Y-56388000D01*
X136144000Y-52832000D02*
X140208000Y-48768000D01*
X136144000Y-56388000D02*
X136144000Y-52832000D01*
X142708001Y-81384003D02*
X137160000Y-75836002D01*
X142708001Y-87184001D02*
X142708001Y-81384003D01*
X140748002Y-89144000D02*
X142708001Y-87184001D01*
X140208000Y-89144000D02*
X140748002Y-89144000D01*
X137160000Y-75836002D02*
X137160000Y-66007998D01*
X139667998Y-63500000D02*
X140208000Y-63500000D01*
X137160000Y-66007998D02*
X139667998Y-63500000D01*
D24*
%TO.N,/PWM1*%
X34798000Y-72390000D02*
X33020000Y-74168000D01*
X36830000Y-72390000D02*
X34798000Y-72390000D01*
X41910000Y-57150000D02*
X41910000Y-67310000D01*
X57785000Y-41275000D02*
X41910000Y-57150000D01*
X33020000Y-86360000D02*
X35560000Y-88900000D01*
X33020000Y-74168000D02*
X33020000Y-86360000D01*
X62465000Y-41275000D02*
X57785000Y-41275000D01*
X41910000Y-67310000D02*
X36830000Y-72390000D01*
X67310000Y-36430000D02*
X62465000Y-41275000D01*
%TO.N,/PWM2*%
X35560000Y-83820000D02*
X42672000Y-83820000D01*
X48152000Y-89300000D02*
X67310000Y-89300000D01*
X42672000Y-83820000D02*
X48152000Y-89300000D01*
%TO.N,/PFET1*%
X65600000Y-52510000D02*
X67310000Y-52510000D01*
X60960000Y-57150000D02*
X65600000Y-52510000D01*
X71755000Y-50165000D02*
X71755000Y-46590000D01*
X69410000Y-52510000D02*
X71755000Y-50165000D01*
X67310000Y-52510000D02*
X69410000Y-52510000D01*
X69615000Y-44450000D02*
X71755000Y-46590000D01*
X49530000Y-62230000D02*
X49530000Y-53975000D01*
X79824998Y-66675000D02*
X53975000Y-66675000D01*
X49530000Y-53975000D02*
X59055000Y-44450000D01*
X90267999Y-56231999D02*
X79824998Y-66675000D01*
X96676001Y-56231999D02*
X90267999Y-56231999D01*
X53975000Y-66675000D02*
X49530000Y-62230000D01*
X103124000Y-32496000D02*
X103124000Y-49784000D01*
X59055000Y-44450000D02*
X69615000Y-44450000D01*
X103124000Y-49784000D02*
X96676001Y-56231999D01*
X106680000Y-28940000D02*
X103124000Y-32496000D01*
%TO.N,Net-(Q1-Pad2)*%
X57150000Y-56750000D02*
X67310000Y-46590000D01*
X57150000Y-58420000D02*
X57150000Y-56750000D01*
X59690000Y-60960000D02*
X57150000Y-58420000D01*
X61400000Y-60960000D02*
X59690000Y-60960000D01*
X67310000Y-55050000D02*
X61400000Y-60960000D01*
%TO.N,Net-(Q2-Pad2)*%
X71755000Y-36430000D02*
X71755000Y-40005000D01*
X71755000Y-40005000D02*
X78740000Y-46990000D01*
X78740000Y-46990000D02*
X78740000Y-53340000D01*
X77030000Y-55050000D02*
X76200000Y-55050000D01*
X78740000Y-53340000D02*
X77030000Y-55050000D01*
%TO.N,/NFET2*%
X74490000Y-52510000D02*
X76200000Y-52510000D01*
X72390000Y-54610000D02*
X74490000Y-52510000D01*
X70485000Y-63500000D02*
X72390000Y-61595000D01*
X57150000Y-63500000D02*
X70485000Y-63500000D01*
X72390000Y-61595000D02*
X72390000Y-54610000D01*
X53340000Y-59690000D02*
X57150000Y-63500000D01*
X53340000Y-57150000D02*
X53340000Y-59690000D01*
X78740000Y-61595000D02*
X72390000Y-61595000D01*
X94488000Y-61468000D02*
X98552000Y-61468000D01*
X98552000Y-61468000D02*
X99060000Y-61976000D01*
X130048000Y-107188000D02*
X130048000Y-109188000D01*
X130048000Y-109188000D02*
X129000000Y-110236000D01*
X108204002Y-94996002D02*
X108204002Y-61976000D01*
X129000000Y-110236000D02*
X123444000Y-110236000D01*
X123444000Y-110236000D02*
X108204002Y-94996002D01*
%TO.N,/PFET2*%
X61400000Y-78300000D02*
X60960000Y-78740000D01*
X67310000Y-78300000D02*
X61400000Y-78300000D01*
X69410000Y-78300000D02*
X67310000Y-78300000D01*
X72390000Y-81280000D02*
X69410000Y-78300000D01*
X72390000Y-89300000D02*
X72390000Y-81280000D01*
X55372000Y-84328000D02*
X49784000Y-84328000D01*
X92964000Y-58928000D02*
X99060000Y-58928000D01*
X60960000Y-78740000D02*
X55372000Y-84328000D01*
X49784000Y-84328000D02*
X45212000Y-79756000D01*
X45212000Y-79756000D02*
X45212000Y-74168000D01*
X45212000Y-74168000D02*
X47244000Y-72136000D01*
X47244000Y-72136000D02*
X79756000Y-72136000D01*
X79756000Y-72136000D02*
X92964000Y-58928000D01*
X124968000Y-28940000D02*
X124968000Y-42164000D01*
X124968000Y-42164000D02*
X108204000Y-58928000D01*
%TO.N,Net-(Q3-Pad2)*%
X68140000Y-80840000D02*
X67310000Y-80840000D01*
X69850000Y-82550000D02*
X68140000Y-80840000D01*
X69850000Y-91440000D02*
X69850000Y-82550000D01*
X67310000Y-93980000D02*
X69850000Y-91440000D01*
X67310000Y-99460000D02*
X67310000Y-93980000D01*
%TO.N,Net-(Q4-Pad2)*%
X78300000Y-80840000D02*
X76200000Y-80840000D01*
X79375000Y-81915000D02*
X78300000Y-80840000D01*
X79375000Y-88265000D02*
X79375000Y-81915000D01*
X72390000Y-95250000D02*
X79375000Y-88265000D01*
X72390000Y-99460000D02*
X72390000Y-95250000D01*
%TO.N,/NFET1*%
X53340000Y-78740000D02*
X57150000Y-74930000D01*
X72830000Y-74930000D02*
X76200000Y-78300000D01*
X57150000Y-74930000D02*
X72830000Y-74930000D01*
X87444000Y-78300000D02*
X76200000Y-78300000D01*
X92456000Y-83312000D02*
X87444000Y-78300000D01*
X92456000Y-95348502D02*
X92456000Y-83312000D01*
X103632000Y-106524502D02*
X92456000Y-95348502D01*
X103632000Y-109220000D02*
X103632000Y-106524502D01*
X103632000Y-109220000D02*
X104648000Y-110236000D01*
X104648000Y-110236000D02*
X110744000Y-110236000D01*
X110744000Y-110236000D02*
X111760000Y-109220000D01*
X111760000Y-109220000D02*
X111760000Y-107188000D01*
D23*
%TO.N,/L1*%
X111760000Y-37084000D02*
X111760000Y-28940000D01*
X109220000Y-39624000D02*
X111760000Y-37084000D01*
X109220000Y-39624000D02*
X109220000Y-52324000D01*
X103124000Y-58420000D02*
X103124000Y-66548000D01*
X109220000Y-52324000D02*
X103124000Y-58420000D01*
X109220000Y-102108000D02*
X103124000Y-96012000D01*
X103124000Y-96012000D02*
X103124000Y-66548000D01*
X109220000Y-107188000D02*
X109220000Y-102108000D01*
%TO.N,Net-(C5-Pad1)*%
X141732000Y-68824000D02*
X140208000Y-67300000D01*
X141732000Y-76708000D02*
X141732000Y-68824000D01*
X140208000Y-53848000D02*
X144272000Y-57912000D01*
X144272000Y-57912000D02*
X144272000Y-65532000D01*
X142504000Y-67300000D02*
X140208000Y-67300000D01*
X144272000Y-65532000D02*
X142504000Y-67300000D01*
%TD*%
D25*
%TO.N,GND*%
G36*
X148644000Y-111560000D02*
G01*
X26108000Y-111560000D01*
X26108000Y-107468682D01*
X27664000Y-107468682D01*
X27664000Y-107923318D01*
X27752696Y-108369219D01*
X27926677Y-108789248D01*
X28179260Y-109167264D01*
X28500736Y-109488740D01*
X28878752Y-109741323D01*
X29298781Y-109915304D01*
X29744682Y-110004000D01*
X30199318Y-110004000D01*
X30645219Y-109915304D01*
X31065248Y-109741323D01*
X31443264Y-109488740D01*
X31764740Y-109167264D01*
X32017323Y-108789248D01*
X32191304Y-108369219D01*
X32280000Y-107923318D01*
X32280000Y-107468682D01*
X32191304Y-107022781D01*
X32017323Y-106602752D01*
X31764740Y-106224736D01*
X31443264Y-105903260D01*
X31065248Y-105650677D01*
X30645219Y-105476696D01*
X30199318Y-105388000D01*
X29744682Y-105388000D01*
X29298781Y-105476696D01*
X28878752Y-105650677D01*
X28500736Y-105903260D01*
X28179260Y-106224736D01*
X27926677Y-106602752D01*
X27752696Y-107022781D01*
X27664000Y-107468682D01*
X26108000Y-107468682D01*
X26108000Y-66040000D01*
X28255736Y-66040000D01*
X28264001Y-66123915D01*
X28264000Y-94658095D01*
X28255736Y-94742000D01*
X28288714Y-95076826D01*
X28324734Y-95195569D01*
X28386379Y-95398785D01*
X28544979Y-95695504D01*
X28758418Y-95955582D01*
X28823596Y-96009072D01*
X33022932Y-100208409D01*
X33076418Y-100273582D01*
X33336495Y-100487021D01*
X33633214Y-100645621D01*
X33955174Y-100743286D01*
X34206096Y-100768000D01*
X34206097Y-100768000D01*
X34289999Y-100776264D01*
X34373901Y-100768000D01*
X52477632Y-100768000D01*
X52783457Y-100894677D01*
X53152078Y-100968000D01*
X53527922Y-100968000D01*
X53896543Y-100894677D01*
X54202368Y-100768000D01*
X59252001Y-100768000D01*
X59252001Y-101516086D01*
X59243736Y-101600000D01*
X59276714Y-101934826D01*
X59374379Y-102256785D01*
X59532980Y-102553505D01*
X59663857Y-102712979D01*
X59746419Y-102813582D01*
X59811591Y-102867067D01*
X62232932Y-105288409D01*
X62286418Y-105353582D01*
X62546495Y-105567021D01*
X62843214Y-105725621D01*
X63165174Y-105823286D01*
X63416096Y-105848000D01*
X63416105Y-105848000D01*
X63499999Y-105856263D01*
X63583894Y-105848000D01*
X77386096Y-105848000D01*
X77470000Y-105856264D01*
X77553904Y-105848000D01*
X77804826Y-105823286D01*
X78126786Y-105725621D01*
X78423505Y-105567021D01*
X78683582Y-105353582D01*
X78737072Y-105288404D01*
X88778410Y-95247067D01*
X88843582Y-95193582D01*
X89057021Y-94933505D01*
X89215621Y-94636786D01*
X89285273Y-94407174D01*
X89313286Y-94314827D01*
X89346264Y-93980000D01*
X89338000Y-93896096D01*
X89338000Y-91206426D01*
X89630000Y-91206426D01*
X89768792Y-91192756D01*
X89902251Y-91152272D01*
X90025247Y-91086529D01*
X90133053Y-90998054D01*
X90221528Y-90890248D01*
X90287271Y-90767252D01*
X90327755Y-90633793D01*
X90341425Y-90495001D01*
X90341425Y-86495001D01*
X90327755Y-86356209D01*
X90287271Y-86222750D01*
X90221528Y-86099754D01*
X90133053Y-85991948D01*
X90025247Y-85903473D01*
X89902251Y-85837730D01*
X89768792Y-85797246D01*
X89630000Y-85783576D01*
X85630000Y-85783576D01*
X85491208Y-85797246D01*
X85357749Y-85837730D01*
X85234753Y-85903473D01*
X85126947Y-85991948D01*
X85038472Y-86099754D01*
X84972729Y-86222750D01*
X84932245Y-86356209D01*
X84918575Y-86495001D01*
X84918575Y-90495001D01*
X84932245Y-90633793D01*
X84972729Y-90767252D01*
X85038472Y-90890248D01*
X85126947Y-90998054D01*
X85234753Y-91086529D01*
X85357749Y-91152272D01*
X85491208Y-91192756D01*
X85630000Y-91206426D01*
X85922001Y-91206426D01*
X85922000Y-93272523D01*
X76762524Y-102432000D01*
X64207477Y-102432000D01*
X62668000Y-100892524D01*
X62668000Y-99922368D01*
X62794677Y-99616543D01*
X62868000Y-99247922D01*
X62868000Y-98872078D01*
X62794677Y-98503457D01*
X62650848Y-98156223D01*
X62442040Y-97843721D01*
X62176279Y-97577960D01*
X61863777Y-97369152D01*
X61516543Y-97225323D01*
X61147922Y-97152000D01*
X60772078Y-97152000D01*
X60403457Y-97225323D01*
X60097632Y-97352000D01*
X54202368Y-97352000D01*
X53896543Y-97225323D01*
X53527922Y-97152000D01*
X53152078Y-97152000D01*
X52783457Y-97225323D01*
X52477632Y-97352000D01*
X34997477Y-97352000D01*
X31680000Y-94034524D01*
X31680000Y-74168000D01*
X31906640Y-74168000D01*
X31912000Y-74222423D01*
X31912001Y-86305567D01*
X31906640Y-86360000D01*
X31928032Y-86577206D01*
X31991389Y-86786064D01*
X32050657Y-86896947D01*
X32094275Y-86978550D01*
X32232736Y-87147265D01*
X32275018Y-87181965D01*
X33348575Y-88255523D01*
X33348575Y-90400000D01*
X33362245Y-90538792D01*
X33402729Y-90672251D01*
X33468472Y-90795247D01*
X33556947Y-90903053D01*
X33664753Y-90991528D01*
X33787749Y-91057271D01*
X33921208Y-91097755D01*
X34060000Y-91111425D01*
X37060000Y-91111425D01*
X37198792Y-91097755D01*
X37332251Y-91057271D01*
X37455247Y-90991528D01*
X37563053Y-90903053D01*
X37651528Y-90795247D01*
X37717271Y-90672251D01*
X37757755Y-90538792D01*
X37771425Y-90400000D01*
X37771425Y-87400000D01*
X37757755Y-87261208D01*
X37717271Y-87127749D01*
X37651528Y-87004753D01*
X37563053Y-86896947D01*
X37455247Y-86808472D01*
X37332251Y-86742729D01*
X37198792Y-86702245D01*
X37060000Y-86688575D01*
X34915523Y-86688575D01*
X34128000Y-85901053D01*
X34128000Y-85510584D01*
X34152482Y-85535066D01*
X34514120Y-85776705D01*
X34915950Y-85943148D01*
X35342531Y-86028000D01*
X35777469Y-86028000D01*
X36204050Y-85943148D01*
X36605880Y-85776705D01*
X36967518Y-85535066D01*
X37275066Y-85227518D01*
X37475198Y-84928000D01*
X42213053Y-84928000D01*
X47330040Y-90044989D01*
X47364735Y-90087265D01*
X47533450Y-90225726D01*
X47725935Y-90328611D01*
X47934794Y-90391968D01*
X48097569Y-90408000D01*
X48097578Y-90408000D01*
X48151999Y-90413360D01*
X48206420Y-90408000D01*
X65918594Y-90408000D01*
X65966528Y-90497679D01*
X66167471Y-90742529D01*
X66412322Y-90943472D01*
X66691669Y-91092786D01*
X66994778Y-91184733D01*
X67310000Y-91215780D01*
X67625223Y-91184733D01*
X67928332Y-91092786D01*
X68207679Y-90943472D01*
X68452529Y-90742529D01*
X68653472Y-90497679D01*
X68742000Y-90332054D01*
X68742000Y-90981051D01*
X66565018Y-93158035D01*
X66522736Y-93192735D01*
X66488038Y-93235015D01*
X66384275Y-93361450D01*
X66281389Y-93553936D01*
X66218032Y-93762794D01*
X66196640Y-93980000D01*
X66202001Y-94034433D01*
X66202000Y-97989134D01*
X66167471Y-98017471D01*
X65966528Y-98262322D01*
X65817214Y-98541669D01*
X65725267Y-98844778D01*
X65702000Y-99081010D01*
X65702000Y-99838991D01*
X65725267Y-100075223D01*
X65817214Y-100378332D01*
X65966528Y-100657679D01*
X66167471Y-100902529D01*
X66412322Y-101103472D01*
X66691669Y-101252786D01*
X66994778Y-101344733D01*
X67310000Y-101375780D01*
X67625223Y-101344733D01*
X67928332Y-101252786D01*
X68207679Y-101103472D01*
X68452529Y-100902529D01*
X68653472Y-100657679D01*
X68802786Y-100378332D01*
X68894733Y-100075222D01*
X68918000Y-99838990D01*
X68918000Y-99081009D01*
X68894733Y-98844777D01*
X68802786Y-98541668D01*
X68653472Y-98262321D01*
X68452529Y-98017471D01*
X68418000Y-97989134D01*
X68418000Y-94438947D01*
X70594988Y-92261961D01*
X70637265Y-92227265D01*
X70775726Y-92058550D01*
X70878611Y-91866065D01*
X70941968Y-91657206D01*
X70958000Y-91494431D01*
X70958000Y-91494422D01*
X70963360Y-91440001D01*
X70958000Y-91385580D01*
X70958000Y-90332055D01*
X71046528Y-90497679D01*
X71247471Y-90742529D01*
X71492322Y-90943472D01*
X71771669Y-91092786D01*
X72074778Y-91184733D01*
X72390000Y-91215780D01*
X72705223Y-91184733D01*
X73008332Y-91092786D01*
X73287679Y-90943472D01*
X73532529Y-90742529D01*
X73733472Y-90497679D01*
X73882786Y-90218332D01*
X73974733Y-89915222D01*
X73998000Y-89678990D01*
X73998000Y-88921009D01*
X73974733Y-88684777D01*
X73882786Y-88381668D01*
X73733472Y-88102321D01*
X73532529Y-87857471D01*
X73498000Y-87829134D01*
X73498000Y-83669087D01*
X74319969Y-83669087D01*
X74386126Y-83907197D01*
X74516144Y-84172900D01*
X74695500Y-84408133D01*
X74917301Y-84603855D01*
X75173024Y-84752545D01*
X75452841Y-84848489D01*
X75746000Y-84888000D01*
X76146000Y-84888000D01*
X76146000Y-83434000D01*
X76254000Y-83434000D01*
X76254000Y-84888000D01*
X76654000Y-84888000D01*
X76947159Y-84848489D01*
X77226976Y-84752545D01*
X77482699Y-84603855D01*
X77704500Y-84408133D01*
X77883856Y-84172900D01*
X78013874Y-83907197D01*
X78080031Y-83669087D01*
X77929904Y-83434000D01*
X76254000Y-83434000D01*
X76146000Y-83434000D01*
X74470096Y-83434000D01*
X74319969Y-83669087D01*
X73498000Y-83669087D01*
X73498000Y-81334420D01*
X73503360Y-81279999D01*
X73498000Y-81225578D01*
X73498000Y-81225569D01*
X73481968Y-81062794D01*
X73418611Y-80853935D01*
X73315726Y-80661450D01*
X73177265Y-80492735D01*
X73134988Y-80458039D01*
X70231969Y-77555022D01*
X70197265Y-77512735D01*
X70028550Y-77374274D01*
X69836065Y-77271389D01*
X69627206Y-77208032D01*
X69464431Y-77192000D01*
X69464423Y-77192000D01*
X69410000Y-77186640D01*
X69355577Y-77192000D01*
X68736971Y-77192000D01*
X68551853Y-77040077D01*
X68289879Y-76900049D01*
X68005620Y-76813820D01*
X67784078Y-76792000D01*
X66835922Y-76792000D01*
X66614380Y-76813820D01*
X66330121Y-76900049D01*
X66068147Y-77040077D01*
X65883029Y-77192000D01*
X62077563Y-77192000D01*
X61863777Y-77049152D01*
X61516543Y-76905323D01*
X61147922Y-76832000D01*
X60772078Y-76832000D01*
X60403457Y-76905323D01*
X60056223Y-77049152D01*
X59743721Y-77257960D01*
X59477960Y-77523721D01*
X59269152Y-77836223D01*
X59125323Y-78183457D01*
X59052000Y-78552078D01*
X59052000Y-78927922D01*
X59077406Y-79055646D01*
X54913053Y-83220000D01*
X50242949Y-83220000D01*
X46320000Y-79297053D01*
X46320000Y-74626947D01*
X47702948Y-73244000D01*
X79701577Y-73244000D01*
X79756000Y-73249360D01*
X79810423Y-73244000D01*
X79810431Y-73244000D01*
X79973206Y-73227968D01*
X80182065Y-73164611D01*
X80374550Y-73061726D01*
X80543265Y-72923265D01*
X80577969Y-72880978D01*
X93422949Y-60036000D01*
X93556821Y-60036000D01*
X93399214Y-60141310D01*
X93161310Y-60379214D01*
X92974390Y-60658959D01*
X92845638Y-60969795D01*
X92780000Y-61299777D01*
X92780000Y-61636223D01*
X92845638Y-61966205D01*
X92974390Y-62277041D01*
X93161310Y-62556786D01*
X93399214Y-62794690D01*
X93678959Y-62981610D01*
X93989795Y-63110362D01*
X94319777Y-63176000D01*
X94656223Y-63176000D01*
X94986205Y-63110362D01*
X95297041Y-62981610D01*
X95576786Y-62794690D01*
X95795476Y-62576000D01*
X97459803Y-62576000D01*
X97546390Y-62785041D01*
X97733310Y-63064786D01*
X97971214Y-63302690D01*
X98250959Y-63489610D01*
X98561795Y-63618362D01*
X98891777Y-63684000D01*
X99228223Y-63684000D01*
X99558205Y-63618362D01*
X99869041Y-63489610D01*
X100148786Y-63302690D01*
X100386690Y-63064786D01*
X100573610Y-62785041D01*
X100702362Y-62474205D01*
X100768000Y-62144223D01*
X100768000Y-61807777D01*
X100702362Y-61477795D01*
X100573610Y-61166959D01*
X100386690Y-60887214D01*
X100148786Y-60649310D01*
X99869041Y-60462390D01*
X99843957Y-60452000D01*
X99869041Y-60441610D01*
X100148786Y-60254690D01*
X100386690Y-60016786D01*
X100573610Y-59737041D01*
X100702362Y-59426205D01*
X100768000Y-59096223D01*
X100768000Y-58759777D01*
X100702362Y-58429795D01*
X100573610Y-58118959D01*
X100386690Y-57839214D01*
X100148786Y-57601310D01*
X99869041Y-57414390D01*
X99558205Y-57285638D01*
X99228223Y-57220000D01*
X98891777Y-57220000D01*
X98561795Y-57285638D01*
X98250959Y-57414390D01*
X97971214Y-57601310D01*
X97752524Y-57820000D01*
X93018431Y-57820000D01*
X92964000Y-57814639D01*
X92746793Y-57836032D01*
X92537935Y-57899389D01*
X92345450Y-58002274D01*
X92219014Y-58106037D01*
X92219011Y-58106040D01*
X92176735Y-58140735D01*
X92142040Y-58183011D01*
X79297053Y-71028000D01*
X47298423Y-71028000D01*
X47244000Y-71022640D01*
X47189576Y-71028000D01*
X47189569Y-71028000D01*
X47046158Y-71042125D01*
X47026793Y-71044032D01*
X46817935Y-71107389D01*
X46625450Y-71210274D01*
X46456735Y-71348735D01*
X46422037Y-71391015D01*
X44467018Y-73346035D01*
X44424736Y-73380735D01*
X44390038Y-73423015D01*
X44286275Y-73549450D01*
X44183389Y-73741936D01*
X44120032Y-73950794D01*
X44098640Y-74168000D01*
X44104001Y-74222433D01*
X44104000Y-79701576D01*
X44098640Y-79756000D01*
X44104000Y-79810423D01*
X44104000Y-79810430D01*
X44120032Y-79973205D01*
X44183389Y-80182064D01*
X44286274Y-80374550D01*
X44424735Y-80543265D01*
X44467022Y-80577969D01*
X48962040Y-85072988D01*
X48996735Y-85115265D01*
X49165450Y-85253726D01*
X49357935Y-85356611D01*
X49566794Y-85419968D01*
X49729569Y-85436000D01*
X49729578Y-85436000D01*
X49783999Y-85441360D01*
X49838420Y-85436000D01*
X55317577Y-85436000D01*
X55372000Y-85441360D01*
X55426423Y-85436000D01*
X55426431Y-85436000D01*
X55589206Y-85419968D01*
X55798065Y-85356611D01*
X55990550Y-85253726D01*
X56159265Y-85115265D01*
X56193969Y-85072978D01*
X57597860Y-83669087D01*
X65429969Y-83669087D01*
X65496126Y-83907197D01*
X65626144Y-84172900D01*
X65805500Y-84408133D01*
X66027301Y-84603855D01*
X66283024Y-84752545D01*
X66562841Y-84848489D01*
X66856000Y-84888000D01*
X67256000Y-84888000D01*
X67256000Y-83434000D01*
X65580096Y-83434000D01*
X65429969Y-83669087D01*
X57597860Y-83669087D01*
X60644354Y-80622594D01*
X60772078Y-80648000D01*
X61147922Y-80648000D01*
X61516543Y-80574677D01*
X61863777Y-80430848D01*
X62176279Y-80222040D01*
X62442040Y-79956279D01*
X62650848Y-79643777D01*
X62748510Y-79408000D01*
X65883029Y-79408000D01*
X66068147Y-79559923D01*
X66087000Y-79570000D01*
X66068147Y-79580077D01*
X65838524Y-79768524D01*
X65650077Y-79998147D01*
X65510049Y-80260121D01*
X65423820Y-80544380D01*
X65394704Y-80840000D01*
X65423820Y-81135620D01*
X65510049Y-81419879D01*
X65650077Y-81681853D01*
X65838524Y-81911476D01*
X66068147Y-82099923D01*
X66097245Y-82115476D01*
X66027301Y-82156145D01*
X65805500Y-82351867D01*
X65626144Y-82587100D01*
X65496126Y-82852803D01*
X65429969Y-83090913D01*
X65580096Y-83326000D01*
X67256000Y-83326000D01*
X67256000Y-83306000D01*
X67364000Y-83306000D01*
X67364000Y-83326000D01*
X67384000Y-83326000D01*
X67384000Y-83434000D01*
X67364000Y-83434000D01*
X67364000Y-84888000D01*
X67764000Y-84888000D01*
X68057159Y-84848489D01*
X68336976Y-84752545D01*
X68592699Y-84603855D01*
X68742001Y-84472108D01*
X68742000Y-88267946D01*
X68653472Y-88102321D01*
X68452529Y-87857471D01*
X68207678Y-87656528D01*
X67928331Y-87507214D01*
X67625222Y-87415267D01*
X67310000Y-87384220D01*
X66994777Y-87415267D01*
X66691668Y-87507214D01*
X66412321Y-87656528D01*
X66167471Y-87857471D01*
X65966528Y-88102322D01*
X65918594Y-88192000D01*
X48610949Y-88192000D01*
X43493969Y-83075022D01*
X43459265Y-83032735D01*
X43290550Y-82894274D01*
X43098065Y-82791389D01*
X42889206Y-82728032D01*
X42726431Y-82712000D01*
X42726423Y-82712000D01*
X42672000Y-82706640D01*
X42617577Y-82712000D01*
X37475198Y-82712000D01*
X37275066Y-82412482D01*
X36967518Y-82104934D01*
X36605880Y-81863295D01*
X36204050Y-81696852D01*
X35777469Y-81612000D01*
X35342531Y-81612000D01*
X34915950Y-81696852D01*
X34514120Y-81863295D01*
X34152482Y-82104934D01*
X34128000Y-82129416D01*
X34128000Y-80248370D01*
X34155001Y-80221369D01*
X34299963Y-80566162D01*
X34680441Y-80776893D01*
X35094719Y-80909348D01*
X35526878Y-80958437D01*
X35960310Y-80922272D01*
X36378359Y-80802243D01*
X36764958Y-80602963D01*
X36820037Y-80566162D01*
X36965000Y-80221367D01*
X35560000Y-78816368D01*
X35545858Y-78830510D01*
X35469490Y-78754142D01*
X35483632Y-78740000D01*
X35636368Y-78740000D01*
X37041367Y-80145000D01*
X37386162Y-80000037D01*
X37596893Y-79619559D01*
X37729348Y-79205281D01*
X37778437Y-78773122D01*
X37742272Y-78339690D01*
X37622243Y-77921641D01*
X37422963Y-77535042D01*
X37386162Y-77479963D01*
X37041367Y-77335000D01*
X35636368Y-78740000D01*
X35483632Y-78740000D01*
X35469490Y-78725858D01*
X35545858Y-78649490D01*
X35560000Y-78663632D01*
X36965000Y-77258633D01*
X36820037Y-76913838D01*
X36439559Y-76703107D01*
X36025281Y-76570652D01*
X35593122Y-76521563D01*
X35159690Y-76557728D01*
X34741641Y-76677757D01*
X34355042Y-76877037D01*
X34299963Y-76913838D01*
X34155001Y-77258631D01*
X34128000Y-77231630D01*
X34128000Y-74626947D01*
X35256949Y-73498000D01*
X36775577Y-73498000D01*
X36830000Y-73503360D01*
X36884423Y-73498000D01*
X36884431Y-73498000D01*
X37047206Y-73481968D01*
X37256065Y-73418611D01*
X37448550Y-73315726D01*
X37617265Y-73177265D01*
X37651969Y-73134978D01*
X42654983Y-68131965D01*
X42697265Y-68097265D01*
X42835726Y-67928550D01*
X42938611Y-67736065D01*
X42942191Y-67724262D01*
X43001968Y-67527207D01*
X43009397Y-67451777D01*
X43018000Y-67364431D01*
X43018000Y-67364424D01*
X43023360Y-67310000D01*
X43018000Y-67255577D01*
X43018000Y-57608947D01*
X58243948Y-42383000D01*
X62410577Y-42383000D01*
X62465000Y-42388360D01*
X62519423Y-42383000D01*
X62519431Y-42383000D01*
X62682206Y-42366968D01*
X62891065Y-42303611D01*
X63083550Y-42200726D01*
X63252265Y-42062265D01*
X63286969Y-42019978D01*
X66992812Y-38314137D01*
X66994778Y-38314733D01*
X67310000Y-38345780D01*
X67625223Y-38314733D01*
X67928332Y-38222786D01*
X68207679Y-38073472D01*
X68452529Y-37872529D01*
X68653472Y-37627679D01*
X68802786Y-37348332D01*
X68894733Y-37045222D01*
X68918000Y-36808990D01*
X68918000Y-36051009D01*
X68894733Y-35814777D01*
X68802786Y-35511668D01*
X68653472Y-35232321D01*
X68452529Y-34987471D01*
X68207678Y-34786528D01*
X67928331Y-34637214D01*
X67625222Y-34545267D01*
X67310000Y-34514220D01*
X66994777Y-34545267D01*
X66691668Y-34637214D01*
X66412321Y-34786528D01*
X66167471Y-34987471D01*
X65966528Y-35232322D01*
X65817214Y-35511669D01*
X65725267Y-35814778D01*
X65702000Y-36051010D01*
X65702000Y-36471051D01*
X62006053Y-40167000D01*
X57839420Y-40167000D01*
X57784999Y-40161640D01*
X57730578Y-40167000D01*
X57730569Y-40167000D01*
X57567794Y-40183032D01*
X57358935Y-40246389D01*
X57166450Y-40349274D01*
X56997735Y-40487735D01*
X56963037Y-40530015D01*
X41165022Y-56328031D01*
X41122735Y-56362735D01*
X40984274Y-56531450D01*
X40916599Y-56658063D01*
X40881389Y-56723936D01*
X40873483Y-56750000D01*
X40818032Y-56932795D01*
X40802000Y-57095570D01*
X40802000Y-57095577D01*
X40796640Y-57150000D01*
X40802000Y-57204423D01*
X40802001Y-66851051D01*
X36371053Y-71282000D01*
X34852431Y-71282000D01*
X34798000Y-71276639D01*
X34580793Y-71298032D01*
X34371935Y-71361389D01*
X34179450Y-71464274D01*
X34053014Y-71568037D01*
X34053011Y-71568040D01*
X34010735Y-71602735D01*
X33976039Y-71645012D01*
X32275022Y-73346031D01*
X32232735Y-73380735D01*
X32094274Y-73549450D01*
X31991389Y-73741936D01*
X31928032Y-73950795D01*
X31912000Y-74113570D01*
X31912000Y-74113577D01*
X31906640Y-74168000D01*
X31680000Y-74168000D01*
X31680000Y-68791367D01*
X34155000Y-68791367D01*
X34299963Y-69136162D01*
X34680441Y-69346893D01*
X35094719Y-69479348D01*
X35526878Y-69528437D01*
X35960310Y-69492272D01*
X36378359Y-69372243D01*
X36764958Y-69172963D01*
X36820037Y-69136162D01*
X36965000Y-68791367D01*
X35560000Y-67386368D01*
X34155000Y-68791367D01*
X31680000Y-68791367D01*
X31680000Y-67276878D01*
X33341563Y-67276878D01*
X33377728Y-67710310D01*
X33497757Y-68128359D01*
X33697037Y-68514958D01*
X33733838Y-68570037D01*
X34078633Y-68715000D01*
X35483632Y-67310000D01*
X35636368Y-67310000D01*
X37041367Y-68715000D01*
X37386162Y-68570037D01*
X37596893Y-68189559D01*
X37729348Y-67775281D01*
X37778437Y-67343122D01*
X37742272Y-66909690D01*
X37622243Y-66491641D01*
X37422963Y-66105042D01*
X37386162Y-66049963D01*
X37041367Y-65905000D01*
X35636368Y-67310000D01*
X35483632Y-67310000D01*
X34078633Y-65905000D01*
X33733838Y-66049963D01*
X33523107Y-66430441D01*
X33390652Y-66844719D01*
X33341563Y-67276878D01*
X31680000Y-67276878D01*
X31680000Y-66747476D01*
X32598843Y-65828633D01*
X34155000Y-65828633D01*
X35560000Y-67233632D01*
X36965000Y-65828633D01*
X36820037Y-65483838D01*
X36439559Y-65273107D01*
X36025281Y-65140652D01*
X35593122Y-65091563D01*
X35159690Y-65127728D01*
X34741641Y-65247757D01*
X34355042Y-65447037D01*
X34299963Y-65483838D01*
X34155000Y-65828633D01*
X32598843Y-65828633D01*
X33992682Y-64434795D01*
X34060000Y-64441425D01*
X37060000Y-64441425D01*
X37198792Y-64427755D01*
X37332251Y-64387271D01*
X37455247Y-64321528D01*
X37563053Y-64233053D01*
X37651528Y-64125247D01*
X37717271Y-64002251D01*
X37757755Y-63868792D01*
X37771425Y-63730000D01*
X37771425Y-60730000D01*
X37757755Y-60591208D01*
X37717271Y-60457749D01*
X37651528Y-60334753D01*
X37563053Y-60226947D01*
X37455247Y-60138472D01*
X37332251Y-60072729D01*
X37268000Y-60053239D01*
X37268000Y-55317476D01*
X53937952Y-38647525D01*
X54202368Y-38538000D01*
X60097632Y-38538000D01*
X60403457Y-38664677D01*
X60772078Y-38738000D01*
X61147922Y-38738000D01*
X61516543Y-38664677D01*
X61863777Y-38520848D01*
X62176279Y-38312040D01*
X62442040Y-38046279D01*
X62650848Y-37733777D01*
X62794677Y-37386543D01*
X62868000Y-37017922D01*
X62868000Y-36642078D01*
X62794677Y-36273457D01*
X62668000Y-35967632D01*
X62668000Y-34997476D01*
X64207477Y-33458000D01*
X77524524Y-33458000D01*
X79572001Y-35505478D01*
X79572000Y-41196095D01*
X79563736Y-41280000D01*
X79572000Y-41363903D01*
X79596714Y-41614825D01*
X79694379Y-41936785D01*
X79852979Y-42233504D01*
X80066418Y-42493582D01*
X80131596Y-42547072D01*
X84918575Y-47334052D01*
X84918575Y-49630000D01*
X84932245Y-49768792D01*
X84972729Y-49902251D01*
X85038472Y-50025247D01*
X85126947Y-50133053D01*
X85234753Y-50221528D01*
X85357749Y-50287271D01*
X85491208Y-50327755D01*
X85630000Y-50341425D01*
X89630000Y-50341425D01*
X89768792Y-50327755D01*
X89902251Y-50287271D01*
X90025247Y-50221528D01*
X90133053Y-50133053D01*
X90221528Y-50025247D01*
X90287271Y-49902251D01*
X90327755Y-49768792D01*
X90341425Y-49630000D01*
X90341425Y-49466731D01*
X95869636Y-49466731D01*
X96074578Y-49862726D01*
X96540048Y-50123272D01*
X97047404Y-50288004D01*
X97577149Y-50350590D01*
X98108925Y-50308625D01*
X98622296Y-50163723D01*
X99097534Y-49921451D01*
X99185422Y-49862726D01*
X99390364Y-49466731D01*
X97630000Y-47706368D01*
X95869636Y-49466731D01*
X90341425Y-49466731D01*
X90341425Y-49338000D01*
X91478096Y-49338000D01*
X91562000Y-49346264D01*
X91645904Y-49338000D01*
X91896826Y-49313286D01*
X92218786Y-49215621D01*
X92515505Y-49057021D01*
X92775582Y-48843582D01*
X92829072Y-48778404D01*
X94030327Y-47577149D01*
X94909410Y-47577149D01*
X94951375Y-48108925D01*
X95096277Y-48622296D01*
X95338549Y-49097534D01*
X95397274Y-49185422D01*
X95793269Y-49390364D01*
X97553632Y-47630000D01*
X97706368Y-47630000D01*
X99466731Y-49390364D01*
X99862726Y-49185422D01*
X100123272Y-48719952D01*
X100288004Y-48212596D01*
X100350590Y-47682851D01*
X100308625Y-47151075D01*
X100163723Y-46637704D01*
X99921451Y-46162466D01*
X99862726Y-46074578D01*
X99466731Y-45869636D01*
X97706368Y-47630000D01*
X97553632Y-47630000D01*
X95793269Y-45869636D01*
X95397274Y-46074578D01*
X95136728Y-46540048D01*
X94971996Y-47047404D01*
X94909410Y-47577149D01*
X94030327Y-47577149D01*
X94112409Y-47495068D01*
X94177582Y-47441582D01*
X94391021Y-47181505D01*
X94549621Y-46884786D01*
X94647286Y-46562826D01*
X94672000Y-46311904D01*
X94672000Y-46311895D01*
X94680263Y-46228001D01*
X94672000Y-46144106D01*
X94672000Y-45793269D01*
X95869636Y-45793269D01*
X97630000Y-47553632D01*
X99390364Y-45793269D01*
X99185422Y-45397274D01*
X98719952Y-45136728D01*
X98212596Y-44971996D01*
X97682851Y-44909410D01*
X97151075Y-44951375D01*
X96637704Y-45096277D01*
X96162466Y-45338549D01*
X96074578Y-45397274D01*
X95869636Y-45793269D01*
X94672000Y-45793269D01*
X94672000Y-33727476D01*
X101799477Y-26600000D01*
X106988524Y-26600000D01*
X107417098Y-27028575D01*
X105727500Y-27028575D01*
X105588708Y-27042245D01*
X105455249Y-27082729D01*
X105332253Y-27148472D01*
X105224447Y-27236947D01*
X105135972Y-27344753D01*
X105070229Y-27467749D01*
X105029745Y-27601208D01*
X105016075Y-27740000D01*
X105016075Y-29036977D01*
X102379022Y-31674031D01*
X102336735Y-31708735D01*
X102198274Y-31877450D01*
X102095389Y-32069936D01*
X102032032Y-32278795D01*
X102016000Y-32441570D01*
X102016000Y-32441577D01*
X102010640Y-32496000D01*
X102016000Y-32550423D01*
X102016001Y-49325050D01*
X96217054Y-55123999D01*
X90322430Y-55123999D01*
X90267999Y-55118638D01*
X90050793Y-55140031D01*
X89841934Y-55203388D01*
X89649449Y-55306273D01*
X89523013Y-55410036D01*
X89523010Y-55410039D01*
X89480734Y-55444734D01*
X89446039Y-55487010D01*
X79366051Y-65567000D01*
X54433948Y-65567000D01*
X50638000Y-61771053D01*
X50638000Y-56962078D01*
X51432000Y-56962078D01*
X51432000Y-57337922D01*
X51505323Y-57706543D01*
X51649152Y-58053777D01*
X51857960Y-58366279D01*
X52123721Y-58632040D01*
X52232001Y-58704390D01*
X52232001Y-59635567D01*
X52226640Y-59690000D01*
X52248032Y-59907206D01*
X52311389Y-60116064D01*
X52370657Y-60226947D01*
X52414275Y-60308550D01*
X52552736Y-60477265D01*
X52595018Y-60511965D01*
X56328039Y-64244988D01*
X56362735Y-64287265D01*
X56405011Y-64321960D01*
X56405014Y-64321963D01*
X56531450Y-64425726D01*
X56723935Y-64528611D01*
X56932793Y-64591968D01*
X57150000Y-64613361D01*
X57204431Y-64608000D01*
X70430577Y-64608000D01*
X70485000Y-64613360D01*
X70539423Y-64608000D01*
X70539431Y-64608000D01*
X70702206Y-64591968D01*
X70911065Y-64528611D01*
X71103550Y-64425726D01*
X71272265Y-64287265D01*
X71306969Y-64244978D01*
X72848948Y-62703000D01*
X77432524Y-62703000D01*
X77651214Y-62921690D01*
X77930959Y-63108610D01*
X78241795Y-63237362D01*
X78571777Y-63303000D01*
X78908223Y-63303000D01*
X79238205Y-63237362D01*
X79549041Y-63108610D01*
X79828786Y-62921690D01*
X80066690Y-62683786D01*
X80253610Y-62404041D01*
X80382362Y-62093205D01*
X80448000Y-61763223D01*
X80448000Y-61426777D01*
X80382362Y-61096795D01*
X80253610Y-60785959D01*
X80066690Y-60506214D01*
X79828786Y-60268310D01*
X79549041Y-60081390D01*
X79238205Y-59952638D01*
X78908223Y-59887000D01*
X78571777Y-59887000D01*
X78241795Y-59952638D01*
X77930959Y-60081390D01*
X77651214Y-60268310D01*
X77432524Y-60487000D01*
X73498000Y-60487000D01*
X73498000Y-57879087D01*
X74319969Y-57879087D01*
X74386126Y-58117197D01*
X74516144Y-58382900D01*
X74695500Y-58618133D01*
X74917301Y-58813855D01*
X75173024Y-58962545D01*
X75452841Y-59058489D01*
X75746000Y-59098000D01*
X76146000Y-59098000D01*
X76146000Y-57644000D01*
X76254000Y-57644000D01*
X76254000Y-59098000D01*
X76654000Y-59098000D01*
X76947159Y-59058489D01*
X77226976Y-58962545D01*
X77482699Y-58813855D01*
X77704500Y-58618133D01*
X77883856Y-58382900D01*
X78013874Y-58117197D01*
X78080031Y-57879087D01*
X77929904Y-57644000D01*
X76254000Y-57644000D01*
X76146000Y-57644000D01*
X74470096Y-57644000D01*
X74319969Y-57879087D01*
X73498000Y-57879087D01*
X73498000Y-55068947D01*
X74869652Y-53697297D01*
X74958147Y-53769923D01*
X74977000Y-53780000D01*
X74958147Y-53790077D01*
X74728524Y-53978524D01*
X74540077Y-54208147D01*
X74400049Y-54470121D01*
X74313820Y-54754380D01*
X74284704Y-55050000D01*
X74313820Y-55345620D01*
X74400049Y-55629879D01*
X74540077Y-55891853D01*
X74728524Y-56121476D01*
X74958147Y-56309923D01*
X74987245Y-56325476D01*
X74917301Y-56366145D01*
X74695500Y-56561867D01*
X74516144Y-56797100D01*
X74386126Y-57062803D01*
X74319969Y-57300913D01*
X74470096Y-57536000D01*
X76146000Y-57536000D01*
X76146000Y-57516000D01*
X76254000Y-57516000D01*
X76254000Y-57536000D01*
X77929904Y-57536000D01*
X78080031Y-57300913D01*
X78013874Y-57062803D01*
X77883856Y-56797100D01*
X77704500Y-56561867D01*
X77482699Y-56366145D01*
X77412755Y-56325476D01*
X77441853Y-56309923D01*
X77671476Y-56121476D01*
X77859923Y-55891853D01*
X77980296Y-55666651D01*
X79484983Y-54161965D01*
X79527265Y-54127265D01*
X79665726Y-53958550D01*
X79768611Y-53766065D01*
X79831968Y-53557206D01*
X79848000Y-53394431D01*
X79848000Y-53394422D01*
X79853360Y-53340001D01*
X79848000Y-53285580D01*
X79848000Y-47044431D01*
X79853361Y-46990000D01*
X79831968Y-46772793D01*
X79768611Y-46563935D01*
X79665726Y-46371450D01*
X79561963Y-46245014D01*
X79561960Y-46245011D01*
X79527265Y-46202735D01*
X79484989Y-46168040D01*
X72863000Y-39546053D01*
X72863000Y-37454634D01*
X72926340Y-37391294D01*
X73091373Y-37144306D01*
X73205049Y-36869868D01*
X73263000Y-36578525D01*
X73263000Y-36281475D01*
X73205049Y-35990132D01*
X73091373Y-35715694D01*
X72926340Y-35468706D01*
X72716294Y-35258660D01*
X72469306Y-35093627D01*
X72194868Y-34979951D01*
X71903525Y-34922000D01*
X71606475Y-34922000D01*
X71315132Y-34979951D01*
X71040694Y-35093627D01*
X70793706Y-35258660D01*
X70583660Y-35468706D01*
X70418627Y-35715694D01*
X70304951Y-35990132D01*
X70247000Y-36281475D01*
X70247000Y-36578525D01*
X70304951Y-36869868D01*
X70418627Y-37144306D01*
X70583660Y-37391294D01*
X70647000Y-37454634D01*
X70647001Y-39950567D01*
X70641640Y-40005000D01*
X70663032Y-40222206D01*
X70726389Y-40431064D01*
X70829096Y-40623215D01*
X70829275Y-40623550D01*
X70967736Y-40792265D01*
X71010018Y-40826965D01*
X77632000Y-47448949D01*
X77632001Y-51406127D01*
X77441853Y-51250077D01*
X77179879Y-51110049D01*
X76895620Y-51023820D01*
X76674078Y-51002000D01*
X75725922Y-51002000D01*
X75504380Y-51023820D01*
X75220121Y-51110049D01*
X74958147Y-51250077D01*
X74773029Y-51402000D01*
X74544420Y-51402000D01*
X74489999Y-51396640D01*
X74435578Y-51402000D01*
X74435569Y-51402000D01*
X74272794Y-51418032D01*
X74063935Y-51481389D01*
X73871450Y-51584274D01*
X73871448Y-51584275D01*
X73871449Y-51584275D01*
X73769251Y-51668147D01*
X73702735Y-51722735D01*
X73668039Y-51765012D01*
X71645018Y-53788035D01*
X71602736Y-53822735D01*
X71491700Y-53958033D01*
X71464275Y-53991450D01*
X71361389Y-54183936D01*
X71298032Y-54392794D01*
X71276640Y-54610000D01*
X71282001Y-54664433D01*
X71282000Y-61136052D01*
X70026053Y-62392000D01*
X57608949Y-62392000D01*
X54448000Y-59231053D01*
X54448000Y-58704390D01*
X54556279Y-58632040D01*
X54822040Y-58366279D01*
X55030848Y-58053777D01*
X55174677Y-57706543D01*
X55248000Y-57337922D01*
X55248000Y-56962078D01*
X55174677Y-56593457D01*
X55030848Y-56246223D01*
X54822040Y-55933721D01*
X54556279Y-55667960D01*
X54243777Y-55459152D01*
X53896543Y-55315323D01*
X53527922Y-55242000D01*
X53152078Y-55242000D01*
X52783457Y-55315323D01*
X52436223Y-55459152D01*
X52123721Y-55667960D01*
X51857960Y-55933721D01*
X51649152Y-56246223D01*
X51505323Y-56593457D01*
X51432000Y-56962078D01*
X50638000Y-56962078D01*
X50638000Y-54433947D01*
X59513948Y-45558000D01*
X65877971Y-45558000D01*
X65817214Y-45671669D01*
X65725267Y-45974778D01*
X65702000Y-46211010D01*
X65702000Y-46631052D01*
X56405018Y-55928035D01*
X56362736Y-55962735D01*
X56301772Y-56037020D01*
X56224275Y-56131450D01*
X56121389Y-56323936D01*
X56076503Y-56471903D01*
X56058032Y-56532794D01*
X56042000Y-56695569D01*
X56042000Y-56695577D01*
X56036640Y-56750000D01*
X56042000Y-56804423D01*
X56042000Y-58365577D01*
X56036640Y-58420000D01*
X56042000Y-58474423D01*
X56042000Y-58474430D01*
X56058032Y-58637205D01*
X56121389Y-58846064D01*
X56224274Y-59038550D01*
X56362735Y-59207265D01*
X56405022Y-59241969D01*
X58868039Y-61704988D01*
X58902735Y-61747265D01*
X58945011Y-61781960D01*
X58945013Y-61781962D01*
X58981866Y-61812206D01*
X59071450Y-61885726D01*
X59263935Y-61988611D01*
X59472794Y-62051968D01*
X59635569Y-62068000D01*
X59635578Y-62068000D01*
X59689999Y-62073360D01*
X59744420Y-62068000D01*
X61345577Y-62068000D01*
X61400000Y-62073360D01*
X61454423Y-62068000D01*
X61454431Y-62068000D01*
X61617206Y-62051968D01*
X61826065Y-61988611D01*
X62018550Y-61885726D01*
X62187265Y-61747265D01*
X62221969Y-61704978D01*
X65599170Y-58327777D01*
X65626144Y-58382900D01*
X65805500Y-58618133D01*
X66027301Y-58813855D01*
X66283024Y-58962545D01*
X66562841Y-59058489D01*
X66856000Y-59098000D01*
X67256000Y-59098000D01*
X67256000Y-57644000D01*
X67364000Y-57644000D01*
X67364000Y-59098000D01*
X67764000Y-59098000D01*
X68057159Y-59058489D01*
X68336976Y-58962545D01*
X68592699Y-58813855D01*
X68814500Y-58618133D01*
X68993856Y-58382900D01*
X69123874Y-58117197D01*
X69190031Y-57879087D01*
X69039904Y-57644000D01*
X67364000Y-57644000D01*
X67256000Y-57644000D01*
X67236000Y-57644000D01*
X67236000Y-57536000D01*
X67256000Y-57536000D01*
X67256000Y-57516000D01*
X67364000Y-57516000D01*
X67364000Y-57536000D01*
X69039904Y-57536000D01*
X69190031Y-57300913D01*
X69123874Y-57062803D01*
X68993856Y-56797100D01*
X68814500Y-56561867D01*
X68592699Y-56366145D01*
X68522755Y-56325476D01*
X68551853Y-56309923D01*
X68781476Y-56121476D01*
X68969923Y-55891853D01*
X69109951Y-55629879D01*
X69196180Y-55345620D01*
X69225296Y-55050000D01*
X69196180Y-54754380D01*
X69109951Y-54470121D01*
X68969923Y-54208147D01*
X68781476Y-53978524D01*
X68551853Y-53790077D01*
X68533000Y-53780000D01*
X68551853Y-53769923D01*
X68736971Y-53618000D01*
X69355577Y-53618000D01*
X69410000Y-53623360D01*
X69464423Y-53618000D01*
X69464431Y-53618000D01*
X69627206Y-53601968D01*
X69836065Y-53538611D01*
X70028550Y-53435726D01*
X70197265Y-53297265D01*
X70231969Y-53254978D01*
X72499983Y-50986965D01*
X72542265Y-50952265D01*
X72680726Y-50783550D01*
X72783611Y-50591065D01*
X72846968Y-50382206D01*
X72863000Y-50219431D01*
X72863000Y-50219424D01*
X72868360Y-50165000D01*
X72863000Y-50110577D01*
X72863000Y-48060866D01*
X72897529Y-48032529D01*
X73098472Y-47787679D01*
X73247786Y-47508332D01*
X73339733Y-47205223D01*
X73363000Y-46968991D01*
X73363000Y-46211010D01*
X73339733Y-45974778D01*
X73247786Y-45671668D01*
X73098472Y-45392321D01*
X72897529Y-45147471D01*
X72652679Y-44946528D01*
X72373332Y-44797214D01*
X72070223Y-44705267D01*
X71755000Y-44674220D01*
X71439778Y-44705267D01*
X71437811Y-44705864D01*
X70436969Y-43705022D01*
X70402265Y-43662735D01*
X70233550Y-43524274D01*
X70041065Y-43421389D01*
X69832206Y-43358032D01*
X69669431Y-43342000D01*
X69669423Y-43342000D01*
X69615000Y-43336640D01*
X69560577Y-43342000D01*
X59109420Y-43342000D01*
X59054999Y-43336640D01*
X59000578Y-43342000D01*
X59000569Y-43342000D01*
X58837794Y-43358032D01*
X58628935Y-43421389D01*
X58436450Y-43524274D01*
X58267735Y-43662735D01*
X58233035Y-43705017D01*
X48785018Y-53153035D01*
X48742736Y-53187735D01*
X48687544Y-53254987D01*
X48604275Y-53356450D01*
X48501389Y-53548936D01*
X48438032Y-53757794D01*
X48416640Y-53975000D01*
X48422001Y-54029433D01*
X48422000Y-62175577D01*
X48416640Y-62230000D01*
X48422000Y-62284423D01*
X48422000Y-62284430D01*
X48422196Y-62286418D01*
X48438032Y-62447206D01*
X48491544Y-62623611D01*
X48501389Y-62656064D01*
X48604274Y-62848550D01*
X48742735Y-63017265D01*
X48785022Y-63051969D01*
X53153035Y-67419983D01*
X53187735Y-67462265D01*
X53356450Y-67600726D01*
X53548935Y-67703611D01*
X53757794Y-67766968D01*
X53920569Y-67783000D01*
X53920578Y-67783000D01*
X53974999Y-67788360D01*
X54029420Y-67783000D01*
X79770575Y-67783000D01*
X79824998Y-67788360D01*
X79879421Y-67783000D01*
X79879429Y-67783000D01*
X80042204Y-67766968D01*
X80251063Y-67703611D01*
X80443548Y-67600726D01*
X80612263Y-67462265D01*
X80646967Y-67419978D01*
X90726948Y-57339999D01*
X96621578Y-57339999D01*
X96676001Y-57345359D01*
X96730424Y-57339999D01*
X96730432Y-57339999D01*
X96893207Y-57323967D01*
X97102066Y-57260610D01*
X97294551Y-57157725D01*
X97463266Y-57019264D01*
X97497970Y-56976977D01*
X103868989Y-50605960D01*
X103911265Y-50571265D01*
X104009730Y-50451286D01*
X104049726Y-50402550D01*
X104152611Y-50210065D01*
X104215968Y-50001206D01*
X104237361Y-49784000D01*
X104232000Y-49729569D01*
X104232000Y-32954947D01*
X106335523Y-30851425D01*
X107632500Y-30851425D01*
X107771292Y-30837755D01*
X107904751Y-30797271D01*
X108027747Y-30731528D01*
X108135553Y-30643053D01*
X108224028Y-30535247D01*
X108230354Y-30523412D01*
X108293013Y-30574835D01*
X108581481Y-30729024D01*
X108894486Y-30823974D01*
X109220000Y-30856034D01*
X109545515Y-30823974D01*
X109858520Y-30729024D01*
X110052001Y-30625607D01*
X110052000Y-36376523D01*
X108071596Y-38356928D01*
X108006418Y-38410418D01*
X107792979Y-38670496D01*
X107647415Y-38942826D01*
X107634379Y-38967215D01*
X107536714Y-39289174D01*
X107503736Y-39624000D01*
X107512000Y-39707905D01*
X107512001Y-51616522D01*
X101975596Y-57152928D01*
X101910418Y-57206418D01*
X101696979Y-57466496D01*
X101568671Y-57706543D01*
X101538379Y-57763215D01*
X101440714Y-58085174D01*
X101407736Y-58420000D01*
X101416000Y-58503905D01*
X101416001Y-65685629D01*
X101289323Y-65991457D01*
X101216000Y-66360078D01*
X101216000Y-66735922D01*
X101289323Y-67104543D01*
X101416001Y-67410371D01*
X101416000Y-95928095D01*
X101407736Y-96012000D01*
X101440714Y-96346826D01*
X101464515Y-96425286D01*
X101538379Y-96668785D01*
X101696979Y-96965504D01*
X101910418Y-97225582D01*
X101975596Y-97279072D01*
X107512001Y-102815478D01*
X107512000Y-105507332D01*
X107265557Y-105385733D01*
X106992957Y-105309758D01*
X106734000Y-105457983D01*
X106734000Y-107134000D01*
X106754000Y-107134000D01*
X106754000Y-107242000D01*
X106734000Y-107242000D01*
X106734000Y-108918017D01*
X106992957Y-109066242D01*
X107265557Y-108990267D01*
X107557626Y-108846156D01*
X107815968Y-108647834D01*
X107945537Y-108500024D01*
X108040168Y-108615332D01*
X108293012Y-108822835D01*
X108581480Y-108977024D01*
X108894485Y-109071974D01*
X109220000Y-109104034D01*
X109545514Y-109071974D01*
X109858519Y-108977024D01*
X110146987Y-108822835D01*
X110209646Y-108771412D01*
X110215972Y-108783247D01*
X110304447Y-108891053D01*
X110412253Y-108979528D01*
X110426115Y-108986937D01*
X110285053Y-109128000D01*
X105106948Y-109128000D01*
X104740000Y-108761053D01*
X104740000Y-107242000D01*
X105019500Y-107242000D01*
X105019500Y-107489500D01*
X105061941Y-107812410D01*
X105166563Y-108120835D01*
X105329345Y-108402923D01*
X105544032Y-108647834D01*
X105802374Y-108846156D01*
X106094443Y-108990267D01*
X106367043Y-109066242D01*
X106626000Y-108918017D01*
X106626000Y-107242000D01*
X105019500Y-107242000D01*
X104740000Y-107242000D01*
X104740000Y-106886500D01*
X105019500Y-106886500D01*
X105019500Y-107134000D01*
X106626000Y-107134000D01*
X106626000Y-105457983D01*
X106367043Y-105309758D01*
X106094443Y-105385733D01*
X105802374Y-105529844D01*
X105544032Y-105728166D01*
X105329345Y-105973077D01*
X105166563Y-106255165D01*
X105061941Y-106563590D01*
X105019500Y-106886500D01*
X104740000Y-106886500D01*
X104740000Y-106578933D01*
X104745361Y-106524502D01*
X104723968Y-106307295D01*
X104660611Y-106098437D01*
X104557726Y-105905952D01*
X104419265Y-105737237D01*
X104376989Y-105702542D01*
X93564000Y-94889555D01*
X93564000Y-90331732D01*
X95869636Y-90331732D01*
X96074578Y-90727727D01*
X96540048Y-90988273D01*
X97047404Y-91153005D01*
X97577149Y-91215591D01*
X98108925Y-91173626D01*
X98622296Y-91028724D01*
X99097534Y-90786452D01*
X99185422Y-90727727D01*
X99390364Y-90331732D01*
X97630000Y-88571369D01*
X95869636Y-90331732D01*
X93564000Y-90331732D01*
X93564000Y-88442150D01*
X94909410Y-88442150D01*
X94951375Y-88973926D01*
X95096277Y-89487297D01*
X95338549Y-89962535D01*
X95397274Y-90050423D01*
X95793269Y-90255365D01*
X97553632Y-88495001D01*
X97706368Y-88495001D01*
X99466731Y-90255365D01*
X99862726Y-90050423D01*
X100123272Y-89584953D01*
X100288004Y-89077597D01*
X100350590Y-88547852D01*
X100308625Y-88016076D01*
X100163723Y-87502705D01*
X99921451Y-87027467D01*
X99862726Y-86939579D01*
X99466731Y-86734637D01*
X97706368Y-88495001D01*
X97553632Y-88495001D01*
X95793269Y-86734637D01*
X95397274Y-86939579D01*
X95136728Y-87405049D01*
X94971996Y-87912405D01*
X94909410Y-88442150D01*
X93564000Y-88442150D01*
X93564000Y-86658270D01*
X95869636Y-86658270D01*
X97630000Y-88418633D01*
X99390364Y-86658270D01*
X99185422Y-86262275D01*
X98719952Y-86001729D01*
X98212596Y-85836997D01*
X97682851Y-85774411D01*
X97151075Y-85816376D01*
X96637704Y-85961278D01*
X96162466Y-86203550D01*
X96074578Y-86262275D01*
X95869636Y-86658270D01*
X93564000Y-86658270D01*
X93564000Y-83366420D01*
X93569360Y-83311999D01*
X93564000Y-83257578D01*
X93564000Y-83257569D01*
X93547968Y-83094794D01*
X93484611Y-82885935D01*
X93381726Y-82693450D01*
X93243265Y-82524735D01*
X93200988Y-82490040D01*
X88265969Y-77555022D01*
X88231265Y-77512735D01*
X88062550Y-77374274D01*
X87870065Y-77271389D01*
X87661206Y-77208032D01*
X87498431Y-77192000D01*
X87498423Y-77192000D01*
X87444000Y-77186640D01*
X87389577Y-77192000D01*
X77626971Y-77192000D01*
X77441853Y-77040077D01*
X77179879Y-76900049D01*
X76895620Y-76813820D01*
X76674078Y-76792000D01*
X76258949Y-76792000D01*
X73651969Y-74185022D01*
X73617265Y-74142735D01*
X73448550Y-74004274D01*
X73256065Y-73901389D01*
X73047206Y-73838032D01*
X72884431Y-73822000D01*
X72884423Y-73822000D01*
X72830000Y-73816640D01*
X72775577Y-73822000D01*
X57204431Y-73822000D01*
X57150000Y-73816639D01*
X56932793Y-73838032D01*
X56723935Y-73901389D01*
X56531450Y-74004274D01*
X56405014Y-74108037D01*
X56405013Y-74108038D01*
X56362735Y-74142735D01*
X56328039Y-74185012D01*
X53655647Y-76857406D01*
X53527922Y-76832000D01*
X53152078Y-76832000D01*
X52783457Y-76905323D01*
X52436223Y-77049152D01*
X52123721Y-77257960D01*
X51857960Y-77523721D01*
X51649152Y-77836223D01*
X51505323Y-78183457D01*
X51432000Y-78552078D01*
X51432000Y-78927922D01*
X51505323Y-79296543D01*
X51649152Y-79643777D01*
X51857960Y-79956279D01*
X52123721Y-80222040D01*
X52436223Y-80430848D01*
X52783457Y-80574677D01*
X53152078Y-80648000D01*
X53527922Y-80648000D01*
X53896543Y-80574677D01*
X54243777Y-80430848D01*
X54556279Y-80222040D01*
X54822040Y-79956279D01*
X55030848Y-79643777D01*
X55174677Y-79296543D01*
X55248000Y-78927922D01*
X55248000Y-78552078D01*
X55222594Y-78424353D01*
X57608949Y-76038000D01*
X72371053Y-76038000D01*
X74319315Y-77986264D01*
X74313820Y-78004380D01*
X74284704Y-78300000D01*
X74313820Y-78595620D01*
X74400049Y-78879879D01*
X74540077Y-79141853D01*
X74728524Y-79371476D01*
X74958147Y-79559923D01*
X74977000Y-79570000D01*
X74958147Y-79580077D01*
X74728524Y-79768524D01*
X74540077Y-79998147D01*
X74400049Y-80260121D01*
X74313820Y-80544380D01*
X74284704Y-80840000D01*
X74313820Y-81135620D01*
X74400049Y-81419879D01*
X74540077Y-81681853D01*
X74728524Y-81911476D01*
X74958147Y-82099923D01*
X74987245Y-82115476D01*
X74917301Y-82156145D01*
X74695500Y-82351867D01*
X74516144Y-82587100D01*
X74386126Y-82852803D01*
X74319969Y-83090913D01*
X74470096Y-83326000D01*
X76146000Y-83326000D01*
X76146000Y-83306000D01*
X76254000Y-83306000D01*
X76254000Y-83326000D01*
X77929904Y-83326000D01*
X78080031Y-83090913D01*
X78013874Y-82852803D01*
X77883856Y-82587100D01*
X77704500Y-82351867D01*
X77482699Y-82156145D01*
X77412755Y-82115476D01*
X77441853Y-82099923D01*
X77626971Y-81948000D01*
X77841052Y-81948000D01*
X78267001Y-82373949D01*
X78267000Y-87806051D01*
X71645018Y-94428035D01*
X71602736Y-94462735D01*
X71514757Y-94569938D01*
X71464275Y-94631450D01*
X71361389Y-94823936D01*
X71298032Y-95032794D01*
X71276640Y-95250000D01*
X71282001Y-95304433D01*
X71282000Y-97989134D01*
X71247471Y-98017471D01*
X71046528Y-98262322D01*
X70897214Y-98541669D01*
X70805267Y-98844778D01*
X70782000Y-99081010D01*
X70782000Y-99838991D01*
X70805267Y-100075223D01*
X70897214Y-100378332D01*
X71046528Y-100657679D01*
X71247471Y-100902529D01*
X71492322Y-101103472D01*
X71771669Y-101252786D01*
X72074778Y-101344733D01*
X72390000Y-101375780D01*
X72705223Y-101344733D01*
X73008332Y-101252786D01*
X73287679Y-101103472D01*
X73532529Y-100902529D01*
X73733472Y-100657679D01*
X73882786Y-100378332D01*
X73974733Y-100075222D01*
X73998000Y-99838990D01*
X73998000Y-99081009D01*
X73974733Y-98844777D01*
X73882786Y-98541668D01*
X73733472Y-98262321D01*
X73532529Y-98017471D01*
X73498000Y-97989134D01*
X73498000Y-95708947D01*
X80119989Y-89086960D01*
X80162265Y-89052265D01*
X80226557Y-88973926D01*
X80300726Y-88883550D01*
X80403611Y-88691065D01*
X80466968Y-88482207D01*
X80488361Y-88265000D01*
X80483000Y-88210569D01*
X80483000Y-81969431D01*
X80488361Y-81915000D01*
X80466968Y-81697794D01*
X80403611Y-81488935D01*
X80300726Y-81296450D01*
X80196963Y-81170014D01*
X80196960Y-81170011D01*
X80162265Y-81127735D01*
X80119988Y-81093039D01*
X79121969Y-80095022D01*
X79087265Y-80052735D01*
X78918550Y-79914274D01*
X78726065Y-79811389D01*
X78517206Y-79748032D01*
X78354431Y-79732000D01*
X78354423Y-79732000D01*
X78300000Y-79726640D01*
X78245577Y-79732000D01*
X77626971Y-79732000D01*
X77441853Y-79580077D01*
X77423000Y-79570000D01*
X77441853Y-79559923D01*
X77626971Y-79408000D01*
X86985053Y-79408000D01*
X91348001Y-83770950D01*
X91348000Y-95294079D01*
X91342640Y-95348502D01*
X91348000Y-95402925D01*
X91348000Y-95402932D01*
X91361938Y-95544448D01*
X91364032Y-95565708D01*
X91397845Y-95677174D01*
X91427389Y-95774566D01*
X91530274Y-95967052D01*
X91668735Y-96135767D01*
X91711022Y-96170471D01*
X102524001Y-106983452D01*
X102524000Y-109165576D01*
X102518640Y-109220000D01*
X102524000Y-109274423D01*
X102524000Y-109274430D01*
X102537938Y-109415946D01*
X102540032Y-109437206D01*
X102555665Y-109488740D01*
X102603389Y-109646064D01*
X102706274Y-109838550D01*
X102844735Y-110007265D01*
X102887022Y-110041969D01*
X103826035Y-110980983D01*
X103860735Y-111023265D01*
X104029450Y-111161726D01*
X104221935Y-111264611D01*
X104430793Y-111327968D01*
X104450158Y-111329875D01*
X104593569Y-111344000D01*
X104593576Y-111344000D01*
X104648000Y-111349360D01*
X104702423Y-111344000D01*
X110689577Y-111344000D01*
X110744000Y-111349360D01*
X110798423Y-111344000D01*
X110798431Y-111344000D01*
X110961206Y-111327968D01*
X111170065Y-111264611D01*
X111362550Y-111161726D01*
X111531265Y-111023265D01*
X111565969Y-110980978D01*
X112504983Y-110041965D01*
X112547265Y-110007265D01*
X112685726Y-109838550D01*
X112788611Y-109646065D01*
X112835645Y-109491015D01*
X112851968Y-109437207D01*
X112855120Y-109405206D01*
X112868000Y-109274431D01*
X112868000Y-109274424D01*
X112873360Y-109220000D01*
X112868000Y-109165577D01*
X112868000Y-109080687D01*
X112984751Y-109045271D01*
X113107747Y-108979528D01*
X113215553Y-108891053D01*
X113304028Y-108783247D01*
X113369771Y-108660251D01*
X113410255Y-108526792D01*
X113423925Y-108388000D01*
X113423925Y-105988000D01*
X113410255Y-105849208D01*
X113369771Y-105715749D01*
X113304028Y-105592753D01*
X113215553Y-105484947D01*
X113107747Y-105396472D01*
X112984751Y-105330729D01*
X112851292Y-105290245D01*
X112712500Y-105276575D01*
X110928000Y-105276575D01*
X110928000Y-102191903D01*
X110936264Y-102108000D01*
X110903286Y-101773173D01*
X110805621Y-101451214D01*
X110647021Y-101154495D01*
X110433582Y-100894418D01*
X110368409Y-100840932D01*
X104832000Y-95304524D01*
X104832000Y-67410368D01*
X104958677Y-67104543D01*
X105032000Y-66735922D01*
X105032000Y-66360078D01*
X104958677Y-65991457D01*
X104832000Y-65685632D01*
X104832000Y-59127476D01*
X110368409Y-53591068D01*
X110433582Y-53537582D01*
X110647021Y-53277505D01*
X110805621Y-52980786D01*
X110819187Y-52936064D01*
X110903286Y-52658827D01*
X110936264Y-52324000D01*
X110928000Y-52240096D01*
X110928000Y-40331476D01*
X112908410Y-38351067D01*
X112973582Y-38297582D01*
X113187021Y-38037505D01*
X113345621Y-37740786D01*
X113443286Y-37418826D01*
X113468000Y-37167904D01*
X113468000Y-37167895D01*
X113476263Y-37084001D01*
X113468000Y-37000106D01*
X113468000Y-28856096D01*
X113443286Y-28605174D01*
X113408706Y-28491178D01*
X113396474Y-28366985D01*
X113301524Y-28053980D01*
X113147335Y-27765512D01*
X112939832Y-27512668D01*
X112686987Y-27305165D01*
X112398519Y-27150976D01*
X112085514Y-27056026D01*
X111760000Y-27023966D01*
X111434485Y-27056026D01*
X111121480Y-27150976D01*
X110928000Y-27254393D01*
X110928000Y-26600000D01*
X125784524Y-26600000D01*
X125800001Y-26615477D01*
X125800001Y-27028575D01*
X124015500Y-27028575D01*
X123876708Y-27042245D01*
X123743249Y-27082729D01*
X123620253Y-27148472D01*
X123512447Y-27236947D01*
X123423972Y-27344753D01*
X123358229Y-27467749D01*
X123317745Y-27601208D01*
X123304075Y-27740000D01*
X123304075Y-30140000D01*
X123317745Y-30278792D01*
X123358229Y-30412251D01*
X123423972Y-30535247D01*
X123512447Y-30643053D01*
X123620253Y-30731528D01*
X123743249Y-30797271D01*
X123860000Y-30832687D01*
X123860001Y-41705051D01*
X108345053Y-57220000D01*
X108035777Y-57220000D01*
X107705795Y-57285638D01*
X107394959Y-57414390D01*
X107115214Y-57601310D01*
X106877310Y-57839214D01*
X106690390Y-58118959D01*
X106561638Y-58429795D01*
X106496000Y-58759777D01*
X106496000Y-59096223D01*
X106561638Y-59426205D01*
X106690390Y-59737041D01*
X106877310Y-60016786D01*
X107115214Y-60254690D01*
X107394959Y-60441610D01*
X107420044Y-60452000D01*
X107394961Y-60462390D01*
X107115216Y-60649310D01*
X106877312Y-60887214D01*
X106690392Y-61166959D01*
X106561640Y-61477795D01*
X106496002Y-61807777D01*
X106496002Y-62144223D01*
X106561640Y-62474205D01*
X106690392Y-62785041D01*
X106877312Y-63064786D01*
X107096003Y-63283477D01*
X107096002Y-94941579D01*
X107090642Y-94996002D01*
X107096002Y-95050425D01*
X107096002Y-95050432D01*
X107112034Y-95213207D01*
X107175391Y-95422066D01*
X107278276Y-95614552D01*
X107416737Y-95783267D01*
X107459024Y-95817971D01*
X122622035Y-110980983D01*
X122656735Y-111023265D01*
X122825450Y-111161726D01*
X123017935Y-111264611D01*
X123226793Y-111327968D01*
X123246158Y-111329875D01*
X123389569Y-111344000D01*
X123389576Y-111344000D01*
X123444000Y-111349360D01*
X123498423Y-111344000D01*
X128945577Y-111344000D01*
X129000000Y-111349360D01*
X129054423Y-111344000D01*
X129054431Y-111344000D01*
X129217206Y-111327968D01*
X129426065Y-111264611D01*
X129618550Y-111161726D01*
X129787265Y-111023265D01*
X129821969Y-110980978D01*
X130792983Y-110009965D01*
X130835265Y-109975265D01*
X130973726Y-109806550D01*
X131076611Y-109614065D01*
X131139968Y-109405206D01*
X131156000Y-109242431D01*
X131156000Y-109242424D01*
X131161360Y-109188000D01*
X131156000Y-109133577D01*
X131156000Y-109080687D01*
X131272751Y-109045271D01*
X131395747Y-108979528D01*
X131503553Y-108891053D01*
X131592028Y-108783247D01*
X131657771Y-108660251D01*
X131698255Y-108526792D01*
X131711925Y-108388000D01*
X131711925Y-107468682D01*
X142472000Y-107468682D01*
X142472000Y-107923318D01*
X142560696Y-108369219D01*
X142734677Y-108789248D01*
X142987260Y-109167264D01*
X143308736Y-109488740D01*
X143686752Y-109741323D01*
X144106781Y-109915304D01*
X144552682Y-110004000D01*
X145007318Y-110004000D01*
X145453219Y-109915304D01*
X145873248Y-109741323D01*
X146251264Y-109488740D01*
X146572740Y-109167264D01*
X146825323Y-108789248D01*
X146999304Y-108369219D01*
X147088000Y-107923318D01*
X147088000Y-107468682D01*
X146999304Y-107022781D01*
X146825323Y-106602752D01*
X146572740Y-106224736D01*
X146251264Y-105903260D01*
X145873248Y-105650677D01*
X145453219Y-105476696D01*
X145007318Y-105388000D01*
X144552682Y-105388000D01*
X144106781Y-105476696D01*
X143686752Y-105650677D01*
X143308736Y-105903260D01*
X142987260Y-106224736D01*
X142734677Y-106602752D01*
X142560696Y-107022781D01*
X142472000Y-107468682D01*
X131711925Y-107468682D01*
X131711925Y-105988000D01*
X131698255Y-105849208D01*
X131657771Y-105715749D01*
X131592028Y-105592753D01*
X131503553Y-105484947D01*
X131395747Y-105396472D01*
X131272751Y-105330729D01*
X131139292Y-105290245D01*
X131000500Y-105276575D01*
X129216000Y-105276575D01*
X129216000Y-99351476D01*
X137715477Y-90852000D01*
X140664098Y-90852000D01*
X140748002Y-90860264D01*
X140831906Y-90852000D01*
X141082828Y-90827286D01*
X141404788Y-90729621D01*
X141701507Y-90571021D01*
X141961584Y-90357582D01*
X142015074Y-90292404D01*
X143856411Y-88451068D01*
X143921583Y-88397583D01*
X144135022Y-88137506D01*
X144293622Y-87840787D01*
X144391287Y-87518827D01*
X144416001Y-87267905D01*
X144416001Y-87267904D01*
X144424265Y-87184002D01*
X144416001Y-87100100D01*
X144416001Y-81467897D01*
X144424264Y-81384002D01*
X144416001Y-81300108D01*
X144416001Y-81300099D01*
X144391287Y-81049177D01*
X144293622Y-80727217D01*
X144135022Y-80430498D01*
X143921583Y-80170421D01*
X143856410Y-80116935D01*
X142283212Y-78543737D01*
X142288543Y-78542677D01*
X142635777Y-78398848D01*
X142948279Y-78190040D01*
X143214040Y-77924279D01*
X143422848Y-77611777D01*
X143566677Y-77264543D01*
X143640000Y-76895922D01*
X143640000Y-76520078D01*
X143566677Y-76151457D01*
X143440000Y-75845632D01*
X143440000Y-68907894D01*
X143448263Y-68823999D01*
X143440000Y-68740105D01*
X143440000Y-68740096D01*
X143439652Y-68736564D01*
X143457505Y-68727021D01*
X143717582Y-68513582D01*
X143771072Y-68448404D01*
X145420404Y-66799072D01*
X145485582Y-66745582D01*
X145699021Y-66485505D01*
X145857621Y-66188786D01*
X145888674Y-66086418D01*
X145955286Y-65866827D01*
X145988264Y-65532000D01*
X145980000Y-65448096D01*
X145980000Y-57995904D01*
X145988264Y-57912000D01*
X145955286Y-57577173D01*
X145857621Y-57255214D01*
X145754775Y-57062803D01*
X145699021Y-56958495D01*
X145485582Y-56698418D01*
X145420410Y-56644933D01*
X142416000Y-53640524D01*
X142416000Y-53630531D01*
X142331148Y-53203950D01*
X142164705Y-52802120D01*
X141923066Y-52440482D01*
X141615518Y-52132934D01*
X141253880Y-51891295D01*
X140852050Y-51724852D01*
X140425469Y-51640000D01*
X139990531Y-51640000D01*
X139692119Y-51699358D01*
X140412052Y-50979425D01*
X141708000Y-50979425D01*
X141846792Y-50965755D01*
X141980251Y-50925271D01*
X142103247Y-50859528D01*
X142211053Y-50771053D01*
X142299528Y-50663247D01*
X142365271Y-50540251D01*
X142405755Y-50406792D01*
X142419425Y-50268000D01*
X142419425Y-47268000D01*
X142405755Y-47129208D01*
X142365271Y-46995749D01*
X142299528Y-46872753D01*
X142211053Y-46764947D01*
X142103247Y-46676472D01*
X141980251Y-46610729D01*
X141846792Y-46570245D01*
X141708000Y-46556575D01*
X140412052Y-46556575D01*
X131756000Y-37900524D01*
X131756000Y-28856096D01*
X131731286Y-28605174D01*
X131696706Y-28491178D01*
X131684474Y-28366985D01*
X131589524Y-28053980D01*
X131435335Y-27765512D01*
X131227832Y-27512668D01*
X130974987Y-27305165D01*
X130686519Y-27150976D01*
X130373514Y-27056026D01*
X130048000Y-27023966D01*
X129722485Y-27056026D01*
X129409480Y-27150976D01*
X129216000Y-27254393D01*
X129216000Y-26188682D01*
X142472000Y-26188682D01*
X142472000Y-26643318D01*
X142560696Y-27089219D01*
X142734677Y-27509248D01*
X142987260Y-27887264D01*
X143308736Y-28208740D01*
X143686752Y-28461323D01*
X144106781Y-28635304D01*
X144552682Y-28724000D01*
X145007318Y-28724000D01*
X145453219Y-28635304D01*
X145873248Y-28461323D01*
X146251264Y-28208740D01*
X146572740Y-27887264D01*
X146825323Y-27509248D01*
X146999304Y-27089219D01*
X147088000Y-26643318D01*
X147088000Y-26188682D01*
X146999304Y-25742781D01*
X146825323Y-25322752D01*
X146572740Y-24944736D01*
X146251264Y-24623260D01*
X145873248Y-24370677D01*
X145453219Y-24196696D01*
X145007318Y-24108000D01*
X144552682Y-24108000D01*
X144106781Y-24196696D01*
X143686752Y-24370677D01*
X143308736Y-24623260D01*
X142987260Y-24944736D01*
X142734677Y-25322752D01*
X142560696Y-25742781D01*
X142472000Y-26188682D01*
X129216000Y-26188682D01*
X129216000Y-25991904D01*
X129224264Y-25908000D01*
X129191286Y-25573173D01*
X129093621Y-25251214D01*
X128935020Y-24954494D01*
X128927012Y-24944736D01*
X128721582Y-24694418D01*
X128656404Y-24640928D01*
X127759072Y-23743596D01*
X127705582Y-23678418D01*
X127445505Y-23464979D01*
X127148786Y-23306379D01*
X126826826Y-23208714D01*
X126575904Y-23184000D01*
X126492000Y-23175736D01*
X126408096Y-23184000D01*
X107779904Y-23184000D01*
X107696000Y-23175736D01*
X107612096Y-23184000D01*
X101175904Y-23184000D01*
X101092000Y-23175736D01*
X100757173Y-23208714D01*
X100435214Y-23306379D01*
X100138495Y-23464979D01*
X99878418Y-23678418D01*
X99824932Y-23743591D01*
X91815596Y-31752928D01*
X91750418Y-31806418D01*
X91536979Y-32066496D01*
X91527181Y-32084827D01*
X91378379Y-32363215D01*
X91280714Y-32685174D01*
X91247736Y-33020000D01*
X91256000Y-33103905D01*
X91256001Y-45520522D01*
X90854524Y-45922000D01*
X90341425Y-45922000D01*
X90341425Y-45630000D01*
X90327755Y-45491208D01*
X90287271Y-45357749D01*
X90221528Y-45234753D01*
X90133053Y-45126947D01*
X90025247Y-45038472D01*
X89902251Y-44972729D01*
X89768792Y-44932245D01*
X89630000Y-44918575D01*
X87334052Y-44918575D01*
X82988000Y-40572524D01*
X82988000Y-34881904D01*
X82996264Y-34798000D01*
X82963286Y-34463173D01*
X82865621Y-34141214D01*
X82707020Y-33844494D01*
X82547067Y-33649590D01*
X82493582Y-33584418D01*
X82428409Y-33530932D01*
X79499072Y-30601596D01*
X79445582Y-30536418D01*
X79185505Y-30322979D01*
X78888786Y-30164379D01*
X78566826Y-30066714D01*
X78315904Y-30042000D01*
X78232000Y-30033736D01*
X78148096Y-30042000D01*
X63583894Y-30042000D01*
X63499999Y-30033737D01*
X63416105Y-30042000D01*
X63416096Y-30042000D01*
X63165174Y-30066714D01*
X62843214Y-30164379D01*
X62546495Y-30322979D01*
X62286418Y-30536418D01*
X62232932Y-30601591D01*
X59811596Y-33022928D01*
X59746418Y-33076418D01*
X59532979Y-33336496D01*
X59487423Y-33421725D01*
X59374379Y-33633215D01*
X59276714Y-33955174D01*
X59243736Y-34290000D01*
X59252000Y-34373905D01*
X59252000Y-35122000D01*
X54202368Y-35122000D01*
X53896543Y-34995323D01*
X53527922Y-34922000D01*
X53152078Y-34922000D01*
X52783457Y-34995323D01*
X52436223Y-35139152D01*
X52123721Y-35347960D01*
X51857960Y-35613721D01*
X51649152Y-35926223D01*
X51522475Y-36232048D01*
X34411592Y-53342932D01*
X34346419Y-53396418D01*
X34292933Y-53461591D01*
X34132980Y-53656495D01*
X33974379Y-53953215D01*
X33876714Y-54275174D01*
X33843736Y-54610000D01*
X33852001Y-54693914D01*
X33852000Y-60053239D01*
X33787749Y-60072729D01*
X33664753Y-60138472D01*
X33556947Y-60226947D01*
X33468472Y-60334753D01*
X33402729Y-60457749D01*
X33368503Y-60570578D01*
X33152836Y-60636000D01*
X33125214Y-60644379D01*
X32828495Y-60802979D01*
X32568418Y-61016418D01*
X32514932Y-61081591D01*
X28823591Y-64772933D01*
X28758419Y-64826418D01*
X28704933Y-64891591D01*
X28544980Y-65086495D01*
X28386379Y-65383215D01*
X28288714Y-65705174D01*
X28255736Y-66040000D01*
X26108000Y-66040000D01*
X26108000Y-26188682D01*
X27664000Y-26188682D01*
X27664000Y-26643318D01*
X27752696Y-27089219D01*
X27926677Y-27509248D01*
X28179260Y-27887264D01*
X28500736Y-28208740D01*
X28878752Y-28461323D01*
X29298781Y-28635304D01*
X29744682Y-28724000D01*
X30199318Y-28724000D01*
X30645219Y-28635304D01*
X31065248Y-28461323D01*
X31443264Y-28208740D01*
X31764740Y-27887264D01*
X32017323Y-27509248D01*
X32191304Y-27089219D01*
X32280000Y-26643318D01*
X32280000Y-26188682D01*
X32191304Y-25742781D01*
X32017323Y-25322752D01*
X31764740Y-24944736D01*
X31443264Y-24623260D01*
X31065248Y-24370677D01*
X30645219Y-24196696D01*
X30199318Y-24108000D01*
X29744682Y-24108000D01*
X29298781Y-24196696D01*
X28878752Y-24370677D01*
X28500736Y-24623260D01*
X28179260Y-24944736D01*
X27926677Y-25322752D01*
X27752696Y-25742781D01*
X27664000Y-26188682D01*
X26108000Y-26188682D01*
X26108000Y-22552000D01*
X148644000Y-22552000D01*
X148644000Y-111560000D01*
G37*
X148644000Y-111560000D02*
X26108000Y-111560000D01*
X26108000Y-107468682D01*
X27664000Y-107468682D01*
X27664000Y-107923318D01*
X27752696Y-108369219D01*
X27926677Y-108789248D01*
X28179260Y-109167264D01*
X28500736Y-109488740D01*
X28878752Y-109741323D01*
X29298781Y-109915304D01*
X29744682Y-110004000D01*
X30199318Y-110004000D01*
X30645219Y-109915304D01*
X31065248Y-109741323D01*
X31443264Y-109488740D01*
X31764740Y-109167264D01*
X32017323Y-108789248D01*
X32191304Y-108369219D01*
X32280000Y-107923318D01*
X32280000Y-107468682D01*
X32191304Y-107022781D01*
X32017323Y-106602752D01*
X31764740Y-106224736D01*
X31443264Y-105903260D01*
X31065248Y-105650677D01*
X30645219Y-105476696D01*
X30199318Y-105388000D01*
X29744682Y-105388000D01*
X29298781Y-105476696D01*
X28878752Y-105650677D01*
X28500736Y-105903260D01*
X28179260Y-106224736D01*
X27926677Y-106602752D01*
X27752696Y-107022781D01*
X27664000Y-107468682D01*
X26108000Y-107468682D01*
X26108000Y-66040000D01*
X28255736Y-66040000D01*
X28264001Y-66123915D01*
X28264000Y-94658095D01*
X28255736Y-94742000D01*
X28288714Y-95076826D01*
X28324734Y-95195569D01*
X28386379Y-95398785D01*
X28544979Y-95695504D01*
X28758418Y-95955582D01*
X28823596Y-96009072D01*
X33022932Y-100208409D01*
X33076418Y-100273582D01*
X33336495Y-100487021D01*
X33633214Y-100645621D01*
X33955174Y-100743286D01*
X34206096Y-100768000D01*
X34206097Y-100768000D01*
X34289999Y-100776264D01*
X34373901Y-100768000D01*
X52477632Y-100768000D01*
X52783457Y-100894677D01*
X53152078Y-100968000D01*
X53527922Y-100968000D01*
X53896543Y-100894677D01*
X54202368Y-100768000D01*
X59252001Y-100768000D01*
X59252001Y-101516086D01*
X59243736Y-101600000D01*
X59276714Y-101934826D01*
X59374379Y-102256785D01*
X59532980Y-102553505D01*
X59663857Y-102712979D01*
X59746419Y-102813582D01*
X59811591Y-102867067D01*
X62232932Y-105288409D01*
X62286418Y-105353582D01*
X62546495Y-105567021D01*
X62843214Y-105725621D01*
X63165174Y-105823286D01*
X63416096Y-105848000D01*
X63416105Y-105848000D01*
X63499999Y-105856263D01*
X63583894Y-105848000D01*
X77386096Y-105848000D01*
X77470000Y-105856264D01*
X77553904Y-105848000D01*
X77804826Y-105823286D01*
X78126786Y-105725621D01*
X78423505Y-105567021D01*
X78683582Y-105353582D01*
X78737072Y-105288404D01*
X88778410Y-95247067D01*
X88843582Y-95193582D01*
X89057021Y-94933505D01*
X89215621Y-94636786D01*
X89285273Y-94407174D01*
X89313286Y-94314827D01*
X89346264Y-93980000D01*
X89338000Y-93896096D01*
X89338000Y-91206426D01*
X89630000Y-91206426D01*
X89768792Y-91192756D01*
X89902251Y-91152272D01*
X90025247Y-91086529D01*
X90133053Y-90998054D01*
X90221528Y-90890248D01*
X90287271Y-90767252D01*
X90327755Y-90633793D01*
X90341425Y-90495001D01*
X90341425Y-86495001D01*
X90327755Y-86356209D01*
X90287271Y-86222750D01*
X90221528Y-86099754D01*
X90133053Y-85991948D01*
X90025247Y-85903473D01*
X89902251Y-85837730D01*
X89768792Y-85797246D01*
X89630000Y-85783576D01*
X85630000Y-85783576D01*
X85491208Y-85797246D01*
X85357749Y-85837730D01*
X85234753Y-85903473D01*
X85126947Y-85991948D01*
X85038472Y-86099754D01*
X84972729Y-86222750D01*
X84932245Y-86356209D01*
X84918575Y-86495001D01*
X84918575Y-90495001D01*
X84932245Y-90633793D01*
X84972729Y-90767252D01*
X85038472Y-90890248D01*
X85126947Y-90998054D01*
X85234753Y-91086529D01*
X85357749Y-91152272D01*
X85491208Y-91192756D01*
X85630000Y-91206426D01*
X85922001Y-91206426D01*
X85922000Y-93272523D01*
X76762524Y-102432000D01*
X64207477Y-102432000D01*
X62668000Y-100892524D01*
X62668000Y-99922368D01*
X62794677Y-99616543D01*
X62868000Y-99247922D01*
X62868000Y-98872078D01*
X62794677Y-98503457D01*
X62650848Y-98156223D01*
X62442040Y-97843721D01*
X62176279Y-97577960D01*
X61863777Y-97369152D01*
X61516543Y-97225323D01*
X61147922Y-97152000D01*
X60772078Y-97152000D01*
X60403457Y-97225323D01*
X60097632Y-97352000D01*
X54202368Y-97352000D01*
X53896543Y-97225323D01*
X53527922Y-97152000D01*
X53152078Y-97152000D01*
X52783457Y-97225323D01*
X52477632Y-97352000D01*
X34997477Y-97352000D01*
X31680000Y-94034524D01*
X31680000Y-74168000D01*
X31906640Y-74168000D01*
X31912000Y-74222423D01*
X31912001Y-86305567D01*
X31906640Y-86360000D01*
X31928032Y-86577206D01*
X31991389Y-86786064D01*
X32050657Y-86896947D01*
X32094275Y-86978550D01*
X32232736Y-87147265D01*
X32275018Y-87181965D01*
X33348575Y-88255523D01*
X33348575Y-90400000D01*
X33362245Y-90538792D01*
X33402729Y-90672251D01*
X33468472Y-90795247D01*
X33556947Y-90903053D01*
X33664753Y-90991528D01*
X33787749Y-91057271D01*
X33921208Y-91097755D01*
X34060000Y-91111425D01*
X37060000Y-91111425D01*
X37198792Y-91097755D01*
X37332251Y-91057271D01*
X37455247Y-90991528D01*
X37563053Y-90903053D01*
X37651528Y-90795247D01*
X37717271Y-90672251D01*
X37757755Y-90538792D01*
X37771425Y-90400000D01*
X37771425Y-87400000D01*
X37757755Y-87261208D01*
X37717271Y-87127749D01*
X37651528Y-87004753D01*
X37563053Y-86896947D01*
X37455247Y-86808472D01*
X37332251Y-86742729D01*
X37198792Y-86702245D01*
X37060000Y-86688575D01*
X34915523Y-86688575D01*
X34128000Y-85901053D01*
X34128000Y-85510584D01*
X34152482Y-85535066D01*
X34514120Y-85776705D01*
X34915950Y-85943148D01*
X35342531Y-86028000D01*
X35777469Y-86028000D01*
X36204050Y-85943148D01*
X36605880Y-85776705D01*
X36967518Y-85535066D01*
X37275066Y-85227518D01*
X37475198Y-84928000D01*
X42213053Y-84928000D01*
X47330040Y-90044989D01*
X47364735Y-90087265D01*
X47533450Y-90225726D01*
X47725935Y-90328611D01*
X47934794Y-90391968D01*
X48097569Y-90408000D01*
X48097578Y-90408000D01*
X48151999Y-90413360D01*
X48206420Y-90408000D01*
X65918594Y-90408000D01*
X65966528Y-90497679D01*
X66167471Y-90742529D01*
X66412322Y-90943472D01*
X66691669Y-91092786D01*
X66994778Y-91184733D01*
X67310000Y-91215780D01*
X67625223Y-91184733D01*
X67928332Y-91092786D01*
X68207679Y-90943472D01*
X68452529Y-90742529D01*
X68653472Y-90497679D01*
X68742000Y-90332054D01*
X68742000Y-90981051D01*
X66565018Y-93158035D01*
X66522736Y-93192735D01*
X66488038Y-93235015D01*
X66384275Y-93361450D01*
X66281389Y-93553936D01*
X66218032Y-93762794D01*
X66196640Y-93980000D01*
X66202001Y-94034433D01*
X66202000Y-97989134D01*
X66167471Y-98017471D01*
X65966528Y-98262322D01*
X65817214Y-98541669D01*
X65725267Y-98844778D01*
X65702000Y-99081010D01*
X65702000Y-99838991D01*
X65725267Y-100075223D01*
X65817214Y-100378332D01*
X65966528Y-100657679D01*
X66167471Y-100902529D01*
X66412322Y-101103472D01*
X66691669Y-101252786D01*
X66994778Y-101344733D01*
X67310000Y-101375780D01*
X67625223Y-101344733D01*
X67928332Y-101252786D01*
X68207679Y-101103472D01*
X68452529Y-100902529D01*
X68653472Y-100657679D01*
X68802786Y-100378332D01*
X68894733Y-100075222D01*
X68918000Y-99838990D01*
X68918000Y-99081009D01*
X68894733Y-98844777D01*
X68802786Y-98541668D01*
X68653472Y-98262321D01*
X68452529Y-98017471D01*
X68418000Y-97989134D01*
X68418000Y-94438947D01*
X70594988Y-92261961D01*
X70637265Y-92227265D01*
X70775726Y-92058550D01*
X70878611Y-91866065D01*
X70941968Y-91657206D01*
X70958000Y-91494431D01*
X70958000Y-91494422D01*
X70963360Y-91440001D01*
X70958000Y-91385580D01*
X70958000Y-90332055D01*
X71046528Y-90497679D01*
X71247471Y-90742529D01*
X71492322Y-90943472D01*
X71771669Y-91092786D01*
X72074778Y-91184733D01*
X72390000Y-91215780D01*
X72705223Y-91184733D01*
X73008332Y-91092786D01*
X73287679Y-90943472D01*
X73532529Y-90742529D01*
X73733472Y-90497679D01*
X73882786Y-90218332D01*
X73974733Y-89915222D01*
X73998000Y-89678990D01*
X73998000Y-88921009D01*
X73974733Y-88684777D01*
X73882786Y-88381668D01*
X73733472Y-88102321D01*
X73532529Y-87857471D01*
X73498000Y-87829134D01*
X73498000Y-83669087D01*
X74319969Y-83669087D01*
X74386126Y-83907197D01*
X74516144Y-84172900D01*
X74695500Y-84408133D01*
X74917301Y-84603855D01*
X75173024Y-84752545D01*
X75452841Y-84848489D01*
X75746000Y-84888000D01*
X76146000Y-84888000D01*
X76146000Y-83434000D01*
X76254000Y-83434000D01*
X76254000Y-84888000D01*
X76654000Y-84888000D01*
X76947159Y-84848489D01*
X77226976Y-84752545D01*
X77482699Y-84603855D01*
X77704500Y-84408133D01*
X77883856Y-84172900D01*
X78013874Y-83907197D01*
X78080031Y-83669087D01*
X77929904Y-83434000D01*
X76254000Y-83434000D01*
X76146000Y-83434000D01*
X74470096Y-83434000D01*
X74319969Y-83669087D01*
X73498000Y-83669087D01*
X73498000Y-81334420D01*
X73503360Y-81279999D01*
X73498000Y-81225578D01*
X73498000Y-81225569D01*
X73481968Y-81062794D01*
X73418611Y-80853935D01*
X73315726Y-80661450D01*
X73177265Y-80492735D01*
X73134988Y-80458039D01*
X70231969Y-77555022D01*
X70197265Y-77512735D01*
X70028550Y-77374274D01*
X69836065Y-77271389D01*
X69627206Y-77208032D01*
X69464431Y-77192000D01*
X69464423Y-77192000D01*
X69410000Y-77186640D01*
X69355577Y-77192000D01*
X68736971Y-77192000D01*
X68551853Y-77040077D01*
X68289879Y-76900049D01*
X68005620Y-76813820D01*
X67784078Y-76792000D01*
X66835922Y-76792000D01*
X66614380Y-76813820D01*
X66330121Y-76900049D01*
X66068147Y-77040077D01*
X65883029Y-77192000D01*
X62077563Y-77192000D01*
X61863777Y-77049152D01*
X61516543Y-76905323D01*
X61147922Y-76832000D01*
X60772078Y-76832000D01*
X60403457Y-76905323D01*
X60056223Y-77049152D01*
X59743721Y-77257960D01*
X59477960Y-77523721D01*
X59269152Y-77836223D01*
X59125323Y-78183457D01*
X59052000Y-78552078D01*
X59052000Y-78927922D01*
X59077406Y-79055646D01*
X54913053Y-83220000D01*
X50242949Y-83220000D01*
X46320000Y-79297053D01*
X46320000Y-74626947D01*
X47702948Y-73244000D01*
X79701577Y-73244000D01*
X79756000Y-73249360D01*
X79810423Y-73244000D01*
X79810431Y-73244000D01*
X79973206Y-73227968D01*
X80182065Y-73164611D01*
X80374550Y-73061726D01*
X80543265Y-72923265D01*
X80577969Y-72880978D01*
X93422949Y-60036000D01*
X93556821Y-60036000D01*
X93399214Y-60141310D01*
X93161310Y-60379214D01*
X92974390Y-60658959D01*
X92845638Y-60969795D01*
X92780000Y-61299777D01*
X92780000Y-61636223D01*
X92845638Y-61966205D01*
X92974390Y-62277041D01*
X93161310Y-62556786D01*
X93399214Y-62794690D01*
X93678959Y-62981610D01*
X93989795Y-63110362D01*
X94319777Y-63176000D01*
X94656223Y-63176000D01*
X94986205Y-63110362D01*
X95297041Y-62981610D01*
X95576786Y-62794690D01*
X95795476Y-62576000D01*
X97459803Y-62576000D01*
X97546390Y-62785041D01*
X97733310Y-63064786D01*
X97971214Y-63302690D01*
X98250959Y-63489610D01*
X98561795Y-63618362D01*
X98891777Y-63684000D01*
X99228223Y-63684000D01*
X99558205Y-63618362D01*
X99869041Y-63489610D01*
X100148786Y-63302690D01*
X100386690Y-63064786D01*
X100573610Y-62785041D01*
X100702362Y-62474205D01*
X100768000Y-62144223D01*
X100768000Y-61807777D01*
X100702362Y-61477795D01*
X100573610Y-61166959D01*
X100386690Y-60887214D01*
X100148786Y-60649310D01*
X99869041Y-60462390D01*
X99843957Y-60452000D01*
X99869041Y-60441610D01*
X100148786Y-60254690D01*
X100386690Y-60016786D01*
X100573610Y-59737041D01*
X100702362Y-59426205D01*
X100768000Y-59096223D01*
X100768000Y-58759777D01*
X100702362Y-58429795D01*
X100573610Y-58118959D01*
X100386690Y-57839214D01*
X100148786Y-57601310D01*
X99869041Y-57414390D01*
X99558205Y-57285638D01*
X99228223Y-57220000D01*
X98891777Y-57220000D01*
X98561795Y-57285638D01*
X98250959Y-57414390D01*
X97971214Y-57601310D01*
X97752524Y-57820000D01*
X93018431Y-57820000D01*
X92964000Y-57814639D01*
X92746793Y-57836032D01*
X92537935Y-57899389D01*
X92345450Y-58002274D01*
X92219014Y-58106037D01*
X92219011Y-58106040D01*
X92176735Y-58140735D01*
X92142040Y-58183011D01*
X79297053Y-71028000D01*
X47298423Y-71028000D01*
X47244000Y-71022640D01*
X47189576Y-71028000D01*
X47189569Y-71028000D01*
X47046158Y-71042125D01*
X47026793Y-71044032D01*
X46817935Y-71107389D01*
X46625450Y-71210274D01*
X46456735Y-71348735D01*
X46422037Y-71391015D01*
X44467018Y-73346035D01*
X44424736Y-73380735D01*
X44390038Y-73423015D01*
X44286275Y-73549450D01*
X44183389Y-73741936D01*
X44120032Y-73950794D01*
X44098640Y-74168000D01*
X44104001Y-74222433D01*
X44104000Y-79701576D01*
X44098640Y-79756000D01*
X44104000Y-79810423D01*
X44104000Y-79810430D01*
X44120032Y-79973205D01*
X44183389Y-80182064D01*
X44286274Y-80374550D01*
X44424735Y-80543265D01*
X44467022Y-80577969D01*
X48962040Y-85072988D01*
X48996735Y-85115265D01*
X49165450Y-85253726D01*
X49357935Y-85356611D01*
X49566794Y-85419968D01*
X49729569Y-85436000D01*
X49729578Y-85436000D01*
X49783999Y-85441360D01*
X49838420Y-85436000D01*
X55317577Y-85436000D01*
X55372000Y-85441360D01*
X55426423Y-85436000D01*
X55426431Y-85436000D01*
X55589206Y-85419968D01*
X55798065Y-85356611D01*
X55990550Y-85253726D01*
X56159265Y-85115265D01*
X56193969Y-85072978D01*
X57597860Y-83669087D01*
X65429969Y-83669087D01*
X65496126Y-83907197D01*
X65626144Y-84172900D01*
X65805500Y-84408133D01*
X66027301Y-84603855D01*
X66283024Y-84752545D01*
X66562841Y-84848489D01*
X66856000Y-84888000D01*
X67256000Y-84888000D01*
X67256000Y-83434000D01*
X65580096Y-83434000D01*
X65429969Y-83669087D01*
X57597860Y-83669087D01*
X60644354Y-80622594D01*
X60772078Y-80648000D01*
X61147922Y-80648000D01*
X61516543Y-80574677D01*
X61863777Y-80430848D01*
X62176279Y-80222040D01*
X62442040Y-79956279D01*
X62650848Y-79643777D01*
X62748510Y-79408000D01*
X65883029Y-79408000D01*
X66068147Y-79559923D01*
X66087000Y-79570000D01*
X66068147Y-79580077D01*
X65838524Y-79768524D01*
X65650077Y-79998147D01*
X65510049Y-80260121D01*
X65423820Y-80544380D01*
X65394704Y-80840000D01*
X65423820Y-81135620D01*
X65510049Y-81419879D01*
X65650077Y-81681853D01*
X65838524Y-81911476D01*
X66068147Y-82099923D01*
X66097245Y-82115476D01*
X66027301Y-82156145D01*
X65805500Y-82351867D01*
X65626144Y-82587100D01*
X65496126Y-82852803D01*
X65429969Y-83090913D01*
X65580096Y-83326000D01*
X67256000Y-83326000D01*
X67256000Y-83306000D01*
X67364000Y-83306000D01*
X67364000Y-83326000D01*
X67384000Y-83326000D01*
X67384000Y-83434000D01*
X67364000Y-83434000D01*
X67364000Y-84888000D01*
X67764000Y-84888000D01*
X68057159Y-84848489D01*
X68336976Y-84752545D01*
X68592699Y-84603855D01*
X68742001Y-84472108D01*
X68742000Y-88267946D01*
X68653472Y-88102321D01*
X68452529Y-87857471D01*
X68207678Y-87656528D01*
X67928331Y-87507214D01*
X67625222Y-87415267D01*
X67310000Y-87384220D01*
X66994777Y-87415267D01*
X66691668Y-87507214D01*
X66412321Y-87656528D01*
X66167471Y-87857471D01*
X65966528Y-88102322D01*
X65918594Y-88192000D01*
X48610949Y-88192000D01*
X43493969Y-83075022D01*
X43459265Y-83032735D01*
X43290550Y-82894274D01*
X43098065Y-82791389D01*
X42889206Y-82728032D01*
X42726431Y-82712000D01*
X42726423Y-82712000D01*
X42672000Y-82706640D01*
X42617577Y-82712000D01*
X37475198Y-82712000D01*
X37275066Y-82412482D01*
X36967518Y-82104934D01*
X36605880Y-81863295D01*
X36204050Y-81696852D01*
X35777469Y-81612000D01*
X35342531Y-81612000D01*
X34915950Y-81696852D01*
X34514120Y-81863295D01*
X34152482Y-82104934D01*
X34128000Y-82129416D01*
X34128000Y-80248370D01*
X34155001Y-80221369D01*
X34299963Y-80566162D01*
X34680441Y-80776893D01*
X35094719Y-80909348D01*
X35526878Y-80958437D01*
X35960310Y-80922272D01*
X36378359Y-80802243D01*
X36764958Y-80602963D01*
X36820037Y-80566162D01*
X36965000Y-80221367D01*
X35560000Y-78816368D01*
X35545858Y-78830510D01*
X35469490Y-78754142D01*
X35483632Y-78740000D01*
X35636368Y-78740000D01*
X37041367Y-80145000D01*
X37386162Y-80000037D01*
X37596893Y-79619559D01*
X37729348Y-79205281D01*
X37778437Y-78773122D01*
X37742272Y-78339690D01*
X37622243Y-77921641D01*
X37422963Y-77535042D01*
X37386162Y-77479963D01*
X37041367Y-77335000D01*
X35636368Y-78740000D01*
X35483632Y-78740000D01*
X35469490Y-78725858D01*
X35545858Y-78649490D01*
X35560000Y-78663632D01*
X36965000Y-77258633D01*
X36820037Y-76913838D01*
X36439559Y-76703107D01*
X36025281Y-76570652D01*
X35593122Y-76521563D01*
X35159690Y-76557728D01*
X34741641Y-76677757D01*
X34355042Y-76877037D01*
X34299963Y-76913838D01*
X34155001Y-77258631D01*
X34128000Y-77231630D01*
X34128000Y-74626947D01*
X35256949Y-73498000D01*
X36775577Y-73498000D01*
X36830000Y-73503360D01*
X36884423Y-73498000D01*
X36884431Y-73498000D01*
X37047206Y-73481968D01*
X37256065Y-73418611D01*
X37448550Y-73315726D01*
X37617265Y-73177265D01*
X37651969Y-73134978D01*
X42654983Y-68131965D01*
X42697265Y-68097265D01*
X42835726Y-67928550D01*
X42938611Y-67736065D01*
X42942191Y-67724262D01*
X43001968Y-67527207D01*
X43009397Y-67451777D01*
X43018000Y-67364431D01*
X43018000Y-67364424D01*
X43023360Y-67310000D01*
X43018000Y-67255577D01*
X43018000Y-57608947D01*
X58243948Y-42383000D01*
X62410577Y-42383000D01*
X62465000Y-42388360D01*
X62519423Y-42383000D01*
X62519431Y-42383000D01*
X62682206Y-42366968D01*
X62891065Y-42303611D01*
X63083550Y-42200726D01*
X63252265Y-42062265D01*
X63286969Y-42019978D01*
X66992812Y-38314137D01*
X66994778Y-38314733D01*
X67310000Y-38345780D01*
X67625223Y-38314733D01*
X67928332Y-38222786D01*
X68207679Y-38073472D01*
X68452529Y-37872529D01*
X68653472Y-37627679D01*
X68802786Y-37348332D01*
X68894733Y-37045222D01*
X68918000Y-36808990D01*
X68918000Y-36051009D01*
X68894733Y-35814777D01*
X68802786Y-35511668D01*
X68653472Y-35232321D01*
X68452529Y-34987471D01*
X68207678Y-34786528D01*
X67928331Y-34637214D01*
X67625222Y-34545267D01*
X67310000Y-34514220D01*
X66994777Y-34545267D01*
X66691668Y-34637214D01*
X66412321Y-34786528D01*
X66167471Y-34987471D01*
X65966528Y-35232322D01*
X65817214Y-35511669D01*
X65725267Y-35814778D01*
X65702000Y-36051010D01*
X65702000Y-36471051D01*
X62006053Y-40167000D01*
X57839420Y-40167000D01*
X57784999Y-40161640D01*
X57730578Y-40167000D01*
X57730569Y-40167000D01*
X57567794Y-40183032D01*
X57358935Y-40246389D01*
X57166450Y-40349274D01*
X56997735Y-40487735D01*
X56963037Y-40530015D01*
X41165022Y-56328031D01*
X41122735Y-56362735D01*
X40984274Y-56531450D01*
X40916599Y-56658063D01*
X40881389Y-56723936D01*
X40873483Y-56750000D01*
X40818032Y-56932795D01*
X40802000Y-57095570D01*
X40802000Y-57095577D01*
X40796640Y-57150000D01*
X40802000Y-57204423D01*
X40802001Y-66851051D01*
X36371053Y-71282000D01*
X34852431Y-71282000D01*
X34798000Y-71276639D01*
X34580793Y-71298032D01*
X34371935Y-71361389D01*
X34179450Y-71464274D01*
X34053014Y-71568037D01*
X34053011Y-71568040D01*
X34010735Y-71602735D01*
X33976039Y-71645012D01*
X32275022Y-73346031D01*
X32232735Y-73380735D01*
X32094274Y-73549450D01*
X31991389Y-73741936D01*
X31928032Y-73950795D01*
X31912000Y-74113570D01*
X31912000Y-74113577D01*
X31906640Y-74168000D01*
X31680000Y-74168000D01*
X31680000Y-68791367D01*
X34155000Y-68791367D01*
X34299963Y-69136162D01*
X34680441Y-69346893D01*
X35094719Y-69479348D01*
X35526878Y-69528437D01*
X35960310Y-69492272D01*
X36378359Y-69372243D01*
X36764958Y-69172963D01*
X36820037Y-69136162D01*
X36965000Y-68791367D01*
X35560000Y-67386368D01*
X34155000Y-68791367D01*
X31680000Y-68791367D01*
X31680000Y-67276878D01*
X33341563Y-67276878D01*
X33377728Y-67710310D01*
X33497757Y-68128359D01*
X33697037Y-68514958D01*
X33733838Y-68570037D01*
X34078633Y-68715000D01*
X35483632Y-67310000D01*
X35636368Y-67310000D01*
X37041367Y-68715000D01*
X37386162Y-68570037D01*
X37596893Y-68189559D01*
X37729348Y-67775281D01*
X37778437Y-67343122D01*
X37742272Y-66909690D01*
X37622243Y-66491641D01*
X37422963Y-66105042D01*
X37386162Y-66049963D01*
X37041367Y-65905000D01*
X35636368Y-67310000D01*
X35483632Y-67310000D01*
X34078633Y-65905000D01*
X33733838Y-66049963D01*
X33523107Y-66430441D01*
X33390652Y-66844719D01*
X33341563Y-67276878D01*
X31680000Y-67276878D01*
X31680000Y-66747476D01*
X32598843Y-65828633D01*
X34155000Y-65828633D01*
X35560000Y-67233632D01*
X36965000Y-65828633D01*
X36820037Y-65483838D01*
X36439559Y-65273107D01*
X36025281Y-65140652D01*
X35593122Y-65091563D01*
X35159690Y-65127728D01*
X34741641Y-65247757D01*
X34355042Y-65447037D01*
X34299963Y-65483838D01*
X34155000Y-65828633D01*
X32598843Y-65828633D01*
X33992682Y-64434795D01*
X34060000Y-64441425D01*
X37060000Y-64441425D01*
X37198792Y-64427755D01*
X37332251Y-64387271D01*
X37455247Y-64321528D01*
X37563053Y-64233053D01*
X37651528Y-64125247D01*
X37717271Y-64002251D01*
X37757755Y-63868792D01*
X37771425Y-63730000D01*
X37771425Y-60730000D01*
X37757755Y-60591208D01*
X37717271Y-60457749D01*
X37651528Y-60334753D01*
X37563053Y-60226947D01*
X37455247Y-60138472D01*
X37332251Y-60072729D01*
X37268000Y-60053239D01*
X37268000Y-55317476D01*
X53937952Y-38647525D01*
X54202368Y-38538000D01*
X60097632Y-38538000D01*
X60403457Y-38664677D01*
X60772078Y-38738000D01*
X61147922Y-38738000D01*
X61516543Y-38664677D01*
X61863777Y-38520848D01*
X62176279Y-38312040D01*
X62442040Y-38046279D01*
X62650848Y-37733777D01*
X62794677Y-37386543D01*
X62868000Y-37017922D01*
X62868000Y-36642078D01*
X62794677Y-36273457D01*
X62668000Y-35967632D01*
X62668000Y-34997476D01*
X64207477Y-33458000D01*
X77524524Y-33458000D01*
X79572001Y-35505478D01*
X79572000Y-41196095D01*
X79563736Y-41280000D01*
X79572000Y-41363903D01*
X79596714Y-41614825D01*
X79694379Y-41936785D01*
X79852979Y-42233504D01*
X80066418Y-42493582D01*
X80131596Y-42547072D01*
X84918575Y-47334052D01*
X84918575Y-49630000D01*
X84932245Y-49768792D01*
X84972729Y-49902251D01*
X85038472Y-50025247D01*
X85126947Y-50133053D01*
X85234753Y-50221528D01*
X85357749Y-50287271D01*
X85491208Y-50327755D01*
X85630000Y-50341425D01*
X89630000Y-50341425D01*
X89768792Y-50327755D01*
X89902251Y-50287271D01*
X90025247Y-50221528D01*
X90133053Y-50133053D01*
X90221528Y-50025247D01*
X90287271Y-49902251D01*
X90327755Y-49768792D01*
X90341425Y-49630000D01*
X90341425Y-49466731D01*
X95869636Y-49466731D01*
X96074578Y-49862726D01*
X96540048Y-50123272D01*
X97047404Y-50288004D01*
X97577149Y-50350590D01*
X98108925Y-50308625D01*
X98622296Y-50163723D01*
X99097534Y-49921451D01*
X99185422Y-49862726D01*
X99390364Y-49466731D01*
X97630000Y-47706368D01*
X95869636Y-49466731D01*
X90341425Y-49466731D01*
X90341425Y-49338000D01*
X91478096Y-49338000D01*
X91562000Y-49346264D01*
X91645904Y-49338000D01*
X91896826Y-49313286D01*
X92218786Y-49215621D01*
X92515505Y-49057021D01*
X92775582Y-48843582D01*
X92829072Y-48778404D01*
X94030327Y-47577149D01*
X94909410Y-47577149D01*
X94951375Y-48108925D01*
X95096277Y-48622296D01*
X95338549Y-49097534D01*
X95397274Y-49185422D01*
X95793269Y-49390364D01*
X97553632Y-47630000D01*
X97706368Y-47630000D01*
X99466731Y-49390364D01*
X99862726Y-49185422D01*
X100123272Y-48719952D01*
X100288004Y-48212596D01*
X100350590Y-47682851D01*
X100308625Y-47151075D01*
X100163723Y-46637704D01*
X99921451Y-46162466D01*
X99862726Y-46074578D01*
X99466731Y-45869636D01*
X97706368Y-47630000D01*
X97553632Y-47630000D01*
X95793269Y-45869636D01*
X95397274Y-46074578D01*
X95136728Y-46540048D01*
X94971996Y-47047404D01*
X94909410Y-47577149D01*
X94030327Y-47577149D01*
X94112409Y-47495068D01*
X94177582Y-47441582D01*
X94391021Y-47181505D01*
X94549621Y-46884786D01*
X94647286Y-46562826D01*
X94672000Y-46311904D01*
X94672000Y-46311895D01*
X94680263Y-46228001D01*
X94672000Y-46144106D01*
X94672000Y-45793269D01*
X95869636Y-45793269D01*
X97630000Y-47553632D01*
X99390364Y-45793269D01*
X99185422Y-45397274D01*
X98719952Y-45136728D01*
X98212596Y-44971996D01*
X97682851Y-44909410D01*
X97151075Y-44951375D01*
X96637704Y-45096277D01*
X96162466Y-45338549D01*
X96074578Y-45397274D01*
X95869636Y-45793269D01*
X94672000Y-45793269D01*
X94672000Y-33727476D01*
X101799477Y-26600000D01*
X106988524Y-26600000D01*
X107417098Y-27028575D01*
X105727500Y-27028575D01*
X105588708Y-27042245D01*
X105455249Y-27082729D01*
X105332253Y-27148472D01*
X105224447Y-27236947D01*
X105135972Y-27344753D01*
X105070229Y-27467749D01*
X105029745Y-27601208D01*
X105016075Y-27740000D01*
X105016075Y-29036977D01*
X102379022Y-31674031D01*
X102336735Y-31708735D01*
X102198274Y-31877450D01*
X102095389Y-32069936D01*
X102032032Y-32278795D01*
X102016000Y-32441570D01*
X102016000Y-32441577D01*
X102010640Y-32496000D01*
X102016000Y-32550423D01*
X102016001Y-49325050D01*
X96217054Y-55123999D01*
X90322430Y-55123999D01*
X90267999Y-55118638D01*
X90050793Y-55140031D01*
X89841934Y-55203388D01*
X89649449Y-55306273D01*
X89523013Y-55410036D01*
X89523010Y-55410039D01*
X89480734Y-55444734D01*
X89446039Y-55487010D01*
X79366051Y-65567000D01*
X54433948Y-65567000D01*
X50638000Y-61771053D01*
X50638000Y-56962078D01*
X51432000Y-56962078D01*
X51432000Y-57337922D01*
X51505323Y-57706543D01*
X51649152Y-58053777D01*
X51857960Y-58366279D01*
X52123721Y-58632040D01*
X52232001Y-58704390D01*
X52232001Y-59635567D01*
X52226640Y-59690000D01*
X52248032Y-59907206D01*
X52311389Y-60116064D01*
X52370657Y-60226947D01*
X52414275Y-60308550D01*
X52552736Y-60477265D01*
X52595018Y-60511965D01*
X56328039Y-64244988D01*
X56362735Y-64287265D01*
X56405011Y-64321960D01*
X56405014Y-64321963D01*
X56531450Y-64425726D01*
X56723935Y-64528611D01*
X56932793Y-64591968D01*
X57150000Y-64613361D01*
X57204431Y-64608000D01*
X70430577Y-64608000D01*
X70485000Y-64613360D01*
X70539423Y-64608000D01*
X70539431Y-64608000D01*
X70702206Y-64591968D01*
X70911065Y-64528611D01*
X71103550Y-64425726D01*
X71272265Y-64287265D01*
X71306969Y-64244978D01*
X72848948Y-62703000D01*
X77432524Y-62703000D01*
X77651214Y-62921690D01*
X77930959Y-63108610D01*
X78241795Y-63237362D01*
X78571777Y-63303000D01*
X78908223Y-63303000D01*
X79238205Y-63237362D01*
X79549041Y-63108610D01*
X79828786Y-62921690D01*
X80066690Y-62683786D01*
X80253610Y-62404041D01*
X80382362Y-62093205D01*
X80448000Y-61763223D01*
X80448000Y-61426777D01*
X80382362Y-61096795D01*
X80253610Y-60785959D01*
X80066690Y-60506214D01*
X79828786Y-60268310D01*
X79549041Y-60081390D01*
X79238205Y-59952638D01*
X78908223Y-59887000D01*
X78571777Y-59887000D01*
X78241795Y-59952638D01*
X77930959Y-60081390D01*
X77651214Y-60268310D01*
X77432524Y-60487000D01*
X73498000Y-60487000D01*
X73498000Y-57879087D01*
X74319969Y-57879087D01*
X74386126Y-58117197D01*
X74516144Y-58382900D01*
X74695500Y-58618133D01*
X74917301Y-58813855D01*
X75173024Y-58962545D01*
X75452841Y-59058489D01*
X75746000Y-59098000D01*
X76146000Y-59098000D01*
X76146000Y-57644000D01*
X76254000Y-57644000D01*
X76254000Y-59098000D01*
X76654000Y-59098000D01*
X76947159Y-59058489D01*
X77226976Y-58962545D01*
X77482699Y-58813855D01*
X77704500Y-58618133D01*
X77883856Y-58382900D01*
X78013874Y-58117197D01*
X78080031Y-57879087D01*
X77929904Y-57644000D01*
X76254000Y-57644000D01*
X76146000Y-57644000D01*
X74470096Y-57644000D01*
X74319969Y-57879087D01*
X73498000Y-57879087D01*
X73498000Y-55068947D01*
X74869652Y-53697297D01*
X74958147Y-53769923D01*
X74977000Y-53780000D01*
X74958147Y-53790077D01*
X74728524Y-53978524D01*
X74540077Y-54208147D01*
X74400049Y-54470121D01*
X74313820Y-54754380D01*
X74284704Y-55050000D01*
X74313820Y-55345620D01*
X74400049Y-55629879D01*
X74540077Y-55891853D01*
X74728524Y-56121476D01*
X74958147Y-56309923D01*
X74987245Y-56325476D01*
X74917301Y-56366145D01*
X74695500Y-56561867D01*
X74516144Y-56797100D01*
X74386126Y-57062803D01*
X74319969Y-57300913D01*
X74470096Y-57536000D01*
X76146000Y-57536000D01*
X76146000Y-57516000D01*
X76254000Y-57516000D01*
X76254000Y-57536000D01*
X77929904Y-57536000D01*
X78080031Y-57300913D01*
X78013874Y-57062803D01*
X77883856Y-56797100D01*
X77704500Y-56561867D01*
X77482699Y-56366145D01*
X77412755Y-56325476D01*
X77441853Y-56309923D01*
X77671476Y-56121476D01*
X77859923Y-55891853D01*
X77980296Y-55666651D01*
X79484983Y-54161965D01*
X79527265Y-54127265D01*
X79665726Y-53958550D01*
X79768611Y-53766065D01*
X79831968Y-53557206D01*
X79848000Y-53394431D01*
X79848000Y-53394422D01*
X79853360Y-53340001D01*
X79848000Y-53285580D01*
X79848000Y-47044431D01*
X79853361Y-46990000D01*
X79831968Y-46772793D01*
X79768611Y-46563935D01*
X79665726Y-46371450D01*
X79561963Y-46245014D01*
X79561960Y-46245011D01*
X79527265Y-46202735D01*
X79484989Y-46168040D01*
X72863000Y-39546053D01*
X72863000Y-37454634D01*
X72926340Y-37391294D01*
X73091373Y-37144306D01*
X73205049Y-36869868D01*
X73263000Y-36578525D01*
X73263000Y-36281475D01*
X73205049Y-35990132D01*
X73091373Y-35715694D01*
X72926340Y-35468706D01*
X72716294Y-35258660D01*
X72469306Y-35093627D01*
X72194868Y-34979951D01*
X71903525Y-34922000D01*
X71606475Y-34922000D01*
X71315132Y-34979951D01*
X71040694Y-35093627D01*
X70793706Y-35258660D01*
X70583660Y-35468706D01*
X70418627Y-35715694D01*
X70304951Y-35990132D01*
X70247000Y-36281475D01*
X70247000Y-36578525D01*
X70304951Y-36869868D01*
X70418627Y-37144306D01*
X70583660Y-37391294D01*
X70647000Y-37454634D01*
X70647001Y-39950567D01*
X70641640Y-40005000D01*
X70663032Y-40222206D01*
X70726389Y-40431064D01*
X70829096Y-40623215D01*
X70829275Y-40623550D01*
X70967736Y-40792265D01*
X71010018Y-40826965D01*
X77632000Y-47448949D01*
X77632001Y-51406127D01*
X77441853Y-51250077D01*
X77179879Y-51110049D01*
X76895620Y-51023820D01*
X76674078Y-51002000D01*
X75725922Y-51002000D01*
X75504380Y-51023820D01*
X75220121Y-51110049D01*
X74958147Y-51250077D01*
X74773029Y-51402000D01*
X74544420Y-51402000D01*
X74489999Y-51396640D01*
X74435578Y-51402000D01*
X74435569Y-51402000D01*
X74272794Y-51418032D01*
X74063935Y-51481389D01*
X73871450Y-51584274D01*
X73871448Y-51584275D01*
X73871449Y-51584275D01*
X73769251Y-51668147D01*
X73702735Y-51722735D01*
X73668039Y-51765012D01*
X71645018Y-53788035D01*
X71602736Y-53822735D01*
X71491700Y-53958033D01*
X71464275Y-53991450D01*
X71361389Y-54183936D01*
X71298032Y-54392794D01*
X71276640Y-54610000D01*
X71282001Y-54664433D01*
X71282000Y-61136052D01*
X70026053Y-62392000D01*
X57608949Y-62392000D01*
X54448000Y-59231053D01*
X54448000Y-58704390D01*
X54556279Y-58632040D01*
X54822040Y-58366279D01*
X55030848Y-58053777D01*
X55174677Y-57706543D01*
X55248000Y-57337922D01*
X55248000Y-56962078D01*
X55174677Y-56593457D01*
X55030848Y-56246223D01*
X54822040Y-55933721D01*
X54556279Y-55667960D01*
X54243777Y-55459152D01*
X53896543Y-55315323D01*
X53527922Y-55242000D01*
X53152078Y-55242000D01*
X52783457Y-55315323D01*
X52436223Y-55459152D01*
X52123721Y-55667960D01*
X51857960Y-55933721D01*
X51649152Y-56246223D01*
X51505323Y-56593457D01*
X51432000Y-56962078D01*
X50638000Y-56962078D01*
X50638000Y-54433947D01*
X59513948Y-45558000D01*
X65877971Y-45558000D01*
X65817214Y-45671669D01*
X65725267Y-45974778D01*
X65702000Y-46211010D01*
X65702000Y-46631052D01*
X56405018Y-55928035D01*
X56362736Y-55962735D01*
X56301772Y-56037020D01*
X56224275Y-56131450D01*
X56121389Y-56323936D01*
X56076503Y-56471903D01*
X56058032Y-56532794D01*
X56042000Y-56695569D01*
X56042000Y-56695577D01*
X56036640Y-56750000D01*
X56042000Y-56804423D01*
X56042000Y-58365577D01*
X56036640Y-58420000D01*
X56042000Y-58474423D01*
X56042000Y-58474430D01*
X56058032Y-58637205D01*
X56121389Y-58846064D01*
X56224274Y-59038550D01*
X56362735Y-59207265D01*
X56405022Y-59241969D01*
X58868039Y-61704988D01*
X58902735Y-61747265D01*
X58945011Y-61781960D01*
X58945013Y-61781962D01*
X58981866Y-61812206D01*
X59071450Y-61885726D01*
X59263935Y-61988611D01*
X59472794Y-62051968D01*
X59635569Y-62068000D01*
X59635578Y-62068000D01*
X59689999Y-62073360D01*
X59744420Y-62068000D01*
X61345577Y-62068000D01*
X61400000Y-62073360D01*
X61454423Y-62068000D01*
X61454431Y-62068000D01*
X61617206Y-62051968D01*
X61826065Y-61988611D01*
X62018550Y-61885726D01*
X62187265Y-61747265D01*
X62221969Y-61704978D01*
X65599170Y-58327777D01*
X65626144Y-58382900D01*
X65805500Y-58618133D01*
X66027301Y-58813855D01*
X66283024Y-58962545D01*
X66562841Y-59058489D01*
X66856000Y-59098000D01*
X67256000Y-59098000D01*
X67256000Y-57644000D01*
X67364000Y-57644000D01*
X67364000Y-59098000D01*
X67764000Y-59098000D01*
X68057159Y-59058489D01*
X68336976Y-58962545D01*
X68592699Y-58813855D01*
X68814500Y-58618133D01*
X68993856Y-58382900D01*
X69123874Y-58117197D01*
X69190031Y-57879087D01*
X69039904Y-57644000D01*
X67364000Y-57644000D01*
X67256000Y-57644000D01*
X67236000Y-57644000D01*
X67236000Y-57536000D01*
X67256000Y-57536000D01*
X67256000Y-57516000D01*
X67364000Y-57516000D01*
X67364000Y-57536000D01*
X69039904Y-57536000D01*
X69190031Y-57300913D01*
X69123874Y-57062803D01*
X68993856Y-56797100D01*
X68814500Y-56561867D01*
X68592699Y-56366145D01*
X68522755Y-56325476D01*
X68551853Y-56309923D01*
X68781476Y-56121476D01*
X68969923Y-55891853D01*
X69109951Y-55629879D01*
X69196180Y-55345620D01*
X69225296Y-55050000D01*
X69196180Y-54754380D01*
X69109951Y-54470121D01*
X68969923Y-54208147D01*
X68781476Y-53978524D01*
X68551853Y-53790077D01*
X68533000Y-53780000D01*
X68551853Y-53769923D01*
X68736971Y-53618000D01*
X69355577Y-53618000D01*
X69410000Y-53623360D01*
X69464423Y-53618000D01*
X69464431Y-53618000D01*
X69627206Y-53601968D01*
X69836065Y-53538611D01*
X70028550Y-53435726D01*
X70197265Y-53297265D01*
X70231969Y-53254978D01*
X72499983Y-50986965D01*
X72542265Y-50952265D01*
X72680726Y-50783550D01*
X72783611Y-50591065D01*
X72846968Y-50382206D01*
X72863000Y-50219431D01*
X72863000Y-50219424D01*
X72868360Y-50165000D01*
X72863000Y-50110577D01*
X72863000Y-48060866D01*
X72897529Y-48032529D01*
X73098472Y-47787679D01*
X73247786Y-47508332D01*
X73339733Y-47205223D01*
X73363000Y-46968991D01*
X73363000Y-46211010D01*
X73339733Y-45974778D01*
X73247786Y-45671668D01*
X73098472Y-45392321D01*
X72897529Y-45147471D01*
X72652679Y-44946528D01*
X72373332Y-44797214D01*
X72070223Y-44705267D01*
X71755000Y-44674220D01*
X71439778Y-44705267D01*
X71437811Y-44705864D01*
X70436969Y-43705022D01*
X70402265Y-43662735D01*
X70233550Y-43524274D01*
X70041065Y-43421389D01*
X69832206Y-43358032D01*
X69669431Y-43342000D01*
X69669423Y-43342000D01*
X69615000Y-43336640D01*
X69560577Y-43342000D01*
X59109420Y-43342000D01*
X59054999Y-43336640D01*
X59000578Y-43342000D01*
X59000569Y-43342000D01*
X58837794Y-43358032D01*
X58628935Y-43421389D01*
X58436450Y-43524274D01*
X58267735Y-43662735D01*
X58233035Y-43705017D01*
X48785018Y-53153035D01*
X48742736Y-53187735D01*
X48687544Y-53254987D01*
X48604275Y-53356450D01*
X48501389Y-53548936D01*
X48438032Y-53757794D01*
X48416640Y-53975000D01*
X48422001Y-54029433D01*
X48422000Y-62175577D01*
X48416640Y-62230000D01*
X48422000Y-62284423D01*
X48422000Y-62284430D01*
X48422196Y-62286418D01*
X48438032Y-62447206D01*
X48491544Y-62623611D01*
X48501389Y-62656064D01*
X48604274Y-62848550D01*
X48742735Y-63017265D01*
X48785022Y-63051969D01*
X53153035Y-67419983D01*
X53187735Y-67462265D01*
X53356450Y-67600726D01*
X53548935Y-67703611D01*
X53757794Y-67766968D01*
X53920569Y-67783000D01*
X53920578Y-67783000D01*
X53974999Y-67788360D01*
X54029420Y-67783000D01*
X79770575Y-67783000D01*
X79824998Y-67788360D01*
X79879421Y-67783000D01*
X79879429Y-67783000D01*
X80042204Y-67766968D01*
X80251063Y-67703611D01*
X80443548Y-67600726D01*
X80612263Y-67462265D01*
X80646967Y-67419978D01*
X90726948Y-57339999D01*
X96621578Y-57339999D01*
X96676001Y-57345359D01*
X96730424Y-57339999D01*
X96730432Y-57339999D01*
X96893207Y-57323967D01*
X97102066Y-57260610D01*
X97294551Y-57157725D01*
X97463266Y-57019264D01*
X97497970Y-56976977D01*
X103868989Y-50605960D01*
X103911265Y-50571265D01*
X104009730Y-50451286D01*
X104049726Y-50402550D01*
X104152611Y-50210065D01*
X104215968Y-50001206D01*
X104237361Y-49784000D01*
X104232000Y-49729569D01*
X104232000Y-32954947D01*
X106335523Y-30851425D01*
X107632500Y-30851425D01*
X107771292Y-30837755D01*
X107904751Y-30797271D01*
X108027747Y-30731528D01*
X108135553Y-30643053D01*
X108224028Y-30535247D01*
X108230354Y-30523412D01*
X108293013Y-30574835D01*
X108581481Y-30729024D01*
X108894486Y-30823974D01*
X109220000Y-30856034D01*
X109545515Y-30823974D01*
X109858520Y-30729024D01*
X110052001Y-30625607D01*
X110052000Y-36376523D01*
X108071596Y-38356928D01*
X108006418Y-38410418D01*
X107792979Y-38670496D01*
X107647415Y-38942826D01*
X107634379Y-38967215D01*
X107536714Y-39289174D01*
X107503736Y-39624000D01*
X107512000Y-39707905D01*
X107512001Y-51616522D01*
X101975596Y-57152928D01*
X101910418Y-57206418D01*
X101696979Y-57466496D01*
X101568671Y-57706543D01*
X101538379Y-57763215D01*
X101440714Y-58085174D01*
X101407736Y-58420000D01*
X101416000Y-58503905D01*
X101416001Y-65685629D01*
X101289323Y-65991457D01*
X101216000Y-66360078D01*
X101216000Y-66735922D01*
X101289323Y-67104543D01*
X101416001Y-67410371D01*
X101416000Y-95928095D01*
X101407736Y-96012000D01*
X101440714Y-96346826D01*
X101464515Y-96425286D01*
X101538379Y-96668785D01*
X101696979Y-96965504D01*
X101910418Y-97225582D01*
X101975596Y-97279072D01*
X107512001Y-102815478D01*
X107512000Y-105507332D01*
X107265557Y-105385733D01*
X106992957Y-105309758D01*
X106734000Y-105457983D01*
X106734000Y-107134000D01*
X106754000Y-107134000D01*
X106754000Y-107242000D01*
X106734000Y-107242000D01*
X106734000Y-108918017D01*
X106992957Y-109066242D01*
X107265557Y-108990267D01*
X107557626Y-108846156D01*
X107815968Y-108647834D01*
X107945537Y-108500024D01*
X108040168Y-108615332D01*
X108293012Y-108822835D01*
X108581480Y-108977024D01*
X108894485Y-109071974D01*
X109220000Y-109104034D01*
X109545514Y-109071974D01*
X109858519Y-108977024D01*
X110146987Y-108822835D01*
X110209646Y-108771412D01*
X110215972Y-108783247D01*
X110304447Y-108891053D01*
X110412253Y-108979528D01*
X110426115Y-108986937D01*
X110285053Y-109128000D01*
X105106948Y-109128000D01*
X104740000Y-108761053D01*
X104740000Y-107242000D01*
X105019500Y-107242000D01*
X105019500Y-107489500D01*
X105061941Y-107812410D01*
X105166563Y-108120835D01*
X105329345Y-108402923D01*
X105544032Y-108647834D01*
X105802374Y-108846156D01*
X106094443Y-108990267D01*
X106367043Y-109066242D01*
X106626000Y-108918017D01*
X106626000Y-107242000D01*
X105019500Y-107242000D01*
X104740000Y-107242000D01*
X104740000Y-106886500D01*
X105019500Y-106886500D01*
X105019500Y-107134000D01*
X106626000Y-107134000D01*
X106626000Y-105457983D01*
X106367043Y-105309758D01*
X106094443Y-105385733D01*
X105802374Y-105529844D01*
X105544032Y-105728166D01*
X105329345Y-105973077D01*
X105166563Y-106255165D01*
X105061941Y-106563590D01*
X105019500Y-106886500D01*
X104740000Y-106886500D01*
X104740000Y-106578933D01*
X104745361Y-106524502D01*
X104723968Y-106307295D01*
X104660611Y-106098437D01*
X104557726Y-105905952D01*
X104419265Y-105737237D01*
X104376989Y-105702542D01*
X93564000Y-94889555D01*
X93564000Y-90331732D01*
X95869636Y-90331732D01*
X96074578Y-90727727D01*
X96540048Y-90988273D01*
X97047404Y-91153005D01*
X97577149Y-91215591D01*
X98108925Y-91173626D01*
X98622296Y-91028724D01*
X99097534Y-90786452D01*
X99185422Y-90727727D01*
X99390364Y-90331732D01*
X97630000Y-88571369D01*
X95869636Y-90331732D01*
X93564000Y-90331732D01*
X93564000Y-88442150D01*
X94909410Y-88442150D01*
X94951375Y-88973926D01*
X95096277Y-89487297D01*
X95338549Y-89962535D01*
X95397274Y-90050423D01*
X95793269Y-90255365D01*
X97553632Y-88495001D01*
X97706368Y-88495001D01*
X99466731Y-90255365D01*
X99862726Y-90050423D01*
X100123272Y-89584953D01*
X100288004Y-89077597D01*
X100350590Y-88547852D01*
X100308625Y-88016076D01*
X100163723Y-87502705D01*
X99921451Y-87027467D01*
X99862726Y-86939579D01*
X99466731Y-86734637D01*
X97706368Y-88495001D01*
X97553632Y-88495001D01*
X95793269Y-86734637D01*
X95397274Y-86939579D01*
X95136728Y-87405049D01*
X94971996Y-87912405D01*
X94909410Y-88442150D01*
X93564000Y-88442150D01*
X93564000Y-86658270D01*
X95869636Y-86658270D01*
X97630000Y-88418633D01*
X99390364Y-86658270D01*
X99185422Y-86262275D01*
X98719952Y-86001729D01*
X98212596Y-85836997D01*
X97682851Y-85774411D01*
X97151075Y-85816376D01*
X96637704Y-85961278D01*
X96162466Y-86203550D01*
X96074578Y-86262275D01*
X95869636Y-86658270D01*
X93564000Y-86658270D01*
X93564000Y-83366420D01*
X93569360Y-83311999D01*
X93564000Y-83257578D01*
X93564000Y-83257569D01*
X93547968Y-83094794D01*
X93484611Y-82885935D01*
X93381726Y-82693450D01*
X93243265Y-82524735D01*
X93200988Y-82490040D01*
X88265969Y-77555022D01*
X88231265Y-77512735D01*
X88062550Y-77374274D01*
X87870065Y-77271389D01*
X87661206Y-77208032D01*
X87498431Y-77192000D01*
X87498423Y-77192000D01*
X87444000Y-77186640D01*
X87389577Y-77192000D01*
X77626971Y-77192000D01*
X77441853Y-77040077D01*
X77179879Y-76900049D01*
X76895620Y-76813820D01*
X76674078Y-76792000D01*
X76258949Y-76792000D01*
X73651969Y-74185022D01*
X73617265Y-74142735D01*
X73448550Y-74004274D01*
X73256065Y-73901389D01*
X73047206Y-73838032D01*
X72884431Y-73822000D01*
X72884423Y-73822000D01*
X72830000Y-73816640D01*
X72775577Y-73822000D01*
X57204431Y-73822000D01*
X57150000Y-73816639D01*
X56932793Y-73838032D01*
X56723935Y-73901389D01*
X56531450Y-74004274D01*
X56405014Y-74108037D01*
X56405013Y-74108038D01*
X56362735Y-74142735D01*
X56328039Y-74185012D01*
X53655647Y-76857406D01*
X53527922Y-76832000D01*
X53152078Y-76832000D01*
X52783457Y-76905323D01*
X52436223Y-77049152D01*
X52123721Y-77257960D01*
X51857960Y-77523721D01*
X51649152Y-77836223D01*
X51505323Y-78183457D01*
X51432000Y-78552078D01*
X51432000Y-78927922D01*
X51505323Y-79296543D01*
X51649152Y-79643777D01*
X51857960Y-79956279D01*
X52123721Y-80222040D01*
X52436223Y-80430848D01*
X52783457Y-80574677D01*
X53152078Y-80648000D01*
X53527922Y-80648000D01*
X53896543Y-80574677D01*
X54243777Y-80430848D01*
X54556279Y-80222040D01*
X54822040Y-79956279D01*
X55030848Y-79643777D01*
X55174677Y-79296543D01*
X55248000Y-78927922D01*
X55248000Y-78552078D01*
X55222594Y-78424353D01*
X57608949Y-76038000D01*
X72371053Y-76038000D01*
X74319315Y-77986264D01*
X74313820Y-78004380D01*
X74284704Y-78300000D01*
X74313820Y-78595620D01*
X74400049Y-78879879D01*
X74540077Y-79141853D01*
X74728524Y-79371476D01*
X74958147Y-79559923D01*
X74977000Y-79570000D01*
X74958147Y-79580077D01*
X74728524Y-79768524D01*
X74540077Y-79998147D01*
X74400049Y-80260121D01*
X74313820Y-80544380D01*
X74284704Y-80840000D01*
X74313820Y-81135620D01*
X74400049Y-81419879D01*
X74540077Y-81681853D01*
X74728524Y-81911476D01*
X74958147Y-82099923D01*
X74987245Y-82115476D01*
X74917301Y-82156145D01*
X74695500Y-82351867D01*
X74516144Y-82587100D01*
X74386126Y-82852803D01*
X74319969Y-83090913D01*
X74470096Y-83326000D01*
X76146000Y-83326000D01*
X76146000Y-83306000D01*
X76254000Y-83306000D01*
X76254000Y-83326000D01*
X77929904Y-83326000D01*
X78080031Y-83090913D01*
X78013874Y-82852803D01*
X77883856Y-82587100D01*
X77704500Y-82351867D01*
X77482699Y-82156145D01*
X77412755Y-82115476D01*
X77441853Y-82099923D01*
X77626971Y-81948000D01*
X77841052Y-81948000D01*
X78267001Y-82373949D01*
X78267000Y-87806051D01*
X71645018Y-94428035D01*
X71602736Y-94462735D01*
X71514757Y-94569938D01*
X71464275Y-94631450D01*
X71361389Y-94823936D01*
X71298032Y-95032794D01*
X71276640Y-95250000D01*
X71282001Y-95304433D01*
X71282000Y-97989134D01*
X71247471Y-98017471D01*
X71046528Y-98262322D01*
X70897214Y-98541669D01*
X70805267Y-98844778D01*
X70782000Y-99081010D01*
X70782000Y-99838991D01*
X70805267Y-100075223D01*
X70897214Y-100378332D01*
X71046528Y-100657679D01*
X71247471Y-100902529D01*
X71492322Y-101103472D01*
X71771669Y-101252786D01*
X72074778Y-101344733D01*
X72390000Y-101375780D01*
X72705223Y-101344733D01*
X73008332Y-101252786D01*
X73287679Y-101103472D01*
X73532529Y-100902529D01*
X73733472Y-100657679D01*
X73882786Y-100378332D01*
X73974733Y-100075222D01*
X73998000Y-99838990D01*
X73998000Y-99081009D01*
X73974733Y-98844777D01*
X73882786Y-98541668D01*
X73733472Y-98262321D01*
X73532529Y-98017471D01*
X73498000Y-97989134D01*
X73498000Y-95708947D01*
X80119989Y-89086960D01*
X80162265Y-89052265D01*
X80226557Y-88973926D01*
X80300726Y-88883550D01*
X80403611Y-88691065D01*
X80466968Y-88482207D01*
X80488361Y-88265000D01*
X80483000Y-88210569D01*
X80483000Y-81969431D01*
X80488361Y-81915000D01*
X80466968Y-81697794D01*
X80403611Y-81488935D01*
X80300726Y-81296450D01*
X80196963Y-81170014D01*
X80196960Y-81170011D01*
X80162265Y-81127735D01*
X80119988Y-81093039D01*
X79121969Y-80095022D01*
X79087265Y-80052735D01*
X78918550Y-79914274D01*
X78726065Y-79811389D01*
X78517206Y-79748032D01*
X78354431Y-79732000D01*
X78354423Y-79732000D01*
X78300000Y-79726640D01*
X78245577Y-79732000D01*
X77626971Y-79732000D01*
X77441853Y-79580077D01*
X77423000Y-79570000D01*
X77441853Y-79559923D01*
X77626971Y-79408000D01*
X86985053Y-79408000D01*
X91348001Y-83770950D01*
X91348000Y-95294079D01*
X91342640Y-95348502D01*
X91348000Y-95402925D01*
X91348000Y-95402932D01*
X91361938Y-95544448D01*
X91364032Y-95565708D01*
X91397845Y-95677174D01*
X91427389Y-95774566D01*
X91530274Y-95967052D01*
X91668735Y-96135767D01*
X91711022Y-96170471D01*
X102524001Y-106983452D01*
X102524000Y-109165576D01*
X102518640Y-109220000D01*
X102524000Y-109274423D01*
X102524000Y-109274430D01*
X102537938Y-109415946D01*
X102540032Y-109437206D01*
X102555665Y-109488740D01*
X102603389Y-109646064D01*
X102706274Y-109838550D01*
X102844735Y-110007265D01*
X102887022Y-110041969D01*
X103826035Y-110980983D01*
X103860735Y-111023265D01*
X104029450Y-111161726D01*
X104221935Y-111264611D01*
X104430793Y-111327968D01*
X104450158Y-111329875D01*
X104593569Y-111344000D01*
X104593576Y-111344000D01*
X104648000Y-111349360D01*
X104702423Y-111344000D01*
X110689577Y-111344000D01*
X110744000Y-111349360D01*
X110798423Y-111344000D01*
X110798431Y-111344000D01*
X110961206Y-111327968D01*
X111170065Y-111264611D01*
X111362550Y-111161726D01*
X111531265Y-111023265D01*
X111565969Y-110980978D01*
X112504983Y-110041965D01*
X112547265Y-110007265D01*
X112685726Y-109838550D01*
X112788611Y-109646065D01*
X112835645Y-109491015D01*
X112851968Y-109437207D01*
X112855120Y-109405206D01*
X112868000Y-109274431D01*
X112868000Y-109274424D01*
X112873360Y-109220000D01*
X112868000Y-109165577D01*
X112868000Y-109080687D01*
X112984751Y-109045271D01*
X113107747Y-108979528D01*
X113215553Y-108891053D01*
X113304028Y-108783247D01*
X113369771Y-108660251D01*
X113410255Y-108526792D01*
X113423925Y-108388000D01*
X113423925Y-105988000D01*
X113410255Y-105849208D01*
X113369771Y-105715749D01*
X113304028Y-105592753D01*
X113215553Y-105484947D01*
X113107747Y-105396472D01*
X112984751Y-105330729D01*
X112851292Y-105290245D01*
X112712500Y-105276575D01*
X110928000Y-105276575D01*
X110928000Y-102191903D01*
X110936264Y-102108000D01*
X110903286Y-101773173D01*
X110805621Y-101451214D01*
X110647021Y-101154495D01*
X110433582Y-100894418D01*
X110368409Y-100840932D01*
X104832000Y-95304524D01*
X104832000Y-67410368D01*
X104958677Y-67104543D01*
X105032000Y-66735922D01*
X105032000Y-66360078D01*
X104958677Y-65991457D01*
X104832000Y-65685632D01*
X104832000Y-59127476D01*
X110368409Y-53591068D01*
X110433582Y-53537582D01*
X110647021Y-53277505D01*
X110805621Y-52980786D01*
X110819187Y-52936064D01*
X110903286Y-52658827D01*
X110936264Y-52324000D01*
X110928000Y-52240096D01*
X110928000Y-40331476D01*
X112908410Y-38351067D01*
X112973582Y-38297582D01*
X113187021Y-38037505D01*
X113345621Y-37740786D01*
X113443286Y-37418826D01*
X113468000Y-37167904D01*
X113468000Y-37167895D01*
X113476263Y-37084001D01*
X113468000Y-37000106D01*
X113468000Y-28856096D01*
X113443286Y-28605174D01*
X113408706Y-28491178D01*
X113396474Y-28366985D01*
X113301524Y-28053980D01*
X113147335Y-27765512D01*
X112939832Y-27512668D01*
X112686987Y-27305165D01*
X112398519Y-27150976D01*
X112085514Y-27056026D01*
X111760000Y-27023966D01*
X111434485Y-27056026D01*
X111121480Y-27150976D01*
X110928000Y-27254393D01*
X110928000Y-26600000D01*
X125784524Y-26600000D01*
X125800001Y-26615477D01*
X125800001Y-27028575D01*
X124015500Y-27028575D01*
X123876708Y-27042245D01*
X123743249Y-27082729D01*
X123620253Y-27148472D01*
X123512447Y-27236947D01*
X123423972Y-27344753D01*
X123358229Y-27467749D01*
X123317745Y-27601208D01*
X123304075Y-27740000D01*
X123304075Y-30140000D01*
X123317745Y-30278792D01*
X123358229Y-30412251D01*
X123423972Y-30535247D01*
X123512447Y-30643053D01*
X123620253Y-30731528D01*
X123743249Y-30797271D01*
X123860000Y-30832687D01*
X123860001Y-41705051D01*
X108345053Y-57220000D01*
X108035777Y-57220000D01*
X107705795Y-57285638D01*
X107394959Y-57414390D01*
X107115214Y-57601310D01*
X106877310Y-57839214D01*
X106690390Y-58118959D01*
X106561638Y-58429795D01*
X106496000Y-58759777D01*
X106496000Y-59096223D01*
X106561638Y-59426205D01*
X106690390Y-59737041D01*
X106877310Y-60016786D01*
X107115214Y-60254690D01*
X107394959Y-60441610D01*
X107420044Y-60452000D01*
X107394961Y-60462390D01*
X107115216Y-60649310D01*
X106877312Y-60887214D01*
X106690392Y-61166959D01*
X106561640Y-61477795D01*
X106496002Y-61807777D01*
X106496002Y-62144223D01*
X106561640Y-62474205D01*
X106690392Y-62785041D01*
X106877312Y-63064786D01*
X107096003Y-63283477D01*
X107096002Y-94941579D01*
X107090642Y-94996002D01*
X107096002Y-95050425D01*
X107096002Y-95050432D01*
X107112034Y-95213207D01*
X107175391Y-95422066D01*
X107278276Y-95614552D01*
X107416737Y-95783267D01*
X107459024Y-95817971D01*
X122622035Y-110980983D01*
X122656735Y-111023265D01*
X122825450Y-111161726D01*
X123017935Y-111264611D01*
X123226793Y-111327968D01*
X123246158Y-111329875D01*
X123389569Y-111344000D01*
X123389576Y-111344000D01*
X123444000Y-111349360D01*
X123498423Y-111344000D01*
X128945577Y-111344000D01*
X129000000Y-111349360D01*
X129054423Y-111344000D01*
X129054431Y-111344000D01*
X129217206Y-111327968D01*
X129426065Y-111264611D01*
X129618550Y-111161726D01*
X129787265Y-111023265D01*
X129821969Y-110980978D01*
X130792983Y-110009965D01*
X130835265Y-109975265D01*
X130973726Y-109806550D01*
X131076611Y-109614065D01*
X131139968Y-109405206D01*
X131156000Y-109242431D01*
X131156000Y-109242424D01*
X131161360Y-109188000D01*
X131156000Y-109133577D01*
X131156000Y-109080687D01*
X131272751Y-109045271D01*
X131395747Y-108979528D01*
X131503553Y-108891053D01*
X131592028Y-108783247D01*
X131657771Y-108660251D01*
X131698255Y-108526792D01*
X131711925Y-108388000D01*
X131711925Y-107468682D01*
X142472000Y-107468682D01*
X142472000Y-107923318D01*
X142560696Y-108369219D01*
X142734677Y-108789248D01*
X142987260Y-109167264D01*
X143308736Y-109488740D01*
X143686752Y-109741323D01*
X144106781Y-109915304D01*
X144552682Y-110004000D01*
X145007318Y-110004000D01*
X145453219Y-109915304D01*
X145873248Y-109741323D01*
X146251264Y-109488740D01*
X146572740Y-109167264D01*
X146825323Y-108789248D01*
X146999304Y-108369219D01*
X147088000Y-107923318D01*
X147088000Y-107468682D01*
X146999304Y-107022781D01*
X146825323Y-106602752D01*
X146572740Y-106224736D01*
X146251264Y-105903260D01*
X145873248Y-105650677D01*
X145453219Y-105476696D01*
X145007318Y-105388000D01*
X144552682Y-105388000D01*
X144106781Y-105476696D01*
X143686752Y-105650677D01*
X143308736Y-105903260D01*
X142987260Y-106224736D01*
X142734677Y-106602752D01*
X142560696Y-107022781D01*
X142472000Y-107468682D01*
X131711925Y-107468682D01*
X131711925Y-105988000D01*
X131698255Y-105849208D01*
X131657771Y-105715749D01*
X131592028Y-105592753D01*
X131503553Y-105484947D01*
X131395747Y-105396472D01*
X131272751Y-105330729D01*
X131139292Y-105290245D01*
X131000500Y-105276575D01*
X129216000Y-105276575D01*
X129216000Y-99351476D01*
X137715477Y-90852000D01*
X140664098Y-90852000D01*
X140748002Y-90860264D01*
X140831906Y-90852000D01*
X141082828Y-90827286D01*
X141404788Y-90729621D01*
X141701507Y-90571021D01*
X141961584Y-90357582D01*
X142015074Y-90292404D01*
X143856411Y-88451068D01*
X143921583Y-88397583D01*
X144135022Y-88137506D01*
X144293622Y-87840787D01*
X144391287Y-87518827D01*
X144416001Y-87267905D01*
X144416001Y-87267904D01*
X144424265Y-87184002D01*
X144416001Y-87100100D01*
X144416001Y-81467897D01*
X144424264Y-81384002D01*
X144416001Y-81300108D01*
X144416001Y-81300099D01*
X144391287Y-81049177D01*
X144293622Y-80727217D01*
X144135022Y-80430498D01*
X143921583Y-80170421D01*
X143856410Y-80116935D01*
X142283212Y-78543737D01*
X142288543Y-78542677D01*
X142635777Y-78398848D01*
X142948279Y-78190040D01*
X143214040Y-77924279D01*
X143422848Y-77611777D01*
X143566677Y-77264543D01*
X143640000Y-76895922D01*
X143640000Y-76520078D01*
X143566677Y-76151457D01*
X143440000Y-75845632D01*
X143440000Y-68907894D01*
X143448263Y-68823999D01*
X143440000Y-68740105D01*
X143440000Y-68740096D01*
X143439652Y-68736564D01*
X143457505Y-68727021D01*
X143717582Y-68513582D01*
X143771072Y-68448404D01*
X145420404Y-66799072D01*
X145485582Y-66745582D01*
X145699021Y-66485505D01*
X145857621Y-66188786D01*
X145888674Y-66086418D01*
X145955286Y-65866827D01*
X145988264Y-65532000D01*
X145980000Y-65448096D01*
X145980000Y-57995904D01*
X145988264Y-57912000D01*
X145955286Y-57577173D01*
X145857621Y-57255214D01*
X145754775Y-57062803D01*
X145699021Y-56958495D01*
X145485582Y-56698418D01*
X145420410Y-56644933D01*
X142416000Y-53640524D01*
X142416000Y-53630531D01*
X142331148Y-53203950D01*
X142164705Y-52802120D01*
X141923066Y-52440482D01*
X141615518Y-52132934D01*
X141253880Y-51891295D01*
X140852050Y-51724852D01*
X140425469Y-51640000D01*
X139990531Y-51640000D01*
X139692119Y-51699358D01*
X140412052Y-50979425D01*
X141708000Y-50979425D01*
X141846792Y-50965755D01*
X141980251Y-50925271D01*
X142103247Y-50859528D01*
X142211053Y-50771053D01*
X142299528Y-50663247D01*
X142365271Y-50540251D01*
X142405755Y-50406792D01*
X142419425Y-50268000D01*
X142419425Y-47268000D01*
X142405755Y-47129208D01*
X142365271Y-46995749D01*
X142299528Y-46872753D01*
X142211053Y-46764947D01*
X142103247Y-46676472D01*
X141980251Y-46610729D01*
X141846792Y-46570245D01*
X141708000Y-46556575D01*
X140412052Y-46556575D01*
X131756000Y-37900524D01*
X131756000Y-28856096D01*
X131731286Y-28605174D01*
X131696706Y-28491178D01*
X131684474Y-28366985D01*
X131589524Y-28053980D01*
X131435335Y-27765512D01*
X131227832Y-27512668D01*
X130974987Y-27305165D01*
X130686519Y-27150976D01*
X130373514Y-27056026D01*
X130048000Y-27023966D01*
X129722485Y-27056026D01*
X129409480Y-27150976D01*
X129216000Y-27254393D01*
X129216000Y-26188682D01*
X142472000Y-26188682D01*
X142472000Y-26643318D01*
X142560696Y-27089219D01*
X142734677Y-27509248D01*
X142987260Y-27887264D01*
X143308736Y-28208740D01*
X143686752Y-28461323D01*
X144106781Y-28635304D01*
X144552682Y-28724000D01*
X145007318Y-28724000D01*
X145453219Y-28635304D01*
X145873248Y-28461323D01*
X146251264Y-28208740D01*
X146572740Y-27887264D01*
X146825323Y-27509248D01*
X146999304Y-27089219D01*
X147088000Y-26643318D01*
X147088000Y-26188682D01*
X146999304Y-25742781D01*
X146825323Y-25322752D01*
X146572740Y-24944736D01*
X146251264Y-24623260D01*
X145873248Y-24370677D01*
X145453219Y-24196696D01*
X145007318Y-24108000D01*
X144552682Y-24108000D01*
X144106781Y-24196696D01*
X143686752Y-24370677D01*
X143308736Y-24623260D01*
X142987260Y-24944736D01*
X142734677Y-25322752D01*
X142560696Y-25742781D01*
X142472000Y-26188682D01*
X129216000Y-26188682D01*
X129216000Y-25991904D01*
X129224264Y-25908000D01*
X129191286Y-25573173D01*
X129093621Y-25251214D01*
X128935020Y-24954494D01*
X128927012Y-24944736D01*
X128721582Y-24694418D01*
X128656404Y-24640928D01*
X127759072Y-23743596D01*
X127705582Y-23678418D01*
X127445505Y-23464979D01*
X127148786Y-23306379D01*
X126826826Y-23208714D01*
X126575904Y-23184000D01*
X126492000Y-23175736D01*
X126408096Y-23184000D01*
X107779904Y-23184000D01*
X107696000Y-23175736D01*
X107612096Y-23184000D01*
X101175904Y-23184000D01*
X101092000Y-23175736D01*
X100757173Y-23208714D01*
X100435214Y-23306379D01*
X100138495Y-23464979D01*
X99878418Y-23678418D01*
X99824932Y-23743591D01*
X91815596Y-31752928D01*
X91750418Y-31806418D01*
X91536979Y-32066496D01*
X91527181Y-32084827D01*
X91378379Y-32363215D01*
X91280714Y-32685174D01*
X91247736Y-33020000D01*
X91256000Y-33103905D01*
X91256001Y-45520522D01*
X90854524Y-45922000D01*
X90341425Y-45922000D01*
X90341425Y-45630000D01*
X90327755Y-45491208D01*
X90287271Y-45357749D01*
X90221528Y-45234753D01*
X90133053Y-45126947D01*
X90025247Y-45038472D01*
X89902251Y-44972729D01*
X89768792Y-44932245D01*
X89630000Y-44918575D01*
X87334052Y-44918575D01*
X82988000Y-40572524D01*
X82988000Y-34881904D01*
X82996264Y-34798000D01*
X82963286Y-34463173D01*
X82865621Y-34141214D01*
X82707020Y-33844494D01*
X82547067Y-33649590D01*
X82493582Y-33584418D01*
X82428409Y-33530932D01*
X79499072Y-30601596D01*
X79445582Y-30536418D01*
X79185505Y-30322979D01*
X78888786Y-30164379D01*
X78566826Y-30066714D01*
X78315904Y-30042000D01*
X78232000Y-30033736D01*
X78148096Y-30042000D01*
X63583894Y-30042000D01*
X63499999Y-30033737D01*
X63416105Y-30042000D01*
X63416096Y-30042000D01*
X63165174Y-30066714D01*
X62843214Y-30164379D01*
X62546495Y-30322979D01*
X62286418Y-30536418D01*
X62232932Y-30601591D01*
X59811596Y-33022928D01*
X59746418Y-33076418D01*
X59532979Y-33336496D01*
X59487423Y-33421725D01*
X59374379Y-33633215D01*
X59276714Y-33955174D01*
X59243736Y-34290000D01*
X59252000Y-34373905D01*
X59252000Y-35122000D01*
X54202368Y-35122000D01*
X53896543Y-34995323D01*
X53527922Y-34922000D01*
X53152078Y-34922000D01*
X52783457Y-34995323D01*
X52436223Y-35139152D01*
X52123721Y-35347960D01*
X51857960Y-35613721D01*
X51649152Y-35926223D01*
X51522475Y-36232048D01*
X34411592Y-53342932D01*
X34346419Y-53396418D01*
X34292933Y-53461591D01*
X34132980Y-53656495D01*
X33974379Y-53953215D01*
X33876714Y-54275174D01*
X33843736Y-54610000D01*
X33852001Y-54693914D01*
X33852000Y-60053239D01*
X33787749Y-60072729D01*
X33664753Y-60138472D01*
X33556947Y-60226947D01*
X33468472Y-60334753D01*
X33402729Y-60457749D01*
X33368503Y-60570578D01*
X33152836Y-60636000D01*
X33125214Y-60644379D01*
X32828495Y-60802979D01*
X32568418Y-61016418D01*
X32514932Y-61081591D01*
X28823591Y-64772933D01*
X28758419Y-64826418D01*
X28704933Y-64891591D01*
X28544980Y-65086495D01*
X28386379Y-65383215D01*
X28288714Y-65705174D01*
X28255736Y-66040000D01*
X26108000Y-66040000D01*
X26108000Y-26188682D01*
X27664000Y-26188682D01*
X27664000Y-26643318D01*
X27752696Y-27089219D01*
X27926677Y-27509248D01*
X28179260Y-27887264D01*
X28500736Y-28208740D01*
X28878752Y-28461323D01*
X29298781Y-28635304D01*
X29744682Y-28724000D01*
X30199318Y-28724000D01*
X30645219Y-28635304D01*
X31065248Y-28461323D01*
X31443264Y-28208740D01*
X31764740Y-27887264D01*
X32017323Y-27509248D01*
X32191304Y-27089219D01*
X32280000Y-26643318D01*
X32280000Y-26188682D01*
X32191304Y-25742781D01*
X32017323Y-25322752D01*
X31764740Y-24944736D01*
X31443264Y-24623260D01*
X31065248Y-24370677D01*
X30645219Y-24196696D01*
X30199318Y-24108000D01*
X29744682Y-24108000D01*
X29298781Y-24196696D01*
X28878752Y-24370677D01*
X28500736Y-24623260D01*
X28179260Y-24944736D01*
X27926677Y-25322752D01*
X27752696Y-25742781D01*
X27664000Y-26188682D01*
X26108000Y-26188682D01*
X26108000Y-22552000D01*
X148644000Y-22552000D01*
X148644000Y-111560000D01*
G36*
X126581013Y-30574835D02*
G01*
X126869481Y-30729024D01*
X127182486Y-30823974D01*
X127508000Y-30856034D01*
X127833515Y-30823974D01*
X128146520Y-30729024D01*
X128340000Y-30625607D01*
X128340001Y-38524086D01*
X128331736Y-38608000D01*
X128364714Y-38942826D01*
X128462379Y-39264785D01*
X128620980Y-39561505D01*
X128730027Y-39694379D01*
X128834419Y-39821582D01*
X128899592Y-39875068D01*
X137792523Y-48768000D01*
X134995591Y-51564933D01*
X134930419Y-51618418D01*
X134876933Y-51683591D01*
X134716980Y-51878495D01*
X134558379Y-52175215D01*
X134460714Y-52497174D01*
X134427736Y-52832000D01*
X134436001Y-52915914D01*
X134436000Y-56304095D01*
X134427736Y-56388000D01*
X134460714Y-56722826D01*
X134461051Y-56723936D01*
X134558379Y-57044785D01*
X134716979Y-57341504D01*
X134930418Y-57601582D01*
X134995596Y-57655072D01*
X138500001Y-61159478D01*
X138500000Y-62249008D01*
X138454416Y-62286418D01*
X138400930Y-62351591D01*
X136011591Y-64740931D01*
X135946419Y-64794416D01*
X135892933Y-64859589D01*
X135732980Y-65054493D01*
X135574379Y-65351213D01*
X135476714Y-65673172D01*
X135443736Y-66007998D01*
X135445471Y-66025612D01*
X135438677Y-65991457D01*
X135294848Y-65644223D01*
X135086040Y-65331721D01*
X134820279Y-65065960D01*
X134507777Y-64857152D01*
X134160543Y-64713323D01*
X133791922Y-64640000D01*
X133416078Y-64640000D01*
X133047457Y-64713323D01*
X132741632Y-64840000D01*
X118447904Y-64840000D01*
X118364000Y-64831736D01*
X118029173Y-64864714D01*
X117823774Y-64927021D01*
X117707214Y-64962379D01*
X117410495Y-65120979D01*
X117150418Y-65334418D01*
X117096932Y-65399591D01*
X110103592Y-72392932D01*
X110038419Y-72446418D01*
X109984933Y-72511591D01*
X109824980Y-72706495D01*
X109666379Y-73003215D01*
X109568714Y-73325174D01*
X109535736Y-73660000D01*
X109544001Y-73743914D01*
X109544000Y-75845631D01*
X109417323Y-76151457D01*
X109344000Y-76520078D01*
X109344000Y-76895922D01*
X109417323Y-77264543D01*
X109561152Y-77611777D01*
X109769960Y-77924279D01*
X110035721Y-78190040D01*
X110348223Y-78398848D01*
X110654049Y-78525525D01*
X118620932Y-86492409D01*
X118674418Y-86557582D01*
X118934495Y-86771021D01*
X119231214Y-86929621D01*
X119553174Y-87027286D01*
X119804096Y-87052000D01*
X119804105Y-87052000D01*
X119887999Y-87060263D01*
X119971894Y-87052000D01*
X140291904Y-87052000D01*
X140439015Y-87037511D01*
X140040526Y-87436000D01*
X137091904Y-87436000D01*
X137008000Y-87427736D01*
X136673173Y-87460714D01*
X136406870Y-87541496D01*
X136351214Y-87558379D01*
X136054495Y-87716979D01*
X135794418Y-87930418D01*
X135740932Y-87995591D01*
X126359596Y-97376928D01*
X126294418Y-97430418D01*
X126080979Y-97690496D01*
X125997637Y-97846418D01*
X125922379Y-97987215D01*
X125824714Y-98309174D01*
X125791736Y-98644000D01*
X125800000Y-98727905D01*
X125800001Y-101516089D01*
X125800000Y-101516097D01*
X125800000Y-102024097D01*
X125800001Y-105507332D01*
X125553557Y-105385733D01*
X125280957Y-105309758D01*
X125022000Y-105457983D01*
X125022000Y-107134000D01*
X125042000Y-107134000D01*
X125042000Y-107242000D01*
X125022000Y-107242000D01*
X125022000Y-108918017D01*
X125280957Y-109066242D01*
X125553557Y-108990267D01*
X125845626Y-108846156D01*
X126103968Y-108647834D01*
X126233537Y-108500024D01*
X126328168Y-108615332D01*
X126581012Y-108822835D01*
X126869480Y-108977024D01*
X127182485Y-109071974D01*
X127508000Y-109104034D01*
X127833514Y-109071974D01*
X128146519Y-108977024D01*
X128434987Y-108822835D01*
X128497646Y-108771412D01*
X128503972Y-108783247D01*
X128592447Y-108891053D01*
X128694360Y-108974692D01*
X128541053Y-109128000D01*
X123902948Y-109128000D01*
X122016948Y-107242000D01*
X123307500Y-107242000D01*
X123307500Y-107489500D01*
X123349941Y-107812410D01*
X123454563Y-108120835D01*
X123617345Y-108402923D01*
X123832032Y-108647834D01*
X124090374Y-108846156D01*
X124382443Y-108990267D01*
X124655043Y-109066242D01*
X124914000Y-108918017D01*
X124914000Y-107242000D01*
X123307500Y-107242000D01*
X122016948Y-107242000D01*
X121661448Y-106886500D01*
X123307500Y-106886500D01*
X123307500Y-107134000D01*
X124914000Y-107134000D01*
X124914000Y-105457983D01*
X124655043Y-105309758D01*
X124382443Y-105385733D01*
X124090374Y-105529844D01*
X123832032Y-105728166D01*
X123617345Y-105973077D01*
X123454563Y-106255165D01*
X123349941Y-106563590D01*
X123307500Y-106886500D01*
X121661448Y-106886500D01*
X109312002Y-94537055D01*
X109312002Y-63283476D01*
X109530692Y-63064786D01*
X109717612Y-62785041D01*
X109846364Y-62474205D01*
X109912002Y-62144223D01*
X109912002Y-61807777D01*
X109846364Y-61477795D01*
X109717612Y-61166959D01*
X109530692Y-60887214D01*
X109292788Y-60649310D01*
X109013043Y-60462390D01*
X108987958Y-60452000D01*
X109013041Y-60441610D01*
X109292786Y-60254690D01*
X109530690Y-60016786D01*
X109717610Y-59737041D01*
X109846362Y-59426205D01*
X109912000Y-59096223D01*
X109912000Y-58786947D01*
X125712983Y-42985965D01*
X125755265Y-42951265D01*
X125893726Y-42782550D01*
X125996611Y-42590065D01*
X126059968Y-42381206D01*
X126076000Y-42218431D01*
X126076000Y-42218422D01*
X126081360Y-42164001D01*
X126076000Y-42109580D01*
X126076000Y-30832687D01*
X126192751Y-30797271D01*
X126315747Y-30731528D01*
X126423553Y-30643053D01*
X126512028Y-30535247D01*
X126518354Y-30523412D01*
X126581013Y-30574835D01*
G37*
X126581013Y-30574835D02*
X126869481Y-30729024D01*
X127182486Y-30823974D01*
X127508000Y-30856034D01*
X127833515Y-30823974D01*
X128146520Y-30729024D01*
X128340000Y-30625607D01*
X128340001Y-38524086D01*
X128331736Y-38608000D01*
X128364714Y-38942826D01*
X128462379Y-39264785D01*
X128620980Y-39561505D01*
X128730027Y-39694379D01*
X128834419Y-39821582D01*
X128899592Y-39875068D01*
X137792523Y-48768000D01*
X134995591Y-51564933D01*
X134930419Y-51618418D01*
X134876933Y-51683591D01*
X134716980Y-51878495D01*
X134558379Y-52175215D01*
X134460714Y-52497174D01*
X134427736Y-52832000D01*
X134436001Y-52915914D01*
X134436000Y-56304095D01*
X134427736Y-56388000D01*
X134460714Y-56722826D01*
X134461051Y-56723936D01*
X134558379Y-57044785D01*
X134716979Y-57341504D01*
X134930418Y-57601582D01*
X134995596Y-57655072D01*
X138500001Y-61159478D01*
X138500000Y-62249008D01*
X138454416Y-62286418D01*
X138400930Y-62351591D01*
X136011591Y-64740931D01*
X135946419Y-64794416D01*
X135892933Y-64859589D01*
X135732980Y-65054493D01*
X135574379Y-65351213D01*
X135476714Y-65673172D01*
X135443736Y-66007998D01*
X135445471Y-66025612D01*
X135438677Y-65991457D01*
X135294848Y-65644223D01*
X135086040Y-65331721D01*
X134820279Y-65065960D01*
X134507777Y-64857152D01*
X134160543Y-64713323D01*
X133791922Y-64640000D01*
X133416078Y-64640000D01*
X133047457Y-64713323D01*
X132741632Y-64840000D01*
X118447904Y-64840000D01*
X118364000Y-64831736D01*
X118029173Y-64864714D01*
X117823774Y-64927021D01*
X117707214Y-64962379D01*
X117410495Y-65120979D01*
X117150418Y-65334418D01*
X117096932Y-65399591D01*
X110103592Y-72392932D01*
X110038419Y-72446418D01*
X109984933Y-72511591D01*
X109824980Y-72706495D01*
X109666379Y-73003215D01*
X109568714Y-73325174D01*
X109535736Y-73660000D01*
X109544001Y-73743914D01*
X109544000Y-75845631D01*
X109417323Y-76151457D01*
X109344000Y-76520078D01*
X109344000Y-76895922D01*
X109417323Y-77264543D01*
X109561152Y-77611777D01*
X109769960Y-77924279D01*
X110035721Y-78190040D01*
X110348223Y-78398848D01*
X110654049Y-78525525D01*
X118620932Y-86492409D01*
X118674418Y-86557582D01*
X118934495Y-86771021D01*
X119231214Y-86929621D01*
X119553174Y-87027286D01*
X119804096Y-87052000D01*
X119804105Y-87052000D01*
X119887999Y-87060263D01*
X119971894Y-87052000D01*
X140291904Y-87052000D01*
X140439015Y-87037511D01*
X140040526Y-87436000D01*
X137091904Y-87436000D01*
X137008000Y-87427736D01*
X136673173Y-87460714D01*
X136406870Y-87541496D01*
X136351214Y-87558379D01*
X136054495Y-87716979D01*
X135794418Y-87930418D01*
X135740932Y-87995591D01*
X126359596Y-97376928D01*
X126294418Y-97430418D01*
X126080979Y-97690496D01*
X125997637Y-97846418D01*
X125922379Y-97987215D01*
X125824714Y-98309174D01*
X125791736Y-98644000D01*
X125800000Y-98727905D01*
X125800001Y-101516089D01*
X125800000Y-101516097D01*
X125800000Y-102024097D01*
X125800001Y-105507332D01*
X125553557Y-105385733D01*
X125280957Y-105309758D01*
X125022000Y-105457983D01*
X125022000Y-107134000D01*
X125042000Y-107134000D01*
X125042000Y-107242000D01*
X125022000Y-107242000D01*
X125022000Y-108918017D01*
X125280957Y-109066242D01*
X125553557Y-108990267D01*
X125845626Y-108846156D01*
X126103968Y-108647834D01*
X126233537Y-108500024D01*
X126328168Y-108615332D01*
X126581012Y-108822835D01*
X126869480Y-108977024D01*
X127182485Y-109071974D01*
X127508000Y-109104034D01*
X127833514Y-109071974D01*
X128146519Y-108977024D01*
X128434987Y-108822835D01*
X128497646Y-108771412D01*
X128503972Y-108783247D01*
X128592447Y-108891053D01*
X128694360Y-108974692D01*
X128541053Y-109128000D01*
X123902948Y-109128000D01*
X122016948Y-107242000D01*
X123307500Y-107242000D01*
X123307500Y-107489500D01*
X123349941Y-107812410D01*
X123454563Y-108120835D01*
X123617345Y-108402923D01*
X123832032Y-108647834D01*
X124090374Y-108846156D01*
X124382443Y-108990267D01*
X124655043Y-109066242D01*
X124914000Y-108918017D01*
X124914000Y-107242000D01*
X123307500Y-107242000D01*
X122016948Y-107242000D01*
X121661448Y-106886500D01*
X123307500Y-106886500D01*
X123307500Y-107134000D01*
X124914000Y-107134000D01*
X124914000Y-105457983D01*
X124655043Y-105309758D01*
X124382443Y-105385733D01*
X124090374Y-105529844D01*
X123832032Y-105728166D01*
X123617345Y-105973077D01*
X123454563Y-106255165D01*
X123349941Y-106563590D01*
X123307500Y-106886500D01*
X121661448Y-106886500D01*
X109312002Y-94537055D01*
X109312002Y-63283476D01*
X109530692Y-63064786D01*
X109717612Y-62785041D01*
X109846364Y-62474205D01*
X109912002Y-62144223D01*
X109912002Y-61807777D01*
X109846364Y-61477795D01*
X109717612Y-61166959D01*
X109530692Y-60887214D01*
X109292788Y-60649310D01*
X109013043Y-60462390D01*
X108987958Y-60452000D01*
X109013041Y-60441610D01*
X109292786Y-60254690D01*
X109530690Y-60016786D01*
X109717610Y-59737041D01*
X109846362Y-59426205D01*
X109912000Y-59096223D01*
X109912000Y-58786947D01*
X125712983Y-42985965D01*
X125755265Y-42951265D01*
X125893726Y-42782550D01*
X125996611Y-42590065D01*
X126059968Y-42381206D01*
X126076000Y-42218431D01*
X126076000Y-42218422D01*
X126081360Y-42164001D01*
X126076000Y-42109580D01*
X126076000Y-30832687D01*
X126192751Y-30797271D01*
X126315747Y-30731528D01*
X126423553Y-30643053D01*
X126512028Y-30535247D01*
X126518354Y-30523412D01*
X126581013Y-30574835D01*
%TD*%
M02*
