M48
METRIC
T1C0.800
T2C1.100
T3C1.200
T4C1.520
T5C2.000
%
G90
G05
T1
X78.74Y-61.595
X94.488Y-61.468
X104.648Y-58.928
X104.648Y-61.976
X113.792Y-58.928
X113.792Y-61.976
X67.31Y-89.3
X67.31Y-99.46
X76.2Y-78.3
X76.2Y-80.84
X76.2Y-83.38
X71.755Y-36.43
X71.755Y-46.59
X67.31Y-36.43
X67.31Y-46.59
X67.31Y-52.51
X67.31Y-55.05
X67.31Y-57.59
X67.31Y-78.3
X67.31Y-80.84
X67.31Y-83.38
X72.39Y-89.3
X72.39Y-99.46
X76.2Y-52.51
X76.2Y-55.05
X76.2Y-57.59
X135.392Y-77.216
X139.192Y-77.216
T2
X148.844Y-28.94
X151.384Y-28.94
X153.924Y-28.94
X106.68Y-28.94
X109.22Y-28.94
X111.76Y-28.94
X106.68Y-107.188
X109.22Y-107.188
X111.76Y-107.188
X148.844Y-107.188
X151.384Y-107.188
X153.924Y-107.188
T3
X60.96Y-78.74
X60.96Y-99.06
X60.96Y-36.83
X60.96Y-57.15
X109.22Y-66.548
X139.7Y-66.548
X53.34Y-78.74
X53.34Y-99.06
X53.34Y-36.83
X53.34Y-57.15
T4
X33.02Y-62.23
X33.02Y-67.31
X160.528Y-65.532
X160.528Y-70.612
X33.02Y-78.74
X33.02Y-83.82
X33.02Y-88.9
T5
X87.63Y-88.495
X97.63Y-88.495
X87.63Y-47.63
X97.63Y-47.63
T0
M30
