%TF.GenerationSoftware,KiCad,Pcbnew,5.1.6*%
%TF.CreationDate,2020-07-22T01:26:14-03:00*%
%TF.ProjectId,pwm_seno,70776d5f-7365-46e6-9f2e-6b696361645f,1*%
%TF.SameCoordinates,Original*%
%TF.FileFunction,Copper,L2,Bot*%
%TF.FilePolarity,Positive*%
%FSLAX46Y46*%
G04 Gerber Fmt 4.6, Leading zero omitted, Abs format (unit mm)*
G04 Created by KiCad (PCBNEW 5.1.6) date 2020-07-22 01:26:14*
%MOMM*%
%LPD*%
G01*
G04 APERTURE LIST*
%TA.AperFunction,ComponentPad*%
%ADD10R,4.000000X4.000000*%
%TD*%
%TA.AperFunction,ComponentPad*%
%ADD11C,4.000000*%
%TD*%
%TA.AperFunction,ComponentPad*%
%ADD12R,1.905000X2.400000*%
%TD*%
%TA.AperFunction,ComponentPad*%
%ADD13O,1.905000X2.400000*%
%TD*%
%TA.AperFunction,ComponentPad*%
%ADD14O,2.400000X1.600000*%
%TD*%
%TA.AperFunction,ComponentPad*%
%ADD15O,1.600000X2.400000*%
%TD*%
%TA.AperFunction,ComponentPad*%
%ADD16R,1.600000X2.400000*%
%TD*%
%TA.AperFunction,ComponentPad*%
%ADD17C,3.000000*%
%TD*%
%TA.AperFunction,ComponentPad*%
%ADD18R,3.000000X3.000000*%
%TD*%
%TA.AperFunction,ComponentPad*%
%ADD19O,1.800000X2.400000*%
%TD*%
%TA.AperFunction,ComponentPad*%
%ADD20C,2.400000*%
%TD*%
%TA.AperFunction,ComponentPad*%
%ADD21O,2.400000X2.400000*%
%TD*%
%TA.AperFunction,ComponentPad*%
%ADD22C,1.600000*%
%TD*%
%TA.AperFunction,ViaPad*%
%ADD23C,2.000000*%
%TD*%
%TA.AperFunction,Conductor*%
%ADD24C,2.000000*%
%TD*%
%TA.AperFunction,Conductor*%
%ADD25C,0.800000*%
%TD*%
%TA.AperFunction,Conductor*%
%ADD26C,0.254000*%
%TD*%
G04 APERTURE END LIST*
D10*
%TO.P,C2,1*%
%TO.N,VCC*%
X87630000Y-88495001D03*
D11*
%TO.P,C2,2*%
%TO.N,GND*%
X97630000Y-88495001D03*
%TD*%
D12*
%TO.P,Q8,1*%
%TO.N,/NFET2*%
X153924000Y-107188000D03*
D13*
%TO.P,Q8,2*%
%TO.N,/L2*%
X151384000Y-107188000D03*
%TO.P,Q8,3*%
%TO.N,GND*%
X148844000Y-107188000D03*
%TD*%
D12*
%TO.P,Q6,1*%
%TO.N,/NFET1*%
X111760000Y-107188000D03*
D13*
%TO.P,Q6,2*%
%TO.N,/L1*%
X109220000Y-107188000D03*
%TO.P,Q6,3*%
%TO.N,GND*%
X106680000Y-107188000D03*
%TD*%
D14*
%TO.P,Q4,2*%
%TO.N,Net-(Q4-Pad2)*%
X76200000Y-80840000D03*
%TO.P,Q4,3*%
%TO.N,GND*%
X76200000Y-83380000D03*
%TO.P,Q4,1*%
%TO.N,/NFET1*%
X76200000Y-78300000D03*
%TD*%
D11*
%TO.P,C1,2*%
%TO.N,GND*%
X97630000Y-47630000D03*
D10*
%TO.P,C1,1*%
%TO.N,VCC*%
X87630000Y-47630000D03*
%TD*%
D15*
%TO.P,C4,2*%
%TO.N,/L2*%
X135392000Y-77216000D03*
D16*
%TO.P,C4,1*%
%TO.N,Net-(C4-Pad1)*%
X139192000Y-77216000D03*
%TD*%
D17*
%TO.P,J1,2*%
%TO.N,GND*%
X33020000Y-67310000D03*
D18*
%TO.P,J1,1*%
%TO.N,VCC*%
X33020000Y-62230000D03*
%TD*%
%TO.P,J2,1*%
%TO.N,/PWM1*%
X33020000Y-88900000D03*
D17*
%TO.P,J2,2*%
%TO.N,/PWM2*%
X33020000Y-83820000D03*
%TO.P,J2,3*%
%TO.N,GND*%
X33020000Y-78740000D03*
%TD*%
D18*
%TO.P,LS1,1*%
%TO.N,/L2*%
X160528000Y-65532000D03*
D17*
%TO.P,LS1,2*%
%TO.N,Net-(C4-Pad1)*%
X160528000Y-70612000D03*
%TD*%
D14*
%TO.P,Q1,1*%
%TO.N,/PFET1*%
X67310000Y-52510000D03*
%TO.P,Q1,3*%
%TO.N,GND*%
X67310000Y-57590000D03*
%TO.P,Q1,2*%
%TO.N,Net-(Q1-Pad2)*%
X67310000Y-55050000D03*
%TD*%
%TO.P,Q2,2*%
%TO.N,Net-(Q2-Pad2)*%
X76200000Y-55050000D03*
%TO.P,Q2,3*%
%TO.N,GND*%
X76200000Y-57590000D03*
%TO.P,Q2,1*%
%TO.N,/NFET2*%
X76200000Y-52510000D03*
%TD*%
%TO.P,Q3,1*%
%TO.N,/PFET2*%
X67310000Y-78300000D03*
%TO.P,Q3,3*%
%TO.N,GND*%
X67310000Y-83380000D03*
%TO.P,Q3,2*%
%TO.N,Net-(Q3-Pad2)*%
X67310000Y-80840000D03*
%TD*%
D13*
%TO.P,Q5,3*%
%TO.N,/L1*%
X111760000Y-28940000D03*
%TO.P,Q5,2*%
%TO.N,VCC*%
X109220000Y-28940000D03*
D12*
%TO.P,Q5,1*%
%TO.N,/PFET1*%
X106680000Y-28940000D03*
%TD*%
D13*
%TO.P,Q7,3*%
%TO.N,/L2*%
X153924000Y-28940000D03*
%TO.P,Q7,2*%
%TO.N,VCC*%
X151384000Y-28940000D03*
D12*
%TO.P,Q7,1*%
%TO.N,/PFET2*%
X148844000Y-28940000D03*
%TD*%
D19*
%TO.P,R1,2*%
%TO.N,/PWM1*%
X67310000Y-36430000D03*
%TO.P,R1,1*%
%TO.N,Net-(Q1-Pad2)*%
X67310000Y-46590000D03*
%TD*%
D20*
%TO.P,R2,1*%
%TO.N,VCC*%
X60960000Y-36830000D03*
D21*
%TO.P,R2,2*%
%TO.N,/PFET1*%
X60960000Y-57150000D03*
%TD*%
D22*
%TO.P,R3,1*%
%TO.N,Net-(Q2-Pad2)*%
X71755000Y-36430000D03*
D19*
%TO.P,R3,2*%
%TO.N,/PFET1*%
X71755000Y-46590000D03*
%TD*%
D21*
%TO.P,R4,2*%
%TO.N,/NFET2*%
X53340000Y-57150000D03*
D20*
%TO.P,R4,1*%
%TO.N,VCC*%
X53340000Y-36830000D03*
%TD*%
D19*
%TO.P,R5,2*%
%TO.N,/PWM2*%
X67310000Y-89300000D03*
%TO.P,R5,1*%
%TO.N,Net-(Q3-Pad2)*%
X67310000Y-99460000D03*
%TD*%
D20*
%TO.P,R6,1*%
%TO.N,VCC*%
X60960000Y-99060000D03*
D21*
%TO.P,R6,2*%
%TO.N,/PFET2*%
X60960000Y-78740000D03*
%TD*%
D19*
%TO.P,R7,1*%
%TO.N,Net-(Q4-Pad2)*%
X72390000Y-99460000D03*
%TO.P,R7,2*%
%TO.N,/PFET2*%
X72390000Y-89300000D03*
%TD*%
D21*
%TO.P,R8,2*%
%TO.N,/NFET1*%
X53340000Y-78740000D03*
D20*
%TO.P,R8,1*%
%TO.N,VCC*%
X53340000Y-99060000D03*
%TD*%
%TO.P,R9,1*%
%TO.N,Net-(C4-Pad1)*%
X139700000Y-66548000D03*
D21*
%TO.P,R9,2*%
%TO.N,/L1*%
X109220000Y-66548000D03*
%TD*%
D23*
%TO.N,/NFET2*%
X78740000Y-61595000D03*
X94488000Y-61468000D03*
X113792000Y-61976000D03*
X104648000Y-61976000D03*
%TO.N,/PFET2*%
X104648000Y-58928000D03*
X113792000Y-58928000D03*
%TD*%
D24*
%TO.N,VCC*%
X60960000Y-99060000D02*
X53340000Y-99060000D01*
X60960000Y-99060000D02*
X60960000Y-101600000D01*
X60960000Y-101600000D02*
X63500000Y-104140000D01*
X63500000Y-104140000D02*
X77470000Y-104140000D01*
X87630000Y-93980000D02*
X87630000Y-88495001D01*
X77470000Y-104140000D02*
X87630000Y-93980000D01*
X33020000Y-57150000D02*
X53340000Y-36830000D01*
X33020000Y-62230000D02*
X33020000Y-57150000D01*
X53340000Y-36830000D02*
X60960000Y-36830000D01*
X29210000Y-62230000D02*
X33020000Y-62230000D01*
X26670000Y-64770000D02*
X29210000Y-62230000D01*
X26670000Y-91440000D02*
X26670000Y-64770000D01*
X34290000Y-99060000D02*
X26670000Y-91440000D01*
X53340000Y-99060000D02*
X34290000Y-99060000D01*
X63500000Y-31750000D02*
X60960000Y-34290000D01*
X78232000Y-31750000D02*
X63500000Y-31750000D01*
X81280000Y-34798000D02*
X78232000Y-31750000D01*
X60960000Y-34290000D02*
X60960000Y-36830000D01*
X81280000Y-41280000D02*
X81280000Y-34798000D01*
X87630000Y-47630000D02*
X81280000Y-41280000D01*
X91562000Y-47630000D02*
X87630000Y-47630000D01*
X92964000Y-46228000D02*
X91562000Y-47630000D01*
X92964000Y-33020000D02*
X92964000Y-46228000D01*
X101092000Y-24892000D02*
X92964000Y-33020000D01*
X107696000Y-24892000D02*
X101092000Y-24892000D01*
X109220000Y-26416000D02*
X107696000Y-24892000D01*
X109220000Y-28940000D02*
X109220000Y-26416000D01*
X110744000Y-24892000D02*
X109220000Y-26416000D01*
X150368000Y-24892000D02*
X110744000Y-24892000D01*
X151384000Y-25908000D02*
X150368000Y-24892000D01*
X151384000Y-28940000D02*
X151384000Y-25908000D01*
%TO.N,Net-(C4-Pad1)*%
X139192000Y-67056000D02*
X139700000Y-66548000D01*
X139192000Y-77216000D02*
X139192000Y-67056000D01*
X160528000Y-70612000D02*
X147828000Y-70612000D01*
X143764000Y-66548000D02*
X139700000Y-66548000D01*
X147828000Y-70612000D02*
X143764000Y-66548000D01*
%TO.N,/L2*%
X160528000Y-65532000D02*
X151384000Y-65532000D01*
X151384000Y-65532000D02*
X146812000Y-60960000D01*
X146812000Y-60960000D02*
X137668000Y-60960000D01*
X135392000Y-63236000D02*
X135392000Y-77216000D01*
X137668000Y-60960000D02*
X135392000Y-63236000D01*
X135392000Y-77216000D02*
X135392000Y-85608000D01*
X151384000Y-101600000D02*
X151384000Y-107188000D01*
X135392000Y-85608000D02*
X151384000Y-101600000D01*
X160528000Y-35544000D02*
X153924000Y-28940000D01*
X160528000Y-65532000D02*
X160528000Y-35544000D01*
D25*
%TO.N,/PWM1*%
X30480000Y-86360000D02*
X33020000Y-88900000D01*
X30480000Y-76200000D02*
X30480000Y-86360000D01*
X33020000Y-73660000D02*
X30480000Y-76200000D01*
X41910000Y-68580000D02*
X36830000Y-73660000D01*
X41910000Y-57150000D02*
X41910000Y-68580000D01*
X36830000Y-73660000D02*
X33020000Y-73660000D01*
X57785000Y-41275000D02*
X41910000Y-57150000D01*
X62465000Y-41275000D02*
X57785000Y-41275000D01*
X67310000Y-36430000D02*
X62465000Y-41275000D01*
%TO.N,/PWM2*%
X38500000Y-89300000D02*
X67310000Y-89300000D01*
X33020000Y-83820000D02*
X38500000Y-89300000D01*
%TO.N,/PFET1*%
X65600000Y-52510000D02*
X67310000Y-52510000D01*
X60960000Y-57150000D02*
X65600000Y-52510000D01*
X71755000Y-50165000D02*
X71755000Y-46590000D01*
X69410000Y-52510000D02*
X71755000Y-50165000D01*
X67310000Y-52510000D02*
X69410000Y-52510000D01*
X69615000Y-44450000D02*
X71755000Y-46590000D01*
X49530000Y-62230000D02*
X49530000Y-53975000D01*
X79824998Y-66675000D02*
X53975000Y-66675000D01*
X49530000Y-53975000D02*
X59055000Y-44450000D01*
X90267999Y-56231999D02*
X79824998Y-66675000D01*
X96676001Y-56231999D02*
X90267999Y-56231999D01*
X53975000Y-66675000D02*
X49530000Y-62230000D01*
X103124000Y-32496000D02*
X103124000Y-49784000D01*
X59055000Y-44450000D02*
X69615000Y-44450000D01*
X103124000Y-49784000D02*
X96676001Y-56231999D01*
X106680000Y-28940000D02*
X103124000Y-32496000D01*
%TO.N,Net-(Q1-Pad2)*%
X57150000Y-56750000D02*
X67310000Y-46590000D01*
X57150000Y-58420000D02*
X57150000Y-56750000D01*
X59690000Y-60960000D02*
X57150000Y-58420000D01*
X61400000Y-60960000D02*
X59690000Y-60960000D01*
X67310000Y-55050000D02*
X61400000Y-60960000D01*
%TO.N,Net-(Q2-Pad2)*%
X71755000Y-36430000D02*
X71755000Y-40005000D01*
X71755000Y-40005000D02*
X78740000Y-46990000D01*
X78740000Y-46990000D02*
X78740000Y-53340000D01*
X77030000Y-55050000D02*
X76200000Y-55050000D01*
X78740000Y-53340000D02*
X77030000Y-55050000D01*
%TO.N,/NFET2*%
X74490000Y-52510000D02*
X76200000Y-52510000D01*
X72390000Y-54610000D02*
X74490000Y-52510000D01*
X70485000Y-63500000D02*
X72390000Y-61595000D01*
X57150000Y-63500000D02*
X70485000Y-63500000D01*
X72390000Y-61595000D02*
X72390000Y-54610000D01*
X53340000Y-59690000D02*
X57150000Y-63500000D01*
X53340000Y-57150000D02*
X53340000Y-59690000D01*
X78740000Y-61595000D02*
X72390000Y-61595000D01*
X104140000Y-61468000D02*
X94488000Y-61468000D01*
X104648000Y-61976000D02*
X104140000Y-61468000D01*
X113792000Y-81280000D02*
X113792000Y-61976000D01*
X142748000Y-110236000D02*
X113792000Y-81280000D01*
X152908000Y-110236000D02*
X142748000Y-110236000D01*
X153924000Y-109220000D02*
X152908000Y-110236000D01*
X153924000Y-107188000D02*
X153924000Y-109220000D01*
%TO.N,/PFET2*%
X61400000Y-78300000D02*
X60960000Y-78740000D01*
X67310000Y-78300000D02*
X61400000Y-78300000D01*
X69410000Y-78300000D02*
X67310000Y-78300000D01*
X72390000Y-81280000D02*
X69410000Y-78300000D01*
X72390000Y-89300000D02*
X72390000Y-81280000D01*
X60960000Y-78740000D02*
X55372000Y-84328000D01*
X55372000Y-84328000D02*
X49784000Y-84328000D01*
X49784000Y-84328000D02*
X45212000Y-79756000D01*
X45212000Y-79756000D02*
X45212000Y-74168000D01*
X45212000Y-74168000D02*
X47244000Y-72136000D01*
X47244000Y-72136000D02*
X87884000Y-72136000D01*
X87884000Y-72136000D02*
X87884000Y-64008000D01*
X87884000Y-64008000D02*
X92964000Y-58928000D01*
X92964000Y-58928000D02*
X104648000Y-58928000D01*
X118856000Y-58928000D02*
X148844000Y-28940000D01*
X113792000Y-58928000D02*
X118856000Y-58928000D01*
%TO.N,Net-(Q3-Pad2)*%
X68140000Y-80840000D02*
X67310000Y-80840000D01*
X69850000Y-82550000D02*
X68140000Y-80840000D01*
X69850000Y-91440000D02*
X69850000Y-82550000D01*
X67310000Y-93980000D02*
X69850000Y-91440000D01*
X67310000Y-99460000D02*
X67310000Y-93980000D01*
%TO.N,Net-(Q4-Pad2)*%
X78300000Y-80840000D02*
X76200000Y-80840000D01*
X79375000Y-81915000D02*
X78300000Y-80840000D01*
X79375000Y-88265000D02*
X79375000Y-81915000D01*
X72390000Y-95250000D02*
X79375000Y-88265000D01*
X72390000Y-99460000D02*
X72390000Y-95250000D01*
%TO.N,/NFET1*%
X53340000Y-78740000D02*
X57150000Y-74930000D01*
X72830000Y-74930000D02*
X76200000Y-78300000D01*
X57150000Y-74930000D02*
X72830000Y-74930000D01*
X87444000Y-78300000D02*
X76200000Y-78300000D01*
X92456000Y-83312000D02*
X87444000Y-78300000D01*
X92456000Y-95348502D02*
X92456000Y-83312000D01*
X103632000Y-106524502D02*
X92456000Y-95348502D01*
X103632000Y-109220000D02*
X103632000Y-106524502D01*
X103632000Y-109220000D02*
X104648000Y-110236000D01*
X104648000Y-110236000D02*
X110744000Y-110236000D01*
X110744000Y-110236000D02*
X111760000Y-109220000D01*
X111760000Y-109220000D02*
X111760000Y-107188000D01*
D24*
%TO.N,/L1*%
X109220000Y-107188000D02*
X109220000Y-39624000D01*
X111760000Y-37084000D02*
X111760000Y-28940000D01*
X109220000Y-39624000D02*
X111760000Y-37084000D01*
%TD*%
D26*
%TO.N,GND*%
G36*
X165481000Y-111633000D02*
G01*
X23495000Y-111633000D01*
X23495000Y-107486509D01*
X25305000Y-107486509D01*
X25305000Y-107905491D01*
X25386739Y-108316423D01*
X25547077Y-108703512D01*
X25779851Y-109051884D01*
X26076116Y-109348149D01*
X26424488Y-109580923D01*
X26811577Y-109741261D01*
X27222509Y-109823000D01*
X27641491Y-109823000D01*
X28052423Y-109741261D01*
X28439512Y-109580923D01*
X28787884Y-109348149D01*
X29084149Y-109051884D01*
X29316923Y-108703512D01*
X29477261Y-108316423D01*
X29559000Y-107905491D01*
X29559000Y-107486509D01*
X29477261Y-107075577D01*
X29316923Y-106688488D01*
X29084149Y-106340116D01*
X28787884Y-106043851D01*
X28439512Y-105811077D01*
X28052423Y-105650739D01*
X27641491Y-105569000D01*
X27222509Y-105569000D01*
X26811577Y-105650739D01*
X26424488Y-105811077D01*
X26076116Y-106043851D01*
X25779851Y-106340116D01*
X25547077Y-106688488D01*
X25386739Y-107075577D01*
X25305000Y-107486509D01*
X23495000Y-107486509D01*
X23495000Y-64770000D01*
X25135613Y-64770000D01*
X25143001Y-64845011D01*
X25143000Y-91364999D01*
X25135613Y-91440000D01*
X25143000Y-91515001D01*
X25143000Y-91515010D01*
X25165095Y-91739343D01*
X25252410Y-92027184D01*
X25394203Y-92292459D01*
X25585024Y-92524976D01*
X25643294Y-92572797D01*
X33157208Y-100086712D01*
X33205024Y-100144976D01*
X33437540Y-100335797D01*
X33702815Y-100477590D01*
X33990656Y-100564905D01*
X34214989Y-100587000D01*
X34214998Y-100587000D01*
X34289999Y-100594387D01*
X34365000Y-100587000D01*
X52516800Y-100587000D01*
X52521959Y-100590447D01*
X52836253Y-100720632D01*
X53169905Y-100787000D01*
X53510095Y-100787000D01*
X53843747Y-100720632D01*
X54158041Y-100590447D01*
X54163200Y-100587000D01*
X59433001Y-100587000D01*
X59433001Y-101524989D01*
X59425613Y-101600000D01*
X59433001Y-101675011D01*
X59455096Y-101899344D01*
X59542411Y-102187185D01*
X59684204Y-102452460D01*
X59875025Y-102684976D01*
X59933289Y-102732792D01*
X62367208Y-105166712D01*
X62415024Y-105224976D01*
X62647540Y-105415797D01*
X62912815Y-105557590D01*
X63200656Y-105644905D01*
X63424989Y-105667000D01*
X63424998Y-105667000D01*
X63499999Y-105674387D01*
X63575000Y-105667000D01*
X77394999Y-105667000D01*
X77470000Y-105674387D01*
X77545001Y-105667000D01*
X77545011Y-105667000D01*
X77769344Y-105644905D01*
X78057185Y-105557590D01*
X78322460Y-105415797D01*
X78554976Y-105224976D01*
X78602797Y-105166706D01*
X88656713Y-95112791D01*
X88714976Y-95064976D01*
X88905797Y-94832460D01*
X89047590Y-94567185D01*
X89071634Y-94487922D01*
X89134905Y-94279345D01*
X89137594Y-94252045D01*
X89157000Y-94055011D01*
X89157000Y-94055004D01*
X89164387Y-93980000D01*
X89157000Y-93904996D01*
X89157000Y-91024550D01*
X89630000Y-91024550D01*
X89733310Y-91014375D01*
X89832650Y-90984240D01*
X89924202Y-90935305D01*
X90004448Y-90869449D01*
X90070304Y-90789203D01*
X90119239Y-90697651D01*
X90149374Y-90598311D01*
X90159549Y-90495001D01*
X90159549Y-86495001D01*
X90149374Y-86391691D01*
X90119239Y-86292351D01*
X90070304Y-86200799D01*
X90004448Y-86120553D01*
X89924202Y-86054697D01*
X89832650Y-86005762D01*
X89733310Y-85975627D01*
X89630000Y-85965452D01*
X85630000Y-85965452D01*
X85526690Y-85975627D01*
X85427350Y-86005762D01*
X85335798Y-86054697D01*
X85255552Y-86120553D01*
X85189696Y-86200799D01*
X85140761Y-86292351D01*
X85110626Y-86391691D01*
X85100451Y-86495001D01*
X85100451Y-90495001D01*
X85110626Y-90598311D01*
X85140761Y-90697651D01*
X85189696Y-90789203D01*
X85255552Y-90869449D01*
X85335798Y-90935305D01*
X85427350Y-90984240D01*
X85526690Y-91014375D01*
X85630000Y-91024550D01*
X86103001Y-91024550D01*
X86103000Y-93347496D01*
X76837497Y-102613000D01*
X64132504Y-102613000D01*
X62487000Y-100967497D01*
X62487000Y-99883200D01*
X62490447Y-99878041D01*
X62620632Y-99563747D01*
X62687000Y-99230095D01*
X62687000Y-98889905D01*
X62620632Y-98556253D01*
X62490447Y-98241959D01*
X62301448Y-97959102D01*
X62060898Y-97718552D01*
X61778041Y-97529553D01*
X61463747Y-97399368D01*
X61130095Y-97333000D01*
X60789905Y-97333000D01*
X60456253Y-97399368D01*
X60141959Y-97529553D01*
X60136800Y-97533000D01*
X54163200Y-97533000D01*
X54158041Y-97529553D01*
X53843747Y-97399368D01*
X53510095Y-97333000D01*
X53169905Y-97333000D01*
X52836253Y-97399368D01*
X52521959Y-97529553D01*
X52516800Y-97533000D01*
X34922504Y-97533000D01*
X28197000Y-90807497D01*
X28197000Y-76200000D01*
X29548516Y-76200000D01*
X29553000Y-76245527D01*
X29553001Y-86314463D01*
X29548516Y-86360000D01*
X29566414Y-86541723D01*
X29619420Y-86716463D01*
X29705499Y-86877505D01*
X29792312Y-86983287D01*
X29792317Y-86983292D01*
X29821342Y-87018659D01*
X29856708Y-87047683D01*
X30990451Y-88181426D01*
X30990451Y-90400000D01*
X31000626Y-90503310D01*
X31030761Y-90602650D01*
X31079696Y-90694202D01*
X31145552Y-90774448D01*
X31225798Y-90840304D01*
X31317350Y-90889239D01*
X31416690Y-90919374D01*
X31520000Y-90929549D01*
X34520000Y-90929549D01*
X34623310Y-90919374D01*
X34722650Y-90889239D01*
X34814202Y-90840304D01*
X34894448Y-90774448D01*
X34960304Y-90694202D01*
X35009239Y-90602650D01*
X35039374Y-90503310D01*
X35049549Y-90400000D01*
X35049549Y-87400000D01*
X35039374Y-87296690D01*
X35009239Y-87197350D01*
X34960304Y-87105798D01*
X34894448Y-87025552D01*
X34814202Y-86959696D01*
X34722650Y-86910761D01*
X34623310Y-86880626D01*
X34520000Y-86870451D01*
X32301426Y-86870451D01*
X31407000Y-85976025D01*
X31407000Y-85054479D01*
X31445526Y-85112137D01*
X31727863Y-85394474D01*
X32059855Y-85616304D01*
X32428746Y-85769104D01*
X32820358Y-85847000D01*
X33219642Y-85847000D01*
X33611254Y-85769104D01*
X33644400Y-85755375D01*
X37812312Y-89923287D01*
X37841341Y-89958659D01*
X37876712Y-89987687D01*
X37982494Y-90074501D01*
X38068573Y-90120511D01*
X38143536Y-90160580D01*
X38318276Y-90213587D01*
X38454462Y-90227000D01*
X38454474Y-90227000D01*
X38499999Y-90231484D01*
X38545524Y-90227000D01*
X66027081Y-90227000D01*
X66117752Y-90396634D01*
X66296078Y-90613923D01*
X66513367Y-90792248D01*
X66761270Y-90924755D01*
X67030260Y-91006352D01*
X67310000Y-91033904D01*
X67589741Y-91006352D01*
X67858731Y-90924755D01*
X68106634Y-90792248D01*
X68323923Y-90613923D01*
X68502248Y-90396634D01*
X68634755Y-90148731D01*
X68716352Y-89879740D01*
X68737000Y-89670097D01*
X68737000Y-88929902D01*
X68716352Y-88720259D01*
X68634755Y-88451269D01*
X68502248Y-88203366D01*
X68323922Y-87986077D01*
X68106633Y-87807752D01*
X67858730Y-87675245D01*
X67589740Y-87593648D01*
X67310000Y-87566096D01*
X67030259Y-87593648D01*
X66761269Y-87675245D01*
X66513366Y-87807752D01*
X66296077Y-87986078D01*
X66117752Y-88203367D01*
X66027081Y-88373000D01*
X38883975Y-88373000D01*
X34955375Y-84444400D01*
X34969104Y-84411254D01*
X35047000Y-84019642D01*
X35047000Y-83620358D01*
X34969104Y-83228746D01*
X34816304Y-82859855D01*
X34594474Y-82527863D01*
X34312137Y-82245526D01*
X33980145Y-82023696D01*
X33611254Y-81870896D01*
X33219642Y-81793000D01*
X32820358Y-81793000D01*
X32428746Y-81870896D01*
X32059855Y-82023696D01*
X31727863Y-82245526D01*
X31445526Y-82527863D01*
X31407000Y-82585521D01*
X31407000Y-80231653D01*
X31707952Y-80231653D01*
X31863962Y-80547214D01*
X32238745Y-80738020D01*
X32643551Y-80852044D01*
X33062824Y-80884902D01*
X33480451Y-80835334D01*
X33880383Y-80705243D01*
X34176038Y-80547214D01*
X34332048Y-80231653D01*
X33020000Y-78919605D01*
X31707952Y-80231653D01*
X31407000Y-80231653D01*
X31407000Y-79992055D01*
X31528347Y-80052048D01*
X32840395Y-78740000D01*
X33199605Y-78740000D01*
X34511653Y-80052048D01*
X34827214Y-79896038D01*
X35018020Y-79521255D01*
X35132044Y-79116449D01*
X35164902Y-78697176D01*
X35115334Y-78279549D01*
X34985243Y-77879617D01*
X34827214Y-77583962D01*
X34511653Y-77427952D01*
X33199605Y-78740000D01*
X32840395Y-78740000D01*
X31528347Y-77427952D01*
X31407000Y-77487945D01*
X31407000Y-77248347D01*
X31707952Y-77248347D01*
X33020000Y-78560395D01*
X34332048Y-77248347D01*
X34176038Y-76932786D01*
X33801255Y-76741980D01*
X33396449Y-76627956D01*
X32977176Y-76595098D01*
X32559549Y-76644666D01*
X32159617Y-76774757D01*
X31863962Y-76932786D01*
X31707952Y-77248347D01*
X31407000Y-77248347D01*
X31407000Y-76583975D01*
X33403976Y-74587000D01*
X36784473Y-74587000D01*
X36830000Y-74591484D01*
X36875527Y-74587000D01*
X36875538Y-74587000D01*
X37011724Y-74573587D01*
X37186464Y-74520580D01*
X37347505Y-74434501D01*
X37488659Y-74318659D01*
X37517688Y-74283287D01*
X37632975Y-74168000D01*
X44280516Y-74168000D01*
X44285001Y-74213537D01*
X44285000Y-79710473D01*
X44280516Y-79756000D01*
X44285000Y-79801527D01*
X44285000Y-79801537D01*
X44298413Y-79937723D01*
X44337174Y-80065499D01*
X44351420Y-80112463D01*
X44437499Y-80273505D01*
X44524312Y-80379287D01*
X44553341Y-80414659D01*
X44588713Y-80443688D01*
X49096316Y-84951292D01*
X49125341Y-84986659D01*
X49160708Y-85015684D01*
X49160711Y-85015687D01*
X49266494Y-85102501D01*
X49352573Y-85148511D01*
X49427536Y-85188580D01*
X49602276Y-85241587D01*
X49738462Y-85255000D01*
X49738474Y-85255000D01*
X49783999Y-85259484D01*
X49829524Y-85255000D01*
X55326473Y-85255000D01*
X55372000Y-85259484D01*
X55417527Y-85255000D01*
X55417538Y-85255000D01*
X55553724Y-85241587D01*
X55728464Y-85188580D01*
X55889505Y-85102501D01*
X56030659Y-84986659D01*
X56059688Y-84951287D01*
X57281936Y-83729039D01*
X65518096Y-83729039D01*
X65535633Y-83811818D01*
X65646285Y-84071646D01*
X65805500Y-84304895D01*
X66007161Y-84502601D01*
X66243517Y-84657166D01*
X66505486Y-84762650D01*
X66783000Y-84815000D01*
X67183000Y-84815000D01*
X67183000Y-83507000D01*
X65640085Y-83507000D01*
X65518096Y-83729039D01*
X57281936Y-83729039D01*
X60584778Y-80426197D01*
X60789905Y-80467000D01*
X61130095Y-80467000D01*
X61463747Y-80400632D01*
X61778041Y-80270447D01*
X62060898Y-80081448D01*
X62301448Y-79840898D01*
X62490447Y-79558041D01*
X62620632Y-79243747D01*
X62623963Y-79227000D01*
X65954106Y-79227000D01*
X65967130Y-79242870D01*
X66169192Y-79408698D01*
X66399722Y-79531919D01*
X66525257Y-79570000D01*
X66399722Y-79608081D01*
X66169192Y-79731302D01*
X65967130Y-79897130D01*
X65801302Y-80099192D01*
X65678081Y-80329722D01*
X65602201Y-80579863D01*
X65576580Y-80840000D01*
X65602201Y-81100137D01*
X65678081Y-81350278D01*
X65801302Y-81580808D01*
X65967130Y-81782870D01*
X66169192Y-81948698D01*
X66365596Y-82053678D01*
X66243517Y-82102834D01*
X66007161Y-82257399D01*
X65805500Y-82455105D01*
X65646285Y-82688354D01*
X65535633Y-82948182D01*
X65518096Y-83030961D01*
X65640085Y-83253000D01*
X67183000Y-83253000D01*
X67183000Y-83233000D01*
X67437000Y-83233000D01*
X67437000Y-83253000D01*
X67457000Y-83253000D01*
X67457000Y-83507000D01*
X67437000Y-83507000D01*
X67437000Y-84815000D01*
X67837000Y-84815000D01*
X68114514Y-84762650D01*
X68376483Y-84657166D01*
X68612839Y-84502601D01*
X68814500Y-84304895D01*
X68923001Y-84145942D01*
X68923000Y-91056024D01*
X66686708Y-93292317D01*
X66651342Y-93321341D01*
X66622317Y-93356708D01*
X66622312Y-93356713D01*
X66535499Y-93462495D01*
X66449420Y-93623537D01*
X66396414Y-93798277D01*
X66378516Y-93980000D01*
X66383001Y-94025537D01*
X66383000Y-98074741D01*
X66296077Y-98146078D01*
X66117752Y-98363367D01*
X65985245Y-98611270D01*
X65903648Y-98880260D01*
X65883000Y-99089903D01*
X65883000Y-99830098D01*
X65903648Y-100039741D01*
X65985245Y-100308731D01*
X66117752Y-100556634D01*
X66296078Y-100773923D01*
X66513367Y-100952248D01*
X66761270Y-101084755D01*
X67030260Y-101166352D01*
X67310000Y-101193904D01*
X67589741Y-101166352D01*
X67858731Y-101084755D01*
X68106634Y-100952248D01*
X68323923Y-100773923D01*
X68502248Y-100556634D01*
X68634755Y-100308731D01*
X68716352Y-100039740D01*
X68737000Y-99830097D01*
X68737000Y-99089902D01*
X68716352Y-98880259D01*
X68634755Y-98611269D01*
X68502248Y-98363366D01*
X68323922Y-98146077D01*
X68237000Y-98074742D01*
X68237000Y-94363975D01*
X70473293Y-92127683D01*
X70508659Y-92098659D01*
X70537684Y-92063292D01*
X70537687Y-92063289D01*
X70624501Y-91957506D01*
X70710579Y-91796465D01*
X70710580Y-91796464D01*
X70763587Y-91621724D01*
X70777000Y-91485538D01*
X70777000Y-91485526D01*
X70781484Y-91440001D01*
X70777000Y-91394476D01*
X70777000Y-82595526D01*
X70781484Y-82549999D01*
X70777000Y-82504472D01*
X70777000Y-82504462D01*
X70763587Y-82368276D01*
X70710580Y-82193536D01*
X70636264Y-82054501D01*
X70624501Y-82032494D01*
X70537688Y-81926712D01*
X70537684Y-81926708D01*
X70508659Y-81891341D01*
X70473292Y-81862316D01*
X68942451Y-80331476D01*
X68941919Y-80329722D01*
X68818698Y-80099192D01*
X68652870Y-79897130D01*
X68450808Y-79731302D01*
X68220278Y-79608081D01*
X68094743Y-79570000D01*
X68220278Y-79531919D01*
X68450808Y-79408698D01*
X68652870Y-79242870D01*
X68665894Y-79227000D01*
X69026025Y-79227000D01*
X71463001Y-81663977D01*
X71463000Y-87914741D01*
X71376077Y-87986078D01*
X71197752Y-88203367D01*
X71065245Y-88451270D01*
X70983648Y-88720260D01*
X70963000Y-88929903D01*
X70963000Y-89670098D01*
X70983648Y-89879741D01*
X71065245Y-90148731D01*
X71197752Y-90396634D01*
X71376078Y-90613923D01*
X71593367Y-90792248D01*
X71841270Y-90924755D01*
X72110260Y-91006352D01*
X72390000Y-91033904D01*
X72669741Y-91006352D01*
X72938731Y-90924755D01*
X73186634Y-90792248D01*
X73403923Y-90613923D01*
X73582248Y-90396634D01*
X73714755Y-90148731D01*
X73796352Y-89879740D01*
X73817000Y-89670097D01*
X73817000Y-88929902D01*
X73796352Y-88720259D01*
X73714755Y-88451269D01*
X73582248Y-88203366D01*
X73403922Y-87986077D01*
X73317000Y-87914742D01*
X73317000Y-83729039D01*
X74408096Y-83729039D01*
X74425633Y-83811818D01*
X74536285Y-84071646D01*
X74695500Y-84304895D01*
X74897161Y-84502601D01*
X75133517Y-84657166D01*
X75395486Y-84762650D01*
X75673000Y-84815000D01*
X76073000Y-84815000D01*
X76073000Y-83507000D01*
X76327000Y-83507000D01*
X76327000Y-84815000D01*
X76727000Y-84815000D01*
X77004514Y-84762650D01*
X77266483Y-84657166D01*
X77502839Y-84502601D01*
X77704500Y-84304895D01*
X77863715Y-84071646D01*
X77974367Y-83811818D01*
X77991904Y-83729039D01*
X77869915Y-83507000D01*
X76327000Y-83507000D01*
X76073000Y-83507000D01*
X74530085Y-83507000D01*
X74408096Y-83729039D01*
X73317000Y-83729039D01*
X73317000Y-81325524D01*
X73321484Y-81279999D01*
X73317000Y-81234474D01*
X73317000Y-81234462D01*
X73303587Y-81098276D01*
X73250580Y-80923536D01*
X73203435Y-80835334D01*
X73164501Y-80762494D01*
X73077687Y-80656711D01*
X73077684Y-80656708D01*
X73048659Y-80621341D01*
X73013292Y-80592316D01*
X70097687Y-77676712D01*
X70068659Y-77641341D01*
X69927505Y-77525499D01*
X69766464Y-77439420D01*
X69591724Y-77386413D01*
X69455538Y-77373000D01*
X69455527Y-77373000D01*
X69410000Y-77368516D01*
X69364473Y-77373000D01*
X68665894Y-77373000D01*
X68652870Y-77357130D01*
X68450808Y-77191302D01*
X68220278Y-77068081D01*
X67970137Y-76992201D01*
X67775184Y-76973000D01*
X66844816Y-76973000D01*
X66649863Y-76992201D01*
X66399722Y-77068081D01*
X66169192Y-77191302D01*
X65967130Y-77357130D01*
X65954106Y-77373000D01*
X62022657Y-77373000D01*
X61778041Y-77209553D01*
X61463747Y-77079368D01*
X61130095Y-77013000D01*
X60789905Y-77013000D01*
X60456253Y-77079368D01*
X60141959Y-77209553D01*
X59859102Y-77398552D01*
X59618552Y-77639102D01*
X59429553Y-77921959D01*
X59299368Y-78236253D01*
X59233000Y-78569905D01*
X59233000Y-78910095D01*
X59273803Y-79115222D01*
X54988025Y-83401000D01*
X50167976Y-83401000D01*
X46139000Y-79372025D01*
X46139000Y-74551975D01*
X47627976Y-73063000D01*
X87838462Y-73063000D01*
X87884000Y-73067485D01*
X87929537Y-73063000D01*
X87929538Y-73063000D01*
X88065724Y-73049587D01*
X88240464Y-72996580D01*
X88401505Y-72910501D01*
X88542659Y-72794659D01*
X88658501Y-72653505D01*
X88744580Y-72492464D01*
X88797587Y-72317724D01*
X88815485Y-72136000D01*
X88811000Y-72090462D01*
X88811000Y-64391975D01*
X93347976Y-59855000D01*
X103430894Y-59855000D01*
X103461901Y-59901406D01*
X103674594Y-60114099D01*
X103924694Y-60281210D01*
X104202590Y-60396319D01*
X104482522Y-60452000D01*
X104202590Y-60507681D01*
X104130786Y-60537424D01*
X104094473Y-60541000D01*
X95705106Y-60541000D01*
X95674099Y-60494594D01*
X95461406Y-60281901D01*
X95211306Y-60114790D01*
X94933410Y-59999681D01*
X94638396Y-59941000D01*
X94337604Y-59941000D01*
X94042590Y-59999681D01*
X93764694Y-60114790D01*
X93514594Y-60281901D01*
X93301901Y-60494594D01*
X93134790Y-60744694D01*
X93019681Y-61022590D01*
X92961000Y-61317604D01*
X92961000Y-61618396D01*
X93019681Y-61913410D01*
X93134790Y-62191306D01*
X93301901Y-62441406D01*
X93514594Y-62654099D01*
X93764694Y-62821210D01*
X94042590Y-62936319D01*
X94337604Y-62995000D01*
X94638396Y-62995000D01*
X94933410Y-62936319D01*
X95211306Y-62821210D01*
X95461406Y-62654099D01*
X95674099Y-62441406D01*
X95705106Y-62395000D01*
X103174428Y-62395000D01*
X103179681Y-62421410D01*
X103294790Y-62699306D01*
X103461901Y-62949406D01*
X103674594Y-63162099D01*
X103924694Y-63329210D01*
X104202590Y-63444319D01*
X104497604Y-63503000D01*
X104798396Y-63503000D01*
X105093410Y-63444319D01*
X105371306Y-63329210D01*
X105621406Y-63162099D01*
X105834099Y-62949406D01*
X106001210Y-62699306D01*
X106116319Y-62421410D01*
X106175000Y-62126396D01*
X106175000Y-61825604D01*
X106116319Y-61530590D01*
X106001210Y-61252694D01*
X105834099Y-61002594D01*
X105621406Y-60789901D01*
X105371306Y-60622790D01*
X105093410Y-60507681D01*
X104813478Y-60452000D01*
X105093410Y-60396319D01*
X105371306Y-60281210D01*
X105621406Y-60114099D01*
X105834099Y-59901406D01*
X106001210Y-59651306D01*
X106116319Y-59373410D01*
X106175000Y-59078396D01*
X106175000Y-58777604D01*
X106116319Y-58482590D01*
X106001210Y-58204694D01*
X105834099Y-57954594D01*
X105621406Y-57741901D01*
X105371306Y-57574790D01*
X105093410Y-57459681D01*
X104798396Y-57401000D01*
X104497604Y-57401000D01*
X104202590Y-57459681D01*
X103924694Y-57574790D01*
X103674594Y-57741901D01*
X103461901Y-57954594D01*
X103430894Y-58001000D01*
X93009527Y-58001000D01*
X92964000Y-57996516D01*
X92918473Y-58001000D01*
X92918462Y-58001000D01*
X92782276Y-58014413D01*
X92620175Y-58063586D01*
X92607536Y-58067420D01*
X92446494Y-58153499D01*
X92340712Y-58240312D01*
X92340708Y-58240316D01*
X92305341Y-58269341D01*
X92276316Y-58304708D01*
X87260709Y-63320316D01*
X87225342Y-63349341D01*
X87196317Y-63384708D01*
X87196312Y-63384713D01*
X87109499Y-63490495D01*
X87023420Y-63651537D01*
X86970414Y-63826277D01*
X86952516Y-64008000D01*
X86957001Y-64053537D01*
X86957000Y-71209000D01*
X47289527Y-71209000D01*
X47244000Y-71204516D01*
X47198473Y-71209000D01*
X47198462Y-71209000D01*
X47062276Y-71222413D01*
X46887536Y-71275420D01*
X46726494Y-71361499D01*
X46620712Y-71448312D01*
X46620708Y-71448316D01*
X46585341Y-71477341D01*
X46556316Y-71512708D01*
X44588708Y-73480317D01*
X44553342Y-73509341D01*
X44524317Y-73544708D01*
X44524312Y-73544713D01*
X44437499Y-73650495D01*
X44351420Y-73811537D01*
X44314493Y-73933270D01*
X44298414Y-73986276D01*
X44296767Y-74003000D01*
X44280516Y-74168000D01*
X37632975Y-74168000D01*
X42533292Y-69267684D01*
X42568659Y-69238659D01*
X42597684Y-69203292D01*
X42597688Y-69203288D01*
X42684501Y-69097506D01*
X42770580Y-68936464D01*
X42823587Y-68761724D01*
X42837000Y-68625538D01*
X42837000Y-68625527D01*
X42841484Y-68580000D01*
X42837000Y-68534473D01*
X42837000Y-57533975D01*
X58168976Y-42202000D01*
X62419473Y-42202000D01*
X62465000Y-42206484D01*
X62510527Y-42202000D01*
X62510538Y-42202000D01*
X62646724Y-42188587D01*
X62821464Y-42135580D01*
X62982505Y-42049501D01*
X63123659Y-41933659D01*
X63152688Y-41898287D01*
X66941537Y-38109438D01*
X67030260Y-38136352D01*
X67310000Y-38163904D01*
X67589741Y-38136352D01*
X67858731Y-38054755D01*
X68106634Y-37922248D01*
X68323923Y-37743923D01*
X68502248Y-37526634D01*
X68634755Y-37278731D01*
X68716352Y-37009740D01*
X68737000Y-36800097D01*
X68737000Y-36059902D01*
X68716352Y-35850259D01*
X68634755Y-35581269D01*
X68502248Y-35333366D01*
X68323922Y-35116077D01*
X68106633Y-34937752D01*
X67858730Y-34805245D01*
X67589740Y-34723648D01*
X67310000Y-34696096D01*
X67030259Y-34723648D01*
X66761269Y-34805245D01*
X66513366Y-34937752D01*
X66296077Y-35116078D01*
X66117752Y-35333367D01*
X65985245Y-35581270D01*
X65903648Y-35850260D01*
X65883000Y-36059903D01*
X65883000Y-36546024D01*
X62081025Y-40348000D01*
X57830524Y-40348000D01*
X57784999Y-40343516D01*
X57739474Y-40348000D01*
X57739462Y-40348000D01*
X57603276Y-40361413D01*
X57428536Y-40414420D01*
X57353573Y-40454489D01*
X57267494Y-40500499D01*
X57161712Y-40587312D01*
X57161708Y-40587316D01*
X57126341Y-40616341D01*
X57097316Y-40651708D01*
X41286713Y-56462312D01*
X41251341Y-56491341D01*
X41222313Y-56526712D01*
X41222312Y-56526713D01*
X41135499Y-56632495D01*
X41118069Y-56665105D01*
X41049420Y-56793537D01*
X40996413Y-56968277D01*
X40983000Y-57104463D01*
X40983000Y-57104473D01*
X40978516Y-57150000D01*
X40983000Y-57195527D01*
X40983001Y-68196023D01*
X36446025Y-72733000D01*
X33065524Y-72733000D01*
X33019999Y-72728516D01*
X32974474Y-72733000D01*
X32974462Y-72733000D01*
X32838276Y-72746413D01*
X32663536Y-72799420D01*
X32588573Y-72839489D01*
X32502494Y-72885499D01*
X32396711Y-72972313D01*
X32396708Y-72972316D01*
X32361341Y-73001341D01*
X32332316Y-73036708D01*
X29856713Y-75512312D01*
X29821341Y-75541341D01*
X29792313Y-75576712D01*
X29792312Y-75576713D01*
X29705499Y-75682495D01*
X29690212Y-75711095D01*
X29619420Y-75843537D01*
X29566413Y-76018277D01*
X29553000Y-76154463D01*
X29553000Y-76154473D01*
X29548516Y-76200000D01*
X28197000Y-76200000D01*
X28197000Y-68801653D01*
X31707952Y-68801653D01*
X31863962Y-69117214D01*
X32238745Y-69308020D01*
X32643551Y-69422044D01*
X33062824Y-69454902D01*
X33480451Y-69405334D01*
X33880383Y-69275243D01*
X34176038Y-69117214D01*
X34332048Y-68801653D01*
X33020000Y-67489605D01*
X31707952Y-68801653D01*
X28197000Y-68801653D01*
X28197000Y-67352824D01*
X30875098Y-67352824D01*
X30924666Y-67770451D01*
X31054757Y-68170383D01*
X31212786Y-68466038D01*
X31528347Y-68622048D01*
X32840395Y-67310000D01*
X33199605Y-67310000D01*
X34511653Y-68622048D01*
X34827214Y-68466038D01*
X35018020Y-68091255D01*
X35132044Y-67686449D01*
X35164902Y-67267176D01*
X35115334Y-66849549D01*
X34985243Y-66449617D01*
X34827214Y-66153962D01*
X34511653Y-65997952D01*
X33199605Y-67310000D01*
X32840395Y-67310000D01*
X31528347Y-65997952D01*
X31212786Y-66153962D01*
X31021980Y-66528745D01*
X30907956Y-66933551D01*
X30875098Y-67352824D01*
X28197000Y-67352824D01*
X28197000Y-65818347D01*
X31707952Y-65818347D01*
X33020000Y-67130395D01*
X34332048Y-65818347D01*
X34176038Y-65502786D01*
X33801255Y-65311980D01*
X33396449Y-65197956D01*
X32977176Y-65165098D01*
X32559549Y-65214666D01*
X32159617Y-65344757D01*
X31863962Y-65502786D01*
X31707952Y-65818347D01*
X28197000Y-65818347D01*
X28197000Y-65402503D01*
X29842504Y-63757000D01*
X30993110Y-63757000D01*
X31000626Y-63833310D01*
X31030761Y-63932650D01*
X31079696Y-64024202D01*
X31145552Y-64104448D01*
X31225798Y-64170304D01*
X31317350Y-64219239D01*
X31416690Y-64249374D01*
X31520000Y-64259549D01*
X34520000Y-64259549D01*
X34623310Y-64249374D01*
X34722650Y-64219239D01*
X34814202Y-64170304D01*
X34894448Y-64104448D01*
X34960304Y-64024202D01*
X35009239Y-63932650D01*
X35039374Y-63833310D01*
X35049549Y-63730000D01*
X35049549Y-60730000D01*
X35039374Y-60626690D01*
X35009239Y-60527350D01*
X34960304Y-60435798D01*
X34894448Y-60355552D01*
X34814202Y-60289696D01*
X34722650Y-60240761D01*
X34623310Y-60210626D01*
X34547000Y-60203110D01*
X34547000Y-57782503D01*
X53837661Y-38491842D01*
X53843747Y-38490632D01*
X54158041Y-38360447D01*
X54163200Y-38357000D01*
X60136800Y-38357000D01*
X60141959Y-38360447D01*
X60456253Y-38490632D01*
X60789905Y-38557000D01*
X61130095Y-38557000D01*
X61463747Y-38490632D01*
X61778041Y-38360447D01*
X62060898Y-38171448D01*
X62301448Y-37930898D01*
X62490447Y-37648041D01*
X62620632Y-37333747D01*
X62687000Y-37000095D01*
X62687000Y-36659905D01*
X62620632Y-36326253D01*
X62490447Y-36011959D01*
X62487000Y-36006800D01*
X62487000Y-34922503D01*
X64132504Y-33277000D01*
X77599497Y-33277000D01*
X79753001Y-35430505D01*
X79753000Y-41204999D01*
X79745613Y-41280000D01*
X79753000Y-41355001D01*
X79753000Y-41355010D01*
X79775095Y-41579343D01*
X79862410Y-41867184D01*
X80004203Y-42132459D01*
X80195024Y-42364976D01*
X80253294Y-42412797D01*
X85100451Y-47259955D01*
X85100451Y-49630000D01*
X85110626Y-49733310D01*
X85140761Y-49832650D01*
X85189696Y-49924202D01*
X85255552Y-50004448D01*
X85335798Y-50070304D01*
X85427350Y-50119239D01*
X85526690Y-50149374D01*
X85630000Y-50159549D01*
X89630000Y-50159549D01*
X89733310Y-50149374D01*
X89832650Y-50119239D01*
X89924202Y-50070304D01*
X90004448Y-50004448D01*
X90070304Y-49924202D01*
X90119239Y-49832650D01*
X90149374Y-49733310D01*
X90159549Y-49630000D01*
X90159549Y-49477499D01*
X95962106Y-49477499D01*
X96178228Y-49844258D01*
X96638105Y-50084938D01*
X97136098Y-50231275D01*
X97653071Y-50277648D01*
X98169159Y-50222273D01*
X98664526Y-50067279D01*
X99081772Y-49844258D01*
X99297894Y-49477499D01*
X97630000Y-47809605D01*
X95962106Y-49477499D01*
X90159549Y-49477499D01*
X90159549Y-49157000D01*
X91486999Y-49157000D01*
X91562000Y-49164387D01*
X91637001Y-49157000D01*
X91637011Y-49157000D01*
X91861344Y-49134905D01*
X92149185Y-49047590D01*
X92414460Y-48905797D01*
X92646976Y-48714976D01*
X92694796Y-48656707D01*
X93698432Y-47653071D01*
X94982352Y-47653071D01*
X95037727Y-48169159D01*
X95192721Y-48664526D01*
X95415742Y-49081772D01*
X95782501Y-49297894D01*
X97450395Y-47630000D01*
X97809605Y-47630000D01*
X99477499Y-49297894D01*
X99844258Y-49081772D01*
X100084938Y-48621895D01*
X100231275Y-48123902D01*
X100277648Y-47606929D01*
X100222273Y-47090841D01*
X100067279Y-46595474D01*
X99844258Y-46178228D01*
X99477499Y-45962106D01*
X97809605Y-47630000D01*
X97450395Y-47630000D01*
X95782501Y-45962106D01*
X95415742Y-46178228D01*
X95175062Y-46638105D01*
X95028725Y-47136098D01*
X94982352Y-47653071D01*
X93698432Y-47653071D01*
X93990711Y-47360793D01*
X94048976Y-47312976D01*
X94239797Y-47080460D01*
X94381590Y-46815185D01*
X94468905Y-46527344D01*
X94491000Y-46303011D01*
X94491000Y-46303002D01*
X94498387Y-46228001D01*
X94491000Y-46153000D01*
X94491000Y-45782501D01*
X95962106Y-45782501D01*
X97630000Y-47450395D01*
X99297894Y-45782501D01*
X99081772Y-45415742D01*
X98621895Y-45175062D01*
X98123902Y-45028725D01*
X97606929Y-44982352D01*
X97090841Y-45037727D01*
X96595474Y-45192721D01*
X96178228Y-45415742D01*
X95962106Y-45782501D01*
X94491000Y-45782501D01*
X94491000Y-33652503D01*
X101724504Y-26419000D01*
X107063497Y-26419000D01*
X107693001Y-27048504D01*
X107693001Y-27216410D01*
X107632500Y-27210451D01*
X105727500Y-27210451D01*
X105624190Y-27220626D01*
X105524850Y-27250761D01*
X105433298Y-27299696D01*
X105353052Y-27365552D01*
X105287196Y-27445798D01*
X105238261Y-27537350D01*
X105208126Y-27636690D01*
X105197951Y-27740000D01*
X105197951Y-29111073D01*
X102500713Y-31808312D01*
X102465341Y-31837341D01*
X102436313Y-31872712D01*
X102436312Y-31872713D01*
X102349499Y-31978495D01*
X102311629Y-32049345D01*
X102263420Y-32139537D01*
X102210413Y-32314277D01*
X102197000Y-32450463D01*
X102197000Y-32450473D01*
X102192516Y-32496000D01*
X102197000Y-32541527D01*
X102197001Y-49400023D01*
X96292026Y-55304999D01*
X90313526Y-55304999D01*
X90267999Y-55300515D01*
X90222472Y-55304999D01*
X90222461Y-55304999D01*
X90086275Y-55318412D01*
X89911535Y-55371419D01*
X89750493Y-55457497D01*
X89644711Y-55544311D01*
X89644707Y-55544315D01*
X89609340Y-55573340D01*
X89580315Y-55608707D01*
X79441023Y-65748000D01*
X54358976Y-65748000D01*
X50457000Y-61846025D01*
X50457000Y-56979905D01*
X51613000Y-56979905D01*
X51613000Y-57320095D01*
X51679368Y-57653747D01*
X51809553Y-57968041D01*
X51998552Y-58250898D01*
X52239102Y-58491448D01*
X52413001Y-58607643D01*
X52413001Y-59644463D01*
X52408516Y-59690000D01*
X52413001Y-59735537D01*
X52413001Y-59735538D01*
X52425209Y-59859484D01*
X52426414Y-59871723D01*
X52479420Y-60046463D01*
X52565499Y-60207505D01*
X52652312Y-60313287D01*
X52652317Y-60313292D01*
X52681342Y-60348659D01*
X52716708Y-60377683D01*
X56462316Y-64123292D01*
X56491341Y-64158659D01*
X56526708Y-64187684D01*
X56526712Y-64187688D01*
X56632494Y-64274502D01*
X56793536Y-64360580D01*
X56968276Y-64413587D01*
X57104462Y-64427000D01*
X57104473Y-64427000D01*
X57150000Y-64431484D01*
X57195527Y-64427000D01*
X70439473Y-64427000D01*
X70485000Y-64431484D01*
X70530527Y-64427000D01*
X70530538Y-64427000D01*
X70666724Y-64413587D01*
X70841464Y-64360580D01*
X71002505Y-64274501D01*
X71143659Y-64158659D01*
X71172688Y-64123287D01*
X72773976Y-62522000D01*
X77522894Y-62522000D01*
X77553901Y-62568406D01*
X77766594Y-62781099D01*
X78016694Y-62948210D01*
X78294590Y-63063319D01*
X78589604Y-63122000D01*
X78890396Y-63122000D01*
X79185410Y-63063319D01*
X79463306Y-62948210D01*
X79713406Y-62781099D01*
X79926099Y-62568406D01*
X80093210Y-62318306D01*
X80208319Y-62040410D01*
X80267000Y-61745396D01*
X80267000Y-61444604D01*
X80208319Y-61149590D01*
X80093210Y-60871694D01*
X79926099Y-60621594D01*
X79713406Y-60408901D01*
X79463306Y-60241790D01*
X79185410Y-60126681D01*
X78890396Y-60068000D01*
X78589604Y-60068000D01*
X78294590Y-60126681D01*
X78016694Y-60241790D01*
X77766594Y-60408901D01*
X77553901Y-60621594D01*
X77522894Y-60668000D01*
X73317000Y-60668000D01*
X73317000Y-57939039D01*
X74408096Y-57939039D01*
X74425633Y-58021818D01*
X74536285Y-58281646D01*
X74695500Y-58514895D01*
X74897161Y-58712601D01*
X75133517Y-58867166D01*
X75395486Y-58972650D01*
X75673000Y-59025000D01*
X76073000Y-59025000D01*
X76073000Y-57717000D01*
X76327000Y-57717000D01*
X76327000Y-59025000D01*
X76727000Y-59025000D01*
X77004514Y-58972650D01*
X77266483Y-58867166D01*
X77502839Y-58712601D01*
X77704500Y-58514895D01*
X77863715Y-58281646D01*
X77974367Y-58021818D01*
X77991904Y-57939039D01*
X77869915Y-57717000D01*
X76327000Y-57717000D01*
X76073000Y-57717000D01*
X74530085Y-57717000D01*
X74408096Y-57939039D01*
X73317000Y-57939039D01*
X73317000Y-54993975D01*
X74857666Y-53453310D01*
X75059192Y-53618698D01*
X75289722Y-53741919D01*
X75415257Y-53780000D01*
X75289722Y-53818081D01*
X75059192Y-53941302D01*
X74857130Y-54107130D01*
X74691302Y-54309192D01*
X74568081Y-54539722D01*
X74492201Y-54789863D01*
X74466580Y-55050000D01*
X74492201Y-55310137D01*
X74568081Y-55560278D01*
X74691302Y-55790808D01*
X74857130Y-55992870D01*
X75059192Y-56158698D01*
X75255596Y-56263678D01*
X75133517Y-56312834D01*
X74897161Y-56467399D01*
X74695500Y-56665105D01*
X74536285Y-56898354D01*
X74425633Y-57158182D01*
X74408096Y-57240961D01*
X74530085Y-57463000D01*
X76073000Y-57463000D01*
X76073000Y-57443000D01*
X76327000Y-57443000D01*
X76327000Y-57463000D01*
X77869915Y-57463000D01*
X77991904Y-57240961D01*
X77974367Y-57158182D01*
X77863715Y-56898354D01*
X77704500Y-56665105D01*
X77502839Y-56467399D01*
X77266483Y-56312834D01*
X77144404Y-56263678D01*
X77340808Y-56158698D01*
X77542870Y-55992870D01*
X77708698Y-55790808D01*
X77831919Y-55560278D01*
X77832451Y-55558524D01*
X79363292Y-54027684D01*
X79398659Y-53998659D01*
X79427684Y-53963292D01*
X79427688Y-53963288D01*
X79514501Y-53857506D01*
X79572274Y-53749420D01*
X79600580Y-53696464D01*
X79653587Y-53521724D01*
X79667000Y-53385538D01*
X79667000Y-53385528D01*
X79671484Y-53340001D01*
X79667000Y-53294474D01*
X79667000Y-47035527D01*
X79671484Y-46990000D01*
X79667000Y-46944473D01*
X79667000Y-46944462D01*
X79653587Y-46808276D01*
X79600580Y-46633536D01*
X79514502Y-46472494D01*
X79427688Y-46366712D01*
X79427684Y-46366708D01*
X79398659Y-46331341D01*
X79363294Y-46302318D01*
X72682000Y-39621025D01*
X72682000Y-37379661D01*
X72785748Y-37275913D01*
X72930972Y-37058570D01*
X73031004Y-36817072D01*
X73082000Y-36560698D01*
X73082000Y-36299302D01*
X73031004Y-36042928D01*
X72930972Y-35801430D01*
X72785748Y-35584087D01*
X72600913Y-35399252D01*
X72383570Y-35254028D01*
X72142072Y-35153996D01*
X71885698Y-35103000D01*
X71624302Y-35103000D01*
X71367928Y-35153996D01*
X71126430Y-35254028D01*
X70909087Y-35399252D01*
X70724252Y-35584087D01*
X70579028Y-35801430D01*
X70478996Y-36042928D01*
X70428000Y-36299302D01*
X70428000Y-36560698D01*
X70478996Y-36817072D01*
X70579028Y-37058570D01*
X70724252Y-37275913D01*
X70828000Y-37379661D01*
X70828001Y-39959463D01*
X70823516Y-40005000D01*
X70841414Y-40186723D01*
X70894420Y-40361463D01*
X70980499Y-40522505D01*
X71067312Y-40628287D01*
X71067317Y-40628292D01*
X71096342Y-40663659D01*
X71131709Y-40692684D01*
X77813000Y-47373976D01*
X77813001Y-51964329D01*
X77708698Y-51769192D01*
X77542870Y-51567130D01*
X77340808Y-51401302D01*
X77110278Y-51278081D01*
X76860137Y-51202201D01*
X76665184Y-51183000D01*
X75734816Y-51183000D01*
X75539863Y-51202201D01*
X75289722Y-51278081D01*
X75059192Y-51401302D01*
X74857130Y-51567130D01*
X74844106Y-51583000D01*
X74535524Y-51583000D01*
X74489999Y-51578516D01*
X74444474Y-51583000D01*
X74444462Y-51583000D01*
X74308276Y-51596413D01*
X74133536Y-51649420D01*
X74058573Y-51689489D01*
X73972494Y-51735499D01*
X73866711Y-51822313D01*
X73866708Y-51822316D01*
X73831341Y-51851341D01*
X73802316Y-51886708D01*
X71766708Y-53922317D01*
X71731342Y-53951341D01*
X71702317Y-53986708D01*
X71702312Y-53986713D01*
X71615499Y-54092495D01*
X71529420Y-54253537D01*
X71505782Y-54331463D01*
X71476414Y-54428276D01*
X71465438Y-54539722D01*
X71458516Y-54610000D01*
X71463001Y-54655537D01*
X71463000Y-61211024D01*
X70101025Y-62573000D01*
X57533976Y-62573000D01*
X54267000Y-59306025D01*
X54267000Y-58607643D01*
X54440898Y-58491448D01*
X54681448Y-58250898D01*
X54870447Y-57968041D01*
X55000632Y-57653747D01*
X55067000Y-57320095D01*
X55067000Y-56979905D01*
X55000632Y-56646253D01*
X54870447Y-56331959D01*
X54681448Y-56049102D01*
X54440898Y-55808552D01*
X54158041Y-55619553D01*
X53843747Y-55489368D01*
X53510095Y-55423000D01*
X53169905Y-55423000D01*
X52836253Y-55489368D01*
X52521959Y-55619553D01*
X52239102Y-55808552D01*
X51998552Y-56049102D01*
X51809553Y-56331959D01*
X51679368Y-56646253D01*
X51613000Y-56979905D01*
X50457000Y-56979905D01*
X50457000Y-54358975D01*
X59438976Y-45377000D01*
X66213252Y-45377000D01*
X66117752Y-45493367D01*
X65985245Y-45741270D01*
X65903648Y-46010260D01*
X65883000Y-46219903D01*
X65883000Y-46706024D01*
X56526709Y-56062316D01*
X56491342Y-56091341D01*
X56462317Y-56126708D01*
X56462312Y-56126713D01*
X56375499Y-56232495D01*
X56289420Y-56393537D01*
X56236414Y-56568277D01*
X56218516Y-56750000D01*
X56223001Y-56795537D01*
X56223000Y-58374472D01*
X56218516Y-58420000D01*
X56223000Y-58465527D01*
X56223000Y-58465537D01*
X56236413Y-58601723D01*
X56260294Y-58680447D01*
X56289420Y-58776463D01*
X56375499Y-58937505D01*
X56452508Y-59031341D01*
X56491341Y-59078659D01*
X56526713Y-59107688D01*
X59002316Y-61583292D01*
X59031341Y-61618659D01*
X59066708Y-61647684D01*
X59066711Y-61647687D01*
X59172494Y-61734501D01*
X59251486Y-61776723D01*
X59333536Y-61820580D01*
X59508276Y-61873587D01*
X59644462Y-61887000D01*
X59644474Y-61887000D01*
X59689999Y-61891484D01*
X59735524Y-61887000D01*
X61354473Y-61887000D01*
X61400000Y-61891484D01*
X61445527Y-61887000D01*
X61445538Y-61887000D01*
X61581724Y-61873587D01*
X61756464Y-61820580D01*
X61917505Y-61734501D01*
X62058659Y-61618659D01*
X62087688Y-61583287D01*
X65569540Y-58101436D01*
X65646285Y-58281646D01*
X65805500Y-58514895D01*
X66007161Y-58712601D01*
X66243517Y-58867166D01*
X66505486Y-58972650D01*
X66783000Y-59025000D01*
X67183000Y-59025000D01*
X67183000Y-57717000D01*
X67437000Y-57717000D01*
X67437000Y-59025000D01*
X67837000Y-59025000D01*
X68114514Y-58972650D01*
X68376483Y-58867166D01*
X68612839Y-58712601D01*
X68814500Y-58514895D01*
X68973715Y-58281646D01*
X69084367Y-58021818D01*
X69101904Y-57939039D01*
X68979915Y-57717000D01*
X67437000Y-57717000D01*
X67183000Y-57717000D01*
X67163000Y-57717000D01*
X67163000Y-57463000D01*
X67183000Y-57463000D01*
X67183000Y-57443000D01*
X67437000Y-57443000D01*
X67437000Y-57463000D01*
X68979915Y-57463000D01*
X69101904Y-57240961D01*
X69084367Y-57158182D01*
X68973715Y-56898354D01*
X68814500Y-56665105D01*
X68612839Y-56467399D01*
X68376483Y-56312834D01*
X68254404Y-56263678D01*
X68450808Y-56158698D01*
X68652870Y-55992870D01*
X68818698Y-55790808D01*
X68941919Y-55560278D01*
X69017799Y-55310137D01*
X69043420Y-55050000D01*
X69017799Y-54789863D01*
X68941919Y-54539722D01*
X68818698Y-54309192D01*
X68652870Y-54107130D01*
X68450808Y-53941302D01*
X68220278Y-53818081D01*
X68094743Y-53780000D01*
X68220278Y-53741919D01*
X68450808Y-53618698D01*
X68652870Y-53452870D01*
X68665894Y-53437000D01*
X69364473Y-53437000D01*
X69410000Y-53441484D01*
X69455527Y-53437000D01*
X69455538Y-53437000D01*
X69591724Y-53423587D01*
X69766464Y-53370580D01*
X69927505Y-53284501D01*
X70068659Y-53168659D01*
X70097688Y-53133287D01*
X72378293Y-50852683D01*
X72413659Y-50823659D01*
X72442684Y-50788292D01*
X72442688Y-50788288D01*
X72529501Y-50682506D01*
X72615580Y-50521464D01*
X72639485Y-50442659D01*
X72668587Y-50346724D01*
X72682000Y-50210538D01*
X72682000Y-50210527D01*
X72686484Y-50165000D01*
X72682000Y-50119473D01*
X72682000Y-47975258D01*
X72768922Y-47903923D01*
X72947248Y-47686634D01*
X73079755Y-47438731D01*
X73161352Y-47169741D01*
X73182000Y-46960098D01*
X73182000Y-46219903D01*
X73161352Y-46010260D01*
X73079755Y-45741269D01*
X72947248Y-45493366D01*
X72768923Y-45276077D01*
X72551634Y-45097752D01*
X72303731Y-44965245D01*
X72034741Y-44883648D01*
X71755000Y-44856096D01*
X71475260Y-44883648D01*
X71386537Y-44910562D01*
X70302688Y-43826713D01*
X70273659Y-43791341D01*
X70132505Y-43675499D01*
X69971464Y-43589420D01*
X69796724Y-43536413D01*
X69660538Y-43523000D01*
X69660527Y-43523000D01*
X69615000Y-43518516D01*
X69569473Y-43523000D01*
X59100526Y-43523000D01*
X59054999Y-43518516D01*
X59009472Y-43523000D01*
X59009462Y-43523000D01*
X58873276Y-43536413D01*
X58698536Y-43589420D01*
X58593590Y-43645516D01*
X58537494Y-43675499D01*
X58431712Y-43762312D01*
X58431708Y-43762316D01*
X58396341Y-43791341D01*
X58367316Y-43826708D01*
X48906709Y-53287316D01*
X48871342Y-53316341D01*
X48842317Y-53351708D01*
X48842312Y-53351713D01*
X48755499Y-53457495D01*
X48669420Y-53618537D01*
X48637732Y-53723000D01*
X48616414Y-53793276D01*
X48612108Y-53837000D01*
X48598516Y-53975000D01*
X48603001Y-54020537D01*
X48603000Y-62184473D01*
X48598516Y-62230000D01*
X48603000Y-62275527D01*
X48603000Y-62275537D01*
X48616413Y-62411723D01*
X48665336Y-62573000D01*
X48669420Y-62586463D01*
X48755499Y-62747505D01*
X48783069Y-62781099D01*
X48871341Y-62888659D01*
X48906713Y-62917688D01*
X53287316Y-67298292D01*
X53316341Y-67333659D01*
X53351708Y-67362684D01*
X53351712Y-67362688D01*
X53457494Y-67449501D01*
X53543573Y-67495511D01*
X53618536Y-67535580D01*
X53793276Y-67588587D01*
X53929462Y-67602000D01*
X53929472Y-67602000D01*
X53974999Y-67606484D01*
X54020526Y-67602000D01*
X79779471Y-67602000D01*
X79824998Y-67606484D01*
X79870525Y-67602000D01*
X79870536Y-67602000D01*
X80006722Y-67588587D01*
X80181462Y-67535580D01*
X80342503Y-67449501D01*
X80483657Y-67333659D01*
X80512686Y-67298287D01*
X90651975Y-57158999D01*
X96630474Y-57158999D01*
X96676001Y-57163483D01*
X96721528Y-57158999D01*
X96721539Y-57158999D01*
X96857725Y-57145586D01*
X97032465Y-57092579D01*
X97193506Y-57006500D01*
X97334660Y-56890658D01*
X97363689Y-56855286D01*
X103747292Y-50471684D01*
X103782659Y-50442659D01*
X103811684Y-50407292D01*
X103811688Y-50407288D01*
X103898502Y-50301506D01*
X103984580Y-50140464D01*
X104037587Y-49965724D01*
X104051000Y-49829538D01*
X104051000Y-49829527D01*
X104055484Y-49784000D01*
X104051000Y-49738473D01*
X104051000Y-32879975D01*
X106261427Y-30669549D01*
X107632500Y-30669549D01*
X107735810Y-30659374D01*
X107835150Y-30629239D01*
X107926702Y-30580304D01*
X108006948Y-30514448D01*
X108072804Y-30434202D01*
X108121739Y-30342650D01*
X108151874Y-30243310D01*
X108154088Y-30220831D01*
X108168774Y-30238726D01*
X108394058Y-30423611D01*
X108651082Y-30560993D01*
X108929968Y-30645592D01*
X109220000Y-30674158D01*
X109510033Y-30645592D01*
X109788919Y-30560993D01*
X110045943Y-30423611D01*
X110233001Y-30270097D01*
X110233000Y-36451496D01*
X108193289Y-38491208D01*
X108135025Y-38539024D01*
X108087209Y-38597288D01*
X108087208Y-38597289D01*
X107944204Y-38771540D01*
X107802411Y-39036815D01*
X107715096Y-39324656D01*
X107685613Y-39624000D01*
X107693001Y-39699011D01*
X107693001Y-65724799D01*
X107689553Y-65729959D01*
X107559368Y-66044253D01*
X107493000Y-66377905D01*
X107493000Y-66718095D01*
X107559368Y-67051747D01*
X107689553Y-67366041D01*
X107693001Y-67371201D01*
X107693000Y-105708984D01*
X107456067Y-105544907D01*
X107168888Y-105420320D01*
X107052980Y-105397437D01*
X106807000Y-105517406D01*
X106807000Y-107061000D01*
X106827000Y-107061000D01*
X106827000Y-107315000D01*
X106807000Y-107315000D01*
X106807000Y-108858594D01*
X107052980Y-108978563D01*
X107168888Y-108955680D01*
X107456067Y-108831093D01*
X107713422Y-108652874D01*
X107931063Y-108427872D01*
X108014373Y-108298587D01*
X108168774Y-108486726D01*
X108394057Y-108671611D01*
X108651081Y-108808993D01*
X108929967Y-108893592D01*
X109220000Y-108922158D01*
X109510032Y-108893592D01*
X109788918Y-108808993D01*
X110045942Y-108671611D01*
X110271226Y-108486726D01*
X110285912Y-108468831D01*
X110288126Y-108491310D01*
X110318261Y-108590650D01*
X110367196Y-108682202D01*
X110433052Y-108762448D01*
X110513298Y-108828304D01*
X110604850Y-108877239D01*
X110704190Y-108907374D01*
X110756498Y-108912526D01*
X110360025Y-109309000D01*
X105031976Y-109309000D01*
X104559000Y-108836025D01*
X104559000Y-107565575D01*
X105088446Y-107565575D01*
X105144404Y-107873572D01*
X105259374Y-108164734D01*
X105428937Y-108427872D01*
X105646578Y-108652874D01*
X105903933Y-108831093D01*
X106191112Y-108955680D01*
X106307020Y-108978563D01*
X106553000Y-108858594D01*
X106553000Y-107315000D01*
X105246442Y-107315000D01*
X105088446Y-107565575D01*
X104559000Y-107565575D01*
X104559000Y-106810425D01*
X105088446Y-106810425D01*
X105246442Y-107061000D01*
X106553000Y-107061000D01*
X106553000Y-105517406D01*
X106307020Y-105397437D01*
X106191112Y-105420320D01*
X105903933Y-105544907D01*
X105646578Y-105723126D01*
X105428937Y-105948128D01*
X105259374Y-106211266D01*
X105144404Y-106502428D01*
X105088446Y-106810425D01*
X104559000Y-106810425D01*
X104559000Y-106570029D01*
X104563484Y-106524502D01*
X104559000Y-106478975D01*
X104559000Y-106478964D01*
X104545587Y-106342778D01*
X104492580Y-106168038D01*
X104426200Y-106043851D01*
X104406501Y-106006996D01*
X104319688Y-105901214D01*
X104319684Y-105901210D01*
X104290659Y-105865843D01*
X104255292Y-105836818D01*
X93383000Y-94964527D01*
X93383000Y-90342500D01*
X95962106Y-90342500D01*
X96178228Y-90709259D01*
X96638105Y-90949939D01*
X97136098Y-91096276D01*
X97653071Y-91142649D01*
X98169159Y-91087274D01*
X98664526Y-90932280D01*
X99081772Y-90709259D01*
X99297894Y-90342500D01*
X97630000Y-88674606D01*
X95962106Y-90342500D01*
X93383000Y-90342500D01*
X93383000Y-88518072D01*
X94982352Y-88518072D01*
X95037727Y-89034160D01*
X95192721Y-89529527D01*
X95415742Y-89946773D01*
X95782501Y-90162895D01*
X97450395Y-88495001D01*
X97809605Y-88495001D01*
X99477499Y-90162895D01*
X99844258Y-89946773D01*
X100084938Y-89486896D01*
X100231275Y-88988903D01*
X100277648Y-88471930D01*
X100222273Y-87955842D01*
X100067279Y-87460475D01*
X99844258Y-87043229D01*
X99477499Y-86827107D01*
X97809605Y-88495001D01*
X97450395Y-88495001D01*
X95782501Y-86827107D01*
X95415742Y-87043229D01*
X95175062Y-87503106D01*
X95028725Y-88001099D01*
X94982352Y-88518072D01*
X93383000Y-88518072D01*
X93383000Y-86647502D01*
X95962106Y-86647502D01*
X97630000Y-88315396D01*
X99297894Y-86647502D01*
X99081772Y-86280743D01*
X98621895Y-86040063D01*
X98123902Y-85893726D01*
X97606929Y-85847353D01*
X97090841Y-85902728D01*
X96595474Y-86057722D01*
X96178228Y-86280743D01*
X95962106Y-86647502D01*
X93383000Y-86647502D01*
X93383000Y-83357524D01*
X93387484Y-83311999D01*
X93383000Y-83266474D01*
X93383000Y-83266462D01*
X93369587Y-83130276D01*
X93316580Y-82955536D01*
X93258290Y-82846484D01*
X93230501Y-82794494D01*
X93143687Y-82688711D01*
X93143684Y-82688708D01*
X93114659Y-82653341D01*
X93079292Y-82624316D01*
X88131687Y-77676712D01*
X88102659Y-77641341D01*
X87961505Y-77525499D01*
X87800464Y-77439420D01*
X87625724Y-77386413D01*
X87489538Y-77373000D01*
X87489527Y-77373000D01*
X87444000Y-77368516D01*
X87398473Y-77373000D01*
X77555894Y-77373000D01*
X77542870Y-77357130D01*
X77340808Y-77191302D01*
X77110278Y-77068081D01*
X76860137Y-76992201D01*
X76665184Y-76973000D01*
X76183976Y-76973000D01*
X73517688Y-74306713D01*
X73488659Y-74271341D01*
X73347505Y-74155499D01*
X73186464Y-74069420D01*
X73011724Y-74016413D01*
X72875538Y-74003000D01*
X72875527Y-74003000D01*
X72830000Y-73998516D01*
X72784473Y-74003000D01*
X57195527Y-74003000D01*
X57150000Y-73998516D01*
X57104473Y-74003000D01*
X57104462Y-74003000D01*
X56968276Y-74016413D01*
X56793536Y-74069420D01*
X56632494Y-74155498D01*
X56526712Y-74242312D01*
X56526708Y-74242316D01*
X56491341Y-74271341D01*
X56462316Y-74306708D01*
X53715222Y-77053803D01*
X53510095Y-77013000D01*
X53169905Y-77013000D01*
X52836253Y-77079368D01*
X52521959Y-77209553D01*
X52239102Y-77398552D01*
X51998552Y-77639102D01*
X51809553Y-77921959D01*
X51679368Y-78236253D01*
X51613000Y-78569905D01*
X51613000Y-78910095D01*
X51679368Y-79243747D01*
X51809553Y-79558041D01*
X51998552Y-79840898D01*
X52239102Y-80081448D01*
X52521959Y-80270447D01*
X52836253Y-80400632D01*
X53169905Y-80467000D01*
X53510095Y-80467000D01*
X53843747Y-80400632D01*
X54158041Y-80270447D01*
X54440898Y-80081448D01*
X54681448Y-79840898D01*
X54870447Y-79558041D01*
X55000632Y-79243747D01*
X55067000Y-78910095D01*
X55067000Y-78569905D01*
X55026197Y-78364778D01*
X57533976Y-75857000D01*
X72446025Y-75857000D01*
X74524014Y-77934990D01*
X74492201Y-78039863D01*
X74466580Y-78300000D01*
X74492201Y-78560137D01*
X74568081Y-78810278D01*
X74691302Y-79040808D01*
X74857130Y-79242870D01*
X75059192Y-79408698D01*
X75289722Y-79531919D01*
X75415257Y-79570000D01*
X75289722Y-79608081D01*
X75059192Y-79731302D01*
X74857130Y-79897130D01*
X74691302Y-80099192D01*
X74568081Y-80329722D01*
X74492201Y-80579863D01*
X74466580Y-80840000D01*
X74492201Y-81100137D01*
X74568081Y-81350278D01*
X74691302Y-81580808D01*
X74857130Y-81782870D01*
X75059192Y-81948698D01*
X75255596Y-82053678D01*
X75133517Y-82102834D01*
X74897161Y-82257399D01*
X74695500Y-82455105D01*
X74536285Y-82688354D01*
X74425633Y-82948182D01*
X74408096Y-83030961D01*
X74530085Y-83253000D01*
X76073000Y-83253000D01*
X76073000Y-83233000D01*
X76327000Y-83233000D01*
X76327000Y-83253000D01*
X77869915Y-83253000D01*
X77991904Y-83030961D01*
X77974367Y-82948182D01*
X77863715Y-82688354D01*
X77704500Y-82455105D01*
X77502839Y-82257399D01*
X77266483Y-82102834D01*
X77144404Y-82053678D01*
X77340808Y-81948698D01*
X77542870Y-81782870D01*
X77555894Y-81767000D01*
X77916025Y-81767000D01*
X78448001Y-82298977D01*
X78448000Y-87881024D01*
X71766709Y-94562316D01*
X71731342Y-94591341D01*
X71702317Y-94626708D01*
X71702312Y-94626713D01*
X71615499Y-94732495D01*
X71529420Y-94893537D01*
X71476414Y-95068277D01*
X71458516Y-95250000D01*
X71463001Y-95295537D01*
X71463000Y-98074741D01*
X71376077Y-98146078D01*
X71197752Y-98363367D01*
X71065245Y-98611270D01*
X70983648Y-98880260D01*
X70963000Y-99089903D01*
X70963000Y-99830098D01*
X70983648Y-100039741D01*
X71065245Y-100308731D01*
X71197752Y-100556634D01*
X71376078Y-100773923D01*
X71593367Y-100952248D01*
X71841270Y-101084755D01*
X72110260Y-101166352D01*
X72390000Y-101193904D01*
X72669741Y-101166352D01*
X72938731Y-101084755D01*
X73186634Y-100952248D01*
X73403923Y-100773923D01*
X73582248Y-100556634D01*
X73714755Y-100308731D01*
X73796352Y-100039740D01*
X73817000Y-99830097D01*
X73817000Y-99089902D01*
X73796352Y-98880259D01*
X73714755Y-98611269D01*
X73582248Y-98363366D01*
X73403922Y-98146077D01*
X73317000Y-98074742D01*
X73317000Y-95633975D01*
X79998294Y-88952682D01*
X80033659Y-88923659D01*
X80062684Y-88888292D01*
X80062688Y-88888288D01*
X80149502Y-88782506D01*
X80235580Y-88621464D01*
X80235580Y-88621463D01*
X80288587Y-88446724D01*
X80302000Y-88310538D01*
X80302000Y-88310527D01*
X80306484Y-88265000D01*
X80302000Y-88219473D01*
X80302000Y-81960527D01*
X80306484Y-81915000D01*
X80302000Y-81869473D01*
X80302000Y-81869462D01*
X80288587Y-81733276D01*
X80235580Y-81558536D01*
X80184668Y-81463287D01*
X80149502Y-81397495D01*
X80062688Y-81291712D01*
X80062684Y-81291708D01*
X80033659Y-81256341D01*
X79998292Y-81227316D01*
X78987688Y-80216713D01*
X78958659Y-80181341D01*
X78817505Y-80065499D01*
X78656464Y-79979420D01*
X78481724Y-79926413D01*
X78345538Y-79913000D01*
X78345527Y-79913000D01*
X78300000Y-79908516D01*
X78254473Y-79913000D01*
X77555894Y-79913000D01*
X77542870Y-79897130D01*
X77340808Y-79731302D01*
X77110278Y-79608081D01*
X76984743Y-79570000D01*
X77110278Y-79531919D01*
X77340808Y-79408698D01*
X77542870Y-79242870D01*
X77555894Y-79227000D01*
X87060025Y-79227000D01*
X91529001Y-83695977D01*
X91529000Y-95302975D01*
X91524516Y-95348502D01*
X91529000Y-95394029D01*
X91529000Y-95394039D01*
X91542413Y-95530225D01*
X91565540Y-95606463D01*
X91595420Y-95704965D01*
X91681499Y-95866007D01*
X91716503Y-95908659D01*
X91797341Y-96007161D01*
X91832713Y-96036190D01*
X102705001Y-106908479D01*
X102705000Y-109174472D01*
X102700516Y-109220000D01*
X102705000Y-109265527D01*
X102705000Y-109265537D01*
X102718413Y-109401723D01*
X102771420Y-109576463D01*
X102857499Y-109737505D01*
X102927663Y-109823000D01*
X102973341Y-109878659D01*
X103008713Y-109907688D01*
X103960316Y-110859292D01*
X103989341Y-110894659D01*
X104024708Y-110923684D01*
X104024712Y-110923688D01*
X104130494Y-111010501D01*
X104291536Y-111096580D01*
X104466276Y-111149587D01*
X104602462Y-111163000D01*
X104602473Y-111163000D01*
X104648000Y-111167484D01*
X104693527Y-111163000D01*
X110698473Y-111163000D01*
X110744000Y-111167484D01*
X110789527Y-111163000D01*
X110789538Y-111163000D01*
X110925724Y-111149587D01*
X111100464Y-111096580D01*
X111261505Y-111010501D01*
X111402659Y-110894659D01*
X111431688Y-110859287D01*
X112383293Y-109907683D01*
X112418659Y-109878659D01*
X112447684Y-109843292D01*
X112447688Y-109843288D01*
X112534501Y-109737506D01*
X112620580Y-109576464D01*
X112655454Y-109461499D01*
X112673587Y-109401724D01*
X112687000Y-109265538D01*
X112687000Y-109265527D01*
X112691484Y-109220000D01*
X112687000Y-109174473D01*
X112687000Y-108917549D01*
X112712500Y-108917549D01*
X112815810Y-108907374D01*
X112915150Y-108877239D01*
X113006702Y-108828304D01*
X113086948Y-108762448D01*
X113152804Y-108682202D01*
X113201739Y-108590650D01*
X113231874Y-108491310D01*
X113242049Y-108388000D01*
X113242049Y-105988000D01*
X113231874Y-105884690D01*
X113201739Y-105785350D01*
X113152804Y-105693798D01*
X113086948Y-105613552D01*
X113006702Y-105547696D01*
X112915150Y-105498761D01*
X112815810Y-105468626D01*
X112712500Y-105458451D01*
X110807500Y-105458451D01*
X110747000Y-105464410D01*
X110747000Y-67371200D01*
X110750447Y-67366041D01*
X110880632Y-67051747D01*
X110947000Y-66718095D01*
X110947000Y-66377905D01*
X110880632Y-66044253D01*
X110750447Y-65729959D01*
X110747000Y-65724800D01*
X110747000Y-40256503D01*
X112786713Y-38216791D01*
X112844976Y-38168976D01*
X113035797Y-37936460D01*
X113177590Y-37671185D01*
X113264905Y-37383344D01*
X113287000Y-37159011D01*
X113287000Y-37159002D01*
X113294387Y-37084001D01*
X113287000Y-37009000D01*
X113287000Y-28864989D01*
X113264905Y-28640656D01*
X113230324Y-28526656D01*
X113218092Y-28402467D01*
X113133493Y-28123581D01*
X112996111Y-27866557D01*
X112811226Y-27641274D01*
X112585942Y-27456389D01*
X112328918Y-27319007D01*
X112050032Y-27234408D01*
X111760000Y-27205842D01*
X111469967Y-27234408D01*
X111191081Y-27319007D01*
X110934057Y-27456389D01*
X110747000Y-27609903D01*
X110747000Y-27048503D01*
X111376504Y-26419000D01*
X149735497Y-26419000D01*
X149857001Y-26540504D01*
X149857001Y-27216410D01*
X149796500Y-27210451D01*
X147891500Y-27210451D01*
X147788190Y-27220626D01*
X147688850Y-27250761D01*
X147597298Y-27299696D01*
X147517052Y-27365552D01*
X147451196Y-27445798D01*
X147402261Y-27537350D01*
X147372126Y-27636690D01*
X147361951Y-27740000D01*
X147361951Y-29111074D01*
X118472025Y-58001000D01*
X115009106Y-58001000D01*
X114978099Y-57954594D01*
X114765406Y-57741901D01*
X114515306Y-57574790D01*
X114237410Y-57459681D01*
X113942396Y-57401000D01*
X113641604Y-57401000D01*
X113346590Y-57459681D01*
X113068694Y-57574790D01*
X112818594Y-57741901D01*
X112605901Y-57954594D01*
X112438790Y-58204694D01*
X112323681Y-58482590D01*
X112265000Y-58777604D01*
X112265000Y-59078396D01*
X112323681Y-59373410D01*
X112438790Y-59651306D01*
X112605901Y-59901406D01*
X112818594Y-60114099D01*
X113068694Y-60281210D01*
X113346590Y-60396319D01*
X113626522Y-60452000D01*
X113346590Y-60507681D01*
X113068694Y-60622790D01*
X112818594Y-60789901D01*
X112605901Y-61002594D01*
X112438790Y-61252694D01*
X112323681Y-61530590D01*
X112265000Y-61825604D01*
X112265000Y-62126396D01*
X112323681Y-62421410D01*
X112438790Y-62699306D01*
X112605901Y-62949406D01*
X112818594Y-63162099D01*
X112865001Y-63193107D01*
X112865000Y-81234473D01*
X112860516Y-81280000D01*
X112865000Y-81325527D01*
X112865000Y-81325537D01*
X112878413Y-81461723D01*
X112907781Y-81558536D01*
X112931420Y-81636463D01*
X113017499Y-81797505D01*
X113094508Y-81891341D01*
X113133341Y-81938659D01*
X113168712Y-81967687D01*
X142060316Y-110859292D01*
X142089341Y-110894659D01*
X142124708Y-110923684D01*
X142124712Y-110923688D01*
X142230494Y-111010501D01*
X142391536Y-111096580D01*
X142566276Y-111149587D01*
X142702462Y-111163000D01*
X142702473Y-111163000D01*
X142748000Y-111167484D01*
X142793527Y-111163000D01*
X152862473Y-111163000D01*
X152908000Y-111167484D01*
X152953527Y-111163000D01*
X152953538Y-111163000D01*
X153089724Y-111149587D01*
X153264464Y-111096580D01*
X153425505Y-111010501D01*
X153566659Y-110894659D01*
X153595688Y-110859287D01*
X154547292Y-109907684D01*
X154582659Y-109878659D01*
X154611684Y-109843292D01*
X154611688Y-109843288D01*
X154698501Y-109737506D01*
X154784580Y-109576464D01*
X154819454Y-109461499D01*
X154837587Y-109401724D01*
X154851000Y-109265538D01*
X154851000Y-109265527D01*
X154855484Y-109220000D01*
X154851000Y-109174473D01*
X154851000Y-108917549D01*
X154876500Y-108917549D01*
X154979810Y-108907374D01*
X155079150Y-108877239D01*
X155170702Y-108828304D01*
X155250948Y-108762448D01*
X155316804Y-108682202D01*
X155365739Y-108590650D01*
X155395874Y-108491310D01*
X155406049Y-108388000D01*
X155406049Y-107486509D01*
X159417000Y-107486509D01*
X159417000Y-107905491D01*
X159498739Y-108316423D01*
X159659077Y-108703512D01*
X159891851Y-109051884D01*
X160188116Y-109348149D01*
X160536488Y-109580923D01*
X160923577Y-109741261D01*
X161334509Y-109823000D01*
X161753491Y-109823000D01*
X162164423Y-109741261D01*
X162551512Y-109580923D01*
X162899884Y-109348149D01*
X163196149Y-109051884D01*
X163428923Y-108703512D01*
X163589261Y-108316423D01*
X163671000Y-107905491D01*
X163671000Y-107486509D01*
X163589261Y-107075577D01*
X163428923Y-106688488D01*
X163196149Y-106340116D01*
X162899884Y-106043851D01*
X162551512Y-105811077D01*
X162164423Y-105650739D01*
X161753491Y-105569000D01*
X161334509Y-105569000D01*
X160923577Y-105650739D01*
X160536488Y-105811077D01*
X160188116Y-106043851D01*
X159891851Y-106340116D01*
X159659077Y-106688488D01*
X159498739Y-107075577D01*
X159417000Y-107486509D01*
X155406049Y-107486509D01*
X155406049Y-105988000D01*
X155395874Y-105884690D01*
X155365739Y-105785350D01*
X155316804Y-105693798D01*
X155250948Y-105613552D01*
X155170702Y-105547696D01*
X155079150Y-105498761D01*
X154979810Y-105468626D01*
X154876500Y-105458451D01*
X152971500Y-105458451D01*
X152911000Y-105464410D01*
X152911000Y-101675000D01*
X152918387Y-101599999D01*
X152911000Y-101524998D01*
X152911000Y-101524989D01*
X152888905Y-101300656D01*
X152801590Y-101012815D01*
X152659797Y-100747540D01*
X152468976Y-100515024D01*
X152410712Y-100467208D01*
X136919000Y-84975497D01*
X136919000Y-67056000D01*
X137657613Y-67056000D01*
X137665001Y-67131011D01*
X137665000Y-77291010D01*
X137687095Y-77515343D01*
X137774410Y-77803184D01*
X137862451Y-77967896D01*
X137862451Y-78416000D01*
X137872626Y-78519310D01*
X137902761Y-78618650D01*
X137951696Y-78710202D01*
X138017552Y-78790448D01*
X138097798Y-78856304D01*
X138189350Y-78905239D01*
X138288690Y-78935374D01*
X138392000Y-78945549D01*
X139992000Y-78945549D01*
X140095310Y-78935374D01*
X140194650Y-78905239D01*
X140286202Y-78856304D01*
X140366448Y-78790448D01*
X140432304Y-78710202D01*
X140481239Y-78618650D01*
X140511374Y-78519310D01*
X140521549Y-78416000D01*
X140521549Y-77967897D01*
X140609590Y-77803185D01*
X140696905Y-77515344D01*
X140719000Y-77291011D01*
X140719000Y-68075000D01*
X143131497Y-68075000D01*
X146695208Y-71638712D01*
X146743024Y-71696976D01*
X146975540Y-71887797D01*
X147099913Y-71954276D01*
X147240815Y-72029590D01*
X147528655Y-72116905D01*
X147555955Y-72119594D01*
X147752989Y-72139000D01*
X147752996Y-72139000D01*
X147828000Y-72146387D01*
X147903004Y-72139000D01*
X159188389Y-72139000D01*
X159235863Y-72186474D01*
X159567855Y-72408304D01*
X159936746Y-72561104D01*
X160328358Y-72639000D01*
X160727642Y-72639000D01*
X161119254Y-72561104D01*
X161488145Y-72408304D01*
X161820137Y-72186474D01*
X162102474Y-71904137D01*
X162324304Y-71572145D01*
X162477104Y-71203254D01*
X162555000Y-70811642D01*
X162555000Y-70412358D01*
X162477104Y-70020746D01*
X162324304Y-69651855D01*
X162102474Y-69319863D01*
X161820137Y-69037526D01*
X161488145Y-68815696D01*
X161119254Y-68662896D01*
X160727642Y-68585000D01*
X160328358Y-68585000D01*
X159936746Y-68662896D01*
X159567855Y-68815696D01*
X159235863Y-69037526D01*
X159188389Y-69085000D01*
X148460504Y-69085000D01*
X144896797Y-65521294D01*
X144848976Y-65463024D01*
X144616460Y-65272203D01*
X144351185Y-65130410D01*
X144063344Y-65043095D01*
X143839011Y-65021000D01*
X143839001Y-65021000D01*
X143764000Y-65013613D01*
X143688999Y-65021000D01*
X140523200Y-65021000D01*
X140518041Y-65017553D01*
X140203747Y-64887368D01*
X139870095Y-64821000D01*
X139529905Y-64821000D01*
X139196253Y-64887368D01*
X138881959Y-65017553D01*
X138599102Y-65206552D01*
X138358552Y-65447102D01*
X138169553Y-65729959D01*
X138039368Y-66044253D01*
X138036950Y-66056411D01*
X137916204Y-66203540D01*
X137774411Y-66468815D01*
X137687096Y-66756656D01*
X137657613Y-67056000D01*
X136919000Y-67056000D01*
X136919000Y-63868503D01*
X138300504Y-62487000D01*
X146179497Y-62487000D01*
X150251208Y-66558712D01*
X150299024Y-66616976D01*
X150531540Y-66807797D01*
X150796815Y-66949590D01*
X151084656Y-67036905D01*
X151308989Y-67059000D01*
X151308998Y-67059000D01*
X151383999Y-67066387D01*
X151459000Y-67059000D01*
X158501110Y-67059000D01*
X158508626Y-67135310D01*
X158538761Y-67234650D01*
X158587696Y-67326202D01*
X158653552Y-67406448D01*
X158733798Y-67472304D01*
X158825350Y-67521239D01*
X158924690Y-67551374D01*
X159028000Y-67561549D01*
X162028000Y-67561549D01*
X162131310Y-67551374D01*
X162230650Y-67521239D01*
X162322202Y-67472304D01*
X162402448Y-67406448D01*
X162468304Y-67326202D01*
X162517239Y-67234650D01*
X162547374Y-67135310D01*
X162557549Y-67032000D01*
X162557549Y-64032000D01*
X162547374Y-63928690D01*
X162517239Y-63829350D01*
X162468304Y-63737798D01*
X162402448Y-63657552D01*
X162322202Y-63591696D01*
X162230650Y-63542761D01*
X162131310Y-63512626D01*
X162055000Y-63505110D01*
X162055000Y-35619000D01*
X162062387Y-35543999D01*
X162055000Y-35468998D01*
X162055000Y-35468989D01*
X162032905Y-35244656D01*
X161945590Y-34956815D01*
X161803797Y-34691540D01*
X161612976Y-34459024D01*
X161554712Y-34411208D01*
X155310734Y-28167231D01*
X155297493Y-28123581D01*
X155160111Y-27866557D01*
X154975226Y-27641274D01*
X154749942Y-27456389D01*
X154492918Y-27319007D01*
X154214032Y-27234408D01*
X153924000Y-27205842D01*
X153633967Y-27234408D01*
X153355081Y-27319007D01*
X153098057Y-27456389D01*
X152911000Y-27609903D01*
X152911000Y-26206509D01*
X159417000Y-26206509D01*
X159417000Y-26625491D01*
X159498739Y-27036423D01*
X159659077Y-27423512D01*
X159891851Y-27771884D01*
X160188116Y-28068149D01*
X160536488Y-28300923D01*
X160923577Y-28461261D01*
X161334509Y-28543000D01*
X161753491Y-28543000D01*
X162164423Y-28461261D01*
X162551512Y-28300923D01*
X162899884Y-28068149D01*
X163196149Y-27771884D01*
X163428923Y-27423512D01*
X163589261Y-27036423D01*
X163671000Y-26625491D01*
X163671000Y-26206509D01*
X163589261Y-25795577D01*
X163428923Y-25408488D01*
X163196149Y-25060116D01*
X162899884Y-24763851D01*
X162551512Y-24531077D01*
X162164423Y-24370739D01*
X161753491Y-24289000D01*
X161334509Y-24289000D01*
X160923577Y-24370739D01*
X160536488Y-24531077D01*
X160188116Y-24763851D01*
X159891851Y-25060116D01*
X159659077Y-25408488D01*
X159498739Y-25795577D01*
X159417000Y-26206509D01*
X152911000Y-26206509D01*
X152911000Y-25983001D01*
X152918387Y-25908000D01*
X152911000Y-25832999D01*
X152911000Y-25832989D01*
X152888905Y-25608656D01*
X152801590Y-25320815D01*
X152659797Y-25055540D01*
X152468976Y-24823024D01*
X152410706Y-24775203D01*
X151500797Y-23865294D01*
X151452976Y-23807024D01*
X151220460Y-23616203D01*
X150955185Y-23474410D01*
X150667344Y-23387095D01*
X150443011Y-23365000D01*
X150443001Y-23365000D01*
X150368000Y-23357613D01*
X150292999Y-23365000D01*
X110819000Y-23365000D01*
X110743999Y-23357613D01*
X110668998Y-23365000D01*
X110668989Y-23365000D01*
X110444656Y-23387095D01*
X110156815Y-23474410D01*
X109891540Y-23616203D01*
X109659024Y-23807024D01*
X109611207Y-23865289D01*
X109220000Y-24256496D01*
X108828797Y-23865293D01*
X108780976Y-23807024D01*
X108548460Y-23616203D01*
X108283185Y-23474410D01*
X107995344Y-23387095D01*
X107771011Y-23365000D01*
X107771001Y-23365000D01*
X107696000Y-23357613D01*
X107620999Y-23365000D01*
X101167004Y-23365000D01*
X101092000Y-23357613D01*
X101016996Y-23365000D01*
X101016989Y-23365000D01*
X100819955Y-23384406D01*
X100792655Y-23387095D01*
X100504815Y-23474410D01*
X100239540Y-23616203D01*
X100007024Y-23807024D01*
X99959208Y-23865288D01*
X91937294Y-31887203D01*
X91879024Y-31935024D01*
X91688203Y-32167541D01*
X91546410Y-32432816D01*
X91459095Y-32720657D01*
X91437000Y-32944990D01*
X91437000Y-32944999D01*
X91429613Y-33020000D01*
X91437000Y-33095001D01*
X91437001Y-45595495D01*
X90929497Y-46103000D01*
X90159549Y-46103000D01*
X90159549Y-45630000D01*
X90149374Y-45526690D01*
X90119239Y-45427350D01*
X90070304Y-45335798D01*
X90004448Y-45255552D01*
X89924202Y-45189696D01*
X89832650Y-45140761D01*
X89733310Y-45110626D01*
X89630000Y-45100451D01*
X87259955Y-45100451D01*
X82807000Y-40647497D01*
X82807000Y-34873004D01*
X82814387Y-34798000D01*
X82807000Y-34722996D01*
X82807000Y-34722989D01*
X82784905Y-34498656D01*
X82697590Y-34210815D01*
X82555797Y-33945540D01*
X82364976Y-33713024D01*
X82306712Y-33665208D01*
X79364797Y-30723294D01*
X79316976Y-30665024D01*
X79084460Y-30474203D01*
X78819185Y-30332410D01*
X78531344Y-30245095D01*
X78307011Y-30223000D01*
X78307001Y-30223000D01*
X78232000Y-30215613D01*
X78156999Y-30223000D01*
X63575000Y-30223000D01*
X63499999Y-30215613D01*
X63424998Y-30223000D01*
X63424989Y-30223000D01*
X63200656Y-30245095D01*
X62912815Y-30332410D01*
X62647540Y-30474203D01*
X62415024Y-30665024D01*
X62367208Y-30723288D01*
X59933294Y-33157203D01*
X59875024Y-33205024D01*
X59684203Y-33437541D01*
X59542410Y-33702816D01*
X59455095Y-33990657D01*
X59433000Y-34214990D01*
X59433000Y-34214999D01*
X59425613Y-34290000D01*
X59433000Y-34365002D01*
X59433000Y-35303000D01*
X54163200Y-35303000D01*
X54158041Y-35299553D01*
X53843747Y-35169368D01*
X53510095Y-35103000D01*
X53169905Y-35103000D01*
X52836253Y-35169368D01*
X52521959Y-35299553D01*
X52239102Y-35488552D01*
X51998552Y-35729102D01*
X51809553Y-36011959D01*
X51679368Y-36326253D01*
X51678158Y-36332339D01*
X31993289Y-56017208D01*
X31935025Y-56065024D01*
X31887209Y-56123288D01*
X31887208Y-56123289D01*
X31744204Y-56297540D01*
X31602411Y-56562815D01*
X31515096Y-56850656D01*
X31485613Y-57150000D01*
X31493001Y-57225011D01*
X31493000Y-60203110D01*
X31416690Y-60210626D01*
X31317350Y-60240761D01*
X31225798Y-60289696D01*
X31145552Y-60355552D01*
X31079696Y-60435798D01*
X31030761Y-60527350D01*
X31000626Y-60626690D01*
X30993110Y-60703000D01*
X29285000Y-60703000D01*
X29209999Y-60695613D01*
X29134998Y-60703000D01*
X29134989Y-60703000D01*
X28910656Y-60725095D01*
X28622815Y-60812410D01*
X28357540Y-60954203D01*
X28125024Y-61145024D01*
X28077208Y-61203288D01*
X25643289Y-63637208D01*
X25585025Y-63685024D01*
X25537209Y-63743288D01*
X25537208Y-63743289D01*
X25394204Y-63917540D01*
X25252411Y-64182815D01*
X25165096Y-64470656D01*
X25135613Y-64770000D01*
X23495000Y-64770000D01*
X23495000Y-26206509D01*
X25305000Y-26206509D01*
X25305000Y-26625491D01*
X25386739Y-27036423D01*
X25547077Y-27423512D01*
X25779851Y-27771884D01*
X26076116Y-28068149D01*
X26424488Y-28300923D01*
X26811577Y-28461261D01*
X27222509Y-28543000D01*
X27641491Y-28543000D01*
X28052423Y-28461261D01*
X28439512Y-28300923D01*
X28787884Y-28068149D01*
X29084149Y-27771884D01*
X29316923Y-27423512D01*
X29477261Y-27036423D01*
X29559000Y-26625491D01*
X29559000Y-26206509D01*
X29477261Y-25795577D01*
X29316923Y-25408488D01*
X29084149Y-25060116D01*
X28787884Y-24763851D01*
X28439512Y-24531077D01*
X28052423Y-24370739D01*
X27641491Y-24289000D01*
X27222509Y-24289000D01*
X26811577Y-24370739D01*
X26424488Y-24531077D01*
X26076116Y-24763851D01*
X25779851Y-25060116D01*
X25547077Y-25408488D01*
X25386739Y-25795577D01*
X25305000Y-26206509D01*
X23495000Y-26206509D01*
X23495000Y-22479000D01*
X165481000Y-22479000D01*
X165481000Y-111633000D01*
G37*
X165481000Y-111633000D02*
X23495000Y-111633000D01*
X23495000Y-107486509D01*
X25305000Y-107486509D01*
X25305000Y-107905491D01*
X25386739Y-108316423D01*
X25547077Y-108703512D01*
X25779851Y-109051884D01*
X26076116Y-109348149D01*
X26424488Y-109580923D01*
X26811577Y-109741261D01*
X27222509Y-109823000D01*
X27641491Y-109823000D01*
X28052423Y-109741261D01*
X28439512Y-109580923D01*
X28787884Y-109348149D01*
X29084149Y-109051884D01*
X29316923Y-108703512D01*
X29477261Y-108316423D01*
X29559000Y-107905491D01*
X29559000Y-107486509D01*
X29477261Y-107075577D01*
X29316923Y-106688488D01*
X29084149Y-106340116D01*
X28787884Y-106043851D01*
X28439512Y-105811077D01*
X28052423Y-105650739D01*
X27641491Y-105569000D01*
X27222509Y-105569000D01*
X26811577Y-105650739D01*
X26424488Y-105811077D01*
X26076116Y-106043851D01*
X25779851Y-106340116D01*
X25547077Y-106688488D01*
X25386739Y-107075577D01*
X25305000Y-107486509D01*
X23495000Y-107486509D01*
X23495000Y-64770000D01*
X25135613Y-64770000D01*
X25143001Y-64845011D01*
X25143000Y-91364999D01*
X25135613Y-91440000D01*
X25143000Y-91515001D01*
X25143000Y-91515010D01*
X25165095Y-91739343D01*
X25252410Y-92027184D01*
X25394203Y-92292459D01*
X25585024Y-92524976D01*
X25643294Y-92572797D01*
X33157208Y-100086712D01*
X33205024Y-100144976D01*
X33437540Y-100335797D01*
X33702815Y-100477590D01*
X33990656Y-100564905D01*
X34214989Y-100587000D01*
X34214998Y-100587000D01*
X34289999Y-100594387D01*
X34365000Y-100587000D01*
X52516800Y-100587000D01*
X52521959Y-100590447D01*
X52836253Y-100720632D01*
X53169905Y-100787000D01*
X53510095Y-100787000D01*
X53843747Y-100720632D01*
X54158041Y-100590447D01*
X54163200Y-100587000D01*
X59433001Y-100587000D01*
X59433001Y-101524989D01*
X59425613Y-101600000D01*
X59433001Y-101675011D01*
X59455096Y-101899344D01*
X59542411Y-102187185D01*
X59684204Y-102452460D01*
X59875025Y-102684976D01*
X59933289Y-102732792D01*
X62367208Y-105166712D01*
X62415024Y-105224976D01*
X62647540Y-105415797D01*
X62912815Y-105557590D01*
X63200656Y-105644905D01*
X63424989Y-105667000D01*
X63424998Y-105667000D01*
X63499999Y-105674387D01*
X63575000Y-105667000D01*
X77394999Y-105667000D01*
X77470000Y-105674387D01*
X77545001Y-105667000D01*
X77545011Y-105667000D01*
X77769344Y-105644905D01*
X78057185Y-105557590D01*
X78322460Y-105415797D01*
X78554976Y-105224976D01*
X78602797Y-105166706D01*
X88656713Y-95112791D01*
X88714976Y-95064976D01*
X88905797Y-94832460D01*
X89047590Y-94567185D01*
X89071634Y-94487922D01*
X89134905Y-94279345D01*
X89137594Y-94252045D01*
X89157000Y-94055011D01*
X89157000Y-94055004D01*
X89164387Y-93980000D01*
X89157000Y-93904996D01*
X89157000Y-91024550D01*
X89630000Y-91024550D01*
X89733310Y-91014375D01*
X89832650Y-90984240D01*
X89924202Y-90935305D01*
X90004448Y-90869449D01*
X90070304Y-90789203D01*
X90119239Y-90697651D01*
X90149374Y-90598311D01*
X90159549Y-90495001D01*
X90159549Y-86495001D01*
X90149374Y-86391691D01*
X90119239Y-86292351D01*
X90070304Y-86200799D01*
X90004448Y-86120553D01*
X89924202Y-86054697D01*
X89832650Y-86005762D01*
X89733310Y-85975627D01*
X89630000Y-85965452D01*
X85630000Y-85965452D01*
X85526690Y-85975627D01*
X85427350Y-86005762D01*
X85335798Y-86054697D01*
X85255552Y-86120553D01*
X85189696Y-86200799D01*
X85140761Y-86292351D01*
X85110626Y-86391691D01*
X85100451Y-86495001D01*
X85100451Y-90495001D01*
X85110626Y-90598311D01*
X85140761Y-90697651D01*
X85189696Y-90789203D01*
X85255552Y-90869449D01*
X85335798Y-90935305D01*
X85427350Y-90984240D01*
X85526690Y-91014375D01*
X85630000Y-91024550D01*
X86103001Y-91024550D01*
X86103000Y-93347496D01*
X76837497Y-102613000D01*
X64132504Y-102613000D01*
X62487000Y-100967497D01*
X62487000Y-99883200D01*
X62490447Y-99878041D01*
X62620632Y-99563747D01*
X62687000Y-99230095D01*
X62687000Y-98889905D01*
X62620632Y-98556253D01*
X62490447Y-98241959D01*
X62301448Y-97959102D01*
X62060898Y-97718552D01*
X61778041Y-97529553D01*
X61463747Y-97399368D01*
X61130095Y-97333000D01*
X60789905Y-97333000D01*
X60456253Y-97399368D01*
X60141959Y-97529553D01*
X60136800Y-97533000D01*
X54163200Y-97533000D01*
X54158041Y-97529553D01*
X53843747Y-97399368D01*
X53510095Y-97333000D01*
X53169905Y-97333000D01*
X52836253Y-97399368D01*
X52521959Y-97529553D01*
X52516800Y-97533000D01*
X34922504Y-97533000D01*
X28197000Y-90807497D01*
X28197000Y-76200000D01*
X29548516Y-76200000D01*
X29553000Y-76245527D01*
X29553001Y-86314463D01*
X29548516Y-86360000D01*
X29566414Y-86541723D01*
X29619420Y-86716463D01*
X29705499Y-86877505D01*
X29792312Y-86983287D01*
X29792317Y-86983292D01*
X29821342Y-87018659D01*
X29856708Y-87047683D01*
X30990451Y-88181426D01*
X30990451Y-90400000D01*
X31000626Y-90503310D01*
X31030761Y-90602650D01*
X31079696Y-90694202D01*
X31145552Y-90774448D01*
X31225798Y-90840304D01*
X31317350Y-90889239D01*
X31416690Y-90919374D01*
X31520000Y-90929549D01*
X34520000Y-90929549D01*
X34623310Y-90919374D01*
X34722650Y-90889239D01*
X34814202Y-90840304D01*
X34894448Y-90774448D01*
X34960304Y-90694202D01*
X35009239Y-90602650D01*
X35039374Y-90503310D01*
X35049549Y-90400000D01*
X35049549Y-87400000D01*
X35039374Y-87296690D01*
X35009239Y-87197350D01*
X34960304Y-87105798D01*
X34894448Y-87025552D01*
X34814202Y-86959696D01*
X34722650Y-86910761D01*
X34623310Y-86880626D01*
X34520000Y-86870451D01*
X32301426Y-86870451D01*
X31407000Y-85976025D01*
X31407000Y-85054479D01*
X31445526Y-85112137D01*
X31727863Y-85394474D01*
X32059855Y-85616304D01*
X32428746Y-85769104D01*
X32820358Y-85847000D01*
X33219642Y-85847000D01*
X33611254Y-85769104D01*
X33644400Y-85755375D01*
X37812312Y-89923287D01*
X37841341Y-89958659D01*
X37876712Y-89987687D01*
X37982494Y-90074501D01*
X38068573Y-90120511D01*
X38143536Y-90160580D01*
X38318276Y-90213587D01*
X38454462Y-90227000D01*
X38454474Y-90227000D01*
X38499999Y-90231484D01*
X38545524Y-90227000D01*
X66027081Y-90227000D01*
X66117752Y-90396634D01*
X66296078Y-90613923D01*
X66513367Y-90792248D01*
X66761270Y-90924755D01*
X67030260Y-91006352D01*
X67310000Y-91033904D01*
X67589741Y-91006352D01*
X67858731Y-90924755D01*
X68106634Y-90792248D01*
X68323923Y-90613923D01*
X68502248Y-90396634D01*
X68634755Y-90148731D01*
X68716352Y-89879740D01*
X68737000Y-89670097D01*
X68737000Y-88929902D01*
X68716352Y-88720259D01*
X68634755Y-88451269D01*
X68502248Y-88203366D01*
X68323922Y-87986077D01*
X68106633Y-87807752D01*
X67858730Y-87675245D01*
X67589740Y-87593648D01*
X67310000Y-87566096D01*
X67030259Y-87593648D01*
X66761269Y-87675245D01*
X66513366Y-87807752D01*
X66296077Y-87986078D01*
X66117752Y-88203367D01*
X66027081Y-88373000D01*
X38883975Y-88373000D01*
X34955375Y-84444400D01*
X34969104Y-84411254D01*
X35047000Y-84019642D01*
X35047000Y-83620358D01*
X34969104Y-83228746D01*
X34816304Y-82859855D01*
X34594474Y-82527863D01*
X34312137Y-82245526D01*
X33980145Y-82023696D01*
X33611254Y-81870896D01*
X33219642Y-81793000D01*
X32820358Y-81793000D01*
X32428746Y-81870896D01*
X32059855Y-82023696D01*
X31727863Y-82245526D01*
X31445526Y-82527863D01*
X31407000Y-82585521D01*
X31407000Y-80231653D01*
X31707952Y-80231653D01*
X31863962Y-80547214D01*
X32238745Y-80738020D01*
X32643551Y-80852044D01*
X33062824Y-80884902D01*
X33480451Y-80835334D01*
X33880383Y-80705243D01*
X34176038Y-80547214D01*
X34332048Y-80231653D01*
X33020000Y-78919605D01*
X31707952Y-80231653D01*
X31407000Y-80231653D01*
X31407000Y-79992055D01*
X31528347Y-80052048D01*
X32840395Y-78740000D01*
X33199605Y-78740000D01*
X34511653Y-80052048D01*
X34827214Y-79896038D01*
X35018020Y-79521255D01*
X35132044Y-79116449D01*
X35164902Y-78697176D01*
X35115334Y-78279549D01*
X34985243Y-77879617D01*
X34827214Y-77583962D01*
X34511653Y-77427952D01*
X33199605Y-78740000D01*
X32840395Y-78740000D01*
X31528347Y-77427952D01*
X31407000Y-77487945D01*
X31407000Y-77248347D01*
X31707952Y-77248347D01*
X33020000Y-78560395D01*
X34332048Y-77248347D01*
X34176038Y-76932786D01*
X33801255Y-76741980D01*
X33396449Y-76627956D01*
X32977176Y-76595098D01*
X32559549Y-76644666D01*
X32159617Y-76774757D01*
X31863962Y-76932786D01*
X31707952Y-77248347D01*
X31407000Y-77248347D01*
X31407000Y-76583975D01*
X33403976Y-74587000D01*
X36784473Y-74587000D01*
X36830000Y-74591484D01*
X36875527Y-74587000D01*
X36875538Y-74587000D01*
X37011724Y-74573587D01*
X37186464Y-74520580D01*
X37347505Y-74434501D01*
X37488659Y-74318659D01*
X37517688Y-74283287D01*
X37632975Y-74168000D01*
X44280516Y-74168000D01*
X44285001Y-74213537D01*
X44285000Y-79710473D01*
X44280516Y-79756000D01*
X44285000Y-79801527D01*
X44285000Y-79801537D01*
X44298413Y-79937723D01*
X44337174Y-80065499D01*
X44351420Y-80112463D01*
X44437499Y-80273505D01*
X44524312Y-80379287D01*
X44553341Y-80414659D01*
X44588713Y-80443688D01*
X49096316Y-84951292D01*
X49125341Y-84986659D01*
X49160708Y-85015684D01*
X49160711Y-85015687D01*
X49266494Y-85102501D01*
X49352573Y-85148511D01*
X49427536Y-85188580D01*
X49602276Y-85241587D01*
X49738462Y-85255000D01*
X49738474Y-85255000D01*
X49783999Y-85259484D01*
X49829524Y-85255000D01*
X55326473Y-85255000D01*
X55372000Y-85259484D01*
X55417527Y-85255000D01*
X55417538Y-85255000D01*
X55553724Y-85241587D01*
X55728464Y-85188580D01*
X55889505Y-85102501D01*
X56030659Y-84986659D01*
X56059688Y-84951287D01*
X57281936Y-83729039D01*
X65518096Y-83729039D01*
X65535633Y-83811818D01*
X65646285Y-84071646D01*
X65805500Y-84304895D01*
X66007161Y-84502601D01*
X66243517Y-84657166D01*
X66505486Y-84762650D01*
X66783000Y-84815000D01*
X67183000Y-84815000D01*
X67183000Y-83507000D01*
X65640085Y-83507000D01*
X65518096Y-83729039D01*
X57281936Y-83729039D01*
X60584778Y-80426197D01*
X60789905Y-80467000D01*
X61130095Y-80467000D01*
X61463747Y-80400632D01*
X61778041Y-80270447D01*
X62060898Y-80081448D01*
X62301448Y-79840898D01*
X62490447Y-79558041D01*
X62620632Y-79243747D01*
X62623963Y-79227000D01*
X65954106Y-79227000D01*
X65967130Y-79242870D01*
X66169192Y-79408698D01*
X66399722Y-79531919D01*
X66525257Y-79570000D01*
X66399722Y-79608081D01*
X66169192Y-79731302D01*
X65967130Y-79897130D01*
X65801302Y-80099192D01*
X65678081Y-80329722D01*
X65602201Y-80579863D01*
X65576580Y-80840000D01*
X65602201Y-81100137D01*
X65678081Y-81350278D01*
X65801302Y-81580808D01*
X65967130Y-81782870D01*
X66169192Y-81948698D01*
X66365596Y-82053678D01*
X66243517Y-82102834D01*
X66007161Y-82257399D01*
X65805500Y-82455105D01*
X65646285Y-82688354D01*
X65535633Y-82948182D01*
X65518096Y-83030961D01*
X65640085Y-83253000D01*
X67183000Y-83253000D01*
X67183000Y-83233000D01*
X67437000Y-83233000D01*
X67437000Y-83253000D01*
X67457000Y-83253000D01*
X67457000Y-83507000D01*
X67437000Y-83507000D01*
X67437000Y-84815000D01*
X67837000Y-84815000D01*
X68114514Y-84762650D01*
X68376483Y-84657166D01*
X68612839Y-84502601D01*
X68814500Y-84304895D01*
X68923001Y-84145942D01*
X68923000Y-91056024D01*
X66686708Y-93292317D01*
X66651342Y-93321341D01*
X66622317Y-93356708D01*
X66622312Y-93356713D01*
X66535499Y-93462495D01*
X66449420Y-93623537D01*
X66396414Y-93798277D01*
X66378516Y-93980000D01*
X66383001Y-94025537D01*
X66383000Y-98074741D01*
X66296077Y-98146078D01*
X66117752Y-98363367D01*
X65985245Y-98611270D01*
X65903648Y-98880260D01*
X65883000Y-99089903D01*
X65883000Y-99830098D01*
X65903648Y-100039741D01*
X65985245Y-100308731D01*
X66117752Y-100556634D01*
X66296078Y-100773923D01*
X66513367Y-100952248D01*
X66761270Y-101084755D01*
X67030260Y-101166352D01*
X67310000Y-101193904D01*
X67589741Y-101166352D01*
X67858731Y-101084755D01*
X68106634Y-100952248D01*
X68323923Y-100773923D01*
X68502248Y-100556634D01*
X68634755Y-100308731D01*
X68716352Y-100039740D01*
X68737000Y-99830097D01*
X68737000Y-99089902D01*
X68716352Y-98880259D01*
X68634755Y-98611269D01*
X68502248Y-98363366D01*
X68323922Y-98146077D01*
X68237000Y-98074742D01*
X68237000Y-94363975D01*
X70473293Y-92127683D01*
X70508659Y-92098659D01*
X70537684Y-92063292D01*
X70537687Y-92063289D01*
X70624501Y-91957506D01*
X70710579Y-91796465D01*
X70710580Y-91796464D01*
X70763587Y-91621724D01*
X70777000Y-91485538D01*
X70777000Y-91485526D01*
X70781484Y-91440001D01*
X70777000Y-91394476D01*
X70777000Y-82595526D01*
X70781484Y-82549999D01*
X70777000Y-82504472D01*
X70777000Y-82504462D01*
X70763587Y-82368276D01*
X70710580Y-82193536D01*
X70636264Y-82054501D01*
X70624501Y-82032494D01*
X70537688Y-81926712D01*
X70537684Y-81926708D01*
X70508659Y-81891341D01*
X70473292Y-81862316D01*
X68942451Y-80331476D01*
X68941919Y-80329722D01*
X68818698Y-80099192D01*
X68652870Y-79897130D01*
X68450808Y-79731302D01*
X68220278Y-79608081D01*
X68094743Y-79570000D01*
X68220278Y-79531919D01*
X68450808Y-79408698D01*
X68652870Y-79242870D01*
X68665894Y-79227000D01*
X69026025Y-79227000D01*
X71463001Y-81663977D01*
X71463000Y-87914741D01*
X71376077Y-87986078D01*
X71197752Y-88203367D01*
X71065245Y-88451270D01*
X70983648Y-88720260D01*
X70963000Y-88929903D01*
X70963000Y-89670098D01*
X70983648Y-89879741D01*
X71065245Y-90148731D01*
X71197752Y-90396634D01*
X71376078Y-90613923D01*
X71593367Y-90792248D01*
X71841270Y-90924755D01*
X72110260Y-91006352D01*
X72390000Y-91033904D01*
X72669741Y-91006352D01*
X72938731Y-90924755D01*
X73186634Y-90792248D01*
X73403923Y-90613923D01*
X73582248Y-90396634D01*
X73714755Y-90148731D01*
X73796352Y-89879740D01*
X73817000Y-89670097D01*
X73817000Y-88929902D01*
X73796352Y-88720259D01*
X73714755Y-88451269D01*
X73582248Y-88203366D01*
X73403922Y-87986077D01*
X73317000Y-87914742D01*
X73317000Y-83729039D01*
X74408096Y-83729039D01*
X74425633Y-83811818D01*
X74536285Y-84071646D01*
X74695500Y-84304895D01*
X74897161Y-84502601D01*
X75133517Y-84657166D01*
X75395486Y-84762650D01*
X75673000Y-84815000D01*
X76073000Y-84815000D01*
X76073000Y-83507000D01*
X76327000Y-83507000D01*
X76327000Y-84815000D01*
X76727000Y-84815000D01*
X77004514Y-84762650D01*
X77266483Y-84657166D01*
X77502839Y-84502601D01*
X77704500Y-84304895D01*
X77863715Y-84071646D01*
X77974367Y-83811818D01*
X77991904Y-83729039D01*
X77869915Y-83507000D01*
X76327000Y-83507000D01*
X76073000Y-83507000D01*
X74530085Y-83507000D01*
X74408096Y-83729039D01*
X73317000Y-83729039D01*
X73317000Y-81325524D01*
X73321484Y-81279999D01*
X73317000Y-81234474D01*
X73317000Y-81234462D01*
X73303587Y-81098276D01*
X73250580Y-80923536D01*
X73203435Y-80835334D01*
X73164501Y-80762494D01*
X73077687Y-80656711D01*
X73077684Y-80656708D01*
X73048659Y-80621341D01*
X73013292Y-80592316D01*
X70097687Y-77676712D01*
X70068659Y-77641341D01*
X69927505Y-77525499D01*
X69766464Y-77439420D01*
X69591724Y-77386413D01*
X69455538Y-77373000D01*
X69455527Y-77373000D01*
X69410000Y-77368516D01*
X69364473Y-77373000D01*
X68665894Y-77373000D01*
X68652870Y-77357130D01*
X68450808Y-77191302D01*
X68220278Y-77068081D01*
X67970137Y-76992201D01*
X67775184Y-76973000D01*
X66844816Y-76973000D01*
X66649863Y-76992201D01*
X66399722Y-77068081D01*
X66169192Y-77191302D01*
X65967130Y-77357130D01*
X65954106Y-77373000D01*
X62022657Y-77373000D01*
X61778041Y-77209553D01*
X61463747Y-77079368D01*
X61130095Y-77013000D01*
X60789905Y-77013000D01*
X60456253Y-77079368D01*
X60141959Y-77209553D01*
X59859102Y-77398552D01*
X59618552Y-77639102D01*
X59429553Y-77921959D01*
X59299368Y-78236253D01*
X59233000Y-78569905D01*
X59233000Y-78910095D01*
X59273803Y-79115222D01*
X54988025Y-83401000D01*
X50167976Y-83401000D01*
X46139000Y-79372025D01*
X46139000Y-74551975D01*
X47627976Y-73063000D01*
X87838462Y-73063000D01*
X87884000Y-73067485D01*
X87929537Y-73063000D01*
X87929538Y-73063000D01*
X88065724Y-73049587D01*
X88240464Y-72996580D01*
X88401505Y-72910501D01*
X88542659Y-72794659D01*
X88658501Y-72653505D01*
X88744580Y-72492464D01*
X88797587Y-72317724D01*
X88815485Y-72136000D01*
X88811000Y-72090462D01*
X88811000Y-64391975D01*
X93347976Y-59855000D01*
X103430894Y-59855000D01*
X103461901Y-59901406D01*
X103674594Y-60114099D01*
X103924694Y-60281210D01*
X104202590Y-60396319D01*
X104482522Y-60452000D01*
X104202590Y-60507681D01*
X104130786Y-60537424D01*
X104094473Y-60541000D01*
X95705106Y-60541000D01*
X95674099Y-60494594D01*
X95461406Y-60281901D01*
X95211306Y-60114790D01*
X94933410Y-59999681D01*
X94638396Y-59941000D01*
X94337604Y-59941000D01*
X94042590Y-59999681D01*
X93764694Y-60114790D01*
X93514594Y-60281901D01*
X93301901Y-60494594D01*
X93134790Y-60744694D01*
X93019681Y-61022590D01*
X92961000Y-61317604D01*
X92961000Y-61618396D01*
X93019681Y-61913410D01*
X93134790Y-62191306D01*
X93301901Y-62441406D01*
X93514594Y-62654099D01*
X93764694Y-62821210D01*
X94042590Y-62936319D01*
X94337604Y-62995000D01*
X94638396Y-62995000D01*
X94933410Y-62936319D01*
X95211306Y-62821210D01*
X95461406Y-62654099D01*
X95674099Y-62441406D01*
X95705106Y-62395000D01*
X103174428Y-62395000D01*
X103179681Y-62421410D01*
X103294790Y-62699306D01*
X103461901Y-62949406D01*
X103674594Y-63162099D01*
X103924694Y-63329210D01*
X104202590Y-63444319D01*
X104497604Y-63503000D01*
X104798396Y-63503000D01*
X105093410Y-63444319D01*
X105371306Y-63329210D01*
X105621406Y-63162099D01*
X105834099Y-62949406D01*
X106001210Y-62699306D01*
X106116319Y-62421410D01*
X106175000Y-62126396D01*
X106175000Y-61825604D01*
X106116319Y-61530590D01*
X106001210Y-61252694D01*
X105834099Y-61002594D01*
X105621406Y-60789901D01*
X105371306Y-60622790D01*
X105093410Y-60507681D01*
X104813478Y-60452000D01*
X105093410Y-60396319D01*
X105371306Y-60281210D01*
X105621406Y-60114099D01*
X105834099Y-59901406D01*
X106001210Y-59651306D01*
X106116319Y-59373410D01*
X106175000Y-59078396D01*
X106175000Y-58777604D01*
X106116319Y-58482590D01*
X106001210Y-58204694D01*
X105834099Y-57954594D01*
X105621406Y-57741901D01*
X105371306Y-57574790D01*
X105093410Y-57459681D01*
X104798396Y-57401000D01*
X104497604Y-57401000D01*
X104202590Y-57459681D01*
X103924694Y-57574790D01*
X103674594Y-57741901D01*
X103461901Y-57954594D01*
X103430894Y-58001000D01*
X93009527Y-58001000D01*
X92964000Y-57996516D01*
X92918473Y-58001000D01*
X92918462Y-58001000D01*
X92782276Y-58014413D01*
X92620175Y-58063586D01*
X92607536Y-58067420D01*
X92446494Y-58153499D01*
X92340712Y-58240312D01*
X92340708Y-58240316D01*
X92305341Y-58269341D01*
X92276316Y-58304708D01*
X87260709Y-63320316D01*
X87225342Y-63349341D01*
X87196317Y-63384708D01*
X87196312Y-63384713D01*
X87109499Y-63490495D01*
X87023420Y-63651537D01*
X86970414Y-63826277D01*
X86952516Y-64008000D01*
X86957001Y-64053537D01*
X86957000Y-71209000D01*
X47289527Y-71209000D01*
X47244000Y-71204516D01*
X47198473Y-71209000D01*
X47198462Y-71209000D01*
X47062276Y-71222413D01*
X46887536Y-71275420D01*
X46726494Y-71361499D01*
X46620712Y-71448312D01*
X46620708Y-71448316D01*
X46585341Y-71477341D01*
X46556316Y-71512708D01*
X44588708Y-73480317D01*
X44553342Y-73509341D01*
X44524317Y-73544708D01*
X44524312Y-73544713D01*
X44437499Y-73650495D01*
X44351420Y-73811537D01*
X44314493Y-73933270D01*
X44298414Y-73986276D01*
X44296767Y-74003000D01*
X44280516Y-74168000D01*
X37632975Y-74168000D01*
X42533292Y-69267684D01*
X42568659Y-69238659D01*
X42597684Y-69203292D01*
X42597688Y-69203288D01*
X42684501Y-69097506D01*
X42770580Y-68936464D01*
X42823587Y-68761724D01*
X42837000Y-68625538D01*
X42837000Y-68625527D01*
X42841484Y-68580000D01*
X42837000Y-68534473D01*
X42837000Y-57533975D01*
X58168976Y-42202000D01*
X62419473Y-42202000D01*
X62465000Y-42206484D01*
X62510527Y-42202000D01*
X62510538Y-42202000D01*
X62646724Y-42188587D01*
X62821464Y-42135580D01*
X62982505Y-42049501D01*
X63123659Y-41933659D01*
X63152688Y-41898287D01*
X66941537Y-38109438D01*
X67030260Y-38136352D01*
X67310000Y-38163904D01*
X67589741Y-38136352D01*
X67858731Y-38054755D01*
X68106634Y-37922248D01*
X68323923Y-37743923D01*
X68502248Y-37526634D01*
X68634755Y-37278731D01*
X68716352Y-37009740D01*
X68737000Y-36800097D01*
X68737000Y-36059902D01*
X68716352Y-35850259D01*
X68634755Y-35581269D01*
X68502248Y-35333366D01*
X68323922Y-35116077D01*
X68106633Y-34937752D01*
X67858730Y-34805245D01*
X67589740Y-34723648D01*
X67310000Y-34696096D01*
X67030259Y-34723648D01*
X66761269Y-34805245D01*
X66513366Y-34937752D01*
X66296077Y-35116078D01*
X66117752Y-35333367D01*
X65985245Y-35581270D01*
X65903648Y-35850260D01*
X65883000Y-36059903D01*
X65883000Y-36546024D01*
X62081025Y-40348000D01*
X57830524Y-40348000D01*
X57784999Y-40343516D01*
X57739474Y-40348000D01*
X57739462Y-40348000D01*
X57603276Y-40361413D01*
X57428536Y-40414420D01*
X57353573Y-40454489D01*
X57267494Y-40500499D01*
X57161712Y-40587312D01*
X57161708Y-40587316D01*
X57126341Y-40616341D01*
X57097316Y-40651708D01*
X41286713Y-56462312D01*
X41251341Y-56491341D01*
X41222313Y-56526712D01*
X41222312Y-56526713D01*
X41135499Y-56632495D01*
X41118069Y-56665105D01*
X41049420Y-56793537D01*
X40996413Y-56968277D01*
X40983000Y-57104463D01*
X40983000Y-57104473D01*
X40978516Y-57150000D01*
X40983000Y-57195527D01*
X40983001Y-68196023D01*
X36446025Y-72733000D01*
X33065524Y-72733000D01*
X33019999Y-72728516D01*
X32974474Y-72733000D01*
X32974462Y-72733000D01*
X32838276Y-72746413D01*
X32663536Y-72799420D01*
X32588573Y-72839489D01*
X32502494Y-72885499D01*
X32396711Y-72972313D01*
X32396708Y-72972316D01*
X32361341Y-73001341D01*
X32332316Y-73036708D01*
X29856713Y-75512312D01*
X29821341Y-75541341D01*
X29792313Y-75576712D01*
X29792312Y-75576713D01*
X29705499Y-75682495D01*
X29690212Y-75711095D01*
X29619420Y-75843537D01*
X29566413Y-76018277D01*
X29553000Y-76154463D01*
X29553000Y-76154473D01*
X29548516Y-76200000D01*
X28197000Y-76200000D01*
X28197000Y-68801653D01*
X31707952Y-68801653D01*
X31863962Y-69117214D01*
X32238745Y-69308020D01*
X32643551Y-69422044D01*
X33062824Y-69454902D01*
X33480451Y-69405334D01*
X33880383Y-69275243D01*
X34176038Y-69117214D01*
X34332048Y-68801653D01*
X33020000Y-67489605D01*
X31707952Y-68801653D01*
X28197000Y-68801653D01*
X28197000Y-67352824D01*
X30875098Y-67352824D01*
X30924666Y-67770451D01*
X31054757Y-68170383D01*
X31212786Y-68466038D01*
X31528347Y-68622048D01*
X32840395Y-67310000D01*
X33199605Y-67310000D01*
X34511653Y-68622048D01*
X34827214Y-68466038D01*
X35018020Y-68091255D01*
X35132044Y-67686449D01*
X35164902Y-67267176D01*
X35115334Y-66849549D01*
X34985243Y-66449617D01*
X34827214Y-66153962D01*
X34511653Y-65997952D01*
X33199605Y-67310000D01*
X32840395Y-67310000D01*
X31528347Y-65997952D01*
X31212786Y-66153962D01*
X31021980Y-66528745D01*
X30907956Y-66933551D01*
X30875098Y-67352824D01*
X28197000Y-67352824D01*
X28197000Y-65818347D01*
X31707952Y-65818347D01*
X33020000Y-67130395D01*
X34332048Y-65818347D01*
X34176038Y-65502786D01*
X33801255Y-65311980D01*
X33396449Y-65197956D01*
X32977176Y-65165098D01*
X32559549Y-65214666D01*
X32159617Y-65344757D01*
X31863962Y-65502786D01*
X31707952Y-65818347D01*
X28197000Y-65818347D01*
X28197000Y-65402503D01*
X29842504Y-63757000D01*
X30993110Y-63757000D01*
X31000626Y-63833310D01*
X31030761Y-63932650D01*
X31079696Y-64024202D01*
X31145552Y-64104448D01*
X31225798Y-64170304D01*
X31317350Y-64219239D01*
X31416690Y-64249374D01*
X31520000Y-64259549D01*
X34520000Y-64259549D01*
X34623310Y-64249374D01*
X34722650Y-64219239D01*
X34814202Y-64170304D01*
X34894448Y-64104448D01*
X34960304Y-64024202D01*
X35009239Y-63932650D01*
X35039374Y-63833310D01*
X35049549Y-63730000D01*
X35049549Y-60730000D01*
X35039374Y-60626690D01*
X35009239Y-60527350D01*
X34960304Y-60435798D01*
X34894448Y-60355552D01*
X34814202Y-60289696D01*
X34722650Y-60240761D01*
X34623310Y-60210626D01*
X34547000Y-60203110D01*
X34547000Y-57782503D01*
X53837661Y-38491842D01*
X53843747Y-38490632D01*
X54158041Y-38360447D01*
X54163200Y-38357000D01*
X60136800Y-38357000D01*
X60141959Y-38360447D01*
X60456253Y-38490632D01*
X60789905Y-38557000D01*
X61130095Y-38557000D01*
X61463747Y-38490632D01*
X61778041Y-38360447D01*
X62060898Y-38171448D01*
X62301448Y-37930898D01*
X62490447Y-37648041D01*
X62620632Y-37333747D01*
X62687000Y-37000095D01*
X62687000Y-36659905D01*
X62620632Y-36326253D01*
X62490447Y-36011959D01*
X62487000Y-36006800D01*
X62487000Y-34922503D01*
X64132504Y-33277000D01*
X77599497Y-33277000D01*
X79753001Y-35430505D01*
X79753000Y-41204999D01*
X79745613Y-41280000D01*
X79753000Y-41355001D01*
X79753000Y-41355010D01*
X79775095Y-41579343D01*
X79862410Y-41867184D01*
X80004203Y-42132459D01*
X80195024Y-42364976D01*
X80253294Y-42412797D01*
X85100451Y-47259955D01*
X85100451Y-49630000D01*
X85110626Y-49733310D01*
X85140761Y-49832650D01*
X85189696Y-49924202D01*
X85255552Y-50004448D01*
X85335798Y-50070304D01*
X85427350Y-50119239D01*
X85526690Y-50149374D01*
X85630000Y-50159549D01*
X89630000Y-50159549D01*
X89733310Y-50149374D01*
X89832650Y-50119239D01*
X89924202Y-50070304D01*
X90004448Y-50004448D01*
X90070304Y-49924202D01*
X90119239Y-49832650D01*
X90149374Y-49733310D01*
X90159549Y-49630000D01*
X90159549Y-49477499D01*
X95962106Y-49477499D01*
X96178228Y-49844258D01*
X96638105Y-50084938D01*
X97136098Y-50231275D01*
X97653071Y-50277648D01*
X98169159Y-50222273D01*
X98664526Y-50067279D01*
X99081772Y-49844258D01*
X99297894Y-49477499D01*
X97630000Y-47809605D01*
X95962106Y-49477499D01*
X90159549Y-49477499D01*
X90159549Y-49157000D01*
X91486999Y-49157000D01*
X91562000Y-49164387D01*
X91637001Y-49157000D01*
X91637011Y-49157000D01*
X91861344Y-49134905D01*
X92149185Y-49047590D01*
X92414460Y-48905797D01*
X92646976Y-48714976D01*
X92694796Y-48656707D01*
X93698432Y-47653071D01*
X94982352Y-47653071D01*
X95037727Y-48169159D01*
X95192721Y-48664526D01*
X95415742Y-49081772D01*
X95782501Y-49297894D01*
X97450395Y-47630000D01*
X97809605Y-47630000D01*
X99477499Y-49297894D01*
X99844258Y-49081772D01*
X100084938Y-48621895D01*
X100231275Y-48123902D01*
X100277648Y-47606929D01*
X100222273Y-47090841D01*
X100067279Y-46595474D01*
X99844258Y-46178228D01*
X99477499Y-45962106D01*
X97809605Y-47630000D01*
X97450395Y-47630000D01*
X95782501Y-45962106D01*
X95415742Y-46178228D01*
X95175062Y-46638105D01*
X95028725Y-47136098D01*
X94982352Y-47653071D01*
X93698432Y-47653071D01*
X93990711Y-47360793D01*
X94048976Y-47312976D01*
X94239797Y-47080460D01*
X94381590Y-46815185D01*
X94468905Y-46527344D01*
X94491000Y-46303011D01*
X94491000Y-46303002D01*
X94498387Y-46228001D01*
X94491000Y-46153000D01*
X94491000Y-45782501D01*
X95962106Y-45782501D01*
X97630000Y-47450395D01*
X99297894Y-45782501D01*
X99081772Y-45415742D01*
X98621895Y-45175062D01*
X98123902Y-45028725D01*
X97606929Y-44982352D01*
X97090841Y-45037727D01*
X96595474Y-45192721D01*
X96178228Y-45415742D01*
X95962106Y-45782501D01*
X94491000Y-45782501D01*
X94491000Y-33652503D01*
X101724504Y-26419000D01*
X107063497Y-26419000D01*
X107693001Y-27048504D01*
X107693001Y-27216410D01*
X107632500Y-27210451D01*
X105727500Y-27210451D01*
X105624190Y-27220626D01*
X105524850Y-27250761D01*
X105433298Y-27299696D01*
X105353052Y-27365552D01*
X105287196Y-27445798D01*
X105238261Y-27537350D01*
X105208126Y-27636690D01*
X105197951Y-27740000D01*
X105197951Y-29111073D01*
X102500713Y-31808312D01*
X102465341Y-31837341D01*
X102436313Y-31872712D01*
X102436312Y-31872713D01*
X102349499Y-31978495D01*
X102311629Y-32049345D01*
X102263420Y-32139537D01*
X102210413Y-32314277D01*
X102197000Y-32450463D01*
X102197000Y-32450473D01*
X102192516Y-32496000D01*
X102197000Y-32541527D01*
X102197001Y-49400023D01*
X96292026Y-55304999D01*
X90313526Y-55304999D01*
X90267999Y-55300515D01*
X90222472Y-55304999D01*
X90222461Y-55304999D01*
X90086275Y-55318412D01*
X89911535Y-55371419D01*
X89750493Y-55457497D01*
X89644711Y-55544311D01*
X89644707Y-55544315D01*
X89609340Y-55573340D01*
X89580315Y-55608707D01*
X79441023Y-65748000D01*
X54358976Y-65748000D01*
X50457000Y-61846025D01*
X50457000Y-56979905D01*
X51613000Y-56979905D01*
X51613000Y-57320095D01*
X51679368Y-57653747D01*
X51809553Y-57968041D01*
X51998552Y-58250898D01*
X52239102Y-58491448D01*
X52413001Y-58607643D01*
X52413001Y-59644463D01*
X52408516Y-59690000D01*
X52413001Y-59735537D01*
X52413001Y-59735538D01*
X52425209Y-59859484D01*
X52426414Y-59871723D01*
X52479420Y-60046463D01*
X52565499Y-60207505D01*
X52652312Y-60313287D01*
X52652317Y-60313292D01*
X52681342Y-60348659D01*
X52716708Y-60377683D01*
X56462316Y-64123292D01*
X56491341Y-64158659D01*
X56526708Y-64187684D01*
X56526712Y-64187688D01*
X56632494Y-64274502D01*
X56793536Y-64360580D01*
X56968276Y-64413587D01*
X57104462Y-64427000D01*
X57104473Y-64427000D01*
X57150000Y-64431484D01*
X57195527Y-64427000D01*
X70439473Y-64427000D01*
X70485000Y-64431484D01*
X70530527Y-64427000D01*
X70530538Y-64427000D01*
X70666724Y-64413587D01*
X70841464Y-64360580D01*
X71002505Y-64274501D01*
X71143659Y-64158659D01*
X71172688Y-64123287D01*
X72773976Y-62522000D01*
X77522894Y-62522000D01*
X77553901Y-62568406D01*
X77766594Y-62781099D01*
X78016694Y-62948210D01*
X78294590Y-63063319D01*
X78589604Y-63122000D01*
X78890396Y-63122000D01*
X79185410Y-63063319D01*
X79463306Y-62948210D01*
X79713406Y-62781099D01*
X79926099Y-62568406D01*
X80093210Y-62318306D01*
X80208319Y-62040410D01*
X80267000Y-61745396D01*
X80267000Y-61444604D01*
X80208319Y-61149590D01*
X80093210Y-60871694D01*
X79926099Y-60621594D01*
X79713406Y-60408901D01*
X79463306Y-60241790D01*
X79185410Y-60126681D01*
X78890396Y-60068000D01*
X78589604Y-60068000D01*
X78294590Y-60126681D01*
X78016694Y-60241790D01*
X77766594Y-60408901D01*
X77553901Y-60621594D01*
X77522894Y-60668000D01*
X73317000Y-60668000D01*
X73317000Y-57939039D01*
X74408096Y-57939039D01*
X74425633Y-58021818D01*
X74536285Y-58281646D01*
X74695500Y-58514895D01*
X74897161Y-58712601D01*
X75133517Y-58867166D01*
X75395486Y-58972650D01*
X75673000Y-59025000D01*
X76073000Y-59025000D01*
X76073000Y-57717000D01*
X76327000Y-57717000D01*
X76327000Y-59025000D01*
X76727000Y-59025000D01*
X77004514Y-58972650D01*
X77266483Y-58867166D01*
X77502839Y-58712601D01*
X77704500Y-58514895D01*
X77863715Y-58281646D01*
X77974367Y-58021818D01*
X77991904Y-57939039D01*
X77869915Y-57717000D01*
X76327000Y-57717000D01*
X76073000Y-57717000D01*
X74530085Y-57717000D01*
X74408096Y-57939039D01*
X73317000Y-57939039D01*
X73317000Y-54993975D01*
X74857666Y-53453310D01*
X75059192Y-53618698D01*
X75289722Y-53741919D01*
X75415257Y-53780000D01*
X75289722Y-53818081D01*
X75059192Y-53941302D01*
X74857130Y-54107130D01*
X74691302Y-54309192D01*
X74568081Y-54539722D01*
X74492201Y-54789863D01*
X74466580Y-55050000D01*
X74492201Y-55310137D01*
X74568081Y-55560278D01*
X74691302Y-55790808D01*
X74857130Y-55992870D01*
X75059192Y-56158698D01*
X75255596Y-56263678D01*
X75133517Y-56312834D01*
X74897161Y-56467399D01*
X74695500Y-56665105D01*
X74536285Y-56898354D01*
X74425633Y-57158182D01*
X74408096Y-57240961D01*
X74530085Y-57463000D01*
X76073000Y-57463000D01*
X76073000Y-57443000D01*
X76327000Y-57443000D01*
X76327000Y-57463000D01*
X77869915Y-57463000D01*
X77991904Y-57240961D01*
X77974367Y-57158182D01*
X77863715Y-56898354D01*
X77704500Y-56665105D01*
X77502839Y-56467399D01*
X77266483Y-56312834D01*
X77144404Y-56263678D01*
X77340808Y-56158698D01*
X77542870Y-55992870D01*
X77708698Y-55790808D01*
X77831919Y-55560278D01*
X77832451Y-55558524D01*
X79363292Y-54027684D01*
X79398659Y-53998659D01*
X79427684Y-53963292D01*
X79427688Y-53963288D01*
X79514501Y-53857506D01*
X79572274Y-53749420D01*
X79600580Y-53696464D01*
X79653587Y-53521724D01*
X79667000Y-53385538D01*
X79667000Y-53385528D01*
X79671484Y-53340001D01*
X79667000Y-53294474D01*
X79667000Y-47035527D01*
X79671484Y-46990000D01*
X79667000Y-46944473D01*
X79667000Y-46944462D01*
X79653587Y-46808276D01*
X79600580Y-46633536D01*
X79514502Y-46472494D01*
X79427688Y-46366712D01*
X79427684Y-46366708D01*
X79398659Y-46331341D01*
X79363294Y-46302318D01*
X72682000Y-39621025D01*
X72682000Y-37379661D01*
X72785748Y-37275913D01*
X72930972Y-37058570D01*
X73031004Y-36817072D01*
X73082000Y-36560698D01*
X73082000Y-36299302D01*
X73031004Y-36042928D01*
X72930972Y-35801430D01*
X72785748Y-35584087D01*
X72600913Y-35399252D01*
X72383570Y-35254028D01*
X72142072Y-35153996D01*
X71885698Y-35103000D01*
X71624302Y-35103000D01*
X71367928Y-35153996D01*
X71126430Y-35254028D01*
X70909087Y-35399252D01*
X70724252Y-35584087D01*
X70579028Y-35801430D01*
X70478996Y-36042928D01*
X70428000Y-36299302D01*
X70428000Y-36560698D01*
X70478996Y-36817072D01*
X70579028Y-37058570D01*
X70724252Y-37275913D01*
X70828000Y-37379661D01*
X70828001Y-39959463D01*
X70823516Y-40005000D01*
X70841414Y-40186723D01*
X70894420Y-40361463D01*
X70980499Y-40522505D01*
X71067312Y-40628287D01*
X71067317Y-40628292D01*
X71096342Y-40663659D01*
X71131709Y-40692684D01*
X77813000Y-47373976D01*
X77813001Y-51964329D01*
X77708698Y-51769192D01*
X77542870Y-51567130D01*
X77340808Y-51401302D01*
X77110278Y-51278081D01*
X76860137Y-51202201D01*
X76665184Y-51183000D01*
X75734816Y-51183000D01*
X75539863Y-51202201D01*
X75289722Y-51278081D01*
X75059192Y-51401302D01*
X74857130Y-51567130D01*
X74844106Y-51583000D01*
X74535524Y-51583000D01*
X74489999Y-51578516D01*
X74444474Y-51583000D01*
X74444462Y-51583000D01*
X74308276Y-51596413D01*
X74133536Y-51649420D01*
X74058573Y-51689489D01*
X73972494Y-51735499D01*
X73866711Y-51822313D01*
X73866708Y-51822316D01*
X73831341Y-51851341D01*
X73802316Y-51886708D01*
X71766708Y-53922317D01*
X71731342Y-53951341D01*
X71702317Y-53986708D01*
X71702312Y-53986713D01*
X71615499Y-54092495D01*
X71529420Y-54253537D01*
X71505782Y-54331463D01*
X71476414Y-54428276D01*
X71465438Y-54539722D01*
X71458516Y-54610000D01*
X71463001Y-54655537D01*
X71463000Y-61211024D01*
X70101025Y-62573000D01*
X57533976Y-62573000D01*
X54267000Y-59306025D01*
X54267000Y-58607643D01*
X54440898Y-58491448D01*
X54681448Y-58250898D01*
X54870447Y-57968041D01*
X55000632Y-57653747D01*
X55067000Y-57320095D01*
X55067000Y-56979905D01*
X55000632Y-56646253D01*
X54870447Y-56331959D01*
X54681448Y-56049102D01*
X54440898Y-55808552D01*
X54158041Y-55619553D01*
X53843747Y-55489368D01*
X53510095Y-55423000D01*
X53169905Y-55423000D01*
X52836253Y-55489368D01*
X52521959Y-55619553D01*
X52239102Y-55808552D01*
X51998552Y-56049102D01*
X51809553Y-56331959D01*
X51679368Y-56646253D01*
X51613000Y-56979905D01*
X50457000Y-56979905D01*
X50457000Y-54358975D01*
X59438976Y-45377000D01*
X66213252Y-45377000D01*
X66117752Y-45493367D01*
X65985245Y-45741270D01*
X65903648Y-46010260D01*
X65883000Y-46219903D01*
X65883000Y-46706024D01*
X56526709Y-56062316D01*
X56491342Y-56091341D01*
X56462317Y-56126708D01*
X56462312Y-56126713D01*
X56375499Y-56232495D01*
X56289420Y-56393537D01*
X56236414Y-56568277D01*
X56218516Y-56750000D01*
X56223001Y-56795537D01*
X56223000Y-58374472D01*
X56218516Y-58420000D01*
X56223000Y-58465527D01*
X56223000Y-58465537D01*
X56236413Y-58601723D01*
X56260294Y-58680447D01*
X56289420Y-58776463D01*
X56375499Y-58937505D01*
X56452508Y-59031341D01*
X56491341Y-59078659D01*
X56526713Y-59107688D01*
X59002316Y-61583292D01*
X59031341Y-61618659D01*
X59066708Y-61647684D01*
X59066711Y-61647687D01*
X59172494Y-61734501D01*
X59251486Y-61776723D01*
X59333536Y-61820580D01*
X59508276Y-61873587D01*
X59644462Y-61887000D01*
X59644474Y-61887000D01*
X59689999Y-61891484D01*
X59735524Y-61887000D01*
X61354473Y-61887000D01*
X61400000Y-61891484D01*
X61445527Y-61887000D01*
X61445538Y-61887000D01*
X61581724Y-61873587D01*
X61756464Y-61820580D01*
X61917505Y-61734501D01*
X62058659Y-61618659D01*
X62087688Y-61583287D01*
X65569540Y-58101436D01*
X65646285Y-58281646D01*
X65805500Y-58514895D01*
X66007161Y-58712601D01*
X66243517Y-58867166D01*
X66505486Y-58972650D01*
X66783000Y-59025000D01*
X67183000Y-59025000D01*
X67183000Y-57717000D01*
X67437000Y-57717000D01*
X67437000Y-59025000D01*
X67837000Y-59025000D01*
X68114514Y-58972650D01*
X68376483Y-58867166D01*
X68612839Y-58712601D01*
X68814500Y-58514895D01*
X68973715Y-58281646D01*
X69084367Y-58021818D01*
X69101904Y-57939039D01*
X68979915Y-57717000D01*
X67437000Y-57717000D01*
X67183000Y-57717000D01*
X67163000Y-57717000D01*
X67163000Y-57463000D01*
X67183000Y-57463000D01*
X67183000Y-57443000D01*
X67437000Y-57443000D01*
X67437000Y-57463000D01*
X68979915Y-57463000D01*
X69101904Y-57240961D01*
X69084367Y-57158182D01*
X68973715Y-56898354D01*
X68814500Y-56665105D01*
X68612839Y-56467399D01*
X68376483Y-56312834D01*
X68254404Y-56263678D01*
X68450808Y-56158698D01*
X68652870Y-55992870D01*
X68818698Y-55790808D01*
X68941919Y-55560278D01*
X69017799Y-55310137D01*
X69043420Y-55050000D01*
X69017799Y-54789863D01*
X68941919Y-54539722D01*
X68818698Y-54309192D01*
X68652870Y-54107130D01*
X68450808Y-53941302D01*
X68220278Y-53818081D01*
X68094743Y-53780000D01*
X68220278Y-53741919D01*
X68450808Y-53618698D01*
X68652870Y-53452870D01*
X68665894Y-53437000D01*
X69364473Y-53437000D01*
X69410000Y-53441484D01*
X69455527Y-53437000D01*
X69455538Y-53437000D01*
X69591724Y-53423587D01*
X69766464Y-53370580D01*
X69927505Y-53284501D01*
X70068659Y-53168659D01*
X70097688Y-53133287D01*
X72378293Y-50852683D01*
X72413659Y-50823659D01*
X72442684Y-50788292D01*
X72442688Y-50788288D01*
X72529501Y-50682506D01*
X72615580Y-50521464D01*
X72639485Y-50442659D01*
X72668587Y-50346724D01*
X72682000Y-50210538D01*
X72682000Y-50210527D01*
X72686484Y-50165000D01*
X72682000Y-50119473D01*
X72682000Y-47975258D01*
X72768922Y-47903923D01*
X72947248Y-47686634D01*
X73079755Y-47438731D01*
X73161352Y-47169741D01*
X73182000Y-46960098D01*
X73182000Y-46219903D01*
X73161352Y-46010260D01*
X73079755Y-45741269D01*
X72947248Y-45493366D01*
X72768923Y-45276077D01*
X72551634Y-45097752D01*
X72303731Y-44965245D01*
X72034741Y-44883648D01*
X71755000Y-44856096D01*
X71475260Y-44883648D01*
X71386537Y-44910562D01*
X70302688Y-43826713D01*
X70273659Y-43791341D01*
X70132505Y-43675499D01*
X69971464Y-43589420D01*
X69796724Y-43536413D01*
X69660538Y-43523000D01*
X69660527Y-43523000D01*
X69615000Y-43518516D01*
X69569473Y-43523000D01*
X59100526Y-43523000D01*
X59054999Y-43518516D01*
X59009472Y-43523000D01*
X59009462Y-43523000D01*
X58873276Y-43536413D01*
X58698536Y-43589420D01*
X58593590Y-43645516D01*
X58537494Y-43675499D01*
X58431712Y-43762312D01*
X58431708Y-43762316D01*
X58396341Y-43791341D01*
X58367316Y-43826708D01*
X48906709Y-53287316D01*
X48871342Y-53316341D01*
X48842317Y-53351708D01*
X48842312Y-53351713D01*
X48755499Y-53457495D01*
X48669420Y-53618537D01*
X48637732Y-53723000D01*
X48616414Y-53793276D01*
X48612108Y-53837000D01*
X48598516Y-53975000D01*
X48603001Y-54020537D01*
X48603000Y-62184473D01*
X48598516Y-62230000D01*
X48603000Y-62275527D01*
X48603000Y-62275537D01*
X48616413Y-62411723D01*
X48665336Y-62573000D01*
X48669420Y-62586463D01*
X48755499Y-62747505D01*
X48783069Y-62781099D01*
X48871341Y-62888659D01*
X48906713Y-62917688D01*
X53287316Y-67298292D01*
X53316341Y-67333659D01*
X53351708Y-67362684D01*
X53351712Y-67362688D01*
X53457494Y-67449501D01*
X53543573Y-67495511D01*
X53618536Y-67535580D01*
X53793276Y-67588587D01*
X53929462Y-67602000D01*
X53929472Y-67602000D01*
X53974999Y-67606484D01*
X54020526Y-67602000D01*
X79779471Y-67602000D01*
X79824998Y-67606484D01*
X79870525Y-67602000D01*
X79870536Y-67602000D01*
X80006722Y-67588587D01*
X80181462Y-67535580D01*
X80342503Y-67449501D01*
X80483657Y-67333659D01*
X80512686Y-67298287D01*
X90651975Y-57158999D01*
X96630474Y-57158999D01*
X96676001Y-57163483D01*
X96721528Y-57158999D01*
X96721539Y-57158999D01*
X96857725Y-57145586D01*
X97032465Y-57092579D01*
X97193506Y-57006500D01*
X97334660Y-56890658D01*
X97363689Y-56855286D01*
X103747292Y-50471684D01*
X103782659Y-50442659D01*
X103811684Y-50407292D01*
X103811688Y-50407288D01*
X103898502Y-50301506D01*
X103984580Y-50140464D01*
X104037587Y-49965724D01*
X104051000Y-49829538D01*
X104051000Y-49829527D01*
X104055484Y-49784000D01*
X104051000Y-49738473D01*
X104051000Y-32879975D01*
X106261427Y-30669549D01*
X107632500Y-30669549D01*
X107735810Y-30659374D01*
X107835150Y-30629239D01*
X107926702Y-30580304D01*
X108006948Y-30514448D01*
X108072804Y-30434202D01*
X108121739Y-30342650D01*
X108151874Y-30243310D01*
X108154088Y-30220831D01*
X108168774Y-30238726D01*
X108394058Y-30423611D01*
X108651082Y-30560993D01*
X108929968Y-30645592D01*
X109220000Y-30674158D01*
X109510033Y-30645592D01*
X109788919Y-30560993D01*
X110045943Y-30423611D01*
X110233001Y-30270097D01*
X110233000Y-36451496D01*
X108193289Y-38491208D01*
X108135025Y-38539024D01*
X108087209Y-38597288D01*
X108087208Y-38597289D01*
X107944204Y-38771540D01*
X107802411Y-39036815D01*
X107715096Y-39324656D01*
X107685613Y-39624000D01*
X107693001Y-39699011D01*
X107693001Y-65724799D01*
X107689553Y-65729959D01*
X107559368Y-66044253D01*
X107493000Y-66377905D01*
X107493000Y-66718095D01*
X107559368Y-67051747D01*
X107689553Y-67366041D01*
X107693001Y-67371201D01*
X107693000Y-105708984D01*
X107456067Y-105544907D01*
X107168888Y-105420320D01*
X107052980Y-105397437D01*
X106807000Y-105517406D01*
X106807000Y-107061000D01*
X106827000Y-107061000D01*
X106827000Y-107315000D01*
X106807000Y-107315000D01*
X106807000Y-108858594D01*
X107052980Y-108978563D01*
X107168888Y-108955680D01*
X107456067Y-108831093D01*
X107713422Y-108652874D01*
X107931063Y-108427872D01*
X108014373Y-108298587D01*
X108168774Y-108486726D01*
X108394057Y-108671611D01*
X108651081Y-108808993D01*
X108929967Y-108893592D01*
X109220000Y-108922158D01*
X109510032Y-108893592D01*
X109788918Y-108808993D01*
X110045942Y-108671611D01*
X110271226Y-108486726D01*
X110285912Y-108468831D01*
X110288126Y-108491310D01*
X110318261Y-108590650D01*
X110367196Y-108682202D01*
X110433052Y-108762448D01*
X110513298Y-108828304D01*
X110604850Y-108877239D01*
X110704190Y-108907374D01*
X110756498Y-108912526D01*
X110360025Y-109309000D01*
X105031976Y-109309000D01*
X104559000Y-108836025D01*
X104559000Y-107565575D01*
X105088446Y-107565575D01*
X105144404Y-107873572D01*
X105259374Y-108164734D01*
X105428937Y-108427872D01*
X105646578Y-108652874D01*
X105903933Y-108831093D01*
X106191112Y-108955680D01*
X106307020Y-108978563D01*
X106553000Y-108858594D01*
X106553000Y-107315000D01*
X105246442Y-107315000D01*
X105088446Y-107565575D01*
X104559000Y-107565575D01*
X104559000Y-106810425D01*
X105088446Y-106810425D01*
X105246442Y-107061000D01*
X106553000Y-107061000D01*
X106553000Y-105517406D01*
X106307020Y-105397437D01*
X106191112Y-105420320D01*
X105903933Y-105544907D01*
X105646578Y-105723126D01*
X105428937Y-105948128D01*
X105259374Y-106211266D01*
X105144404Y-106502428D01*
X105088446Y-106810425D01*
X104559000Y-106810425D01*
X104559000Y-106570029D01*
X104563484Y-106524502D01*
X104559000Y-106478975D01*
X104559000Y-106478964D01*
X104545587Y-106342778D01*
X104492580Y-106168038D01*
X104426200Y-106043851D01*
X104406501Y-106006996D01*
X104319688Y-105901214D01*
X104319684Y-105901210D01*
X104290659Y-105865843D01*
X104255292Y-105836818D01*
X93383000Y-94964527D01*
X93383000Y-90342500D01*
X95962106Y-90342500D01*
X96178228Y-90709259D01*
X96638105Y-90949939D01*
X97136098Y-91096276D01*
X97653071Y-91142649D01*
X98169159Y-91087274D01*
X98664526Y-90932280D01*
X99081772Y-90709259D01*
X99297894Y-90342500D01*
X97630000Y-88674606D01*
X95962106Y-90342500D01*
X93383000Y-90342500D01*
X93383000Y-88518072D01*
X94982352Y-88518072D01*
X95037727Y-89034160D01*
X95192721Y-89529527D01*
X95415742Y-89946773D01*
X95782501Y-90162895D01*
X97450395Y-88495001D01*
X97809605Y-88495001D01*
X99477499Y-90162895D01*
X99844258Y-89946773D01*
X100084938Y-89486896D01*
X100231275Y-88988903D01*
X100277648Y-88471930D01*
X100222273Y-87955842D01*
X100067279Y-87460475D01*
X99844258Y-87043229D01*
X99477499Y-86827107D01*
X97809605Y-88495001D01*
X97450395Y-88495001D01*
X95782501Y-86827107D01*
X95415742Y-87043229D01*
X95175062Y-87503106D01*
X95028725Y-88001099D01*
X94982352Y-88518072D01*
X93383000Y-88518072D01*
X93383000Y-86647502D01*
X95962106Y-86647502D01*
X97630000Y-88315396D01*
X99297894Y-86647502D01*
X99081772Y-86280743D01*
X98621895Y-86040063D01*
X98123902Y-85893726D01*
X97606929Y-85847353D01*
X97090841Y-85902728D01*
X96595474Y-86057722D01*
X96178228Y-86280743D01*
X95962106Y-86647502D01*
X93383000Y-86647502D01*
X93383000Y-83357524D01*
X93387484Y-83311999D01*
X93383000Y-83266474D01*
X93383000Y-83266462D01*
X93369587Y-83130276D01*
X93316580Y-82955536D01*
X93258290Y-82846484D01*
X93230501Y-82794494D01*
X93143687Y-82688711D01*
X93143684Y-82688708D01*
X93114659Y-82653341D01*
X93079292Y-82624316D01*
X88131687Y-77676712D01*
X88102659Y-77641341D01*
X87961505Y-77525499D01*
X87800464Y-77439420D01*
X87625724Y-77386413D01*
X87489538Y-77373000D01*
X87489527Y-77373000D01*
X87444000Y-77368516D01*
X87398473Y-77373000D01*
X77555894Y-77373000D01*
X77542870Y-77357130D01*
X77340808Y-77191302D01*
X77110278Y-77068081D01*
X76860137Y-76992201D01*
X76665184Y-76973000D01*
X76183976Y-76973000D01*
X73517688Y-74306713D01*
X73488659Y-74271341D01*
X73347505Y-74155499D01*
X73186464Y-74069420D01*
X73011724Y-74016413D01*
X72875538Y-74003000D01*
X72875527Y-74003000D01*
X72830000Y-73998516D01*
X72784473Y-74003000D01*
X57195527Y-74003000D01*
X57150000Y-73998516D01*
X57104473Y-74003000D01*
X57104462Y-74003000D01*
X56968276Y-74016413D01*
X56793536Y-74069420D01*
X56632494Y-74155498D01*
X56526712Y-74242312D01*
X56526708Y-74242316D01*
X56491341Y-74271341D01*
X56462316Y-74306708D01*
X53715222Y-77053803D01*
X53510095Y-77013000D01*
X53169905Y-77013000D01*
X52836253Y-77079368D01*
X52521959Y-77209553D01*
X52239102Y-77398552D01*
X51998552Y-77639102D01*
X51809553Y-77921959D01*
X51679368Y-78236253D01*
X51613000Y-78569905D01*
X51613000Y-78910095D01*
X51679368Y-79243747D01*
X51809553Y-79558041D01*
X51998552Y-79840898D01*
X52239102Y-80081448D01*
X52521959Y-80270447D01*
X52836253Y-80400632D01*
X53169905Y-80467000D01*
X53510095Y-80467000D01*
X53843747Y-80400632D01*
X54158041Y-80270447D01*
X54440898Y-80081448D01*
X54681448Y-79840898D01*
X54870447Y-79558041D01*
X55000632Y-79243747D01*
X55067000Y-78910095D01*
X55067000Y-78569905D01*
X55026197Y-78364778D01*
X57533976Y-75857000D01*
X72446025Y-75857000D01*
X74524014Y-77934990D01*
X74492201Y-78039863D01*
X74466580Y-78300000D01*
X74492201Y-78560137D01*
X74568081Y-78810278D01*
X74691302Y-79040808D01*
X74857130Y-79242870D01*
X75059192Y-79408698D01*
X75289722Y-79531919D01*
X75415257Y-79570000D01*
X75289722Y-79608081D01*
X75059192Y-79731302D01*
X74857130Y-79897130D01*
X74691302Y-80099192D01*
X74568081Y-80329722D01*
X74492201Y-80579863D01*
X74466580Y-80840000D01*
X74492201Y-81100137D01*
X74568081Y-81350278D01*
X74691302Y-81580808D01*
X74857130Y-81782870D01*
X75059192Y-81948698D01*
X75255596Y-82053678D01*
X75133517Y-82102834D01*
X74897161Y-82257399D01*
X74695500Y-82455105D01*
X74536285Y-82688354D01*
X74425633Y-82948182D01*
X74408096Y-83030961D01*
X74530085Y-83253000D01*
X76073000Y-83253000D01*
X76073000Y-83233000D01*
X76327000Y-83233000D01*
X76327000Y-83253000D01*
X77869915Y-83253000D01*
X77991904Y-83030961D01*
X77974367Y-82948182D01*
X77863715Y-82688354D01*
X77704500Y-82455105D01*
X77502839Y-82257399D01*
X77266483Y-82102834D01*
X77144404Y-82053678D01*
X77340808Y-81948698D01*
X77542870Y-81782870D01*
X77555894Y-81767000D01*
X77916025Y-81767000D01*
X78448001Y-82298977D01*
X78448000Y-87881024D01*
X71766709Y-94562316D01*
X71731342Y-94591341D01*
X71702317Y-94626708D01*
X71702312Y-94626713D01*
X71615499Y-94732495D01*
X71529420Y-94893537D01*
X71476414Y-95068277D01*
X71458516Y-95250000D01*
X71463001Y-95295537D01*
X71463000Y-98074741D01*
X71376077Y-98146078D01*
X71197752Y-98363367D01*
X71065245Y-98611270D01*
X70983648Y-98880260D01*
X70963000Y-99089903D01*
X70963000Y-99830098D01*
X70983648Y-100039741D01*
X71065245Y-100308731D01*
X71197752Y-100556634D01*
X71376078Y-100773923D01*
X71593367Y-100952248D01*
X71841270Y-101084755D01*
X72110260Y-101166352D01*
X72390000Y-101193904D01*
X72669741Y-101166352D01*
X72938731Y-101084755D01*
X73186634Y-100952248D01*
X73403923Y-100773923D01*
X73582248Y-100556634D01*
X73714755Y-100308731D01*
X73796352Y-100039740D01*
X73817000Y-99830097D01*
X73817000Y-99089902D01*
X73796352Y-98880259D01*
X73714755Y-98611269D01*
X73582248Y-98363366D01*
X73403922Y-98146077D01*
X73317000Y-98074742D01*
X73317000Y-95633975D01*
X79998294Y-88952682D01*
X80033659Y-88923659D01*
X80062684Y-88888292D01*
X80062688Y-88888288D01*
X80149502Y-88782506D01*
X80235580Y-88621464D01*
X80235580Y-88621463D01*
X80288587Y-88446724D01*
X80302000Y-88310538D01*
X80302000Y-88310527D01*
X80306484Y-88265000D01*
X80302000Y-88219473D01*
X80302000Y-81960527D01*
X80306484Y-81915000D01*
X80302000Y-81869473D01*
X80302000Y-81869462D01*
X80288587Y-81733276D01*
X80235580Y-81558536D01*
X80184668Y-81463287D01*
X80149502Y-81397495D01*
X80062688Y-81291712D01*
X80062684Y-81291708D01*
X80033659Y-81256341D01*
X79998292Y-81227316D01*
X78987688Y-80216713D01*
X78958659Y-80181341D01*
X78817505Y-80065499D01*
X78656464Y-79979420D01*
X78481724Y-79926413D01*
X78345538Y-79913000D01*
X78345527Y-79913000D01*
X78300000Y-79908516D01*
X78254473Y-79913000D01*
X77555894Y-79913000D01*
X77542870Y-79897130D01*
X77340808Y-79731302D01*
X77110278Y-79608081D01*
X76984743Y-79570000D01*
X77110278Y-79531919D01*
X77340808Y-79408698D01*
X77542870Y-79242870D01*
X77555894Y-79227000D01*
X87060025Y-79227000D01*
X91529001Y-83695977D01*
X91529000Y-95302975D01*
X91524516Y-95348502D01*
X91529000Y-95394029D01*
X91529000Y-95394039D01*
X91542413Y-95530225D01*
X91565540Y-95606463D01*
X91595420Y-95704965D01*
X91681499Y-95866007D01*
X91716503Y-95908659D01*
X91797341Y-96007161D01*
X91832713Y-96036190D01*
X102705001Y-106908479D01*
X102705000Y-109174472D01*
X102700516Y-109220000D01*
X102705000Y-109265527D01*
X102705000Y-109265537D01*
X102718413Y-109401723D01*
X102771420Y-109576463D01*
X102857499Y-109737505D01*
X102927663Y-109823000D01*
X102973341Y-109878659D01*
X103008713Y-109907688D01*
X103960316Y-110859292D01*
X103989341Y-110894659D01*
X104024708Y-110923684D01*
X104024712Y-110923688D01*
X104130494Y-111010501D01*
X104291536Y-111096580D01*
X104466276Y-111149587D01*
X104602462Y-111163000D01*
X104602473Y-111163000D01*
X104648000Y-111167484D01*
X104693527Y-111163000D01*
X110698473Y-111163000D01*
X110744000Y-111167484D01*
X110789527Y-111163000D01*
X110789538Y-111163000D01*
X110925724Y-111149587D01*
X111100464Y-111096580D01*
X111261505Y-111010501D01*
X111402659Y-110894659D01*
X111431688Y-110859287D01*
X112383293Y-109907683D01*
X112418659Y-109878659D01*
X112447684Y-109843292D01*
X112447688Y-109843288D01*
X112534501Y-109737506D01*
X112620580Y-109576464D01*
X112655454Y-109461499D01*
X112673587Y-109401724D01*
X112687000Y-109265538D01*
X112687000Y-109265527D01*
X112691484Y-109220000D01*
X112687000Y-109174473D01*
X112687000Y-108917549D01*
X112712500Y-108917549D01*
X112815810Y-108907374D01*
X112915150Y-108877239D01*
X113006702Y-108828304D01*
X113086948Y-108762448D01*
X113152804Y-108682202D01*
X113201739Y-108590650D01*
X113231874Y-108491310D01*
X113242049Y-108388000D01*
X113242049Y-105988000D01*
X113231874Y-105884690D01*
X113201739Y-105785350D01*
X113152804Y-105693798D01*
X113086948Y-105613552D01*
X113006702Y-105547696D01*
X112915150Y-105498761D01*
X112815810Y-105468626D01*
X112712500Y-105458451D01*
X110807500Y-105458451D01*
X110747000Y-105464410D01*
X110747000Y-67371200D01*
X110750447Y-67366041D01*
X110880632Y-67051747D01*
X110947000Y-66718095D01*
X110947000Y-66377905D01*
X110880632Y-66044253D01*
X110750447Y-65729959D01*
X110747000Y-65724800D01*
X110747000Y-40256503D01*
X112786713Y-38216791D01*
X112844976Y-38168976D01*
X113035797Y-37936460D01*
X113177590Y-37671185D01*
X113264905Y-37383344D01*
X113287000Y-37159011D01*
X113287000Y-37159002D01*
X113294387Y-37084001D01*
X113287000Y-37009000D01*
X113287000Y-28864989D01*
X113264905Y-28640656D01*
X113230324Y-28526656D01*
X113218092Y-28402467D01*
X113133493Y-28123581D01*
X112996111Y-27866557D01*
X112811226Y-27641274D01*
X112585942Y-27456389D01*
X112328918Y-27319007D01*
X112050032Y-27234408D01*
X111760000Y-27205842D01*
X111469967Y-27234408D01*
X111191081Y-27319007D01*
X110934057Y-27456389D01*
X110747000Y-27609903D01*
X110747000Y-27048503D01*
X111376504Y-26419000D01*
X149735497Y-26419000D01*
X149857001Y-26540504D01*
X149857001Y-27216410D01*
X149796500Y-27210451D01*
X147891500Y-27210451D01*
X147788190Y-27220626D01*
X147688850Y-27250761D01*
X147597298Y-27299696D01*
X147517052Y-27365552D01*
X147451196Y-27445798D01*
X147402261Y-27537350D01*
X147372126Y-27636690D01*
X147361951Y-27740000D01*
X147361951Y-29111074D01*
X118472025Y-58001000D01*
X115009106Y-58001000D01*
X114978099Y-57954594D01*
X114765406Y-57741901D01*
X114515306Y-57574790D01*
X114237410Y-57459681D01*
X113942396Y-57401000D01*
X113641604Y-57401000D01*
X113346590Y-57459681D01*
X113068694Y-57574790D01*
X112818594Y-57741901D01*
X112605901Y-57954594D01*
X112438790Y-58204694D01*
X112323681Y-58482590D01*
X112265000Y-58777604D01*
X112265000Y-59078396D01*
X112323681Y-59373410D01*
X112438790Y-59651306D01*
X112605901Y-59901406D01*
X112818594Y-60114099D01*
X113068694Y-60281210D01*
X113346590Y-60396319D01*
X113626522Y-60452000D01*
X113346590Y-60507681D01*
X113068694Y-60622790D01*
X112818594Y-60789901D01*
X112605901Y-61002594D01*
X112438790Y-61252694D01*
X112323681Y-61530590D01*
X112265000Y-61825604D01*
X112265000Y-62126396D01*
X112323681Y-62421410D01*
X112438790Y-62699306D01*
X112605901Y-62949406D01*
X112818594Y-63162099D01*
X112865001Y-63193107D01*
X112865000Y-81234473D01*
X112860516Y-81280000D01*
X112865000Y-81325527D01*
X112865000Y-81325537D01*
X112878413Y-81461723D01*
X112907781Y-81558536D01*
X112931420Y-81636463D01*
X113017499Y-81797505D01*
X113094508Y-81891341D01*
X113133341Y-81938659D01*
X113168712Y-81967687D01*
X142060316Y-110859292D01*
X142089341Y-110894659D01*
X142124708Y-110923684D01*
X142124712Y-110923688D01*
X142230494Y-111010501D01*
X142391536Y-111096580D01*
X142566276Y-111149587D01*
X142702462Y-111163000D01*
X142702473Y-111163000D01*
X142748000Y-111167484D01*
X142793527Y-111163000D01*
X152862473Y-111163000D01*
X152908000Y-111167484D01*
X152953527Y-111163000D01*
X152953538Y-111163000D01*
X153089724Y-111149587D01*
X153264464Y-111096580D01*
X153425505Y-111010501D01*
X153566659Y-110894659D01*
X153595688Y-110859287D01*
X154547292Y-109907684D01*
X154582659Y-109878659D01*
X154611684Y-109843292D01*
X154611688Y-109843288D01*
X154698501Y-109737506D01*
X154784580Y-109576464D01*
X154819454Y-109461499D01*
X154837587Y-109401724D01*
X154851000Y-109265538D01*
X154851000Y-109265527D01*
X154855484Y-109220000D01*
X154851000Y-109174473D01*
X154851000Y-108917549D01*
X154876500Y-108917549D01*
X154979810Y-108907374D01*
X155079150Y-108877239D01*
X155170702Y-108828304D01*
X155250948Y-108762448D01*
X155316804Y-108682202D01*
X155365739Y-108590650D01*
X155395874Y-108491310D01*
X155406049Y-108388000D01*
X155406049Y-107486509D01*
X159417000Y-107486509D01*
X159417000Y-107905491D01*
X159498739Y-108316423D01*
X159659077Y-108703512D01*
X159891851Y-109051884D01*
X160188116Y-109348149D01*
X160536488Y-109580923D01*
X160923577Y-109741261D01*
X161334509Y-109823000D01*
X161753491Y-109823000D01*
X162164423Y-109741261D01*
X162551512Y-109580923D01*
X162899884Y-109348149D01*
X163196149Y-109051884D01*
X163428923Y-108703512D01*
X163589261Y-108316423D01*
X163671000Y-107905491D01*
X163671000Y-107486509D01*
X163589261Y-107075577D01*
X163428923Y-106688488D01*
X163196149Y-106340116D01*
X162899884Y-106043851D01*
X162551512Y-105811077D01*
X162164423Y-105650739D01*
X161753491Y-105569000D01*
X161334509Y-105569000D01*
X160923577Y-105650739D01*
X160536488Y-105811077D01*
X160188116Y-106043851D01*
X159891851Y-106340116D01*
X159659077Y-106688488D01*
X159498739Y-107075577D01*
X159417000Y-107486509D01*
X155406049Y-107486509D01*
X155406049Y-105988000D01*
X155395874Y-105884690D01*
X155365739Y-105785350D01*
X155316804Y-105693798D01*
X155250948Y-105613552D01*
X155170702Y-105547696D01*
X155079150Y-105498761D01*
X154979810Y-105468626D01*
X154876500Y-105458451D01*
X152971500Y-105458451D01*
X152911000Y-105464410D01*
X152911000Y-101675000D01*
X152918387Y-101599999D01*
X152911000Y-101524998D01*
X152911000Y-101524989D01*
X152888905Y-101300656D01*
X152801590Y-101012815D01*
X152659797Y-100747540D01*
X152468976Y-100515024D01*
X152410712Y-100467208D01*
X136919000Y-84975497D01*
X136919000Y-67056000D01*
X137657613Y-67056000D01*
X137665001Y-67131011D01*
X137665000Y-77291010D01*
X137687095Y-77515343D01*
X137774410Y-77803184D01*
X137862451Y-77967896D01*
X137862451Y-78416000D01*
X137872626Y-78519310D01*
X137902761Y-78618650D01*
X137951696Y-78710202D01*
X138017552Y-78790448D01*
X138097798Y-78856304D01*
X138189350Y-78905239D01*
X138288690Y-78935374D01*
X138392000Y-78945549D01*
X139992000Y-78945549D01*
X140095310Y-78935374D01*
X140194650Y-78905239D01*
X140286202Y-78856304D01*
X140366448Y-78790448D01*
X140432304Y-78710202D01*
X140481239Y-78618650D01*
X140511374Y-78519310D01*
X140521549Y-78416000D01*
X140521549Y-77967897D01*
X140609590Y-77803185D01*
X140696905Y-77515344D01*
X140719000Y-77291011D01*
X140719000Y-68075000D01*
X143131497Y-68075000D01*
X146695208Y-71638712D01*
X146743024Y-71696976D01*
X146975540Y-71887797D01*
X147099913Y-71954276D01*
X147240815Y-72029590D01*
X147528655Y-72116905D01*
X147555955Y-72119594D01*
X147752989Y-72139000D01*
X147752996Y-72139000D01*
X147828000Y-72146387D01*
X147903004Y-72139000D01*
X159188389Y-72139000D01*
X159235863Y-72186474D01*
X159567855Y-72408304D01*
X159936746Y-72561104D01*
X160328358Y-72639000D01*
X160727642Y-72639000D01*
X161119254Y-72561104D01*
X161488145Y-72408304D01*
X161820137Y-72186474D01*
X162102474Y-71904137D01*
X162324304Y-71572145D01*
X162477104Y-71203254D01*
X162555000Y-70811642D01*
X162555000Y-70412358D01*
X162477104Y-70020746D01*
X162324304Y-69651855D01*
X162102474Y-69319863D01*
X161820137Y-69037526D01*
X161488145Y-68815696D01*
X161119254Y-68662896D01*
X160727642Y-68585000D01*
X160328358Y-68585000D01*
X159936746Y-68662896D01*
X159567855Y-68815696D01*
X159235863Y-69037526D01*
X159188389Y-69085000D01*
X148460504Y-69085000D01*
X144896797Y-65521294D01*
X144848976Y-65463024D01*
X144616460Y-65272203D01*
X144351185Y-65130410D01*
X144063344Y-65043095D01*
X143839011Y-65021000D01*
X143839001Y-65021000D01*
X143764000Y-65013613D01*
X143688999Y-65021000D01*
X140523200Y-65021000D01*
X140518041Y-65017553D01*
X140203747Y-64887368D01*
X139870095Y-64821000D01*
X139529905Y-64821000D01*
X139196253Y-64887368D01*
X138881959Y-65017553D01*
X138599102Y-65206552D01*
X138358552Y-65447102D01*
X138169553Y-65729959D01*
X138039368Y-66044253D01*
X138036950Y-66056411D01*
X137916204Y-66203540D01*
X137774411Y-66468815D01*
X137687096Y-66756656D01*
X137657613Y-67056000D01*
X136919000Y-67056000D01*
X136919000Y-63868503D01*
X138300504Y-62487000D01*
X146179497Y-62487000D01*
X150251208Y-66558712D01*
X150299024Y-66616976D01*
X150531540Y-66807797D01*
X150796815Y-66949590D01*
X151084656Y-67036905D01*
X151308989Y-67059000D01*
X151308998Y-67059000D01*
X151383999Y-67066387D01*
X151459000Y-67059000D01*
X158501110Y-67059000D01*
X158508626Y-67135310D01*
X158538761Y-67234650D01*
X158587696Y-67326202D01*
X158653552Y-67406448D01*
X158733798Y-67472304D01*
X158825350Y-67521239D01*
X158924690Y-67551374D01*
X159028000Y-67561549D01*
X162028000Y-67561549D01*
X162131310Y-67551374D01*
X162230650Y-67521239D01*
X162322202Y-67472304D01*
X162402448Y-67406448D01*
X162468304Y-67326202D01*
X162517239Y-67234650D01*
X162547374Y-67135310D01*
X162557549Y-67032000D01*
X162557549Y-64032000D01*
X162547374Y-63928690D01*
X162517239Y-63829350D01*
X162468304Y-63737798D01*
X162402448Y-63657552D01*
X162322202Y-63591696D01*
X162230650Y-63542761D01*
X162131310Y-63512626D01*
X162055000Y-63505110D01*
X162055000Y-35619000D01*
X162062387Y-35543999D01*
X162055000Y-35468998D01*
X162055000Y-35468989D01*
X162032905Y-35244656D01*
X161945590Y-34956815D01*
X161803797Y-34691540D01*
X161612976Y-34459024D01*
X161554712Y-34411208D01*
X155310734Y-28167231D01*
X155297493Y-28123581D01*
X155160111Y-27866557D01*
X154975226Y-27641274D01*
X154749942Y-27456389D01*
X154492918Y-27319007D01*
X154214032Y-27234408D01*
X153924000Y-27205842D01*
X153633967Y-27234408D01*
X153355081Y-27319007D01*
X153098057Y-27456389D01*
X152911000Y-27609903D01*
X152911000Y-26206509D01*
X159417000Y-26206509D01*
X159417000Y-26625491D01*
X159498739Y-27036423D01*
X159659077Y-27423512D01*
X159891851Y-27771884D01*
X160188116Y-28068149D01*
X160536488Y-28300923D01*
X160923577Y-28461261D01*
X161334509Y-28543000D01*
X161753491Y-28543000D01*
X162164423Y-28461261D01*
X162551512Y-28300923D01*
X162899884Y-28068149D01*
X163196149Y-27771884D01*
X163428923Y-27423512D01*
X163589261Y-27036423D01*
X163671000Y-26625491D01*
X163671000Y-26206509D01*
X163589261Y-25795577D01*
X163428923Y-25408488D01*
X163196149Y-25060116D01*
X162899884Y-24763851D01*
X162551512Y-24531077D01*
X162164423Y-24370739D01*
X161753491Y-24289000D01*
X161334509Y-24289000D01*
X160923577Y-24370739D01*
X160536488Y-24531077D01*
X160188116Y-24763851D01*
X159891851Y-25060116D01*
X159659077Y-25408488D01*
X159498739Y-25795577D01*
X159417000Y-26206509D01*
X152911000Y-26206509D01*
X152911000Y-25983001D01*
X152918387Y-25908000D01*
X152911000Y-25832999D01*
X152911000Y-25832989D01*
X152888905Y-25608656D01*
X152801590Y-25320815D01*
X152659797Y-25055540D01*
X152468976Y-24823024D01*
X152410706Y-24775203D01*
X151500797Y-23865294D01*
X151452976Y-23807024D01*
X151220460Y-23616203D01*
X150955185Y-23474410D01*
X150667344Y-23387095D01*
X150443011Y-23365000D01*
X150443001Y-23365000D01*
X150368000Y-23357613D01*
X150292999Y-23365000D01*
X110819000Y-23365000D01*
X110743999Y-23357613D01*
X110668998Y-23365000D01*
X110668989Y-23365000D01*
X110444656Y-23387095D01*
X110156815Y-23474410D01*
X109891540Y-23616203D01*
X109659024Y-23807024D01*
X109611207Y-23865289D01*
X109220000Y-24256496D01*
X108828797Y-23865293D01*
X108780976Y-23807024D01*
X108548460Y-23616203D01*
X108283185Y-23474410D01*
X107995344Y-23387095D01*
X107771011Y-23365000D01*
X107771001Y-23365000D01*
X107696000Y-23357613D01*
X107620999Y-23365000D01*
X101167004Y-23365000D01*
X101092000Y-23357613D01*
X101016996Y-23365000D01*
X101016989Y-23365000D01*
X100819955Y-23384406D01*
X100792655Y-23387095D01*
X100504815Y-23474410D01*
X100239540Y-23616203D01*
X100007024Y-23807024D01*
X99959208Y-23865288D01*
X91937294Y-31887203D01*
X91879024Y-31935024D01*
X91688203Y-32167541D01*
X91546410Y-32432816D01*
X91459095Y-32720657D01*
X91437000Y-32944990D01*
X91437000Y-32944999D01*
X91429613Y-33020000D01*
X91437000Y-33095001D01*
X91437001Y-45595495D01*
X90929497Y-46103000D01*
X90159549Y-46103000D01*
X90159549Y-45630000D01*
X90149374Y-45526690D01*
X90119239Y-45427350D01*
X90070304Y-45335798D01*
X90004448Y-45255552D01*
X89924202Y-45189696D01*
X89832650Y-45140761D01*
X89733310Y-45110626D01*
X89630000Y-45100451D01*
X87259955Y-45100451D01*
X82807000Y-40647497D01*
X82807000Y-34873004D01*
X82814387Y-34798000D01*
X82807000Y-34722996D01*
X82807000Y-34722989D01*
X82784905Y-34498656D01*
X82697590Y-34210815D01*
X82555797Y-33945540D01*
X82364976Y-33713024D01*
X82306712Y-33665208D01*
X79364797Y-30723294D01*
X79316976Y-30665024D01*
X79084460Y-30474203D01*
X78819185Y-30332410D01*
X78531344Y-30245095D01*
X78307011Y-30223000D01*
X78307001Y-30223000D01*
X78232000Y-30215613D01*
X78156999Y-30223000D01*
X63575000Y-30223000D01*
X63499999Y-30215613D01*
X63424998Y-30223000D01*
X63424989Y-30223000D01*
X63200656Y-30245095D01*
X62912815Y-30332410D01*
X62647540Y-30474203D01*
X62415024Y-30665024D01*
X62367208Y-30723288D01*
X59933294Y-33157203D01*
X59875024Y-33205024D01*
X59684203Y-33437541D01*
X59542410Y-33702816D01*
X59455095Y-33990657D01*
X59433000Y-34214990D01*
X59433000Y-34214999D01*
X59425613Y-34290000D01*
X59433000Y-34365002D01*
X59433000Y-35303000D01*
X54163200Y-35303000D01*
X54158041Y-35299553D01*
X53843747Y-35169368D01*
X53510095Y-35103000D01*
X53169905Y-35103000D01*
X52836253Y-35169368D01*
X52521959Y-35299553D01*
X52239102Y-35488552D01*
X51998552Y-35729102D01*
X51809553Y-36011959D01*
X51679368Y-36326253D01*
X51678158Y-36332339D01*
X31993289Y-56017208D01*
X31935025Y-56065024D01*
X31887209Y-56123288D01*
X31887208Y-56123289D01*
X31744204Y-56297540D01*
X31602411Y-56562815D01*
X31515096Y-56850656D01*
X31485613Y-57150000D01*
X31493001Y-57225011D01*
X31493000Y-60203110D01*
X31416690Y-60210626D01*
X31317350Y-60240761D01*
X31225798Y-60289696D01*
X31145552Y-60355552D01*
X31079696Y-60435798D01*
X31030761Y-60527350D01*
X31000626Y-60626690D01*
X30993110Y-60703000D01*
X29285000Y-60703000D01*
X29209999Y-60695613D01*
X29134998Y-60703000D01*
X29134989Y-60703000D01*
X28910656Y-60725095D01*
X28622815Y-60812410D01*
X28357540Y-60954203D01*
X28125024Y-61145024D01*
X28077208Y-61203288D01*
X25643289Y-63637208D01*
X25585025Y-63685024D01*
X25537209Y-63743288D01*
X25537208Y-63743289D01*
X25394204Y-63917540D01*
X25252411Y-64182815D01*
X25165096Y-64470656D01*
X25135613Y-64770000D01*
X23495000Y-64770000D01*
X23495000Y-26206509D01*
X25305000Y-26206509D01*
X25305000Y-26625491D01*
X25386739Y-27036423D01*
X25547077Y-27423512D01*
X25779851Y-27771884D01*
X26076116Y-28068149D01*
X26424488Y-28300923D01*
X26811577Y-28461261D01*
X27222509Y-28543000D01*
X27641491Y-28543000D01*
X28052423Y-28461261D01*
X28439512Y-28300923D01*
X28787884Y-28068149D01*
X29084149Y-27771884D01*
X29316923Y-27423512D01*
X29477261Y-27036423D01*
X29559000Y-26625491D01*
X29559000Y-26206509D01*
X29477261Y-25795577D01*
X29316923Y-25408488D01*
X29084149Y-25060116D01*
X28787884Y-24763851D01*
X28439512Y-24531077D01*
X28052423Y-24370739D01*
X27641491Y-24289000D01*
X27222509Y-24289000D01*
X26811577Y-24370739D01*
X26424488Y-24531077D01*
X26076116Y-24763851D01*
X25779851Y-25060116D01*
X25547077Y-25408488D01*
X25386739Y-25795577D01*
X25305000Y-26206509D01*
X23495000Y-26206509D01*
X23495000Y-22479000D01*
X165481000Y-22479000D01*
X165481000Y-111633000D01*
G36*
X152687889Y-30013443D02*
G01*
X152872774Y-30238726D01*
X153098058Y-30423611D01*
X153355082Y-30560993D01*
X153398731Y-30574234D01*
X159001001Y-36176505D01*
X159001000Y-63505110D01*
X158924690Y-63512626D01*
X158825350Y-63542761D01*
X158733798Y-63591696D01*
X158653552Y-63657552D01*
X158587696Y-63737798D01*
X158538761Y-63829350D01*
X158508626Y-63928690D01*
X158501110Y-64005000D01*
X152016504Y-64005000D01*
X147944797Y-59933294D01*
X147896976Y-59875024D01*
X147664460Y-59684203D01*
X147399185Y-59542410D01*
X147111344Y-59455095D01*
X146887011Y-59433000D01*
X146887001Y-59433000D01*
X146812000Y-59425613D01*
X146736999Y-59433000D01*
X137743000Y-59433000D01*
X137667999Y-59425613D01*
X137592998Y-59433000D01*
X137592989Y-59433000D01*
X137368656Y-59455095D01*
X137080815Y-59542410D01*
X136815540Y-59684203D01*
X136583024Y-59875024D01*
X136535208Y-59933288D01*
X134365294Y-62103203D01*
X134307024Y-62151024D01*
X134116203Y-62383541D01*
X133974410Y-62648816D01*
X133887095Y-62936657D01*
X133865000Y-63160990D01*
X133865000Y-63160999D01*
X133857613Y-63236000D01*
X133865000Y-63311001D01*
X133865001Y-77140980D01*
X133865000Y-77140990D01*
X133865001Y-85532989D01*
X133857613Y-85608000D01*
X133865001Y-85683011D01*
X133887096Y-85907344D01*
X133974411Y-86195185D01*
X134116204Y-86460460D01*
X134307025Y-86692976D01*
X134365289Y-86740792D01*
X149857000Y-102232504D01*
X149857001Y-105708984D01*
X149620067Y-105544907D01*
X149332888Y-105420320D01*
X149216980Y-105397437D01*
X148971000Y-105517406D01*
X148971000Y-107061000D01*
X148991000Y-107061000D01*
X148991000Y-107315000D01*
X148971000Y-107315000D01*
X148971000Y-108858594D01*
X149216980Y-108978563D01*
X149332888Y-108955680D01*
X149620067Y-108831093D01*
X149877422Y-108652874D01*
X150095063Y-108427872D01*
X150178373Y-108298587D01*
X150332774Y-108486726D01*
X150558057Y-108671611D01*
X150815081Y-108808993D01*
X151093967Y-108893592D01*
X151384000Y-108922158D01*
X151674032Y-108893592D01*
X151952918Y-108808993D01*
X152209942Y-108671611D01*
X152435226Y-108486726D01*
X152449912Y-108468831D01*
X152452126Y-108491310D01*
X152482261Y-108590650D01*
X152531196Y-108682202D01*
X152597052Y-108762448D01*
X152677298Y-108828304D01*
X152768850Y-108877239D01*
X152868190Y-108907374D01*
X152920498Y-108912526D01*
X152524025Y-109309000D01*
X143131976Y-109309000D01*
X141388551Y-107565575D01*
X147252446Y-107565575D01*
X147308404Y-107873572D01*
X147423374Y-108164734D01*
X147592937Y-108427872D01*
X147810578Y-108652874D01*
X148067933Y-108831093D01*
X148355112Y-108955680D01*
X148471020Y-108978563D01*
X148717000Y-108858594D01*
X148717000Y-107315000D01*
X147410442Y-107315000D01*
X147252446Y-107565575D01*
X141388551Y-107565575D01*
X140633401Y-106810425D01*
X147252446Y-106810425D01*
X147410442Y-107061000D01*
X148717000Y-107061000D01*
X148717000Y-105517406D01*
X148471020Y-105397437D01*
X148355112Y-105420320D01*
X148067933Y-105544907D01*
X147810578Y-105723126D01*
X147592937Y-105948128D01*
X147423374Y-106211266D01*
X147308404Y-106502428D01*
X147252446Y-106810425D01*
X140633401Y-106810425D01*
X114719000Y-80896025D01*
X114719000Y-63193106D01*
X114765406Y-63162099D01*
X114978099Y-62949406D01*
X115145210Y-62699306D01*
X115260319Y-62421410D01*
X115319000Y-62126396D01*
X115319000Y-61825604D01*
X115260319Y-61530590D01*
X115145210Y-61252694D01*
X114978099Y-61002594D01*
X114765406Y-60789901D01*
X114515306Y-60622790D01*
X114237410Y-60507681D01*
X113957478Y-60452000D01*
X114237410Y-60396319D01*
X114515306Y-60281210D01*
X114765406Y-60114099D01*
X114978099Y-59901406D01*
X115009106Y-59855000D01*
X118810473Y-59855000D01*
X118856000Y-59859484D01*
X118901527Y-59855000D01*
X118901538Y-59855000D01*
X119037724Y-59841587D01*
X119212464Y-59788580D01*
X119373505Y-59702501D01*
X119514659Y-59586659D01*
X119543688Y-59551287D01*
X148425426Y-30669549D01*
X149796500Y-30669549D01*
X149899810Y-30659374D01*
X149999150Y-30629239D01*
X150090702Y-30580304D01*
X150170948Y-30514448D01*
X150236804Y-30434202D01*
X150285739Y-30342650D01*
X150315874Y-30243310D01*
X150318088Y-30220831D01*
X150332774Y-30238726D01*
X150558058Y-30423611D01*
X150815082Y-30560993D01*
X151093968Y-30645592D01*
X151384000Y-30674158D01*
X151674033Y-30645592D01*
X151952919Y-30560993D01*
X152209943Y-30423611D01*
X152435226Y-30238726D01*
X152620111Y-30013443D01*
X152654000Y-29950041D01*
X152687889Y-30013443D01*
G37*
X152687889Y-30013443D02*
X152872774Y-30238726D01*
X153098058Y-30423611D01*
X153355082Y-30560993D01*
X153398731Y-30574234D01*
X159001001Y-36176505D01*
X159001000Y-63505110D01*
X158924690Y-63512626D01*
X158825350Y-63542761D01*
X158733798Y-63591696D01*
X158653552Y-63657552D01*
X158587696Y-63737798D01*
X158538761Y-63829350D01*
X158508626Y-63928690D01*
X158501110Y-64005000D01*
X152016504Y-64005000D01*
X147944797Y-59933294D01*
X147896976Y-59875024D01*
X147664460Y-59684203D01*
X147399185Y-59542410D01*
X147111344Y-59455095D01*
X146887011Y-59433000D01*
X146887001Y-59433000D01*
X146812000Y-59425613D01*
X146736999Y-59433000D01*
X137743000Y-59433000D01*
X137667999Y-59425613D01*
X137592998Y-59433000D01*
X137592989Y-59433000D01*
X137368656Y-59455095D01*
X137080815Y-59542410D01*
X136815540Y-59684203D01*
X136583024Y-59875024D01*
X136535208Y-59933288D01*
X134365294Y-62103203D01*
X134307024Y-62151024D01*
X134116203Y-62383541D01*
X133974410Y-62648816D01*
X133887095Y-62936657D01*
X133865000Y-63160990D01*
X133865000Y-63160999D01*
X133857613Y-63236000D01*
X133865000Y-63311001D01*
X133865001Y-77140980D01*
X133865000Y-77140990D01*
X133865001Y-85532989D01*
X133857613Y-85608000D01*
X133865001Y-85683011D01*
X133887096Y-85907344D01*
X133974411Y-86195185D01*
X134116204Y-86460460D01*
X134307025Y-86692976D01*
X134365289Y-86740792D01*
X149857000Y-102232504D01*
X149857001Y-105708984D01*
X149620067Y-105544907D01*
X149332888Y-105420320D01*
X149216980Y-105397437D01*
X148971000Y-105517406D01*
X148971000Y-107061000D01*
X148991000Y-107061000D01*
X148991000Y-107315000D01*
X148971000Y-107315000D01*
X148971000Y-108858594D01*
X149216980Y-108978563D01*
X149332888Y-108955680D01*
X149620067Y-108831093D01*
X149877422Y-108652874D01*
X150095063Y-108427872D01*
X150178373Y-108298587D01*
X150332774Y-108486726D01*
X150558057Y-108671611D01*
X150815081Y-108808993D01*
X151093967Y-108893592D01*
X151384000Y-108922158D01*
X151674032Y-108893592D01*
X151952918Y-108808993D01*
X152209942Y-108671611D01*
X152435226Y-108486726D01*
X152449912Y-108468831D01*
X152452126Y-108491310D01*
X152482261Y-108590650D01*
X152531196Y-108682202D01*
X152597052Y-108762448D01*
X152677298Y-108828304D01*
X152768850Y-108877239D01*
X152868190Y-108907374D01*
X152920498Y-108912526D01*
X152524025Y-109309000D01*
X143131976Y-109309000D01*
X141388551Y-107565575D01*
X147252446Y-107565575D01*
X147308404Y-107873572D01*
X147423374Y-108164734D01*
X147592937Y-108427872D01*
X147810578Y-108652874D01*
X148067933Y-108831093D01*
X148355112Y-108955680D01*
X148471020Y-108978563D01*
X148717000Y-108858594D01*
X148717000Y-107315000D01*
X147410442Y-107315000D01*
X147252446Y-107565575D01*
X141388551Y-107565575D01*
X140633401Y-106810425D01*
X147252446Y-106810425D01*
X147410442Y-107061000D01*
X148717000Y-107061000D01*
X148717000Y-105517406D01*
X148471020Y-105397437D01*
X148355112Y-105420320D01*
X148067933Y-105544907D01*
X147810578Y-105723126D01*
X147592937Y-105948128D01*
X147423374Y-106211266D01*
X147308404Y-106502428D01*
X147252446Y-106810425D01*
X140633401Y-106810425D01*
X114719000Y-80896025D01*
X114719000Y-63193106D01*
X114765406Y-63162099D01*
X114978099Y-62949406D01*
X115145210Y-62699306D01*
X115260319Y-62421410D01*
X115319000Y-62126396D01*
X115319000Y-61825604D01*
X115260319Y-61530590D01*
X115145210Y-61252694D01*
X114978099Y-61002594D01*
X114765406Y-60789901D01*
X114515306Y-60622790D01*
X114237410Y-60507681D01*
X113957478Y-60452000D01*
X114237410Y-60396319D01*
X114515306Y-60281210D01*
X114765406Y-60114099D01*
X114978099Y-59901406D01*
X115009106Y-59855000D01*
X118810473Y-59855000D01*
X118856000Y-59859484D01*
X118901527Y-59855000D01*
X118901538Y-59855000D01*
X119037724Y-59841587D01*
X119212464Y-59788580D01*
X119373505Y-59702501D01*
X119514659Y-59586659D01*
X119543688Y-59551287D01*
X148425426Y-30669549D01*
X149796500Y-30669549D01*
X149899810Y-30659374D01*
X149999150Y-30629239D01*
X150090702Y-30580304D01*
X150170948Y-30514448D01*
X150236804Y-30434202D01*
X150285739Y-30342650D01*
X150315874Y-30243310D01*
X150318088Y-30220831D01*
X150332774Y-30238726D01*
X150558058Y-30423611D01*
X150815082Y-30560993D01*
X151093968Y-30645592D01*
X151384000Y-30674158D01*
X151674033Y-30645592D01*
X151952919Y-30560993D01*
X152209943Y-30423611D01*
X152435226Y-30238726D01*
X152620111Y-30013443D01*
X152654000Y-29950041D01*
X152687889Y-30013443D01*
%TD*%
M02*
