M48
METRIC
T1C0.800
T2C1.100
T3C1.200
T4C1.520
T5C2.000
%
G90
G05
T1
X78.74Y-61.595
X94.488Y-61.468
X99.06Y-58.928
X99.06Y-61.976
X108.204Y-58.928
X108.204Y-61.976
X72.39Y-89.3
X72.39Y-99.46
X140.208Y-63.5
X140.208Y-67.3
X76.2Y-52.51
X76.2Y-55.05
X76.2Y-57.59
X67.31Y-36.43
X67.31Y-46.59
X67.31Y-89.3
X67.31Y-99.46
X67.31Y-52.51
X67.31Y-55.05
X67.31Y-57.59
X76.2Y-78.3
X76.2Y-80.84
X76.2Y-83.38
X71.755Y-36.43
X71.755Y-46.59
X140.208Y-85.344
X140.208Y-89.144
X67.31Y-78.3
X67.31Y-80.84
X67.31Y-83.38
T2
X124.968Y-107.188
X127.508Y-107.188
X130.048Y-107.188
X124.968Y-28.94
X127.508Y-28.94
X130.048Y-28.94
X106.68Y-28.94
X109.22Y-28.94
X111.76Y-28.94
X106.68Y-107.188
X109.22Y-107.188
X111.76Y-107.188
T3
X53.34Y-36.83
X53.34Y-57.15
X53.34Y-78.74
X53.34Y-99.06
X111.252Y-76.708
X141.732Y-76.708
X60.96Y-36.83
X60.96Y-57.15
X103.124Y-66.548
X133.604Y-66.548
X60.96Y-78.74
X60.96Y-99.06
T4
X35.56Y-78.74
X35.56Y-83.82
X35.56Y-88.9
X35.56Y-62.23
X35.56Y-67.31
X140.208Y-48.768
X140.208Y-53.848
T5
X87.63Y-88.495
X97.63Y-88.495
X87.63Y-47.63
X97.63Y-47.63
T0
M30
